M48
; DRILL file {KiCad 7.0.8} date Mon Oct  9 21:05:19 2023
; FORMAT={-:-/ absolute / inch / decimal}
; #@! TF.CreationDate,2023-10-09T21:05:19-03:00
; #@! TF.GenerationSoftware,Kicad,Pcbnew,7.0.8
; #@! TF.FileFunction,Plated,1,2,PTH
FMAT,2
INCH
; #@! TA.AperFunction,Plated,PTH,ViaDrill
T1C0.0120
; #@! TA.AperFunction,Plated,PTH,ComponentDrill
T2C0.0315
; #@! TA.AperFunction,Plated,PTH,ComponentDrill
T3C0.0394
; #@! TA.AperFunction,Plated,PTH,ComponentDrill
T4C0.0433
; #@! TA.AperFunction,Plated,PTH,ComponentDrill
T5C0.0472
; #@! TA.AperFunction,Plated,PTH,ComponentDrill
T6C0.0512
; #@! TA.AperFunction,Plated,PTH,ComponentDrill
T7C0.0543
; #@! TA.AperFunction,Plated,PTH,ComponentDrill
T8C0.0984
%
G90
G05
T1
X3.01Y-1.7
X3.195Y-3.455
X3.2Y-3.025
X3.545Y-3.68
X3.595Y-3.045
X3.8Y-3.71
X4.4Y-2.985
X4.425Y-3.59
X4.505Y-2.985
X4.545Y-4.385
X4.99Y-3.355
X5.145Y-3.06
X5.2Y-4.495
T2
X3.7Y-3.205
X3.7Y-3.505
X3.8Y-3.205
X3.8Y-3.505
X3.9Y-3.205
X3.9Y-3.505
X4.0Y-3.205
X4.0Y-3.505
X4.1Y-3.205
X4.1Y-3.505
X4.2Y-3.205
X4.2Y-3.505
X4.3Y-3.205
X4.3Y-3.505
X4.4Y-3.205
X4.4Y-3.505
X4.5Y-3.205
X4.5Y-3.505
X4.6Y-3.205
X4.6Y-3.505
X4.7Y-3.205
X4.7Y-3.505
X4.8Y-3.205
X4.8Y-3.505
X4.9Y-3.205
X4.9Y-3.505
X5.0Y-3.205
X5.0Y-3.505
T3
X2.8491Y-3.0128
X2.8491Y-3.19
X2.85Y-3.3728
X2.85Y-3.55
X3.105Y-3.0128
X3.105Y-3.19
X3.1059Y-3.3728
X3.1059Y-3.55
X3.605Y-4.385
X3.805Y-4.385
T4
X3.56Y-3.965
X3.66Y-3.965
X3.76Y-3.965
X3.86Y-3.965
X3.96Y-3.965
X4.06Y-3.965
X5.235Y-3.065
X5.235Y-3.165
X5.335Y-3.065
X5.335Y-3.165
X5.435Y-3.065
X5.435Y-3.165
T5
X3.1Y-1.5
X3.2Y-1.5
X3.3Y-1.5
X3.4Y-1.5
X3.5Y-1.5
X3.6Y-1.5
X3.7Y-1.5
X3.8Y-1.5
X3.9Y-1.5
X4.0Y-1.5
X4.1Y-1.5
X4.2Y-1.5
X4.3Y-1.5
X4.4Y-1.5
X4.5Y-1.5
X4.6Y-1.5
T6
X2.955Y-4.535
X3.255Y-4.535
X5.675Y-3.62
X5.675Y-3.92
T7
X5.71Y-4.35
X5.71Y-4.45
X5.71Y-4.55
T8
X2.8835Y-1.5
X2.8835Y-2.7205
X5.8362Y-2.7205
X5.8362Y-1.5
T0
M30
