%TF.GenerationSoftware,KiCad,Pcbnew,7.0.8*%
%TF.CreationDate,2023-10-09T21:05:16-03:00*%
%TF.ProjectId,PlacaTeste_Sillion,506c6163-6154-4657-9374-655f53696c6c,r1.0*%
%TF.SameCoordinates,Original*%
%TF.FileFunction,Legend,Top*%
%TF.FilePolarity,Positive*%
%FSLAX46Y46*%
G04 Gerber Fmt 4.6, Leading zero omitted, Abs format (unit mm)*
G04 Created by KiCad (PCBNEW 7.0.8) date 2023-10-09 21:05:16*
%MOMM*%
%LPD*%
G01*
G04 APERTURE LIST*
%ADD10C,0.150000*%
%ADD11C,0.088900*%
%ADD12C,0.080010*%
%ADD13C,0.254000*%
%ADD14C,0.200000*%
%ADD15C,0.100000*%
%ADD16C,0.120000*%
%ADD17C,0.050000*%
G04 APERTURE END LIST*
D10*
X103374819Y-97897792D02*
X102898628Y-98231125D01*
X103374819Y-98469220D02*
X102374819Y-98469220D01*
X102374819Y-98469220D02*
X102374819Y-98088268D01*
X102374819Y-98088268D02*
X102422438Y-97993030D01*
X102422438Y-97993030D02*
X102470057Y-97945411D01*
X102470057Y-97945411D02*
X102565295Y-97897792D01*
X102565295Y-97897792D02*
X102708152Y-97897792D01*
X102708152Y-97897792D02*
X102803390Y-97945411D01*
X102803390Y-97945411D02*
X102851009Y-97993030D01*
X102851009Y-97993030D02*
X102898628Y-98088268D01*
X102898628Y-98088268D02*
X102898628Y-98469220D01*
X102374819Y-97612077D02*
X102374819Y-97040649D01*
X103374819Y-97326363D02*
X102374819Y-97326363D01*
X103327200Y-96754934D02*
X103374819Y-96612077D01*
X103374819Y-96612077D02*
X103374819Y-96373982D01*
X103374819Y-96373982D02*
X103327200Y-96278744D01*
X103327200Y-96278744D02*
X103279580Y-96231125D01*
X103279580Y-96231125D02*
X103184342Y-96183506D01*
X103184342Y-96183506D02*
X103089104Y-96183506D01*
X103089104Y-96183506D02*
X102993866Y-96231125D01*
X102993866Y-96231125D02*
X102946247Y-96278744D01*
X102946247Y-96278744D02*
X102898628Y-96373982D01*
X102898628Y-96373982D02*
X102851009Y-96564458D01*
X102851009Y-96564458D02*
X102803390Y-96659696D01*
X102803390Y-96659696D02*
X102755771Y-96707315D01*
X102755771Y-96707315D02*
X102660533Y-96754934D01*
X102660533Y-96754934D02*
X102565295Y-96754934D01*
X102565295Y-96754934D02*
X102470057Y-96707315D01*
X102470057Y-96707315D02*
X102422438Y-96659696D01*
X102422438Y-96659696D02*
X102374819Y-96564458D01*
X102374819Y-96564458D02*
X102374819Y-96326363D01*
X102374819Y-96326363D02*
X102422438Y-96183506D01*
X136099779Y-90039866D02*
X136861684Y-90039866D01*
X136480731Y-90420819D02*
X136480731Y-89658914D01*
X93373580Y-98024792D02*
X93421200Y-98072411D01*
X93421200Y-98072411D02*
X93468819Y-98215268D01*
X93468819Y-98215268D02*
X93468819Y-98310506D01*
X93468819Y-98310506D02*
X93421200Y-98453363D01*
X93421200Y-98453363D02*
X93325961Y-98548601D01*
X93325961Y-98548601D02*
X93230723Y-98596220D01*
X93230723Y-98596220D02*
X93040247Y-98643839D01*
X93040247Y-98643839D02*
X92897390Y-98643839D01*
X92897390Y-98643839D02*
X92706914Y-98596220D01*
X92706914Y-98596220D02*
X92611676Y-98548601D01*
X92611676Y-98548601D02*
X92516438Y-98453363D01*
X92516438Y-98453363D02*
X92468819Y-98310506D01*
X92468819Y-98310506D02*
X92468819Y-98215268D01*
X92468819Y-98215268D02*
X92516438Y-98072411D01*
X92516438Y-98072411D02*
X92564057Y-98024792D01*
X92468819Y-97739077D02*
X92468819Y-97167649D01*
X93468819Y-97453363D02*
X92468819Y-97453363D01*
X93421200Y-96881934D02*
X93468819Y-96739077D01*
X93468819Y-96739077D02*
X93468819Y-96500982D01*
X93468819Y-96500982D02*
X93421200Y-96405744D01*
X93421200Y-96405744D02*
X93373580Y-96358125D01*
X93373580Y-96358125D02*
X93278342Y-96310506D01*
X93278342Y-96310506D02*
X93183104Y-96310506D01*
X93183104Y-96310506D02*
X93087866Y-96358125D01*
X93087866Y-96358125D02*
X93040247Y-96405744D01*
X93040247Y-96405744D02*
X92992628Y-96500982D01*
X92992628Y-96500982D02*
X92945009Y-96691458D01*
X92945009Y-96691458D02*
X92897390Y-96786696D01*
X92897390Y-96786696D02*
X92849771Y-96834315D01*
X92849771Y-96834315D02*
X92754533Y-96881934D01*
X92754533Y-96881934D02*
X92659295Y-96881934D01*
X92659295Y-96881934D02*
X92564057Y-96834315D01*
X92564057Y-96834315D02*
X92516438Y-96786696D01*
X92516438Y-96786696D02*
X92468819Y-96691458D01*
X92468819Y-96691458D02*
X92468819Y-96453363D01*
X92468819Y-96453363D02*
X92516438Y-96310506D01*
X87992009Y-98135887D02*
X87992009Y-98469220D01*
X88515819Y-98469220D02*
X87515819Y-98469220D01*
X87515819Y-98469220D02*
X87515819Y-97993030D01*
X87515819Y-97754934D02*
X87515819Y-97183506D01*
X88515819Y-97469220D02*
X87515819Y-97469220D01*
X88515819Y-96850172D02*
X87515819Y-96850172D01*
X87515819Y-96850172D02*
X87515819Y-96612077D01*
X87515819Y-96612077D02*
X87563438Y-96469220D01*
X87563438Y-96469220D02*
X87658676Y-96373982D01*
X87658676Y-96373982D02*
X87753914Y-96326363D01*
X87753914Y-96326363D02*
X87944390Y-96278744D01*
X87944390Y-96278744D02*
X88087247Y-96278744D01*
X88087247Y-96278744D02*
X88277723Y-96326363D01*
X88277723Y-96326363D02*
X88372961Y-96373982D01*
X88372961Y-96373982D02*
X88468200Y-96469220D01*
X88468200Y-96469220D02*
X88515819Y-96612077D01*
X88515819Y-96612077D02*
X88515819Y-96850172D01*
X88515819Y-95850172D02*
X87515819Y-95850172D01*
X137601438Y-75085411D02*
X137553819Y-75180649D01*
X137553819Y-75180649D02*
X137553819Y-75323506D01*
X137553819Y-75323506D02*
X137601438Y-75466363D01*
X137601438Y-75466363D02*
X137696676Y-75561601D01*
X137696676Y-75561601D02*
X137791914Y-75609220D01*
X137791914Y-75609220D02*
X137982390Y-75656839D01*
X137982390Y-75656839D02*
X138125247Y-75656839D01*
X138125247Y-75656839D02*
X138315723Y-75609220D01*
X138315723Y-75609220D02*
X138410961Y-75561601D01*
X138410961Y-75561601D02*
X138506200Y-75466363D01*
X138506200Y-75466363D02*
X138553819Y-75323506D01*
X138553819Y-75323506D02*
X138553819Y-75228268D01*
X138553819Y-75228268D02*
X138506200Y-75085411D01*
X138506200Y-75085411D02*
X138458580Y-75037792D01*
X138458580Y-75037792D02*
X138125247Y-75037792D01*
X138125247Y-75037792D02*
X138125247Y-75228268D01*
X138553819Y-74609220D02*
X137553819Y-74609220D01*
X137553819Y-74609220D02*
X138553819Y-74037792D01*
X138553819Y-74037792D02*
X137553819Y-74037792D01*
X138553819Y-73561601D02*
X137553819Y-73561601D01*
X137553819Y-73561601D02*
X137553819Y-73323506D01*
X137553819Y-73323506D02*
X137601438Y-73180649D01*
X137601438Y-73180649D02*
X137696676Y-73085411D01*
X137696676Y-73085411D02*
X137791914Y-73037792D01*
X137791914Y-73037792D02*
X137982390Y-72990173D01*
X137982390Y-72990173D02*
X138125247Y-72990173D01*
X138125247Y-72990173D02*
X138315723Y-73037792D01*
X138315723Y-73037792D02*
X138410961Y-73085411D01*
X138410961Y-73085411D02*
X138506200Y-73180649D01*
X138506200Y-73180649D02*
X138553819Y-73323506D01*
X138553819Y-73323506D02*
X138553819Y-73561601D01*
X82505779Y-106549866D02*
X83267684Y-106549866D01*
X137633200Y-85562935D02*
X138918914Y-86420077D01*
X138680819Y-84658173D02*
X138204628Y-84991506D01*
X138680819Y-85229601D02*
X137680819Y-85229601D01*
X137680819Y-85229601D02*
X137680819Y-84848649D01*
X137680819Y-84848649D02*
X137728438Y-84753411D01*
X137728438Y-84753411D02*
X137776057Y-84705792D01*
X137776057Y-84705792D02*
X137871295Y-84658173D01*
X137871295Y-84658173D02*
X138014152Y-84658173D01*
X138014152Y-84658173D02*
X138109390Y-84705792D01*
X138109390Y-84705792D02*
X138157009Y-84753411D01*
X138157009Y-84753411D02*
X138204628Y-84848649D01*
X138204628Y-84848649D02*
X138204628Y-85229601D01*
X138633200Y-84277220D02*
X138680819Y-84134363D01*
X138680819Y-84134363D02*
X138680819Y-83896268D01*
X138680819Y-83896268D02*
X138633200Y-83801030D01*
X138633200Y-83801030D02*
X138585580Y-83753411D01*
X138585580Y-83753411D02*
X138490342Y-83705792D01*
X138490342Y-83705792D02*
X138395104Y-83705792D01*
X138395104Y-83705792D02*
X138299866Y-83753411D01*
X138299866Y-83753411D02*
X138252247Y-83801030D01*
X138252247Y-83801030D02*
X138204628Y-83896268D01*
X138204628Y-83896268D02*
X138157009Y-84086744D01*
X138157009Y-84086744D02*
X138109390Y-84181982D01*
X138109390Y-84181982D02*
X138061771Y-84229601D01*
X138061771Y-84229601D02*
X137966533Y-84277220D01*
X137966533Y-84277220D02*
X137871295Y-84277220D01*
X137871295Y-84277220D02*
X137776057Y-84229601D01*
X137776057Y-84229601D02*
X137728438Y-84181982D01*
X137728438Y-84181982D02*
X137680819Y-84086744D01*
X137680819Y-84086744D02*
X137680819Y-83848649D01*
X137680819Y-83848649D02*
X137728438Y-83705792D01*
X137680819Y-83420077D02*
X137680819Y-82848649D01*
X138680819Y-83134363D02*
X137680819Y-83134363D01*
X132600819Y-75879077D02*
X133600819Y-75545744D01*
X133600819Y-75545744D02*
X132600819Y-75212411D01*
X133505580Y-74307649D02*
X133553200Y-74355268D01*
X133553200Y-74355268D02*
X133600819Y-74498125D01*
X133600819Y-74498125D02*
X133600819Y-74593363D01*
X133600819Y-74593363D02*
X133553200Y-74736220D01*
X133553200Y-74736220D02*
X133457961Y-74831458D01*
X133457961Y-74831458D02*
X133362723Y-74879077D01*
X133362723Y-74879077D02*
X133172247Y-74926696D01*
X133172247Y-74926696D02*
X133029390Y-74926696D01*
X133029390Y-74926696D02*
X132838914Y-74879077D01*
X132838914Y-74879077D02*
X132743676Y-74831458D01*
X132743676Y-74831458D02*
X132648438Y-74736220D01*
X132648438Y-74736220D02*
X132600819Y-74593363D01*
X132600819Y-74593363D02*
X132600819Y-74498125D01*
X132600819Y-74498125D02*
X132648438Y-74355268D01*
X132648438Y-74355268D02*
X132696057Y-74307649D01*
X133505580Y-73307649D02*
X133553200Y-73355268D01*
X133553200Y-73355268D02*
X133600819Y-73498125D01*
X133600819Y-73498125D02*
X133600819Y-73593363D01*
X133600819Y-73593363D02*
X133553200Y-73736220D01*
X133553200Y-73736220D02*
X133457961Y-73831458D01*
X133457961Y-73831458D02*
X133362723Y-73879077D01*
X133362723Y-73879077D02*
X133172247Y-73926696D01*
X133172247Y-73926696D02*
X133029390Y-73926696D01*
X133029390Y-73926696D02*
X132838914Y-73879077D01*
X132838914Y-73879077D02*
X132743676Y-73831458D01*
X132743676Y-73831458D02*
X132648438Y-73736220D01*
X132648438Y-73736220D02*
X132600819Y-73593363D01*
X132600819Y-73593363D02*
X132600819Y-73498125D01*
X132600819Y-73498125D02*
X132648438Y-73355268D01*
X132648438Y-73355268D02*
X132696057Y-73307649D01*
D11*
X110554533Y-106486207D02*
X110264247Y-106486207D01*
X110409390Y-106486207D02*
X110409390Y-105978207D01*
X110409390Y-105978207D02*
X110361009Y-106050778D01*
X110361009Y-106050778D02*
X110312628Y-106099159D01*
X110312628Y-106099159D02*
X110264247Y-106123350D01*
X110869010Y-105978207D02*
X110917391Y-105978207D01*
X110917391Y-105978207D02*
X110965772Y-106002397D01*
X110965772Y-106002397D02*
X110989962Y-106026588D01*
X110989962Y-106026588D02*
X111014153Y-106074969D01*
X111014153Y-106074969D02*
X111038343Y-106171731D01*
X111038343Y-106171731D02*
X111038343Y-106292683D01*
X111038343Y-106292683D02*
X111014153Y-106389445D01*
X111014153Y-106389445D02*
X110989962Y-106437826D01*
X110989962Y-106437826D02*
X110965772Y-106462017D01*
X110965772Y-106462017D02*
X110917391Y-106486207D01*
X110917391Y-106486207D02*
X110869010Y-106486207D01*
X110869010Y-106486207D02*
X110820629Y-106462017D01*
X110820629Y-106462017D02*
X110796438Y-106437826D01*
X110796438Y-106437826D02*
X110772248Y-106389445D01*
X110772248Y-106389445D02*
X110748057Y-106292683D01*
X110748057Y-106292683D02*
X110748057Y-106171731D01*
X110748057Y-106171731D02*
X110772248Y-106074969D01*
X110772248Y-106074969D02*
X110796438Y-106026588D01*
X110796438Y-106026588D02*
X110820629Y-106002397D01*
X110820629Y-106002397D02*
X110869010Y-105978207D01*
X111618915Y-105954017D02*
X111183486Y-106607159D01*
X112054343Y-106486207D02*
X111764057Y-106486207D01*
X111909200Y-106486207D02*
X111909200Y-105978207D01*
X111909200Y-105978207D02*
X111860819Y-106050778D01*
X111860819Y-106050778D02*
X111812438Y-106099159D01*
X111812438Y-106099159D02*
X111764057Y-106123350D01*
X112368820Y-105978207D02*
X112417201Y-105978207D01*
X112417201Y-105978207D02*
X112465582Y-106002397D01*
X112465582Y-106002397D02*
X112489772Y-106026588D01*
X112489772Y-106026588D02*
X112513963Y-106074969D01*
X112513963Y-106074969D02*
X112538153Y-106171731D01*
X112538153Y-106171731D02*
X112538153Y-106292683D01*
X112538153Y-106292683D02*
X112513963Y-106389445D01*
X112513963Y-106389445D02*
X112489772Y-106437826D01*
X112489772Y-106437826D02*
X112465582Y-106462017D01*
X112465582Y-106462017D02*
X112417201Y-106486207D01*
X112417201Y-106486207D02*
X112368820Y-106486207D01*
X112368820Y-106486207D02*
X112320439Y-106462017D01*
X112320439Y-106462017D02*
X112296248Y-106437826D01*
X112296248Y-106437826D02*
X112272058Y-106389445D01*
X112272058Y-106389445D02*
X112247867Y-106292683D01*
X112247867Y-106292683D02*
X112247867Y-106171731D01*
X112247867Y-106171731D02*
X112272058Y-106074969D01*
X112272058Y-106074969D02*
X112296248Y-106026588D01*
X112296248Y-106026588D02*
X112320439Y-106002397D01*
X112320439Y-106002397D02*
X112368820Y-105978207D01*
X113118725Y-105954017D02*
X112683296Y-106607159D01*
X113263867Y-106026588D02*
X113288058Y-106002397D01*
X113288058Y-106002397D02*
X113336439Y-105978207D01*
X113336439Y-105978207D02*
X113457391Y-105978207D01*
X113457391Y-105978207D02*
X113505772Y-106002397D01*
X113505772Y-106002397D02*
X113529963Y-106026588D01*
X113529963Y-106026588D02*
X113554153Y-106074969D01*
X113554153Y-106074969D02*
X113554153Y-106123350D01*
X113554153Y-106123350D02*
X113529963Y-106195921D01*
X113529963Y-106195921D02*
X113239677Y-106486207D01*
X113239677Y-106486207D02*
X113554153Y-106486207D01*
X113868630Y-105978207D02*
X113917011Y-105978207D01*
X113917011Y-105978207D02*
X113965392Y-106002397D01*
X113965392Y-106002397D02*
X113989582Y-106026588D01*
X113989582Y-106026588D02*
X114013773Y-106074969D01*
X114013773Y-106074969D02*
X114037963Y-106171731D01*
X114037963Y-106171731D02*
X114037963Y-106292683D01*
X114037963Y-106292683D02*
X114013773Y-106389445D01*
X114013773Y-106389445D02*
X113989582Y-106437826D01*
X113989582Y-106437826D02*
X113965392Y-106462017D01*
X113965392Y-106462017D02*
X113917011Y-106486207D01*
X113917011Y-106486207D02*
X113868630Y-106486207D01*
X113868630Y-106486207D02*
X113820249Y-106462017D01*
X113820249Y-106462017D02*
X113796058Y-106437826D01*
X113796058Y-106437826D02*
X113771868Y-106389445D01*
X113771868Y-106389445D02*
X113747677Y-106292683D01*
X113747677Y-106292683D02*
X113747677Y-106171731D01*
X113747677Y-106171731D02*
X113771868Y-106074969D01*
X113771868Y-106074969D02*
X113796058Y-106026588D01*
X113796058Y-106026588D02*
X113820249Y-106002397D01*
X113820249Y-106002397D02*
X113868630Y-105978207D01*
X114231487Y-106026588D02*
X114255678Y-106002397D01*
X114255678Y-106002397D02*
X114304059Y-105978207D01*
X114304059Y-105978207D02*
X114425011Y-105978207D01*
X114425011Y-105978207D02*
X114473392Y-106002397D01*
X114473392Y-106002397D02*
X114497583Y-106026588D01*
X114497583Y-106026588D02*
X114521773Y-106074969D01*
X114521773Y-106074969D02*
X114521773Y-106123350D01*
X114521773Y-106123350D02*
X114497583Y-106195921D01*
X114497583Y-106195921D02*
X114207297Y-106486207D01*
X114207297Y-106486207D02*
X114521773Y-106486207D01*
X114691107Y-105978207D02*
X115005583Y-105978207D01*
X115005583Y-105978207D02*
X114836250Y-106171731D01*
X114836250Y-106171731D02*
X114908821Y-106171731D01*
X114908821Y-106171731D02*
X114957202Y-106195921D01*
X114957202Y-106195921D02*
X114981393Y-106220112D01*
X114981393Y-106220112D02*
X115005583Y-106268493D01*
X115005583Y-106268493D02*
X115005583Y-106389445D01*
X115005583Y-106389445D02*
X114981393Y-106437826D01*
X114981393Y-106437826D02*
X114957202Y-106462017D01*
X114957202Y-106462017D02*
X114908821Y-106486207D01*
X114908821Y-106486207D02*
X114763678Y-106486207D01*
X114763678Y-106486207D02*
X114715297Y-106462017D01*
X114715297Y-106462017D02*
X114691107Y-106437826D01*
X110318676Y-105581665D02*
X110318676Y-104946665D01*
X110318676Y-104946665D02*
X110469866Y-104946665D01*
X110469866Y-104946665D02*
X110560581Y-104976903D01*
X110560581Y-104976903D02*
X110621057Y-105037379D01*
X110621057Y-105037379D02*
X110651295Y-105097855D01*
X110651295Y-105097855D02*
X110681533Y-105218807D01*
X110681533Y-105218807D02*
X110681533Y-105309522D01*
X110681533Y-105309522D02*
X110651295Y-105430474D01*
X110651295Y-105430474D02*
X110621057Y-105490950D01*
X110621057Y-105490950D02*
X110560581Y-105551427D01*
X110560581Y-105551427D02*
X110469866Y-105581665D01*
X110469866Y-105581665D02*
X110318676Y-105581665D01*
X111195581Y-105551427D02*
X111135105Y-105581665D01*
X111135105Y-105581665D02*
X111014152Y-105581665D01*
X111014152Y-105581665D02*
X110953676Y-105551427D01*
X110953676Y-105551427D02*
X110923438Y-105490950D01*
X110923438Y-105490950D02*
X110923438Y-105249046D01*
X110923438Y-105249046D02*
X110953676Y-105188569D01*
X110953676Y-105188569D02*
X111014152Y-105158331D01*
X111014152Y-105158331D02*
X111135105Y-105158331D01*
X111135105Y-105158331D02*
X111195581Y-105188569D01*
X111195581Y-105188569D02*
X111225819Y-105249046D01*
X111225819Y-105249046D02*
X111225819Y-105309522D01*
X111225819Y-105309522D02*
X110923438Y-105369998D01*
X111467724Y-105551427D02*
X111528200Y-105581665D01*
X111528200Y-105581665D02*
X111649152Y-105581665D01*
X111649152Y-105581665D02*
X111709629Y-105551427D01*
X111709629Y-105551427D02*
X111739867Y-105490950D01*
X111739867Y-105490950D02*
X111739867Y-105460712D01*
X111739867Y-105460712D02*
X111709629Y-105400236D01*
X111709629Y-105400236D02*
X111649152Y-105369998D01*
X111649152Y-105369998D02*
X111558438Y-105369998D01*
X111558438Y-105369998D02*
X111497962Y-105339760D01*
X111497962Y-105339760D02*
X111467724Y-105279284D01*
X111467724Y-105279284D02*
X111467724Y-105249046D01*
X111467724Y-105249046D02*
X111497962Y-105188569D01*
X111497962Y-105188569D02*
X111558438Y-105158331D01*
X111558438Y-105158331D02*
X111649152Y-105158331D01*
X111649152Y-105158331D02*
X111709629Y-105188569D01*
X112284153Y-105581665D02*
X112284153Y-105249046D01*
X112284153Y-105249046D02*
X112253915Y-105188569D01*
X112253915Y-105188569D02*
X112193439Y-105158331D01*
X112193439Y-105158331D02*
X112072486Y-105158331D01*
X112072486Y-105158331D02*
X112012010Y-105188569D01*
X112284153Y-105551427D02*
X112223677Y-105581665D01*
X112223677Y-105581665D02*
X112072486Y-105581665D01*
X112072486Y-105581665D02*
X112012010Y-105551427D01*
X112012010Y-105551427D02*
X111981772Y-105490950D01*
X111981772Y-105490950D02*
X111981772Y-105430474D01*
X111981772Y-105430474D02*
X112012010Y-105369998D01*
X112012010Y-105369998D02*
X112072486Y-105339760D01*
X112072486Y-105339760D02*
X112223677Y-105339760D01*
X112223677Y-105339760D02*
X112284153Y-105309522D01*
X112495820Y-105158331D02*
X112737724Y-105158331D01*
X112586534Y-105581665D02*
X112586534Y-105037379D01*
X112586534Y-105037379D02*
X112616772Y-104976903D01*
X112616772Y-104976903D02*
X112677248Y-104946665D01*
X112677248Y-104946665D02*
X112737724Y-104946665D01*
X112949391Y-105581665D02*
X112949391Y-105158331D01*
X112949391Y-104946665D02*
X112919153Y-104976903D01*
X112919153Y-104976903D02*
X112949391Y-105007141D01*
X112949391Y-105007141D02*
X112979629Y-104976903D01*
X112979629Y-104976903D02*
X112949391Y-104946665D01*
X112949391Y-104946665D02*
X112949391Y-105007141D01*
X113342486Y-105581665D02*
X113282010Y-105551427D01*
X113282010Y-105551427D02*
X113251772Y-105521188D01*
X113251772Y-105521188D02*
X113221534Y-105460712D01*
X113221534Y-105460712D02*
X113221534Y-105279284D01*
X113221534Y-105279284D02*
X113251772Y-105218807D01*
X113251772Y-105218807D02*
X113282010Y-105188569D01*
X113282010Y-105188569D02*
X113342486Y-105158331D01*
X113342486Y-105158331D02*
X113433201Y-105158331D01*
X113433201Y-105158331D02*
X113493677Y-105188569D01*
X113493677Y-105188569D02*
X113523915Y-105218807D01*
X113523915Y-105218807D02*
X113554153Y-105279284D01*
X113554153Y-105279284D02*
X113554153Y-105460712D01*
X113554153Y-105460712D02*
X113523915Y-105521188D01*
X113523915Y-105521188D02*
X113493677Y-105551427D01*
X113493677Y-105551427D02*
X113433201Y-105581665D01*
X113433201Y-105581665D02*
X113342486Y-105581665D01*
X114310106Y-105581665D02*
X114310106Y-104946665D01*
X114310106Y-105249046D02*
X114672963Y-105249046D01*
X114672963Y-105581665D02*
X114672963Y-104946665D01*
X115247487Y-105581665D02*
X115247487Y-105249046D01*
X115247487Y-105249046D02*
X115217249Y-105188569D01*
X115217249Y-105188569D02*
X115156773Y-105158331D01*
X115156773Y-105158331D02*
X115035820Y-105158331D01*
X115035820Y-105158331D02*
X114975344Y-105188569D01*
X115247487Y-105551427D02*
X115187011Y-105581665D01*
X115187011Y-105581665D02*
X115035820Y-105581665D01*
X115035820Y-105581665D02*
X114975344Y-105551427D01*
X114975344Y-105551427D02*
X114945106Y-105490950D01*
X114945106Y-105490950D02*
X114945106Y-105430474D01*
X114945106Y-105430474D02*
X114975344Y-105369998D01*
X114975344Y-105369998D02*
X115035820Y-105339760D01*
X115035820Y-105339760D02*
X115187011Y-105339760D01*
X115187011Y-105339760D02*
X115247487Y-105309522D01*
X115549868Y-105581665D02*
X115549868Y-105158331D01*
X115549868Y-105279284D02*
X115580106Y-105218807D01*
X115580106Y-105218807D02*
X115610344Y-105188569D01*
X115610344Y-105188569D02*
X115670820Y-105158331D01*
X115670820Y-105158331D02*
X115731297Y-105158331D01*
X116215106Y-105581665D02*
X116215106Y-104946665D01*
X116215106Y-105551427D02*
X116154630Y-105581665D01*
X116154630Y-105581665D02*
X116033677Y-105581665D01*
X116033677Y-105581665D02*
X115973201Y-105551427D01*
X115973201Y-105551427D02*
X115942963Y-105521188D01*
X115942963Y-105521188D02*
X115912725Y-105460712D01*
X115912725Y-105460712D02*
X115912725Y-105279284D01*
X115912725Y-105279284D02*
X115942963Y-105218807D01*
X115942963Y-105218807D02*
X115973201Y-105188569D01*
X115973201Y-105188569D02*
X116033677Y-105158331D01*
X116033677Y-105158331D02*
X116154630Y-105158331D01*
X116154630Y-105158331D02*
X116215106Y-105188569D01*
X116457011Y-105158331D02*
X116577963Y-105581665D01*
X116577963Y-105581665D02*
X116698916Y-105279284D01*
X116698916Y-105279284D02*
X116819868Y-105581665D01*
X116819868Y-105581665D02*
X116940820Y-105158331D01*
X117454868Y-105581665D02*
X117454868Y-105249046D01*
X117454868Y-105249046D02*
X117424630Y-105188569D01*
X117424630Y-105188569D02*
X117364154Y-105158331D01*
X117364154Y-105158331D02*
X117243201Y-105158331D01*
X117243201Y-105158331D02*
X117182725Y-105188569D01*
X117454868Y-105551427D02*
X117394392Y-105581665D01*
X117394392Y-105581665D02*
X117243201Y-105581665D01*
X117243201Y-105581665D02*
X117182725Y-105551427D01*
X117182725Y-105551427D02*
X117152487Y-105490950D01*
X117152487Y-105490950D02*
X117152487Y-105430474D01*
X117152487Y-105430474D02*
X117182725Y-105369998D01*
X117182725Y-105369998D02*
X117243201Y-105339760D01*
X117243201Y-105339760D02*
X117394392Y-105339760D01*
X117394392Y-105339760D02*
X117454868Y-105309522D01*
X117757249Y-105581665D02*
X117757249Y-105158331D01*
X117757249Y-105279284D02*
X117787487Y-105218807D01*
X117787487Y-105218807D02*
X117817725Y-105188569D01*
X117817725Y-105188569D02*
X117878201Y-105158331D01*
X117878201Y-105158331D02*
X117938678Y-105158331D01*
X118392249Y-105551427D02*
X118331773Y-105581665D01*
X118331773Y-105581665D02*
X118210820Y-105581665D01*
X118210820Y-105581665D02*
X118150344Y-105551427D01*
X118150344Y-105551427D02*
X118120106Y-105490950D01*
X118120106Y-105490950D02*
X118120106Y-105249046D01*
X118120106Y-105249046D02*
X118150344Y-105188569D01*
X118150344Y-105188569D02*
X118210820Y-105158331D01*
X118210820Y-105158331D02*
X118331773Y-105158331D01*
X118331773Y-105158331D02*
X118392249Y-105188569D01*
X118392249Y-105188569D02*
X118422487Y-105249046D01*
X118422487Y-105249046D02*
X118422487Y-105309522D01*
X118422487Y-105309522D02*
X118120106Y-105369998D01*
X119148201Y-104916427D02*
X118603916Y-105732855D01*
X119571535Y-105249046D02*
X119359868Y-105249046D01*
X119359868Y-105581665D02*
X119359868Y-104946665D01*
X119359868Y-104946665D02*
X119662249Y-104946665D01*
X119904154Y-105581665D02*
X119904154Y-105158331D01*
X119904154Y-104946665D02*
X119873916Y-104976903D01*
X119873916Y-104976903D02*
X119904154Y-105007141D01*
X119904154Y-105007141D02*
X119934392Y-104976903D01*
X119934392Y-104976903D02*
X119904154Y-104946665D01*
X119904154Y-104946665D02*
X119904154Y-105007141D01*
X120206535Y-105581665D02*
X120206535Y-105158331D01*
X120206535Y-105279284D02*
X120236773Y-105218807D01*
X120236773Y-105218807D02*
X120267011Y-105188569D01*
X120267011Y-105188569D02*
X120327487Y-105158331D01*
X120327487Y-105158331D02*
X120387964Y-105158331D01*
X120599630Y-105581665D02*
X120599630Y-105158331D01*
X120599630Y-105218807D02*
X120629868Y-105188569D01*
X120629868Y-105188569D02*
X120690344Y-105158331D01*
X120690344Y-105158331D02*
X120781059Y-105158331D01*
X120781059Y-105158331D02*
X120841535Y-105188569D01*
X120841535Y-105188569D02*
X120871773Y-105249046D01*
X120871773Y-105249046D02*
X120871773Y-105581665D01*
X120871773Y-105249046D02*
X120902011Y-105188569D01*
X120902011Y-105188569D02*
X120962487Y-105158331D01*
X120962487Y-105158331D02*
X121053201Y-105158331D01*
X121053201Y-105158331D02*
X121113678Y-105188569D01*
X121113678Y-105188569D02*
X121143916Y-105249046D01*
X121143916Y-105249046D02*
X121143916Y-105581665D01*
X121385821Y-105158331D02*
X121506773Y-105581665D01*
X121506773Y-105581665D02*
X121627726Y-105279284D01*
X121627726Y-105279284D02*
X121748678Y-105581665D01*
X121748678Y-105581665D02*
X121869630Y-105158331D01*
X122383678Y-105581665D02*
X122383678Y-105249046D01*
X122383678Y-105249046D02*
X122353440Y-105188569D01*
X122353440Y-105188569D02*
X122292964Y-105158331D01*
X122292964Y-105158331D02*
X122172011Y-105158331D01*
X122172011Y-105158331D02*
X122111535Y-105188569D01*
X122383678Y-105551427D02*
X122323202Y-105581665D01*
X122323202Y-105581665D02*
X122172011Y-105581665D01*
X122172011Y-105581665D02*
X122111535Y-105551427D01*
X122111535Y-105551427D02*
X122081297Y-105490950D01*
X122081297Y-105490950D02*
X122081297Y-105430474D01*
X122081297Y-105430474D02*
X122111535Y-105369998D01*
X122111535Y-105369998D02*
X122172011Y-105339760D01*
X122172011Y-105339760D02*
X122323202Y-105339760D01*
X122323202Y-105339760D02*
X122383678Y-105309522D01*
X122686059Y-105581665D02*
X122686059Y-105158331D01*
X122686059Y-105279284D02*
X122716297Y-105218807D01*
X122716297Y-105218807D02*
X122746535Y-105188569D01*
X122746535Y-105188569D02*
X122807011Y-105158331D01*
X122807011Y-105158331D02*
X122867488Y-105158331D01*
X123321059Y-105551427D02*
X123260583Y-105581665D01*
X123260583Y-105581665D02*
X123139630Y-105581665D01*
X123139630Y-105581665D02*
X123079154Y-105551427D01*
X123079154Y-105551427D02*
X123048916Y-105490950D01*
X123048916Y-105490950D02*
X123048916Y-105249046D01*
X123048916Y-105249046D02*
X123079154Y-105188569D01*
X123079154Y-105188569D02*
X123139630Y-105158331D01*
X123139630Y-105158331D02*
X123260583Y-105158331D01*
X123260583Y-105158331D02*
X123321059Y-105188569D01*
X123321059Y-105188569D02*
X123351297Y-105249046D01*
X123351297Y-105249046D02*
X123351297Y-105309522D01*
X123351297Y-105309522D02*
X123048916Y-105369998D01*
X124107250Y-105339760D02*
X124591060Y-105339760D01*
X125347012Y-105551427D02*
X125437726Y-105581665D01*
X125437726Y-105581665D02*
X125588917Y-105581665D01*
X125588917Y-105581665D02*
X125649393Y-105551427D01*
X125649393Y-105551427D02*
X125679631Y-105521188D01*
X125679631Y-105521188D02*
X125709869Y-105460712D01*
X125709869Y-105460712D02*
X125709869Y-105400236D01*
X125709869Y-105400236D02*
X125679631Y-105339760D01*
X125679631Y-105339760D02*
X125649393Y-105309522D01*
X125649393Y-105309522D02*
X125588917Y-105279284D01*
X125588917Y-105279284D02*
X125467964Y-105249046D01*
X125467964Y-105249046D02*
X125407488Y-105218807D01*
X125407488Y-105218807D02*
X125377250Y-105188569D01*
X125377250Y-105188569D02*
X125347012Y-105128093D01*
X125347012Y-105128093D02*
X125347012Y-105067617D01*
X125347012Y-105067617D02*
X125377250Y-105007141D01*
X125377250Y-105007141D02*
X125407488Y-104976903D01*
X125407488Y-104976903D02*
X125467964Y-104946665D01*
X125467964Y-104946665D02*
X125619155Y-104946665D01*
X125619155Y-104946665D02*
X125709869Y-104976903D01*
X125982012Y-105581665D02*
X125982012Y-105158331D01*
X125982012Y-104946665D02*
X125951774Y-104976903D01*
X125951774Y-104976903D02*
X125982012Y-105007141D01*
X125982012Y-105007141D02*
X126012250Y-104976903D01*
X126012250Y-104976903D02*
X125982012Y-104946665D01*
X125982012Y-104946665D02*
X125982012Y-105007141D01*
X126375107Y-105581665D02*
X126314631Y-105551427D01*
X126314631Y-105551427D02*
X126284393Y-105490950D01*
X126284393Y-105490950D02*
X126284393Y-104946665D01*
X126707726Y-105581665D02*
X126647250Y-105551427D01*
X126647250Y-105551427D02*
X126617012Y-105490950D01*
X126617012Y-105490950D02*
X126617012Y-104946665D01*
X126949631Y-105581665D02*
X126949631Y-105158331D01*
X126949631Y-104946665D02*
X126919393Y-104976903D01*
X126919393Y-104976903D02*
X126949631Y-105007141D01*
X126949631Y-105007141D02*
X126979869Y-104976903D01*
X126979869Y-104976903D02*
X126949631Y-104946665D01*
X126949631Y-104946665D02*
X126949631Y-105007141D01*
X127342726Y-105581665D02*
X127282250Y-105551427D01*
X127282250Y-105551427D02*
X127252012Y-105521188D01*
X127252012Y-105521188D02*
X127221774Y-105460712D01*
X127221774Y-105460712D02*
X127221774Y-105279284D01*
X127221774Y-105279284D02*
X127252012Y-105218807D01*
X127252012Y-105218807D02*
X127282250Y-105188569D01*
X127282250Y-105188569D02*
X127342726Y-105158331D01*
X127342726Y-105158331D02*
X127433441Y-105158331D01*
X127433441Y-105158331D02*
X127493917Y-105188569D01*
X127493917Y-105188569D02*
X127524155Y-105218807D01*
X127524155Y-105218807D02*
X127554393Y-105279284D01*
X127554393Y-105279284D02*
X127554393Y-105460712D01*
X127554393Y-105460712D02*
X127524155Y-105521188D01*
X127524155Y-105521188D02*
X127493917Y-105551427D01*
X127493917Y-105551427D02*
X127433441Y-105581665D01*
X127433441Y-105581665D02*
X127342726Y-105581665D01*
X127826536Y-105158331D02*
X127826536Y-105581665D01*
X127826536Y-105218807D02*
X127856774Y-105188569D01*
X127856774Y-105188569D02*
X127917250Y-105158331D01*
X127917250Y-105158331D02*
X128007965Y-105158331D01*
X128007965Y-105158331D02*
X128068441Y-105188569D01*
X128068441Y-105188569D02*
X128098679Y-105249046D01*
X128098679Y-105249046D02*
X128098679Y-105581665D01*
D10*
X136013819Y-75482220D02*
X135013819Y-75482220D01*
X135013819Y-75482220D02*
X135728104Y-75148887D01*
X135728104Y-75148887D02*
X135013819Y-74815554D01*
X135013819Y-74815554D02*
X136013819Y-74815554D01*
X135013819Y-74148887D02*
X135013819Y-73958411D01*
X135013819Y-73958411D02*
X135061438Y-73863173D01*
X135061438Y-73863173D02*
X135156676Y-73767935D01*
X135156676Y-73767935D02*
X135347152Y-73720316D01*
X135347152Y-73720316D02*
X135680485Y-73720316D01*
X135680485Y-73720316D02*
X135870961Y-73767935D01*
X135870961Y-73767935D02*
X135966200Y-73863173D01*
X135966200Y-73863173D02*
X136013819Y-73958411D01*
X136013819Y-73958411D02*
X136013819Y-74148887D01*
X136013819Y-74148887D02*
X135966200Y-74244125D01*
X135966200Y-74244125D02*
X135870961Y-74339363D01*
X135870961Y-74339363D02*
X135680485Y-74386982D01*
X135680485Y-74386982D02*
X135347152Y-74386982D01*
X135347152Y-74386982D02*
X135156676Y-74339363D01*
X135156676Y-74339363D02*
X135061438Y-74244125D01*
X135061438Y-74244125D02*
X135013819Y-74148887D01*
X135966200Y-73339363D02*
X136013819Y-73196506D01*
X136013819Y-73196506D02*
X136013819Y-72958411D01*
X136013819Y-72958411D02*
X135966200Y-72863173D01*
X135966200Y-72863173D02*
X135918580Y-72815554D01*
X135918580Y-72815554D02*
X135823342Y-72767935D01*
X135823342Y-72767935D02*
X135728104Y-72767935D01*
X135728104Y-72767935D02*
X135632866Y-72815554D01*
X135632866Y-72815554D02*
X135585247Y-72863173D01*
X135585247Y-72863173D02*
X135537628Y-72958411D01*
X135537628Y-72958411D02*
X135490009Y-73148887D01*
X135490009Y-73148887D02*
X135442390Y-73244125D01*
X135442390Y-73244125D02*
X135394771Y-73291744D01*
X135394771Y-73291744D02*
X135299533Y-73339363D01*
X135299533Y-73339363D02*
X135204295Y-73339363D01*
X135204295Y-73339363D02*
X135109057Y-73291744D01*
X135109057Y-73291744D02*
X135061438Y-73244125D01*
X135061438Y-73244125D02*
X135013819Y-73148887D01*
X135013819Y-73148887D02*
X135013819Y-72910792D01*
X135013819Y-72910792D02*
X135061438Y-72767935D01*
X136013819Y-72339363D02*
X135013819Y-72339363D01*
X136521866Y-102279220D02*
X136521866Y-101517316D01*
X97548819Y-98485077D02*
X97548819Y-97913649D01*
X98548819Y-98199363D02*
X97548819Y-98199363D01*
X97548819Y-97675553D02*
X98548819Y-97008887D01*
X97548819Y-97008887D02*
X98548819Y-97675553D01*
X98548819Y-96627934D02*
X97548819Y-96627934D01*
X97548819Y-96627934D02*
X97548819Y-96389839D01*
X97548819Y-96389839D02*
X97596438Y-96246982D01*
X97596438Y-96246982D02*
X97691676Y-96151744D01*
X97691676Y-96151744D02*
X97786914Y-96104125D01*
X97786914Y-96104125D02*
X97977390Y-96056506D01*
X97977390Y-96056506D02*
X98120247Y-96056506D01*
X98120247Y-96056506D02*
X98310723Y-96104125D01*
X98310723Y-96104125D02*
X98405961Y-96151744D01*
X98405961Y-96151744D02*
X98501200Y-96246982D01*
X98501200Y-96246982D02*
X98548819Y-96389839D01*
X98548819Y-96389839D02*
X98548819Y-96627934D01*
X89976438Y-98072411D02*
X89928819Y-98167649D01*
X89928819Y-98167649D02*
X89928819Y-98310506D01*
X89928819Y-98310506D02*
X89976438Y-98453363D01*
X89976438Y-98453363D02*
X90071676Y-98548601D01*
X90071676Y-98548601D02*
X90166914Y-98596220D01*
X90166914Y-98596220D02*
X90357390Y-98643839D01*
X90357390Y-98643839D02*
X90500247Y-98643839D01*
X90500247Y-98643839D02*
X90690723Y-98596220D01*
X90690723Y-98596220D02*
X90785961Y-98548601D01*
X90785961Y-98548601D02*
X90881200Y-98453363D01*
X90881200Y-98453363D02*
X90928819Y-98310506D01*
X90928819Y-98310506D02*
X90928819Y-98215268D01*
X90928819Y-98215268D02*
X90881200Y-98072411D01*
X90881200Y-98072411D02*
X90833580Y-98024792D01*
X90833580Y-98024792D02*
X90500247Y-98024792D01*
X90500247Y-98024792D02*
X90500247Y-98215268D01*
X90928819Y-97596220D02*
X89928819Y-97596220D01*
X89928819Y-97596220D02*
X90928819Y-97024792D01*
X90928819Y-97024792D02*
X89928819Y-97024792D01*
X90928819Y-96548601D02*
X89928819Y-96548601D01*
X89928819Y-96548601D02*
X89928819Y-96310506D01*
X89928819Y-96310506D02*
X89976438Y-96167649D01*
X89976438Y-96167649D02*
X90071676Y-96072411D01*
X90071676Y-96072411D02*
X90166914Y-96024792D01*
X90166914Y-96024792D02*
X90357390Y-95977173D01*
X90357390Y-95977173D02*
X90500247Y-95977173D01*
X90500247Y-95977173D02*
X90690723Y-96024792D01*
X90690723Y-96024792D02*
X90785961Y-96072411D01*
X90785961Y-96072411D02*
X90881200Y-96167649D01*
X90881200Y-96167649D02*
X90928819Y-96310506D01*
X90928819Y-96310506D02*
X90928819Y-96548601D01*
X133727819Y-85642220D02*
X132727819Y-85642220D01*
X132727819Y-85642220D02*
X133442104Y-85308887D01*
X133442104Y-85308887D02*
X132727819Y-84975554D01*
X132727819Y-84975554D02*
X133727819Y-84975554D01*
X133727819Y-84499363D02*
X132727819Y-84499363D01*
X133680200Y-84070792D02*
X133727819Y-83927935D01*
X133727819Y-83927935D02*
X133727819Y-83689840D01*
X133727819Y-83689840D02*
X133680200Y-83594602D01*
X133680200Y-83594602D02*
X133632580Y-83546983D01*
X133632580Y-83546983D02*
X133537342Y-83499364D01*
X133537342Y-83499364D02*
X133442104Y-83499364D01*
X133442104Y-83499364D02*
X133346866Y-83546983D01*
X133346866Y-83546983D02*
X133299247Y-83594602D01*
X133299247Y-83594602D02*
X133251628Y-83689840D01*
X133251628Y-83689840D02*
X133204009Y-83880316D01*
X133204009Y-83880316D02*
X133156390Y-83975554D01*
X133156390Y-83975554D02*
X133108771Y-84023173D01*
X133108771Y-84023173D02*
X133013533Y-84070792D01*
X133013533Y-84070792D02*
X132918295Y-84070792D01*
X132918295Y-84070792D02*
X132823057Y-84023173D01*
X132823057Y-84023173D02*
X132775438Y-83975554D01*
X132775438Y-83975554D02*
X132727819Y-83880316D01*
X132727819Y-83880316D02*
X132727819Y-83642221D01*
X132727819Y-83642221D02*
X132775438Y-83499364D01*
X132727819Y-82880316D02*
X132727819Y-82689840D01*
X132727819Y-82689840D02*
X132775438Y-82594602D01*
X132775438Y-82594602D02*
X132870676Y-82499364D01*
X132870676Y-82499364D02*
X133061152Y-82451745D01*
X133061152Y-82451745D02*
X133394485Y-82451745D01*
X133394485Y-82451745D02*
X133584961Y-82499364D01*
X133584961Y-82499364D02*
X133680200Y-82594602D01*
X133680200Y-82594602D02*
X133727819Y-82689840D01*
X133727819Y-82689840D02*
X133727819Y-82880316D01*
X133727819Y-82880316D02*
X133680200Y-82975554D01*
X133680200Y-82975554D02*
X133584961Y-83070792D01*
X133584961Y-83070792D02*
X133394485Y-83118411D01*
X133394485Y-83118411D02*
X133061152Y-83118411D01*
X133061152Y-83118411D02*
X132870676Y-83070792D01*
X132870676Y-83070792D02*
X132775438Y-82975554D01*
X132775438Y-82975554D02*
X132727819Y-82880316D01*
X136648819Y-99358220D02*
X135648819Y-99358220D01*
X135648819Y-99358220D02*
X135648819Y-99120125D01*
X135648819Y-99120125D02*
X135696438Y-98977268D01*
X135696438Y-98977268D02*
X135791676Y-98882030D01*
X135791676Y-98882030D02*
X135886914Y-98834411D01*
X135886914Y-98834411D02*
X136077390Y-98786792D01*
X136077390Y-98786792D02*
X136220247Y-98786792D01*
X136220247Y-98786792D02*
X136410723Y-98834411D01*
X136410723Y-98834411D02*
X136505961Y-98882030D01*
X136505961Y-98882030D02*
X136601200Y-98977268D01*
X136601200Y-98977268D02*
X136648819Y-99120125D01*
X136648819Y-99120125D02*
X136648819Y-99358220D01*
X136553580Y-97786792D02*
X136601200Y-97834411D01*
X136601200Y-97834411D02*
X136648819Y-97977268D01*
X136648819Y-97977268D02*
X136648819Y-98072506D01*
X136648819Y-98072506D02*
X136601200Y-98215363D01*
X136601200Y-98215363D02*
X136505961Y-98310601D01*
X136505961Y-98310601D02*
X136410723Y-98358220D01*
X136410723Y-98358220D02*
X136220247Y-98405839D01*
X136220247Y-98405839D02*
X136077390Y-98405839D01*
X136077390Y-98405839D02*
X135886914Y-98358220D01*
X135886914Y-98358220D02*
X135791676Y-98310601D01*
X135791676Y-98310601D02*
X135696438Y-98215363D01*
X135696438Y-98215363D02*
X135648819Y-98072506D01*
X135648819Y-98072506D02*
X135648819Y-97977268D01*
X135648819Y-97977268D02*
X135696438Y-97834411D01*
X135696438Y-97834411D02*
X135744057Y-97786792D01*
X136648819Y-96596315D02*
X135648819Y-96596315D01*
X135648819Y-96596315D02*
X136363104Y-96262982D01*
X136363104Y-96262982D02*
X135648819Y-95929649D01*
X135648819Y-95929649D02*
X136648819Y-95929649D01*
X135648819Y-95262982D02*
X135648819Y-95072506D01*
X135648819Y-95072506D02*
X135696438Y-94977268D01*
X135696438Y-94977268D02*
X135791676Y-94882030D01*
X135791676Y-94882030D02*
X135982152Y-94834411D01*
X135982152Y-94834411D02*
X136315485Y-94834411D01*
X136315485Y-94834411D02*
X136505961Y-94882030D01*
X136505961Y-94882030D02*
X136601200Y-94977268D01*
X136601200Y-94977268D02*
X136648819Y-95072506D01*
X136648819Y-95072506D02*
X136648819Y-95262982D01*
X136648819Y-95262982D02*
X136601200Y-95358220D01*
X136601200Y-95358220D02*
X136505961Y-95453458D01*
X136505961Y-95453458D02*
X136315485Y-95501077D01*
X136315485Y-95501077D02*
X135982152Y-95501077D01*
X135982152Y-95501077D02*
X135791676Y-95453458D01*
X135791676Y-95453458D02*
X135696438Y-95358220D01*
X135696438Y-95358220D02*
X135648819Y-95262982D01*
X135648819Y-94548696D02*
X135648819Y-93977268D01*
X136648819Y-94262982D02*
X135648819Y-94262982D01*
X135648819Y-93453458D02*
X135648819Y-93262982D01*
X135648819Y-93262982D02*
X135696438Y-93167744D01*
X135696438Y-93167744D02*
X135791676Y-93072506D01*
X135791676Y-93072506D02*
X135982152Y-93024887D01*
X135982152Y-93024887D02*
X136315485Y-93024887D01*
X136315485Y-93024887D02*
X136505961Y-93072506D01*
X136505961Y-93072506D02*
X136601200Y-93167744D01*
X136601200Y-93167744D02*
X136648819Y-93262982D01*
X136648819Y-93262982D02*
X136648819Y-93453458D01*
X136648819Y-93453458D02*
X136601200Y-93548696D01*
X136601200Y-93548696D02*
X136505961Y-93643934D01*
X136505961Y-93643934D02*
X136315485Y-93691553D01*
X136315485Y-93691553D02*
X135982152Y-93691553D01*
X135982152Y-93691553D02*
X135791676Y-93643934D01*
X135791676Y-93643934D02*
X135696438Y-93548696D01*
X135696438Y-93548696D02*
X135648819Y-93453458D01*
X136648819Y-92024887D02*
X136172628Y-92358220D01*
X136648819Y-92596315D02*
X135648819Y-92596315D01*
X135648819Y-92596315D02*
X135648819Y-92215363D01*
X135648819Y-92215363D02*
X135696438Y-92120125D01*
X135696438Y-92120125D02*
X135744057Y-92072506D01*
X135744057Y-92072506D02*
X135839295Y-92024887D01*
X135839295Y-92024887D02*
X135982152Y-92024887D01*
X135982152Y-92024887D02*
X136077390Y-92072506D01*
X136077390Y-92072506D02*
X136125009Y-92120125D01*
X136125009Y-92120125D02*
X136172628Y-92215363D01*
X136172628Y-92215363D02*
X136172628Y-92596315D01*
D11*
X110711771Y-104677122D02*
X110348914Y-104677122D01*
X110348914Y-104677122D02*
X110348914Y-103915122D01*
X111256057Y-104640837D02*
X111183485Y-104677122D01*
X111183485Y-104677122D02*
X111038343Y-104677122D01*
X111038343Y-104677122D02*
X110965771Y-104640837D01*
X110965771Y-104640837D02*
X110929485Y-104568265D01*
X110929485Y-104568265D02*
X110929485Y-104277979D01*
X110929485Y-104277979D02*
X110965771Y-104205408D01*
X110965771Y-104205408D02*
X111038343Y-104169122D01*
X111038343Y-104169122D02*
X111183485Y-104169122D01*
X111183485Y-104169122D02*
X111256057Y-104205408D01*
X111256057Y-104205408D02*
X111292343Y-104277979D01*
X111292343Y-104277979D02*
X111292343Y-104350551D01*
X111292343Y-104350551D02*
X110929485Y-104423122D01*
X111727771Y-104677122D02*
X111655200Y-104640837D01*
X111655200Y-104640837D02*
X111618914Y-104604551D01*
X111618914Y-104604551D02*
X111582628Y-104531979D01*
X111582628Y-104531979D02*
X111582628Y-104314265D01*
X111582628Y-104314265D02*
X111618914Y-104241694D01*
X111618914Y-104241694D02*
X111655200Y-104205408D01*
X111655200Y-104205408D02*
X111727771Y-104169122D01*
X111727771Y-104169122D02*
X111836628Y-104169122D01*
X111836628Y-104169122D02*
X111909200Y-104205408D01*
X111909200Y-104205408D02*
X111945486Y-104241694D01*
X111945486Y-104241694D02*
X111981771Y-104314265D01*
X111981771Y-104314265D02*
X111981771Y-104531979D01*
X111981771Y-104531979D02*
X111945486Y-104604551D01*
X111945486Y-104604551D02*
X111909200Y-104640837D01*
X111909200Y-104640837D02*
X111836628Y-104677122D01*
X111836628Y-104677122D02*
X111727771Y-104677122D01*
X112308343Y-104169122D02*
X112308343Y-104677122D01*
X112308343Y-104241694D02*
X112344629Y-104205408D01*
X112344629Y-104205408D02*
X112417200Y-104169122D01*
X112417200Y-104169122D02*
X112526057Y-104169122D01*
X112526057Y-104169122D02*
X112598629Y-104205408D01*
X112598629Y-104205408D02*
X112634915Y-104277979D01*
X112634915Y-104277979D02*
X112634915Y-104677122D01*
X113324344Y-104677122D02*
X113324344Y-104277979D01*
X113324344Y-104277979D02*
X113288058Y-104205408D01*
X113288058Y-104205408D02*
X113215486Y-104169122D01*
X113215486Y-104169122D02*
X113070344Y-104169122D01*
X113070344Y-104169122D02*
X112997772Y-104205408D01*
X113324344Y-104640837D02*
X113251772Y-104677122D01*
X113251772Y-104677122D02*
X113070344Y-104677122D01*
X113070344Y-104677122D02*
X112997772Y-104640837D01*
X112997772Y-104640837D02*
X112961486Y-104568265D01*
X112961486Y-104568265D02*
X112961486Y-104495694D01*
X112961486Y-104495694D02*
X112997772Y-104423122D01*
X112997772Y-104423122D02*
X113070344Y-104386837D01*
X113070344Y-104386837D02*
X113251772Y-104386837D01*
X113251772Y-104386837D02*
X113324344Y-104350551D01*
X113687201Y-104677122D02*
X113687201Y-104169122D01*
X113687201Y-104314265D02*
X113723487Y-104241694D01*
X113723487Y-104241694D02*
X113759773Y-104205408D01*
X113759773Y-104205408D02*
X113832344Y-104169122D01*
X113832344Y-104169122D02*
X113904915Y-104169122D01*
X114485487Y-104677122D02*
X114485487Y-103915122D01*
X114485487Y-104640837D02*
X114412915Y-104677122D01*
X114412915Y-104677122D02*
X114267772Y-104677122D01*
X114267772Y-104677122D02*
X114195201Y-104640837D01*
X114195201Y-104640837D02*
X114158915Y-104604551D01*
X114158915Y-104604551D02*
X114122629Y-104531979D01*
X114122629Y-104531979D02*
X114122629Y-104314265D01*
X114122629Y-104314265D02*
X114158915Y-104241694D01*
X114158915Y-104241694D02*
X114195201Y-104205408D01*
X114195201Y-104205408D02*
X114267772Y-104169122D01*
X114267772Y-104169122D02*
X114412915Y-104169122D01*
X114412915Y-104169122D02*
X114485487Y-104205408D01*
X114957201Y-104677122D02*
X114884630Y-104640837D01*
X114884630Y-104640837D02*
X114848344Y-104604551D01*
X114848344Y-104604551D02*
X114812058Y-104531979D01*
X114812058Y-104531979D02*
X114812058Y-104314265D01*
X114812058Y-104314265D02*
X114848344Y-104241694D01*
X114848344Y-104241694D02*
X114884630Y-104205408D01*
X114884630Y-104205408D02*
X114957201Y-104169122D01*
X114957201Y-104169122D02*
X115066058Y-104169122D01*
X115066058Y-104169122D02*
X115138630Y-104205408D01*
X115138630Y-104205408D02*
X115174916Y-104241694D01*
X115174916Y-104241694D02*
X115211201Y-104314265D01*
X115211201Y-104314265D02*
X115211201Y-104531979D01*
X115211201Y-104531979D02*
X115174916Y-104604551D01*
X115174916Y-104604551D02*
X115138630Y-104640837D01*
X115138630Y-104640837D02*
X115066058Y-104677122D01*
X115066058Y-104677122D02*
X114957201Y-104677122D01*
X116444916Y-104677122D02*
X116444916Y-103915122D01*
X116444916Y-104640837D02*
X116372344Y-104677122D01*
X116372344Y-104677122D02*
X116227201Y-104677122D01*
X116227201Y-104677122D02*
X116154630Y-104640837D01*
X116154630Y-104640837D02*
X116118344Y-104604551D01*
X116118344Y-104604551D02*
X116082058Y-104531979D01*
X116082058Y-104531979D02*
X116082058Y-104314265D01*
X116082058Y-104314265D02*
X116118344Y-104241694D01*
X116118344Y-104241694D02*
X116154630Y-104205408D01*
X116154630Y-104205408D02*
X116227201Y-104169122D01*
X116227201Y-104169122D02*
X116372344Y-104169122D01*
X116372344Y-104169122D02*
X116444916Y-104205408D01*
X117134345Y-104677122D02*
X117134345Y-104277979D01*
X117134345Y-104277979D02*
X117098059Y-104205408D01*
X117098059Y-104205408D02*
X117025487Y-104169122D01*
X117025487Y-104169122D02*
X116880345Y-104169122D01*
X116880345Y-104169122D02*
X116807773Y-104205408D01*
X117134345Y-104640837D02*
X117061773Y-104677122D01*
X117061773Y-104677122D02*
X116880345Y-104677122D01*
X116880345Y-104677122D02*
X116807773Y-104640837D01*
X116807773Y-104640837D02*
X116771487Y-104568265D01*
X116771487Y-104568265D02*
X116771487Y-104495694D01*
X116771487Y-104495694D02*
X116807773Y-104423122D01*
X116807773Y-104423122D02*
X116880345Y-104386837D01*
X116880345Y-104386837D02*
X117061773Y-104386837D01*
X117061773Y-104386837D02*
X117134345Y-104350551D01*
X118041487Y-104640837D02*
X118150345Y-104677122D01*
X118150345Y-104677122D02*
X118331773Y-104677122D01*
X118331773Y-104677122D02*
X118404345Y-104640837D01*
X118404345Y-104640837D02*
X118440630Y-104604551D01*
X118440630Y-104604551D02*
X118476916Y-104531979D01*
X118476916Y-104531979D02*
X118476916Y-104459408D01*
X118476916Y-104459408D02*
X118440630Y-104386837D01*
X118440630Y-104386837D02*
X118404345Y-104350551D01*
X118404345Y-104350551D02*
X118331773Y-104314265D01*
X118331773Y-104314265D02*
X118186630Y-104277979D01*
X118186630Y-104277979D02*
X118114059Y-104241694D01*
X118114059Y-104241694D02*
X118077773Y-104205408D01*
X118077773Y-104205408D02*
X118041487Y-104132837D01*
X118041487Y-104132837D02*
X118041487Y-104060265D01*
X118041487Y-104060265D02*
X118077773Y-103987694D01*
X118077773Y-103987694D02*
X118114059Y-103951408D01*
X118114059Y-103951408D02*
X118186630Y-103915122D01*
X118186630Y-103915122D02*
X118368059Y-103915122D01*
X118368059Y-103915122D02*
X118476916Y-103951408D01*
X118803487Y-104677122D02*
X118803487Y-104169122D01*
X118803487Y-103915122D02*
X118767201Y-103951408D01*
X118767201Y-103951408D02*
X118803487Y-103987694D01*
X118803487Y-103987694D02*
X118839773Y-103951408D01*
X118839773Y-103951408D02*
X118803487Y-103915122D01*
X118803487Y-103915122D02*
X118803487Y-103987694D01*
X119275201Y-104677122D02*
X119202630Y-104640837D01*
X119202630Y-104640837D02*
X119166344Y-104568265D01*
X119166344Y-104568265D02*
X119166344Y-103915122D01*
X119492916Y-104169122D02*
X119674344Y-104677122D01*
X119674344Y-104677122D02*
X119855773Y-104169122D01*
X120472630Y-104677122D02*
X120472630Y-104277979D01*
X120472630Y-104277979D02*
X120436344Y-104205408D01*
X120436344Y-104205408D02*
X120363772Y-104169122D01*
X120363772Y-104169122D02*
X120218630Y-104169122D01*
X120218630Y-104169122D02*
X120146058Y-104205408D01*
X120472630Y-104640837D02*
X120400058Y-104677122D01*
X120400058Y-104677122D02*
X120218630Y-104677122D01*
X120218630Y-104677122D02*
X120146058Y-104640837D01*
X120146058Y-104640837D02*
X120109772Y-104568265D01*
X120109772Y-104568265D02*
X120109772Y-104495694D01*
X120109772Y-104495694D02*
X120146058Y-104423122D01*
X120146058Y-104423122D02*
X120218630Y-104386837D01*
X120218630Y-104386837D02*
X120400058Y-104386837D01*
X120400058Y-104386837D02*
X120472630Y-104350551D01*
X121416058Y-104677122D02*
X121416058Y-103915122D01*
X121416058Y-103915122D02*
X121706344Y-103915122D01*
X121706344Y-103915122D02*
X121778915Y-103951408D01*
X121778915Y-103951408D02*
X121815201Y-103987694D01*
X121815201Y-103987694D02*
X121851487Y-104060265D01*
X121851487Y-104060265D02*
X121851487Y-104169122D01*
X121851487Y-104169122D02*
X121815201Y-104241694D01*
X121815201Y-104241694D02*
X121778915Y-104277979D01*
X121778915Y-104277979D02*
X121706344Y-104314265D01*
X121706344Y-104314265D02*
X121416058Y-104314265D01*
X122468344Y-104640837D02*
X122395772Y-104677122D01*
X122395772Y-104677122D02*
X122250630Y-104677122D01*
X122250630Y-104677122D02*
X122178058Y-104640837D01*
X122178058Y-104640837D02*
X122141772Y-104568265D01*
X122141772Y-104568265D02*
X122141772Y-104277979D01*
X122141772Y-104277979D02*
X122178058Y-104205408D01*
X122178058Y-104205408D02*
X122250630Y-104169122D01*
X122250630Y-104169122D02*
X122395772Y-104169122D01*
X122395772Y-104169122D02*
X122468344Y-104205408D01*
X122468344Y-104205408D02*
X122504630Y-104277979D01*
X122504630Y-104277979D02*
X122504630Y-104350551D01*
X122504630Y-104350551D02*
X122141772Y-104423122D01*
X122831201Y-104677122D02*
X122831201Y-104169122D01*
X122831201Y-104314265D02*
X122867487Y-104241694D01*
X122867487Y-104241694D02*
X122903773Y-104205408D01*
X122903773Y-104205408D02*
X122976344Y-104169122D01*
X122976344Y-104169122D02*
X123048915Y-104169122D01*
X123593201Y-104640837D02*
X123520629Y-104677122D01*
X123520629Y-104677122D02*
X123375487Y-104677122D01*
X123375487Y-104677122D02*
X123302915Y-104640837D01*
X123302915Y-104640837D02*
X123266629Y-104568265D01*
X123266629Y-104568265D02*
X123266629Y-104277979D01*
X123266629Y-104277979D02*
X123302915Y-104205408D01*
X123302915Y-104205408D02*
X123375487Y-104169122D01*
X123375487Y-104169122D02*
X123520629Y-104169122D01*
X123520629Y-104169122D02*
X123593201Y-104205408D01*
X123593201Y-104205408D02*
X123629487Y-104277979D01*
X123629487Y-104277979D02*
X123629487Y-104350551D01*
X123629487Y-104350551D02*
X123266629Y-104423122D01*
X123956058Y-104677122D02*
X123956058Y-104169122D01*
X123956058Y-103915122D02*
X123919772Y-103951408D01*
X123919772Y-103951408D02*
X123956058Y-103987694D01*
X123956058Y-103987694D02*
X123992344Y-103951408D01*
X123992344Y-103951408D02*
X123956058Y-103915122D01*
X123956058Y-103915122D02*
X123956058Y-103987694D01*
X124318915Y-104677122D02*
X124318915Y-104169122D01*
X124318915Y-104314265D02*
X124355201Y-104241694D01*
X124355201Y-104241694D02*
X124391487Y-104205408D01*
X124391487Y-104205408D02*
X124464058Y-104169122D01*
X124464058Y-104169122D02*
X124536629Y-104169122D01*
X125117201Y-104677122D02*
X125117201Y-104277979D01*
X125117201Y-104277979D02*
X125080915Y-104205408D01*
X125080915Y-104205408D02*
X125008343Y-104169122D01*
X125008343Y-104169122D02*
X124863201Y-104169122D01*
X124863201Y-104169122D02*
X124790629Y-104205408D01*
X125117201Y-104640837D02*
X125044629Y-104677122D01*
X125044629Y-104677122D02*
X124863201Y-104677122D01*
X124863201Y-104677122D02*
X124790629Y-104640837D01*
X124790629Y-104640837D02*
X124754343Y-104568265D01*
X124754343Y-104568265D02*
X124754343Y-104495694D01*
X124754343Y-104495694D02*
X124790629Y-104423122D01*
X124790629Y-104423122D02*
X124863201Y-104386837D01*
X124863201Y-104386837D02*
X125044629Y-104386837D01*
X125044629Y-104386837D02*
X125117201Y-104350551D01*
D10*
X73996779Y-106422866D02*
X74758684Y-106422866D01*
X74377731Y-106803819D02*
X74377731Y-106041914D01*
X100961819Y-97897792D02*
X100485628Y-98231125D01*
X100961819Y-98469220D02*
X99961819Y-98469220D01*
X99961819Y-98469220D02*
X99961819Y-98088268D01*
X99961819Y-98088268D02*
X100009438Y-97993030D01*
X100009438Y-97993030D02*
X100057057Y-97945411D01*
X100057057Y-97945411D02*
X100152295Y-97897792D01*
X100152295Y-97897792D02*
X100295152Y-97897792D01*
X100295152Y-97897792D02*
X100390390Y-97945411D01*
X100390390Y-97945411D02*
X100438009Y-97993030D01*
X100438009Y-97993030D02*
X100485628Y-98088268D01*
X100485628Y-98088268D02*
X100485628Y-98469220D01*
X99961819Y-97564458D02*
X100961819Y-96897792D01*
X99961819Y-96897792D02*
X100961819Y-97564458D01*
X100961819Y-96516839D02*
X99961819Y-96516839D01*
X99961819Y-96516839D02*
X99961819Y-96278744D01*
X99961819Y-96278744D02*
X100009438Y-96135887D01*
X100009438Y-96135887D02*
X100104676Y-96040649D01*
X100104676Y-96040649D02*
X100199914Y-95993030D01*
X100199914Y-95993030D02*
X100390390Y-95945411D01*
X100390390Y-95945411D02*
X100533247Y-95945411D01*
X100533247Y-95945411D02*
X100723723Y-95993030D01*
X100723723Y-95993030D02*
X100818961Y-96040649D01*
X100818961Y-96040649D02*
X100914200Y-96135887D01*
X100914200Y-96135887D02*
X100961819Y-96278744D01*
X100961819Y-96278744D02*
X100961819Y-96516839D01*
X95008819Y-98612077D02*
X96008819Y-98278744D01*
X96008819Y-98278744D02*
X95008819Y-97945411D01*
X95913580Y-97040649D02*
X95961200Y-97088268D01*
X95961200Y-97088268D02*
X96008819Y-97231125D01*
X96008819Y-97231125D02*
X96008819Y-97326363D01*
X96008819Y-97326363D02*
X95961200Y-97469220D01*
X95961200Y-97469220D02*
X95865961Y-97564458D01*
X95865961Y-97564458D02*
X95770723Y-97612077D01*
X95770723Y-97612077D02*
X95580247Y-97659696D01*
X95580247Y-97659696D02*
X95437390Y-97659696D01*
X95437390Y-97659696D02*
X95246914Y-97612077D01*
X95246914Y-97612077D02*
X95151676Y-97564458D01*
X95151676Y-97564458D02*
X95056438Y-97469220D01*
X95056438Y-97469220D02*
X95008819Y-97326363D01*
X95008819Y-97326363D02*
X95008819Y-97231125D01*
X95008819Y-97231125D02*
X95056438Y-97088268D01*
X95056438Y-97088268D02*
X95104057Y-97040649D01*
X95913580Y-96040649D02*
X95961200Y-96088268D01*
X95961200Y-96088268D02*
X96008819Y-96231125D01*
X96008819Y-96231125D02*
X96008819Y-96326363D01*
X96008819Y-96326363D02*
X95961200Y-96469220D01*
X95961200Y-96469220D02*
X95865961Y-96564458D01*
X95865961Y-96564458D02*
X95770723Y-96612077D01*
X95770723Y-96612077D02*
X95580247Y-96659696D01*
X95580247Y-96659696D02*
X95437390Y-96659696D01*
X95437390Y-96659696D02*
X95246914Y-96612077D01*
X95246914Y-96612077D02*
X95151676Y-96564458D01*
X95151676Y-96564458D02*
X95056438Y-96469220D01*
X95056438Y-96469220D02*
X95008819Y-96326363D01*
X95008819Y-96326363D02*
X95008819Y-96231125D01*
X95008819Y-96231125D02*
X95056438Y-96088268D01*
X95056438Y-96088268D02*
X95104057Y-96040649D01*
X76468779Y-106930819D02*
X76468779Y-105930819D01*
X76468779Y-105930819D02*
X76849731Y-105930819D01*
X76849731Y-105930819D02*
X76944969Y-105978438D01*
X76944969Y-105978438D02*
X76992588Y-106026057D01*
X76992588Y-106026057D02*
X77040207Y-106121295D01*
X77040207Y-106121295D02*
X77040207Y-106264152D01*
X77040207Y-106264152D02*
X76992588Y-106359390D01*
X76992588Y-106359390D02*
X76944969Y-106407009D01*
X76944969Y-106407009D02*
X76849731Y-106454628D01*
X76849731Y-106454628D02*
X76468779Y-106454628D01*
X77659255Y-105930819D02*
X77849731Y-105930819D01*
X77849731Y-105930819D02*
X77944969Y-105978438D01*
X77944969Y-105978438D02*
X78040207Y-106073676D01*
X78040207Y-106073676D02*
X78087826Y-106264152D01*
X78087826Y-106264152D02*
X78087826Y-106597485D01*
X78087826Y-106597485D02*
X78040207Y-106787961D01*
X78040207Y-106787961D02*
X77944969Y-106883200D01*
X77944969Y-106883200D02*
X77849731Y-106930819D01*
X77849731Y-106930819D02*
X77659255Y-106930819D01*
X77659255Y-106930819D02*
X77564017Y-106883200D01*
X77564017Y-106883200D02*
X77468779Y-106787961D01*
X77468779Y-106787961D02*
X77421160Y-106597485D01*
X77421160Y-106597485D02*
X77421160Y-106264152D01*
X77421160Y-106264152D02*
X77468779Y-106073676D01*
X77468779Y-106073676D02*
X77564017Y-105978438D01*
X77564017Y-105978438D02*
X77659255Y-105930819D01*
X78421160Y-105930819D02*
X78659255Y-106930819D01*
X78659255Y-106930819D02*
X78849731Y-106216533D01*
X78849731Y-106216533D02*
X79040207Y-106930819D01*
X79040207Y-106930819D02*
X79278303Y-105930819D01*
X79659255Y-106407009D02*
X79992588Y-106407009D01*
X80135445Y-106930819D02*
X79659255Y-106930819D01*
X79659255Y-106930819D02*
X79659255Y-105930819D01*
X79659255Y-105930819D02*
X80135445Y-105930819D01*
X81135445Y-106930819D02*
X80802112Y-106454628D01*
X80564017Y-106930819D02*
X80564017Y-105930819D01*
X80564017Y-105930819D02*
X80944969Y-105930819D01*
X80944969Y-105930819D02*
X81040207Y-105978438D01*
X81040207Y-105978438D02*
X81087826Y-106026057D01*
X81087826Y-106026057D02*
X81135445Y-106121295D01*
X81135445Y-106121295D02*
X81135445Y-106264152D01*
X81135445Y-106264152D02*
X81087826Y-106359390D01*
X81087826Y-106359390D02*
X81040207Y-106407009D01*
X81040207Y-106407009D02*
X80944969Y-106454628D01*
X80944969Y-106454628D02*
X80564017Y-106454628D01*
D12*
X110282590Y-107248669D02*
X110282590Y-106910002D01*
X110282590Y-107006764D02*
X110306780Y-106958383D01*
X110306780Y-106958383D02*
X110330971Y-106934193D01*
X110330971Y-106934193D02*
X110379352Y-106910002D01*
X110379352Y-106910002D02*
X110427733Y-106910002D01*
X110790590Y-107224479D02*
X110742209Y-107248669D01*
X110742209Y-107248669D02*
X110645447Y-107248669D01*
X110645447Y-107248669D02*
X110597066Y-107224479D01*
X110597066Y-107224479D02*
X110572875Y-107176098D01*
X110572875Y-107176098D02*
X110572875Y-106982574D01*
X110572875Y-106982574D02*
X110597066Y-106934193D01*
X110597066Y-106934193D02*
X110645447Y-106910002D01*
X110645447Y-106910002D02*
X110742209Y-106910002D01*
X110742209Y-106910002D02*
X110790590Y-106934193D01*
X110790590Y-106934193D02*
X110814780Y-106982574D01*
X110814780Y-106982574D02*
X110814780Y-107030955D01*
X110814780Y-107030955D02*
X110572875Y-107079336D01*
X110984114Y-106910002D02*
X111105066Y-107248669D01*
X111105066Y-107248669D02*
X111226019Y-106910002D01*
X112072686Y-107248669D02*
X111782400Y-107248669D01*
X111927543Y-107248669D02*
X111927543Y-106740669D01*
X111927543Y-106740669D02*
X111879162Y-106813240D01*
X111879162Y-106813240D02*
X111830781Y-106861621D01*
X111830781Y-106861621D02*
X111782400Y-106885812D01*
X112290401Y-107200288D02*
X112314591Y-107224479D01*
X112314591Y-107224479D02*
X112290401Y-107248669D01*
X112290401Y-107248669D02*
X112266210Y-107224479D01*
X112266210Y-107224479D02*
X112290401Y-107200288D01*
X112290401Y-107200288D02*
X112290401Y-107248669D01*
X112629068Y-106740669D02*
X112677449Y-106740669D01*
X112677449Y-106740669D02*
X112725830Y-106764859D01*
X112725830Y-106764859D02*
X112750020Y-106789050D01*
X112750020Y-106789050D02*
X112774211Y-106837431D01*
X112774211Y-106837431D02*
X112798401Y-106934193D01*
X112798401Y-106934193D02*
X112798401Y-107055145D01*
X112798401Y-107055145D02*
X112774211Y-107151907D01*
X112774211Y-107151907D02*
X112750020Y-107200288D01*
X112750020Y-107200288D02*
X112725830Y-107224479D01*
X112725830Y-107224479D02*
X112677449Y-107248669D01*
X112677449Y-107248669D02*
X112629068Y-107248669D01*
X112629068Y-107248669D02*
X112580687Y-107224479D01*
X112580687Y-107224479D02*
X112556496Y-107200288D01*
X112556496Y-107200288D02*
X112532306Y-107151907D01*
X112532306Y-107151907D02*
X112508115Y-107055145D01*
X112508115Y-107055145D02*
X112508115Y-106934193D01*
X112508115Y-106934193D02*
X112532306Y-106837431D01*
X112532306Y-106837431D02*
X112556496Y-106789050D01*
X112556496Y-106789050D02*
X112580687Y-106764859D01*
X112580687Y-106764859D02*
X112629068Y-106740669D01*
D10*
X136220200Y-85308839D02*
X136267819Y-85165982D01*
X136267819Y-85165982D02*
X136267819Y-84927887D01*
X136267819Y-84927887D02*
X136220200Y-84832649D01*
X136220200Y-84832649D02*
X136172580Y-84785030D01*
X136172580Y-84785030D02*
X136077342Y-84737411D01*
X136077342Y-84737411D02*
X135982104Y-84737411D01*
X135982104Y-84737411D02*
X135886866Y-84785030D01*
X135886866Y-84785030D02*
X135839247Y-84832649D01*
X135839247Y-84832649D02*
X135791628Y-84927887D01*
X135791628Y-84927887D02*
X135744009Y-85118363D01*
X135744009Y-85118363D02*
X135696390Y-85213601D01*
X135696390Y-85213601D02*
X135648771Y-85261220D01*
X135648771Y-85261220D02*
X135553533Y-85308839D01*
X135553533Y-85308839D02*
X135458295Y-85308839D01*
X135458295Y-85308839D02*
X135363057Y-85261220D01*
X135363057Y-85261220D02*
X135315438Y-85213601D01*
X135315438Y-85213601D02*
X135267819Y-85118363D01*
X135267819Y-85118363D02*
X135267819Y-84880268D01*
X135267819Y-84880268D02*
X135315438Y-84737411D01*
X136172580Y-83737411D02*
X136220200Y-83785030D01*
X136220200Y-83785030D02*
X136267819Y-83927887D01*
X136267819Y-83927887D02*
X136267819Y-84023125D01*
X136267819Y-84023125D02*
X136220200Y-84165982D01*
X136220200Y-84165982D02*
X136124961Y-84261220D01*
X136124961Y-84261220D02*
X136029723Y-84308839D01*
X136029723Y-84308839D02*
X135839247Y-84356458D01*
X135839247Y-84356458D02*
X135696390Y-84356458D01*
X135696390Y-84356458D02*
X135505914Y-84308839D01*
X135505914Y-84308839D02*
X135410676Y-84261220D01*
X135410676Y-84261220D02*
X135315438Y-84165982D01*
X135315438Y-84165982D02*
X135267819Y-84023125D01*
X135267819Y-84023125D02*
X135267819Y-83927887D01*
X135267819Y-83927887D02*
X135315438Y-83785030D01*
X135315438Y-83785030D02*
X135363057Y-83737411D01*
X136267819Y-83308839D02*
X135267819Y-83308839D01*
X136267819Y-82737411D02*
X135696390Y-83165982D01*
X135267819Y-82737411D02*
X135839247Y-83308839D01*
D13*
X88083365Y-85301666D02*
X88143842Y-85362142D01*
X88143842Y-85362142D02*
X88204318Y-85543571D01*
X88204318Y-85543571D02*
X88204318Y-85664523D01*
X88204318Y-85664523D02*
X88143842Y-85845952D01*
X88143842Y-85845952D02*
X88022889Y-85966904D01*
X88022889Y-85966904D02*
X87901937Y-86027381D01*
X87901937Y-86027381D02*
X87660032Y-86087857D01*
X87660032Y-86087857D02*
X87478603Y-86087857D01*
X87478603Y-86087857D02*
X87236699Y-86027381D01*
X87236699Y-86027381D02*
X87115746Y-85966904D01*
X87115746Y-85966904D02*
X86994794Y-85845952D01*
X86994794Y-85845952D02*
X86934318Y-85664523D01*
X86934318Y-85664523D02*
X86934318Y-85543571D01*
X86934318Y-85543571D02*
X86994794Y-85362142D01*
X86994794Y-85362142D02*
X87055270Y-85301666D01*
X88204318Y-84696904D02*
X88204318Y-84455000D01*
X88204318Y-84455000D02*
X88143842Y-84334047D01*
X88143842Y-84334047D02*
X88083365Y-84273571D01*
X88083365Y-84273571D02*
X87901937Y-84152619D01*
X87901937Y-84152619D02*
X87660032Y-84092142D01*
X87660032Y-84092142D02*
X87176222Y-84092142D01*
X87176222Y-84092142D02*
X87055270Y-84152619D01*
X87055270Y-84152619D02*
X86994794Y-84213095D01*
X86994794Y-84213095D02*
X86934318Y-84334047D01*
X86934318Y-84334047D02*
X86934318Y-84575952D01*
X86934318Y-84575952D02*
X86994794Y-84696904D01*
X86994794Y-84696904D02*
X87055270Y-84757381D01*
X87055270Y-84757381D02*
X87176222Y-84817857D01*
X87176222Y-84817857D02*
X87478603Y-84817857D01*
X87478603Y-84817857D02*
X87599556Y-84757381D01*
X87599556Y-84757381D02*
X87660032Y-84696904D01*
X87660032Y-84696904D02*
X87720508Y-84575952D01*
X87720508Y-84575952D02*
X87720508Y-84334047D01*
X87720508Y-84334047D02*
X87660032Y-84213095D01*
X87660032Y-84213095D02*
X87599556Y-84152619D01*
X87599556Y-84152619D02*
X87478603Y-84092142D01*
X82791904Y-92014318D02*
X83638571Y-92014318D01*
X83638571Y-92014318D02*
X82791904Y-93284318D01*
X82791904Y-93284318D02*
X83638571Y-93284318D01*
X84061904Y-92135270D02*
X84122380Y-92074794D01*
X84122380Y-92074794D02*
X84243333Y-92014318D01*
X84243333Y-92014318D02*
X84545714Y-92014318D01*
X84545714Y-92014318D02*
X84666666Y-92074794D01*
X84666666Y-92074794D02*
X84727142Y-92135270D01*
X84727142Y-92135270D02*
X84787619Y-92256222D01*
X84787619Y-92256222D02*
X84787619Y-92377175D01*
X84787619Y-92377175D02*
X84727142Y-92558603D01*
X84727142Y-92558603D02*
X84001428Y-93284318D01*
X84001428Y-93284318D02*
X84787619Y-93284318D01*
X110659333Y-115382318D02*
X110054571Y-115382318D01*
X110054571Y-115382318D02*
X110054571Y-114112318D01*
X111747905Y-115382318D02*
X111022190Y-115382318D01*
X111385047Y-115382318D02*
X111385047Y-114112318D01*
X111385047Y-114112318D02*
X111264095Y-114293746D01*
X111264095Y-114293746D02*
X111143143Y-114414699D01*
X111143143Y-114414699D02*
X111022190Y-114475175D01*
D10*
X137233819Y-114339666D02*
X136757628Y-114672999D01*
X137233819Y-114911094D02*
X136233819Y-114911094D01*
X136233819Y-114911094D02*
X136233819Y-114530142D01*
X136233819Y-114530142D02*
X136281438Y-114434904D01*
X136281438Y-114434904D02*
X136329057Y-114387285D01*
X136329057Y-114387285D02*
X136424295Y-114339666D01*
X136424295Y-114339666D02*
X136567152Y-114339666D01*
X136567152Y-114339666D02*
X136662390Y-114387285D01*
X136662390Y-114387285D02*
X136710009Y-114434904D01*
X136710009Y-114434904D02*
X136757628Y-114530142D01*
X136757628Y-114530142D02*
X136757628Y-114911094D01*
X136233819Y-114006332D02*
X136233819Y-113387285D01*
X136233819Y-113387285D02*
X136614771Y-113720618D01*
X136614771Y-113720618D02*
X136614771Y-113577761D01*
X136614771Y-113577761D02*
X136662390Y-113482523D01*
X136662390Y-113482523D02*
X136710009Y-113434904D01*
X136710009Y-113434904D02*
X136805247Y-113387285D01*
X136805247Y-113387285D02*
X137043342Y-113387285D01*
X137043342Y-113387285D02*
X137138580Y-113434904D01*
X137138580Y-113434904D02*
X137186200Y-113482523D01*
X137186200Y-113482523D02*
X137233819Y-113577761D01*
X137233819Y-113577761D02*
X137233819Y-113863475D01*
X137233819Y-113863475D02*
X137186200Y-113958713D01*
X137186200Y-113958713D02*
X137138580Y-114006332D01*
D13*
X114869238Y-94838556D02*
X114869238Y-95443318D01*
X114445905Y-94173318D02*
X114869238Y-94838556D01*
X114869238Y-94838556D02*
X115292572Y-94173318D01*
X116381143Y-95443318D02*
X115655428Y-95443318D01*
X116018285Y-95443318D02*
X116018285Y-94173318D01*
X116018285Y-94173318D02*
X115897333Y-94354746D01*
X115897333Y-94354746D02*
X115776381Y-94475699D01*
X115776381Y-94475699D02*
X115655428Y-94536175D01*
X73974476Y-93792318D02*
X73551142Y-93187556D01*
X73248761Y-93792318D02*
X73248761Y-92522318D01*
X73248761Y-92522318D02*
X73732571Y-92522318D01*
X73732571Y-92522318D02*
X73853523Y-92582794D01*
X73853523Y-92582794D02*
X73914000Y-92643270D01*
X73914000Y-92643270D02*
X73974476Y-92764222D01*
X73974476Y-92764222D02*
X73974476Y-92945651D01*
X73974476Y-92945651D02*
X73914000Y-93066603D01*
X73914000Y-93066603D02*
X73853523Y-93127080D01*
X73853523Y-93127080D02*
X73732571Y-93187556D01*
X73732571Y-93187556D02*
X73248761Y-93187556D01*
X74518761Y-93127080D02*
X74942095Y-93127080D01*
X75123523Y-93792318D02*
X74518761Y-93792318D01*
X74518761Y-93792318D02*
X74518761Y-92522318D01*
X74518761Y-92522318D02*
X75123523Y-92522318D01*
X75607333Y-93731842D02*
X75788762Y-93792318D01*
X75788762Y-93792318D02*
X76091143Y-93792318D01*
X76091143Y-93792318D02*
X76212095Y-93731842D01*
X76212095Y-93731842D02*
X76272571Y-93671365D01*
X76272571Y-93671365D02*
X76333048Y-93550413D01*
X76333048Y-93550413D02*
X76333048Y-93429461D01*
X76333048Y-93429461D02*
X76272571Y-93308508D01*
X76272571Y-93308508D02*
X76212095Y-93248032D01*
X76212095Y-93248032D02*
X76091143Y-93187556D01*
X76091143Y-93187556D02*
X75849238Y-93127080D01*
X75849238Y-93127080D02*
X75728286Y-93066603D01*
X75728286Y-93066603D02*
X75667809Y-93006127D01*
X75667809Y-93006127D02*
X75607333Y-92885175D01*
X75607333Y-92885175D02*
X75607333Y-92764222D01*
X75607333Y-92764222D02*
X75667809Y-92643270D01*
X75667809Y-92643270D02*
X75728286Y-92582794D01*
X75728286Y-92582794D02*
X75849238Y-92522318D01*
X75849238Y-92522318D02*
X76151619Y-92522318D01*
X76151619Y-92522318D02*
X76333048Y-92582794D01*
X76877333Y-93127080D02*
X77300667Y-93127080D01*
X77482095Y-93792318D02*
X76877333Y-93792318D01*
X76877333Y-93792318D02*
X76877333Y-92522318D01*
X76877333Y-92522318D02*
X77482095Y-92522318D01*
X77844953Y-92522318D02*
X78570667Y-92522318D01*
X78207810Y-93792318D02*
X78207810Y-92522318D01*
X120373333Y-102053365D02*
X120312857Y-102113842D01*
X120312857Y-102113842D02*
X120131428Y-102174318D01*
X120131428Y-102174318D02*
X120010476Y-102174318D01*
X120010476Y-102174318D02*
X119829047Y-102113842D01*
X119829047Y-102113842D02*
X119708095Y-101992889D01*
X119708095Y-101992889D02*
X119647618Y-101871937D01*
X119647618Y-101871937D02*
X119587142Y-101630032D01*
X119587142Y-101630032D02*
X119587142Y-101448603D01*
X119587142Y-101448603D02*
X119647618Y-101206699D01*
X119647618Y-101206699D02*
X119708095Y-101085746D01*
X119708095Y-101085746D02*
X119829047Y-100964794D01*
X119829047Y-100964794D02*
X120010476Y-100904318D01*
X120010476Y-100904318D02*
X120131428Y-100904318D01*
X120131428Y-100904318D02*
X120312857Y-100964794D01*
X120312857Y-100964794D02*
X120373333Y-101025270D01*
X121099047Y-101448603D02*
X120978095Y-101388127D01*
X120978095Y-101388127D02*
X120917618Y-101327651D01*
X120917618Y-101327651D02*
X120857142Y-101206699D01*
X120857142Y-101206699D02*
X120857142Y-101146222D01*
X120857142Y-101146222D02*
X120917618Y-101025270D01*
X120917618Y-101025270D02*
X120978095Y-100964794D01*
X120978095Y-100964794D02*
X121099047Y-100904318D01*
X121099047Y-100904318D02*
X121340952Y-100904318D01*
X121340952Y-100904318D02*
X121461904Y-100964794D01*
X121461904Y-100964794D02*
X121522380Y-101025270D01*
X121522380Y-101025270D02*
X121582857Y-101146222D01*
X121582857Y-101146222D02*
X121582857Y-101206699D01*
X121582857Y-101206699D02*
X121522380Y-101327651D01*
X121522380Y-101327651D02*
X121461904Y-101388127D01*
X121461904Y-101388127D02*
X121340952Y-101448603D01*
X121340952Y-101448603D02*
X121099047Y-101448603D01*
X121099047Y-101448603D02*
X120978095Y-101509080D01*
X120978095Y-101509080D02*
X120917618Y-101569556D01*
X120917618Y-101569556D02*
X120857142Y-101690508D01*
X120857142Y-101690508D02*
X120857142Y-101932413D01*
X120857142Y-101932413D02*
X120917618Y-102053365D01*
X120917618Y-102053365D02*
X120978095Y-102113842D01*
X120978095Y-102113842D02*
X121099047Y-102174318D01*
X121099047Y-102174318D02*
X121340952Y-102174318D01*
X121340952Y-102174318D02*
X121461904Y-102113842D01*
X121461904Y-102113842D02*
X121522380Y-102053365D01*
X121522380Y-102053365D02*
X121582857Y-101932413D01*
X121582857Y-101932413D02*
X121582857Y-101690508D01*
X121582857Y-101690508D02*
X121522380Y-101569556D01*
X121522380Y-101569556D02*
X121461904Y-101509080D01*
X121461904Y-101509080D02*
X121340952Y-101448603D01*
D10*
X92148819Y-82589666D02*
X91672628Y-82922999D01*
X92148819Y-83161094D02*
X91148819Y-83161094D01*
X91148819Y-83161094D02*
X91148819Y-82780142D01*
X91148819Y-82780142D02*
X91196438Y-82684904D01*
X91196438Y-82684904D02*
X91244057Y-82637285D01*
X91244057Y-82637285D02*
X91339295Y-82589666D01*
X91339295Y-82589666D02*
X91482152Y-82589666D01*
X91482152Y-82589666D02*
X91577390Y-82637285D01*
X91577390Y-82637285D02*
X91625009Y-82684904D01*
X91625009Y-82684904D02*
X91672628Y-82780142D01*
X91672628Y-82780142D02*
X91672628Y-83161094D01*
X91482152Y-81732523D02*
X92148819Y-81732523D01*
X91101200Y-81970618D02*
X91815485Y-82208713D01*
X91815485Y-82208713D02*
X91815485Y-81589666D01*
D13*
X140292667Y-76901318D02*
X140292667Y-77808461D01*
X140292667Y-77808461D02*
X140232190Y-77989889D01*
X140232190Y-77989889D02*
X140111238Y-78110842D01*
X140111238Y-78110842D02*
X139929809Y-78171318D01*
X139929809Y-78171318D02*
X139808857Y-78171318D01*
X140776476Y-76901318D02*
X141562667Y-76901318D01*
X141562667Y-76901318D02*
X141139333Y-77385127D01*
X141139333Y-77385127D02*
X141320762Y-77385127D01*
X141320762Y-77385127D02*
X141441714Y-77445603D01*
X141441714Y-77445603D02*
X141502190Y-77506080D01*
X141502190Y-77506080D02*
X141562667Y-77627032D01*
X141562667Y-77627032D02*
X141562667Y-77929413D01*
X141562667Y-77929413D02*
X141502190Y-78050365D01*
X141502190Y-78050365D02*
X141441714Y-78110842D01*
X141441714Y-78110842D02*
X141320762Y-78171318D01*
X141320762Y-78171318D02*
X140957905Y-78171318D01*
X140957905Y-78171318D02*
X140836952Y-78110842D01*
X140836952Y-78110842D02*
X140776476Y-78050365D01*
D10*
X134820819Y-118149666D02*
X134344628Y-118482999D01*
X134820819Y-118721094D02*
X133820819Y-118721094D01*
X133820819Y-118721094D02*
X133820819Y-118340142D01*
X133820819Y-118340142D02*
X133868438Y-118244904D01*
X133868438Y-118244904D02*
X133916057Y-118197285D01*
X133916057Y-118197285D02*
X134011295Y-118149666D01*
X134011295Y-118149666D02*
X134154152Y-118149666D01*
X134154152Y-118149666D02*
X134249390Y-118197285D01*
X134249390Y-118197285D02*
X134297009Y-118244904D01*
X134297009Y-118244904D02*
X134344628Y-118340142D01*
X134344628Y-118340142D02*
X134344628Y-118721094D01*
X133916057Y-117768713D02*
X133868438Y-117721094D01*
X133868438Y-117721094D02*
X133820819Y-117625856D01*
X133820819Y-117625856D02*
X133820819Y-117387761D01*
X133820819Y-117387761D02*
X133868438Y-117292523D01*
X133868438Y-117292523D02*
X133916057Y-117244904D01*
X133916057Y-117244904D02*
X134011295Y-117197285D01*
X134011295Y-117197285D02*
X134106533Y-117197285D01*
X134106533Y-117197285D02*
X134249390Y-117244904D01*
X134249390Y-117244904D02*
X134820819Y-117816332D01*
X134820819Y-117816332D02*
X134820819Y-117197285D01*
D13*
X140655318Y-89831332D02*
X141562461Y-89831332D01*
X141562461Y-89831332D02*
X141743889Y-89891809D01*
X141743889Y-89891809D02*
X141864842Y-90012761D01*
X141864842Y-90012761D02*
X141925318Y-90194190D01*
X141925318Y-90194190D02*
X141925318Y-90315142D01*
X141078651Y-88682285D02*
X141925318Y-88682285D01*
X140594842Y-88984666D02*
X141501984Y-89287047D01*
X141501984Y-89287047D02*
X141501984Y-88500856D01*
X99193048Y-75250318D02*
X98769714Y-74645556D01*
X98467333Y-75250318D02*
X98467333Y-73980318D01*
X98467333Y-73980318D02*
X98951143Y-73980318D01*
X98951143Y-73980318D02*
X99072095Y-74040794D01*
X99072095Y-74040794D02*
X99132572Y-74101270D01*
X99132572Y-74101270D02*
X99193048Y-74222222D01*
X99193048Y-74222222D02*
X99193048Y-74403651D01*
X99193048Y-74403651D02*
X99132572Y-74524603D01*
X99132572Y-74524603D02*
X99072095Y-74585080D01*
X99072095Y-74585080D02*
X98951143Y-74645556D01*
X98951143Y-74645556D02*
X98467333Y-74645556D01*
X99555905Y-73980318D02*
X99979238Y-75250318D01*
X99979238Y-75250318D02*
X100402572Y-73980318D01*
X101491143Y-75250318D02*
X100765428Y-75250318D01*
X101128285Y-75250318D02*
X101128285Y-73980318D01*
X101128285Y-73980318D02*
X101007333Y-74161746D01*
X101007333Y-74161746D02*
X100886381Y-74282699D01*
X100886381Y-74282699D02*
X100765428Y-74343175D01*
X90369365Y-80445428D02*
X90429842Y-80505904D01*
X90429842Y-80505904D02*
X90490318Y-80687333D01*
X90490318Y-80687333D02*
X90490318Y-80808285D01*
X90490318Y-80808285D02*
X90429842Y-80989714D01*
X90429842Y-80989714D02*
X90308889Y-81110666D01*
X90308889Y-81110666D02*
X90187937Y-81171143D01*
X90187937Y-81171143D02*
X89946032Y-81231619D01*
X89946032Y-81231619D02*
X89764603Y-81231619D01*
X89764603Y-81231619D02*
X89522699Y-81171143D01*
X89522699Y-81171143D02*
X89401746Y-81110666D01*
X89401746Y-81110666D02*
X89280794Y-80989714D01*
X89280794Y-80989714D02*
X89220318Y-80808285D01*
X89220318Y-80808285D02*
X89220318Y-80687333D01*
X89220318Y-80687333D02*
X89280794Y-80505904D01*
X89280794Y-80505904D02*
X89341270Y-80445428D01*
X90490318Y-79235904D02*
X90490318Y-79961619D01*
X90490318Y-79598762D02*
X89220318Y-79598762D01*
X89220318Y-79598762D02*
X89401746Y-79719714D01*
X89401746Y-79719714D02*
X89522699Y-79840666D01*
X89522699Y-79840666D02*
X89583175Y-79961619D01*
X89220318Y-78449714D02*
X89220318Y-78328761D01*
X89220318Y-78328761D02*
X89280794Y-78207809D01*
X89280794Y-78207809D02*
X89341270Y-78147333D01*
X89341270Y-78147333D02*
X89462222Y-78086857D01*
X89462222Y-78086857D02*
X89704127Y-78026380D01*
X89704127Y-78026380D02*
X90006508Y-78026380D01*
X90006508Y-78026380D02*
X90248413Y-78086857D01*
X90248413Y-78086857D02*
X90369365Y-78147333D01*
X90369365Y-78147333D02*
X90429842Y-78207809D01*
X90429842Y-78207809D02*
X90490318Y-78328761D01*
X90490318Y-78328761D02*
X90490318Y-78449714D01*
X90490318Y-78449714D02*
X90429842Y-78570666D01*
X90429842Y-78570666D02*
X90369365Y-78631142D01*
X90369365Y-78631142D02*
X90248413Y-78691619D01*
X90248413Y-78691619D02*
X90006508Y-78752095D01*
X90006508Y-78752095D02*
X89704127Y-78752095D01*
X89704127Y-78752095D02*
X89462222Y-78691619D01*
X89462222Y-78691619D02*
X89341270Y-78631142D01*
X89341270Y-78631142D02*
X89280794Y-78570666D01*
X89280794Y-78570666D02*
X89220318Y-78449714D01*
D10*
X144835714Y-73606819D02*
X144835714Y-72606819D01*
X144835714Y-72606819D02*
X145073809Y-72606819D01*
X145073809Y-72606819D02*
X145216666Y-72654438D01*
X145216666Y-72654438D02*
X145311904Y-72749676D01*
X145311904Y-72749676D02*
X145359523Y-72844914D01*
X145359523Y-72844914D02*
X145407142Y-73035390D01*
X145407142Y-73035390D02*
X145407142Y-73178247D01*
X145407142Y-73178247D02*
X145359523Y-73368723D01*
X145359523Y-73368723D02*
X145311904Y-73463961D01*
X145311904Y-73463961D02*
X145216666Y-73559200D01*
X145216666Y-73559200D02*
X145073809Y-73606819D01*
X145073809Y-73606819D02*
X144835714Y-73606819D01*
X145788095Y-73559200D02*
X145930952Y-73606819D01*
X145930952Y-73606819D02*
X146169047Y-73606819D01*
X146169047Y-73606819D02*
X146264285Y-73559200D01*
X146264285Y-73559200D02*
X146311904Y-73511580D01*
X146311904Y-73511580D02*
X146359523Y-73416342D01*
X146359523Y-73416342D02*
X146359523Y-73321104D01*
X146359523Y-73321104D02*
X146311904Y-73225866D01*
X146311904Y-73225866D02*
X146264285Y-73178247D01*
X146264285Y-73178247D02*
X146169047Y-73130628D01*
X146169047Y-73130628D02*
X145978571Y-73083009D01*
X145978571Y-73083009D02*
X145883333Y-73035390D01*
X145883333Y-73035390D02*
X145835714Y-72987771D01*
X145835714Y-72987771D02*
X145788095Y-72892533D01*
X145788095Y-72892533D02*
X145788095Y-72797295D01*
X145788095Y-72797295D02*
X145835714Y-72702057D01*
X145835714Y-72702057D02*
X145883333Y-72654438D01*
X145883333Y-72654438D02*
X145978571Y-72606819D01*
X145978571Y-72606819D02*
X146216666Y-72606819D01*
X146216666Y-72606819D02*
X146359523Y-72654438D01*
X147311904Y-73606819D02*
X146740476Y-73606819D01*
X147026190Y-73606819D02*
X147026190Y-72606819D01*
X147026190Y-72606819D02*
X146930952Y-72749676D01*
X146930952Y-72749676D02*
X146835714Y-72844914D01*
X146835714Y-72844914D02*
X146740476Y-72892533D01*
D13*
X85682667Y-106238318D02*
X85682667Y-107145461D01*
X85682667Y-107145461D02*
X85622190Y-107326889D01*
X85622190Y-107326889D02*
X85501238Y-107447842D01*
X85501238Y-107447842D02*
X85319809Y-107508318D01*
X85319809Y-107508318D02*
X85198857Y-107508318D01*
X86952667Y-107508318D02*
X86226952Y-107508318D01*
X86589809Y-107508318D02*
X86589809Y-106238318D01*
X86589809Y-106238318D02*
X86468857Y-106419746D01*
X86468857Y-106419746D02*
X86347905Y-106540699D01*
X86347905Y-106540699D02*
X86226952Y-106601175D01*
X74500618Y-74361318D02*
X74500618Y-73091318D01*
X74500618Y-73091318D02*
X74984428Y-73091318D01*
X74984428Y-73091318D02*
X75105380Y-73151794D01*
X75105380Y-73151794D02*
X75165857Y-73212270D01*
X75165857Y-73212270D02*
X75226333Y-73333222D01*
X75226333Y-73333222D02*
X75226333Y-73514651D01*
X75226333Y-73514651D02*
X75165857Y-73635603D01*
X75165857Y-73635603D02*
X75105380Y-73696080D01*
X75105380Y-73696080D02*
X74984428Y-73756556D01*
X74984428Y-73756556D02*
X74500618Y-73756556D01*
X76193952Y-73696080D02*
X76375380Y-73756556D01*
X76375380Y-73756556D02*
X76435857Y-73817032D01*
X76435857Y-73817032D02*
X76496333Y-73937984D01*
X76496333Y-73937984D02*
X76496333Y-74119413D01*
X76496333Y-74119413D02*
X76435857Y-74240365D01*
X76435857Y-74240365D02*
X76375380Y-74300842D01*
X76375380Y-74300842D02*
X76254428Y-74361318D01*
X76254428Y-74361318D02*
X75770618Y-74361318D01*
X75770618Y-74361318D02*
X75770618Y-73091318D01*
X75770618Y-73091318D02*
X76193952Y-73091318D01*
X76193952Y-73091318D02*
X76314904Y-73151794D01*
X76314904Y-73151794D02*
X76375380Y-73212270D01*
X76375380Y-73212270D02*
X76435857Y-73333222D01*
X76435857Y-73333222D02*
X76435857Y-73454175D01*
X76435857Y-73454175D02*
X76375380Y-73575127D01*
X76375380Y-73575127D02*
X76314904Y-73635603D01*
X76314904Y-73635603D02*
X76193952Y-73696080D01*
X76193952Y-73696080D02*
X75770618Y-73696080D01*
X77705857Y-74361318D02*
X76980142Y-74361318D01*
X77342999Y-74361318D02*
X77342999Y-73091318D01*
X77342999Y-73091318D02*
X77222047Y-73272746D01*
X77222047Y-73272746D02*
X77101095Y-73393699D01*
X77101095Y-73393699D02*
X76980142Y-73454175D01*
X82791904Y-72964318D02*
X83638571Y-72964318D01*
X83638571Y-72964318D02*
X82791904Y-74234318D01*
X82791904Y-74234318D02*
X83638571Y-74234318D01*
X84001428Y-72964318D02*
X84787619Y-72964318D01*
X84787619Y-72964318D02*
X84364285Y-73448127D01*
X84364285Y-73448127D02*
X84545714Y-73448127D01*
X84545714Y-73448127D02*
X84666666Y-73508603D01*
X84666666Y-73508603D02*
X84727142Y-73569080D01*
X84727142Y-73569080D02*
X84787619Y-73690032D01*
X84787619Y-73690032D02*
X84787619Y-73992413D01*
X84787619Y-73992413D02*
X84727142Y-74113365D01*
X84727142Y-74113365D02*
X84666666Y-74173842D01*
X84666666Y-74173842D02*
X84545714Y-74234318D01*
X84545714Y-74234318D02*
X84182857Y-74234318D01*
X84182857Y-74234318D02*
X84061904Y-74173842D01*
X84061904Y-74173842D02*
X84001428Y-74113365D01*
X110975333Y-102053365D02*
X110914857Y-102113842D01*
X110914857Y-102113842D02*
X110733428Y-102174318D01*
X110733428Y-102174318D02*
X110612476Y-102174318D01*
X110612476Y-102174318D02*
X110431047Y-102113842D01*
X110431047Y-102113842D02*
X110310095Y-101992889D01*
X110310095Y-101992889D02*
X110249618Y-101871937D01*
X110249618Y-101871937D02*
X110189142Y-101630032D01*
X110189142Y-101630032D02*
X110189142Y-101448603D01*
X110189142Y-101448603D02*
X110249618Y-101206699D01*
X110249618Y-101206699D02*
X110310095Y-101085746D01*
X110310095Y-101085746D02*
X110431047Y-100964794D01*
X110431047Y-100964794D02*
X110612476Y-100904318D01*
X110612476Y-100904318D02*
X110733428Y-100904318D01*
X110733428Y-100904318D02*
X110914857Y-100964794D01*
X110914857Y-100964794D02*
X110975333Y-101025270D01*
X111398666Y-100904318D02*
X112245333Y-100904318D01*
X112245333Y-100904318D02*
X111701047Y-102174318D01*
X142983270Y-109086952D02*
X142922794Y-109207904D01*
X142922794Y-109207904D02*
X142801842Y-109328857D01*
X142801842Y-109328857D02*
X142620413Y-109510285D01*
X142620413Y-109510285D02*
X142559937Y-109631238D01*
X142559937Y-109631238D02*
X142559937Y-109752190D01*
X142862318Y-109691714D02*
X142801842Y-109812666D01*
X142801842Y-109812666D02*
X142680889Y-109933619D01*
X142680889Y-109933619D02*
X142438984Y-109994095D01*
X142438984Y-109994095D02*
X142015651Y-109994095D01*
X142015651Y-109994095D02*
X141773746Y-109933619D01*
X141773746Y-109933619D02*
X141652794Y-109812666D01*
X141652794Y-109812666D02*
X141592318Y-109691714D01*
X141592318Y-109691714D02*
X141592318Y-109449809D01*
X141592318Y-109449809D02*
X141652794Y-109328857D01*
X141652794Y-109328857D02*
X141773746Y-109207904D01*
X141773746Y-109207904D02*
X142015651Y-109147428D01*
X142015651Y-109147428D02*
X142438984Y-109147428D01*
X142438984Y-109147428D02*
X142680889Y-109207904D01*
X142680889Y-109207904D02*
X142801842Y-109328857D01*
X142801842Y-109328857D02*
X142862318Y-109449809D01*
X142862318Y-109449809D02*
X142862318Y-109691714D01*
X142862318Y-107937904D02*
X142862318Y-108663619D01*
X142862318Y-108300762D02*
X141592318Y-108300762D01*
X141592318Y-108300762D02*
X141773746Y-108421714D01*
X141773746Y-108421714D02*
X141894699Y-108542666D01*
X141894699Y-108542666D02*
X141955175Y-108663619D01*
X86571667Y-100269318D02*
X86571667Y-101176461D01*
X86571667Y-101176461D02*
X86511190Y-101357889D01*
X86511190Y-101357889D02*
X86390238Y-101478842D01*
X86390238Y-101478842D02*
X86208809Y-101539318D01*
X86208809Y-101539318D02*
X86087857Y-101539318D01*
X87115952Y-100390270D02*
X87176428Y-100329794D01*
X87176428Y-100329794D02*
X87297381Y-100269318D01*
X87297381Y-100269318D02*
X87599762Y-100269318D01*
X87599762Y-100269318D02*
X87720714Y-100329794D01*
X87720714Y-100329794D02*
X87781190Y-100390270D01*
X87781190Y-100390270D02*
X87841667Y-100511222D01*
X87841667Y-100511222D02*
X87841667Y-100632175D01*
X87841667Y-100632175D02*
X87781190Y-100813603D01*
X87781190Y-100813603D02*
X87055476Y-101539318D01*
X87055476Y-101539318D02*
X87841667Y-101539318D01*
X93937667Y-107478080D02*
X93514333Y-107478080D01*
X93514333Y-108143318D02*
X93514333Y-106873318D01*
X93514333Y-106873318D02*
X94119095Y-106873318D01*
X95268143Y-108143318D02*
X94542428Y-108143318D01*
X94905285Y-108143318D02*
X94905285Y-106873318D01*
X94905285Y-106873318D02*
X94784333Y-107054746D01*
X94784333Y-107054746D02*
X94663381Y-107175699D01*
X94663381Y-107175699D02*
X94542428Y-107236175D01*
D10*
X90805095Y-88481819D02*
X90805095Y-89291342D01*
X90805095Y-89291342D02*
X90852714Y-89386580D01*
X90852714Y-89386580D02*
X90900333Y-89434200D01*
X90900333Y-89434200D02*
X90995571Y-89481819D01*
X90995571Y-89481819D02*
X91186047Y-89481819D01*
X91186047Y-89481819D02*
X91281285Y-89434200D01*
X91281285Y-89434200D02*
X91328904Y-89386580D01*
X91328904Y-89386580D02*
X91376523Y-89291342D01*
X91376523Y-89291342D02*
X91376523Y-88481819D01*
X92376523Y-89481819D02*
X91805095Y-89481819D01*
X92090809Y-89481819D02*
X92090809Y-88481819D01*
X92090809Y-88481819D02*
X91995571Y-88624676D01*
X91995571Y-88624676D02*
X91900333Y-88719914D01*
X91900333Y-88719914D02*
X91805095Y-88767533D01*
D13*
X98666904Y-119065318D02*
X99513571Y-119065318D01*
X99513571Y-119065318D02*
X98666904Y-120335318D01*
X98666904Y-120335318D02*
X99513571Y-120335318D01*
X100662619Y-120335318D02*
X99936904Y-120335318D01*
X100299761Y-120335318D02*
X100299761Y-119065318D01*
X100299761Y-119065318D02*
X100178809Y-119246746D01*
X100178809Y-119246746D02*
X100057857Y-119367699D01*
X100057857Y-119367699D02*
X99936904Y-119428175D01*
D10*
X88733333Y-74749819D02*
X88400000Y-74273628D01*
X88161905Y-74749819D02*
X88161905Y-73749819D01*
X88161905Y-73749819D02*
X88542857Y-73749819D01*
X88542857Y-73749819D02*
X88638095Y-73797438D01*
X88638095Y-73797438D02*
X88685714Y-73845057D01*
X88685714Y-73845057D02*
X88733333Y-73940295D01*
X88733333Y-73940295D02*
X88733333Y-74083152D01*
X88733333Y-74083152D02*
X88685714Y-74178390D01*
X88685714Y-74178390D02*
X88638095Y-74226009D01*
X88638095Y-74226009D02*
X88542857Y-74273628D01*
X88542857Y-74273628D02*
X88161905Y-74273628D01*
X89638095Y-73749819D02*
X89161905Y-73749819D01*
X89161905Y-73749819D02*
X89114286Y-74226009D01*
X89114286Y-74226009D02*
X89161905Y-74178390D01*
X89161905Y-74178390D02*
X89257143Y-74130771D01*
X89257143Y-74130771D02*
X89495238Y-74130771D01*
X89495238Y-74130771D02*
X89590476Y-74178390D01*
X89590476Y-74178390D02*
X89638095Y-74226009D01*
X89638095Y-74226009D02*
X89685714Y-74321247D01*
X89685714Y-74321247D02*
X89685714Y-74559342D01*
X89685714Y-74559342D02*
X89638095Y-74654580D01*
X89638095Y-74654580D02*
X89590476Y-74702200D01*
X89590476Y-74702200D02*
X89495238Y-74749819D01*
X89495238Y-74749819D02*
X89257143Y-74749819D01*
X89257143Y-74749819D02*
X89161905Y-74702200D01*
X89161905Y-74702200D02*
X89114286Y-74654580D01*
D13*
X105198333Y-118817365D02*
X105137857Y-118877842D01*
X105137857Y-118877842D02*
X104956428Y-118938318D01*
X104956428Y-118938318D02*
X104835476Y-118938318D01*
X104835476Y-118938318D02*
X104654047Y-118877842D01*
X104654047Y-118877842D02*
X104533095Y-118756889D01*
X104533095Y-118756889D02*
X104472618Y-118635937D01*
X104472618Y-118635937D02*
X104412142Y-118394032D01*
X104412142Y-118394032D02*
X104412142Y-118212603D01*
X104412142Y-118212603D02*
X104472618Y-117970699D01*
X104472618Y-117970699D02*
X104533095Y-117849746D01*
X104533095Y-117849746D02*
X104654047Y-117728794D01*
X104654047Y-117728794D02*
X104835476Y-117668318D01*
X104835476Y-117668318D02*
X104956428Y-117668318D01*
X104956428Y-117668318D02*
X105137857Y-117728794D01*
X105137857Y-117728794D02*
X105198333Y-117789270D01*
X106407857Y-118938318D02*
X105682142Y-118938318D01*
X106044999Y-118938318D02*
X106044999Y-117668318D01*
X106044999Y-117668318D02*
X105924047Y-117849746D01*
X105924047Y-117849746D02*
X105803095Y-117970699D01*
X105803095Y-117970699D02*
X105682142Y-118031175D01*
D14*
%TO.C,Z2*%
X85120000Y-88630000D02*
X85120000Y-86630000D01*
D15*
X83820000Y-91330000D02*
X83820000Y-91330000D01*
X83820000Y-91230000D02*
X83820000Y-91230000D01*
D14*
X82520000Y-88630000D02*
X82520000Y-86630000D01*
D15*
X83820000Y-91230000D02*
G75*
G03*
X83820000Y-91330000I0J-50000D01*
G01*
X83820000Y-91330000D02*
G75*
G03*
X83820000Y-91230000I0J50000D01*
G01*
D14*
%TO.C,L1*%
X108392000Y-113409000D02*
X112842000Y-113409000D01*
X112842000Y-109349000D02*
X108392000Y-109349000D01*
D16*
%TO.C,R3*%
X136044000Y-117194064D02*
X136044000Y-116739936D01*
X137514000Y-117194064D02*
X137514000Y-116739936D01*
D15*
%TO.C,Y1*%
X107474000Y-94869000D02*
X107474000Y-94869000D01*
X107574000Y-94869000D02*
X107574000Y-94869000D01*
D14*
X109774000Y-92519000D02*
X121174000Y-92519000D01*
X109774000Y-93469000D02*
X109774000Y-92519000D01*
X109774000Y-97219000D02*
X109774000Y-96269000D01*
X121174000Y-92519000D02*
X121174000Y-93469000D01*
X121174000Y-96269000D02*
X121174000Y-97219000D01*
X121174000Y-97219000D02*
X109774000Y-97219000D01*
D15*
X107574000Y-94869000D02*
G75*
G03*
X107474000Y-94869000I-50000J0D01*
G01*
X107474000Y-94869000D02*
G75*
G03*
X107574000Y-94869000I50000J0D01*
G01*
%TO.C,SW1*%
X71090000Y-85670000D02*
X71090000Y-85670000D01*
X71190000Y-85670000D02*
X71190000Y-85670000D01*
D14*
X72640000Y-86720000D02*
X72640000Y-89120000D01*
X73240000Y-90920000D02*
X77840000Y-90920000D01*
X73440000Y-84920000D02*
X77840000Y-84920000D01*
X78640000Y-86720000D02*
X78640000Y-89120000D01*
D15*
X71190000Y-85670000D02*
G75*
G03*
X71090000Y-85670000I-50000J0D01*
G01*
X71090000Y-85670000D02*
G75*
G03*
X71190000Y-85670000I50000J0D01*
G01*
D16*
%TO.C,R4*%
X89127064Y-92175000D02*
X88672936Y-92175000D01*
X89127064Y-90705000D02*
X88672936Y-90705000D01*
D14*
%TO.C,J3*%
X131699000Y-80391000D02*
X131699000Y-81661000D01*
X131699000Y-81661000D02*
X139319000Y-81661000D01*
X139319000Y-76581000D02*
X132969000Y-76581000D01*
X139319000Y-81661000D02*
X139319000Y-76581000D01*
%TO.C,G\u002A\u002A\u002A*%
G36*
X108809730Y-106133057D02*
G01*
X108823155Y-106137533D01*
X108833553Y-106145006D01*
X108840538Y-106154781D01*
X108843727Y-106166161D01*
X108842735Y-106178452D01*
X108839490Y-106186952D01*
X108836329Y-106191907D01*
X108831188Y-106198710D01*
X108824864Y-106206444D01*
X108818156Y-106214193D01*
X108811859Y-106221041D01*
X108806771Y-106226073D01*
X108803689Y-106228371D01*
X108803398Y-106228423D01*
X108801044Y-106226870D01*
X108795921Y-106222748D01*
X108788840Y-106216729D01*
X108782475Y-106211142D01*
X108773283Y-106202968D01*
X108764333Y-106195005D01*
X108756926Y-106188409D01*
X108753802Y-106185625D01*
X108744454Y-106177286D01*
X108762257Y-106159354D01*
X108775362Y-106147090D01*
X108786597Y-106138738D01*
X108796481Y-106134011D01*
X108805531Y-106132623D01*
X108809730Y-106133057D01*
G37*
G36*
X106282224Y-106546146D02*
G01*
X106288444Y-106549244D01*
X106296447Y-106553607D01*
X106305080Y-106558580D01*
X106313191Y-106563507D01*
X106319627Y-106567734D01*
X106321773Y-106569314D01*
X106331007Y-106578896D01*
X106335788Y-106589853D01*
X106336659Y-106598111D01*
X106334539Y-106611052D01*
X106328591Y-106621661D01*
X106319461Y-106629434D01*
X106307790Y-106633867D01*
X106294225Y-106634458D01*
X106290787Y-106633977D01*
X106285196Y-106632378D01*
X106277089Y-106629315D01*
X106267615Y-106625311D01*
X106257921Y-106620893D01*
X106249157Y-106616587D01*
X106242470Y-106612916D01*
X106239009Y-106610408D01*
X106238871Y-106610221D01*
X106239703Y-106607689D01*
X106242655Y-106601981D01*
X106247198Y-106593959D01*
X106252802Y-106584484D01*
X106258937Y-106574420D01*
X106265073Y-106564630D01*
X106270682Y-106555975D01*
X106275233Y-106549319D01*
X106278196Y-106545524D01*
X106278939Y-106544968D01*
X106282224Y-106546146D01*
G37*
G36*
X108574918Y-106351774D02*
G01*
X108584961Y-106357571D01*
X108592725Y-106365921D01*
X108597576Y-106375703D01*
X108598879Y-106385795D01*
X108597571Y-106391868D01*
X108591876Y-106402005D01*
X108582044Y-106413659D01*
X108568396Y-106426482D01*
X108557931Y-106435045D01*
X108549460Y-106441498D01*
X108542331Y-106446628D01*
X108537427Y-106449817D01*
X108535737Y-106450565D01*
X108533503Y-106448742D01*
X108528824Y-106443879D01*
X108522328Y-106436664D01*
X108514648Y-106427784D01*
X108512532Y-106425284D01*
X108504787Y-106415940D01*
X108498317Y-106407848D01*
X108493695Y-106401747D01*
X108491499Y-106398380D01*
X108491396Y-106398045D01*
X108493224Y-106395808D01*
X108498144Y-106391426D01*
X108505310Y-106385553D01*
X108513873Y-106378842D01*
X108522989Y-106371946D01*
X108531810Y-106365519D01*
X108539490Y-106360213D01*
X108544539Y-106357043D01*
X108557408Y-106351511D01*
X108568939Y-106350383D01*
X108574918Y-106351774D01*
G37*
G36*
X106029380Y-106411309D02*
G01*
X106027874Y-106415754D01*
X106024922Y-106423523D01*
X106020825Y-106433897D01*
X106015881Y-106446153D01*
X106010392Y-106459570D01*
X106004657Y-106473427D01*
X105998976Y-106487002D01*
X105993648Y-106499574D01*
X105988975Y-106510422D01*
X105985255Y-106518823D01*
X105982789Y-106524057D01*
X105981911Y-106525480D01*
X105979548Y-106524043D01*
X105974041Y-106520192D01*
X105966095Y-106514431D01*
X105956414Y-106507269D01*
X105950896Y-106503135D01*
X105940707Y-106495392D01*
X105932054Y-106488666D01*
X105925599Y-106483485D01*
X105922006Y-106480375D01*
X105921490Y-106479747D01*
X105923448Y-106478155D01*
X105928928Y-106474278D01*
X105937409Y-106468469D01*
X105948368Y-106461084D01*
X105961281Y-106452478D01*
X105975625Y-106443004D01*
X105976070Y-106442712D01*
X105993719Y-106431238D01*
X106007972Y-106422246D01*
X106018707Y-106415809D01*
X106025805Y-106411997D01*
X106029144Y-106410881D01*
X106029380Y-106411309D01*
G37*
G36*
X108286361Y-106557204D02*
G01*
X108301716Y-106561921D01*
X108301771Y-106561947D01*
X108315013Y-106570390D01*
X108328389Y-106582981D01*
X108341402Y-106599077D01*
X108353553Y-106618038D01*
X108364346Y-106639220D01*
X108367725Y-106647076D01*
X108372893Y-106664238D01*
X108374393Y-106680937D01*
X108372227Y-106696224D01*
X108367644Y-106707162D01*
X108356293Y-106721864D01*
X108341777Y-106733258D01*
X108324800Y-106740928D01*
X108306065Y-106744461D01*
X108304187Y-106744568D01*
X108294698Y-106744679D01*
X108286369Y-106744222D01*
X108281223Y-106743349D01*
X108264901Y-106735513D01*
X108249183Y-106722932D01*
X108234135Y-106705661D01*
X108228875Y-106698277D01*
X108214960Y-106675287D01*
X108205458Y-106653899D01*
X108200370Y-106634168D01*
X108199701Y-106616150D01*
X108203454Y-106599899D01*
X108211632Y-106585473D01*
X108221474Y-106575188D01*
X108235948Y-106565538D01*
X108252343Y-106559199D01*
X108269525Y-106556359D01*
X108286361Y-106557204D01*
G37*
G36*
X107328085Y-103838581D02*
G01*
X107354251Y-103839121D01*
X107377586Y-103840107D01*
X107399085Y-103841631D01*
X107419745Y-103843785D01*
X107440561Y-103846659D01*
X107462531Y-103850345D01*
X107486649Y-103854934D01*
X107493754Y-103856360D01*
X107559645Y-103872124D01*
X107623871Y-103892325D01*
X107686245Y-103916802D01*
X107746578Y-103945391D01*
X107804681Y-103977929D01*
X107860367Y-104014254D01*
X107913448Y-104054204D01*
X107963735Y-104097615D01*
X108011040Y-104144325D01*
X108055175Y-104194172D01*
X108095952Y-104246992D01*
X108133182Y-104302623D01*
X108166677Y-104360903D01*
X108196249Y-104421669D01*
X108221709Y-104484758D01*
X108222041Y-104485671D01*
X108231933Y-104514816D01*
X108241515Y-104546548D01*
X108250439Y-104579496D01*
X108258352Y-104612286D01*
X108264906Y-104643546D01*
X108269749Y-104671903D01*
X108269981Y-104673506D01*
X108271280Y-104682586D01*
X108147886Y-104681961D01*
X108024493Y-104681335D01*
X108018828Y-104655971D01*
X108003543Y-104598549D01*
X107983728Y-104542747D01*
X107959453Y-104488707D01*
X107930787Y-104436571D01*
X107897800Y-104386481D01*
X107867363Y-104346775D01*
X107855694Y-104333273D01*
X107841258Y-104317745D01*
X107824993Y-104301104D01*
X107807833Y-104284263D01*
X107790717Y-104268137D01*
X107774578Y-104253640D01*
X107760355Y-104241686D01*
X107756972Y-104239019D01*
X107707129Y-104203269D01*
X107655807Y-104172114D01*
X107602956Y-104145535D01*
X107548525Y-104123511D01*
X107492466Y-104106024D01*
X107434728Y-104093053D01*
X107375262Y-104084580D01*
X107362104Y-104083331D01*
X107342288Y-104082130D01*
X107319185Y-104081575D01*
X107294168Y-104081633D01*
X107268611Y-104082270D01*
X107243887Y-104083455D01*
X107221369Y-104085154D01*
X107204175Y-104087089D01*
X107145283Y-104097584D01*
X107087922Y-104112593D01*
X107032309Y-104131989D01*
X106978655Y-104155647D01*
X106927176Y-104183438D01*
X106878085Y-104215237D01*
X106831597Y-104250915D01*
X106787925Y-104290345D01*
X106747284Y-104333402D01*
X106709887Y-104379957D01*
X106709417Y-104380593D01*
X106676473Y-104429215D01*
X106647783Y-104479891D01*
X106623374Y-104532342D01*
X106603273Y-104586288D01*
X106587507Y-104641451D01*
X106576102Y-104697552D01*
X106569084Y-104754311D01*
X106566481Y-104811449D01*
X106568319Y-104868686D01*
X106574625Y-104925744D01*
X106585425Y-104982344D01*
X106600746Y-105038206D01*
X106620614Y-105093051D01*
X106637733Y-105131717D01*
X106665396Y-105184128D01*
X106696862Y-105233764D01*
X106731914Y-105280456D01*
X106770332Y-105324033D01*
X106811899Y-105364322D01*
X106856396Y-105401153D01*
X106903605Y-105434354D01*
X106953306Y-105463755D01*
X107005282Y-105489185D01*
X107059314Y-105510471D01*
X107115184Y-105527443D01*
X107154247Y-105536460D01*
X107181393Y-105541547D01*
X107206527Y-105545340D01*
X107231144Y-105547980D01*
X107256741Y-105549610D01*
X107284813Y-105550372D01*
X107301714Y-105550472D01*
X107346536Y-105549435D01*
X107388377Y-105546196D01*
X107428650Y-105540558D01*
X107468770Y-105532328D01*
X107507594Y-105522055D01*
X107562505Y-105503646D01*
X107615419Y-105481024D01*
X107666138Y-105454414D01*
X107714460Y-105424041D01*
X107760186Y-105390131D01*
X107803115Y-105352906D01*
X107843046Y-105312594D01*
X107879779Y-105269417D01*
X107913114Y-105223603D01*
X107942849Y-105175374D01*
X107968786Y-105124956D01*
X107990723Y-105072574D01*
X108008459Y-105018453D01*
X108021796Y-104962818D01*
X108025774Y-104940675D01*
X108031225Y-104907214D01*
X108153816Y-104907203D01*
X108276408Y-104907193D01*
X108276408Y-104913108D01*
X108276026Y-104919396D01*
X108274976Y-104929422D01*
X108273397Y-104942163D01*
X108271431Y-104956593D01*
X108269218Y-104971688D01*
X108266900Y-104986425D01*
X108264617Y-104999778D01*
X108264100Y-105002609D01*
X108249400Y-105068802D01*
X108230180Y-105133543D01*
X108206588Y-105196618D01*
X108178775Y-105257813D01*
X108146890Y-105316911D01*
X108111082Y-105373699D01*
X108071501Y-105427961D01*
X108028297Y-105479483D01*
X107981618Y-105528049D01*
X107931616Y-105573445D01*
X107878438Y-105615456D01*
X107822235Y-105653867D01*
X107802278Y-105666180D01*
X107742533Y-105699324D01*
X107681059Y-105728018D01*
X107617752Y-105752297D01*
X107552507Y-105772197D01*
X107485220Y-105787753D01*
X107415786Y-105799002D01*
X107409208Y-105799831D01*
X107397849Y-105800919D01*
X107382589Y-105801928D01*
X107364360Y-105802836D01*
X107344091Y-105803619D01*
X107322712Y-105804256D01*
X107301155Y-105804723D01*
X107280350Y-105804999D01*
X107261226Y-105805061D01*
X107244716Y-105804886D01*
X107231748Y-105804451D01*
X107228039Y-105804221D01*
X107210588Y-105802632D01*
X107189879Y-105800267D01*
X107167383Y-105797332D01*
X107144571Y-105794031D01*
X107122915Y-105790570D01*
X107103886Y-105787154D01*
X107099638Y-105786316D01*
X107033851Y-105770608D01*
X106969610Y-105750418D01*
X106907120Y-105725907D01*
X106846589Y-105697236D01*
X106788225Y-105664566D01*
X106732233Y-105628058D01*
X106678822Y-105587872D01*
X106628198Y-105544170D01*
X106580568Y-105497111D01*
X106536140Y-105446858D01*
X106495121Y-105393570D01*
X106457717Y-105337408D01*
X106424135Y-105278534D01*
X106410227Y-105250994D01*
X106383482Y-105190514D01*
X106360655Y-105127523D01*
X106341897Y-105062533D01*
X106327358Y-104996056D01*
X106318102Y-104936180D01*
X106316279Y-104917539D01*
X106314903Y-104895122D01*
X106313969Y-104869898D01*
X106313474Y-104842836D01*
X106313413Y-104814904D01*
X106313782Y-104787072D01*
X106314577Y-104760309D01*
X106315792Y-104735583D01*
X106317424Y-104713864D01*
X106319169Y-104698244D01*
X106330996Y-104628193D01*
X106347073Y-104560419D01*
X106367436Y-104494843D01*
X106392118Y-104431383D01*
X106421153Y-104369963D01*
X106454574Y-104310501D01*
X106492415Y-104252918D01*
X106528985Y-104204254D01*
X106542952Y-104187559D01*
X106559864Y-104168677D01*
X106578893Y-104148437D01*
X106599211Y-104127667D01*
X106619988Y-104107196D01*
X106640396Y-104087854D01*
X106659607Y-104070467D01*
X106676791Y-104055867D01*
X106679698Y-104053524D01*
X106735322Y-104012166D01*
X106793257Y-103974952D01*
X106853299Y-103941974D01*
X106915245Y-103913326D01*
X106978893Y-103889100D01*
X107044041Y-103869389D01*
X107110484Y-103854287D01*
X107116921Y-103853084D01*
X107139190Y-103849115D01*
X107158916Y-103845911D01*
X107177053Y-103843394D01*
X107194550Y-103841487D01*
X107212359Y-103840114D01*
X107231432Y-103839197D01*
X107252719Y-103838658D01*
X107277172Y-103838422D01*
X107298091Y-103838396D01*
X107328085Y-103838581D01*
G37*
G36*
X107426422Y-103240881D02*
G01*
X107513894Y-103249361D01*
X107521534Y-103250327D01*
X107604522Y-103263434D01*
X107686941Y-103281249D01*
X107768508Y-103303655D01*
X107848938Y-103330537D01*
X107927947Y-103361780D01*
X108005253Y-103397268D01*
X108080570Y-103436885D01*
X108153616Y-103480517D01*
X108224106Y-103528047D01*
X108249719Y-103546774D01*
X108280528Y-103570301D01*
X108309146Y-103593281D01*
X108336618Y-103616627D01*
X108363992Y-103641249D01*
X108392315Y-103668060D01*
X108417914Y-103693249D01*
X108439183Y-103714621D01*
X108457591Y-103733460D01*
X108473817Y-103750521D01*
X108488538Y-103766560D01*
X108502434Y-103782330D01*
X108516183Y-103798588D01*
X108530462Y-103816089D01*
X108545952Y-103835588D01*
X108547173Y-103837141D01*
X108598769Y-103906701D01*
X108646312Y-103978810D01*
X108689718Y-104053286D01*
X108728902Y-104129943D01*
X108763780Y-104208598D01*
X108794268Y-104289068D01*
X108820280Y-104371167D01*
X108841732Y-104454713D01*
X108851114Y-104498957D01*
X108854876Y-104518991D01*
X108858621Y-104540645D01*
X108862243Y-104563148D01*
X108865637Y-104585730D01*
X108868695Y-104607622D01*
X108871312Y-104628052D01*
X108873379Y-104646252D01*
X108874792Y-104661450D01*
X108875444Y-104672877D01*
X108875476Y-104675191D01*
X108875476Y-104682543D01*
X108734400Y-104682543D01*
X108593325Y-104682543D01*
X108591707Y-104667445D01*
X108581308Y-104592606D01*
X108566246Y-104517921D01*
X108546679Y-104443860D01*
X108522765Y-104370893D01*
X108494662Y-104299489D01*
X108462529Y-104230116D01*
X108426523Y-104163245D01*
X108415792Y-104145072D01*
X108385936Y-104097566D01*
X108355319Y-104053127D01*
X108323149Y-104010744D01*
X108288630Y-103969407D01*
X108250970Y-103928106D01*
X108220972Y-103897335D01*
X108195102Y-103871866D01*
X108171254Y-103849319D01*
X108148444Y-103828835D01*
X108125690Y-103809554D01*
X108102006Y-103790619D01*
X108077180Y-103771742D01*
X108013293Y-103727152D01*
X107947075Y-103686723D01*
X107878735Y-103650506D01*
X107808483Y-103618552D01*
X107736528Y-103590913D01*
X107663079Y-103567640D01*
X107588347Y-103548784D01*
X107512540Y-103534397D01*
X107435868Y-103524530D01*
X107358541Y-103519234D01*
X107280767Y-103518562D01*
X107202756Y-103522563D01*
X107124718Y-103531290D01*
X107107259Y-103533898D01*
X107030705Y-103548283D01*
X106955462Y-103567254D01*
X106881717Y-103590699D01*
X106809656Y-103618505D01*
X106739465Y-103650559D01*
X106671333Y-103686748D01*
X106605444Y-103726962D01*
X106541986Y-103771085D01*
X106481145Y-103819007D01*
X106423108Y-103870615D01*
X106368061Y-103925796D01*
X106316192Y-103984437D01*
X106275983Y-104035261D01*
X106231097Y-104098955D01*
X106190416Y-104164871D01*
X106153972Y-104232796D01*
X106121795Y-104302520D01*
X106093918Y-104373832D01*
X106070371Y-104446520D01*
X106051185Y-104520374D01*
X106036392Y-104595181D01*
X106026023Y-104670731D01*
X106020109Y-104746813D01*
X106018681Y-104823216D01*
X106021770Y-104899728D01*
X106029409Y-104976138D01*
X106041627Y-105052234D01*
X106058456Y-105127807D01*
X106079928Y-105202644D01*
X106096360Y-105250712D01*
X106125302Y-105323203D01*
X106158553Y-105393646D01*
X106195961Y-105461849D01*
X106237375Y-105527622D01*
X106282645Y-105590775D01*
X106331619Y-105651119D01*
X106384146Y-105708462D01*
X106440077Y-105762614D01*
X106499258Y-105813386D01*
X106561540Y-105860587D01*
X106602594Y-105888596D01*
X106670319Y-105930062D01*
X106739864Y-105967055D01*
X106811197Y-105999561D01*
X106884286Y-106027568D01*
X106959098Y-106051063D01*
X107035600Y-106070035D01*
X107113759Y-106084470D01*
X107114506Y-106084584D01*
X107179334Y-106092632D01*
X107246424Y-106097352D01*
X107314584Y-106098744D01*
X107382622Y-106096808D01*
X107449349Y-106091545D01*
X107503417Y-106084566D01*
X107581819Y-106070127D01*
X107658395Y-106051214D01*
X107733152Y-106027827D01*
X107806099Y-105999961D01*
X107877245Y-105967612D01*
X107946596Y-105930779D01*
X108014163Y-105889458D01*
X108015523Y-105888568D01*
X108079663Y-105843703D01*
X108140669Y-105795274D01*
X108198418Y-105743464D01*
X108252790Y-105688461D01*
X108303662Y-105630449D01*
X108350915Y-105569614D01*
X108394427Y-105506141D01*
X108434076Y-105440215D01*
X108469742Y-105372022D01*
X108501302Y-105301747D01*
X108528637Y-105229576D01*
X108551624Y-105155694D01*
X108570142Y-105080286D01*
X108580774Y-105024350D01*
X108583233Y-105008965D01*
X108585733Y-104992163D01*
X108588162Y-104974830D01*
X108590405Y-104957856D01*
X108592348Y-104942127D01*
X108593878Y-104928532D01*
X108594881Y-104917959D01*
X108595243Y-104911420D01*
X108595470Y-104910532D01*
X108596382Y-104909777D01*
X108598342Y-104909145D01*
X108601711Y-104908625D01*
X108606853Y-104908206D01*
X108614128Y-104907877D01*
X108623900Y-104907628D01*
X108636531Y-104907447D01*
X108652383Y-104907324D01*
X108671819Y-104907248D01*
X108695200Y-104907209D01*
X108722889Y-104907194D01*
X108736662Y-104907193D01*
X108878058Y-104907193D01*
X108876821Y-104918667D01*
X108876100Y-104925741D01*
X108875093Y-104936140D01*
X108873941Y-104948376D01*
X108872952Y-104959128D01*
X108863263Y-105039679D01*
X108848891Y-105120259D01*
X108829969Y-105200526D01*
X108806631Y-105280136D01*
X108779011Y-105358744D01*
X108747242Y-105436008D01*
X108711458Y-105511584D01*
X108671792Y-105585127D01*
X108628378Y-105656295D01*
X108581350Y-105724743D01*
X108568750Y-105741782D01*
X108514477Y-105810131D01*
X108456958Y-105874983D01*
X108396343Y-105936252D01*
X108332785Y-105993855D01*
X108266437Y-106047707D01*
X108197449Y-106097723D01*
X108125974Y-106143820D01*
X108052165Y-106185914D01*
X107976172Y-106223918D01*
X107898149Y-106257751D01*
X107818246Y-106287326D01*
X107736617Y-106312561D01*
X107653413Y-106333369D01*
X107568786Y-106349668D01*
X107482888Y-106361372D01*
X107445442Y-106364985D01*
X107430945Y-106366018D01*
X107413101Y-106366983D01*
X107392789Y-106367859D01*
X107370888Y-106368625D01*
X107348274Y-106369261D01*
X107325827Y-106369745D01*
X107304426Y-106370057D01*
X107284947Y-106370175D01*
X107268270Y-106370079D01*
X107255272Y-106369747D01*
X107252195Y-106369597D01*
X107214043Y-106367219D01*
X107179569Y-106364576D01*
X107147622Y-106361550D01*
X107117050Y-106358019D01*
X107086702Y-106353863D01*
X107056531Y-106349145D01*
X106972294Y-106332863D01*
X106889753Y-106312145D01*
X106809037Y-106287123D01*
X106730273Y-106257927D01*
X106653586Y-106224692D01*
X106579103Y-106187548D01*
X106506952Y-106146628D01*
X106437259Y-106102064D01*
X106370151Y-106053988D01*
X106305755Y-106002532D01*
X106244197Y-105947828D01*
X106185605Y-105890008D01*
X106130104Y-105829205D01*
X106077823Y-105765550D01*
X106028887Y-105699175D01*
X105983423Y-105630214D01*
X105941558Y-105558796D01*
X105903420Y-105485056D01*
X105869134Y-105409124D01*
X105838828Y-105331134D01*
X105812627Y-105251216D01*
X105790660Y-105169504D01*
X105773053Y-105086128D01*
X105759932Y-105001222D01*
X105759500Y-104997778D01*
X105756357Y-104971173D01*
X105753845Y-104946620D01*
X105751904Y-104923045D01*
X105750474Y-104899378D01*
X105749495Y-104874546D01*
X105748907Y-104847476D01*
X105748651Y-104817096D01*
X105748628Y-104803322D01*
X105748737Y-104772751D01*
X105749117Y-104745895D01*
X105749834Y-104721641D01*
X105750953Y-104698878D01*
X105752541Y-104676493D01*
X105754664Y-104653374D01*
X105757389Y-104628409D01*
X105760639Y-104601620D01*
X105773634Y-104517433D01*
X105791294Y-104434233D01*
X105813516Y-104352218D01*
X105840201Y-104271586D01*
X105871246Y-104192532D01*
X105906550Y-104115254D01*
X105946011Y-104039950D01*
X105989529Y-103966816D01*
X106037001Y-103896049D01*
X106088326Y-103827847D01*
X106143403Y-103762406D01*
X106202131Y-103699924D01*
X106247033Y-103656494D01*
X106312607Y-103598815D01*
X106380704Y-103545207D01*
X106451170Y-103495720D01*
X106523856Y-103450402D01*
X106598608Y-103409301D01*
X106675275Y-103372466D01*
X106753706Y-103339944D01*
X106833748Y-103311786D01*
X106915250Y-103288037D01*
X106998061Y-103268748D01*
X107082027Y-103253966D01*
X107166998Y-103243740D01*
X107252822Y-103238118D01*
X107339347Y-103237149D01*
X107426422Y-103240881D01*
G37*
G36*
X107338744Y-102696976D02*
G01*
X107349422Y-102697245D01*
X107446572Y-102702325D01*
X107543168Y-102712165D01*
X107639033Y-102726708D01*
X107733991Y-102745896D01*
X107827865Y-102769673D01*
X107920480Y-102797982D01*
X108011659Y-102830766D01*
X108101226Y-102867969D01*
X108189004Y-102909532D01*
X108274817Y-102955400D01*
X108358488Y-103005516D01*
X108410473Y-103039549D01*
X108491478Y-103097277D01*
X108569201Y-103158497D01*
X108643554Y-103223096D01*
X108714451Y-103290961D01*
X108781805Y-103361982D01*
X108845530Y-103436044D01*
X108905538Y-103513036D01*
X108961742Y-103592845D01*
X109014056Y-103675360D01*
X109062394Y-103760466D01*
X109106668Y-103848053D01*
X109146791Y-103938007D01*
X109182676Y-104030217D01*
X109188747Y-104047241D01*
X109215522Y-104129507D01*
X109238995Y-104214388D01*
X109258909Y-104300755D01*
X109275008Y-104387477D01*
X109287034Y-104473424D01*
X109288422Y-104485732D01*
X109291019Y-104510032D01*
X109293175Y-104531656D01*
X109294929Y-104551428D01*
X109296322Y-104570174D01*
X109297395Y-104588720D01*
X109298186Y-104607893D01*
X109298737Y-104628517D01*
X109299088Y-104651419D01*
X109299278Y-104677424D01*
X109299349Y-104707359D01*
X109299351Y-104710322D01*
X109299322Y-104740487D01*
X109299175Y-104766640D01*
X109298870Y-104789600D01*
X109298368Y-104810186D01*
X109297628Y-104829217D01*
X109296610Y-104847512D01*
X109295274Y-104865890D01*
X109293581Y-104885168D01*
X109291490Y-104906167D01*
X109288961Y-104929706D01*
X109288379Y-104934972D01*
X109275856Y-105027437D01*
X109258865Y-105119861D01*
X109237555Y-105211718D01*
X109212075Y-105302482D01*
X109182575Y-105391627D01*
X109149206Y-105478627D01*
X109112116Y-105562956D01*
X109105926Y-105576001D01*
X109100135Y-105588303D01*
X109095261Y-105599091D01*
X109091623Y-105607621D01*
X109089543Y-105613144D01*
X109089209Y-105614887D01*
X109091301Y-105616392D01*
X109097210Y-105620440D01*
X109106730Y-105626895D01*
X109119659Y-105635618D01*
X109135791Y-105646475D01*
X109154924Y-105659327D01*
X109176853Y-105674039D01*
X109201373Y-105690473D01*
X109228282Y-105708493D01*
X109257375Y-105727962D01*
X109288447Y-105748744D01*
X109321296Y-105770702D01*
X109355717Y-105793699D01*
X109391506Y-105817598D01*
X109428459Y-105842263D01*
X109442943Y-105851928D01*
X109480275Y-105876842D01*
X109516511Y-105901041D01*
X109551448Y-105924387D01*
X109584884Y-105946745D01*
X109616613Y-105967977D01*
X109646435Y-105987947D01*
X109674144Y-106006519D01*
X109699539Y-106023556D01*
X109722414Y-106038922D01*
X109742569Y-106052481D01*
X109759798Y-106064096D01*
X109773899Y-106073631D01*
X109784668Y-106080949D01*
X109791902Y-106085914D01*
X109795399Y-106088389D01*
X109795705Y-106088650D01*
X109794631Y-106091243D01*
X109791532Y-106097469D01*
X109786724Y-106106738D01*
X109780527Y-106118459D01*
X109773258Y-106132040D01*
X109765237Y-106146892D01*
X109756781Y-106162423D01*
X109748209Y-106178042D01*
X109739839Y-106193159D01*
X109731989Y-106207183D01*
X109728801Y-106212823D01*
X109676475Y-106301360D01*
X109621572Y-106386964D01*
X109563621Y-106470295D01*
X109502149Y-106552008D01*
X109436686Y-106632762D01*
X109383235Y-106694735D01*
X109370244Y-106709082D01*
X109354349Y-106726094D01*
X109336134Y-106745184D01*
X109316182Y-106765768D01*
X109295078Y-106787258D01*
X109273406Y-106809069D01*
X109251751Y-106830615D01*
X109230696Y-106851310D01*
X109210826Y-106870569D01*
X109192725Y-106887804D01*
X109176976Y-106902431D01*
X109168971Y-106909648D01*
X109079524Y-106986048D01*
X108988280Y-107057985D01*
X108895174Y-107125503D01*
X108800141Y-107188651D01*
X108703116Y-107247472D01*
X108652206Y-107276173D01*
X108549827Y-107329708D01*
X108445740Y-107378726D01*
X108339965Y-107423220D01*
X108232519Y-107463186D01*
X108123421Y-107498618D01*
X108012689Y-107529511D01*
X107900341Y-107555859D01*
X107786397Y-107577657D01*
X107670874Y-107594899D01*
X107553791Y-107607581D01*
X107504624Y-107611512D01*
X107487402Y-107612538D01*
X107466143Y-107613466D01*
X107441624Y-107614287D01*
X107414619Y-107614991D01*
X107385905Y-107615571D01*
X107356258Y-107616017D01*
X107326452Y-107616320D01*
X107297264Y-107616471D01*
X107269469Y-107616462D01*
X107243843Y-107616282D01*
X107221161Y-107615924D01*
X107202200Y-107615378D01*
X107195428Y-107615086D01*
X107078052Y-107607037D01*
X106962320Y-107594461D01*
X106848137Y-107577337D01*
X106735406Y-107555645D01*
X106624032Y-107529364D01*
X106513919Y-107498474D01*
X106404970Y-107462954D01*
X106299242Y-107423634D01*
X106193366Y-107379246D01*
X106089732Y-107330618D01*
X105988450Y-107277846D01*
X105889630Y-107221027D01*
X105793385Y-107160256D01*
X105699825Y-107095630D01*
X105609061Y-107027245D01*
X105521204Y-106955197D01*
X105436365Y-106879583D01*
X105354656Y-106800499D01*
X105276187Y-106718041D01*
X105201069Y-106632305D01*
X105129414Y-106543388D01*
X105061333Y-106451385D01*
X104996936Y-106356394D01*
X104936335Y-106258510D01*
X104917485Y-106226109D01*
X104909908Y-106212730D01*
X104901427Y-106197496D01*
X104892327Y-106180944D01*
X104882892Y-106163609D01*
X104873407Y-106146027D01*
X104864158Y-106128734D01*
X104857229Y-106115661D01*
X105051586Y-106115661D01*
X105052786Y-106118522D01*
X105056157Y-106124915D01*
X105061352Y-106134248D01*
X105068027Y-106145929D01*
X105075836Y-106159364D01*
X105084434Y-106173963D01*
X105093475Y-106189131D01*
X105102614Y-106204278D01*
X105111506Y-106218810D01*
X105115278Y-106224901D01*
X105174671Y-106315908D01*
X105238247Y-106404766D01*
X105305755Y-106491199D01*
X105376942Y-106574930D01*
X105451556Y-106655684D01*
X105529343Y-106733184D01*
X105610053Y-106807154D01*
X105693431Y-106877317D01*
X105755732Y-106925894D01*
X105846374Y-106991271D01*
X105939455Y-107052522D01*
X106034840Y-107109592D01*
X106132390Y-107162427D01*
X106231970Y-107210973D01*
X106333441Y-107255173D01*
X106436667Y-107294975D01*
X106541511Y-107330324D01*
X106647836Y-107361164D01*
X106755504Y-107387442D01*
X106864379Y-107409102D01*
X106974324Y-107426090D01*
X107027544Y-107432581D01*
X107053080Y-107435250D01*
X107081838Y-107437957D01*
X107112272Y-107440576D01*
X107142840Y-107442980D01*
X107171996Y-107445043D01*
X107198196Y-107446640D01*
X107202675Y-107446878D01*
X107214290Y-107447285D01*
X107230072Y-107447549D01*
X107249358Y-107447679D01*
X107271485Y-107447684D01*
X107295793Y-107447574D01*
X107321618Y-107447359D01*
X107348298Y-107447047D01*
X107375171Y-107446648D01*
X107401575Y-107446172D01*
X107426847Y-107445627D01*
X107450325Y-107445024D01*
X107471347Y-107444371D01*
X107489251Y-107443678D01*
X107503374Y-107442954D01*
X107509456Y-107442533D01*
X107617464Y-107431986D01*
X107722756Y-107417703D01*
X107825799Y-107399582D01*
X107927061Y-107377520D01*
X108027010Y-107351414D01*
X108126113Y-107321161D01*
X108224839Y-107286660D01*
X108232209Y-107283910D01*
X108335192Y-107242754D01*
X108436110Y-107197280D01*
X108534833Y-107147595D01*
X108631231Y-107093807D01*
X108725175Y-107036025D01*
X108816535Y-106974357D01*
X108905182Y-106908910D01*
X108990985Y-106839793D01*
X109073814Y-106767113D01*
X109153541Y-106690980D01*
X109230036Y-106611499D01*
X109303168Y-106528781D01*
X109372808Y-106442932D01*
X109438826Y-106354061D01*
X109501093Y-106262276D01*
X109546709Y-106189170D01*
X109554609Y-106175928D01*
X109561584Y-106164053D01*
X109567273Y-106154175D01*
X109571313Y-106146925D01*
X109573344Y-106142934D01*
X109573514Y-106142403D01*
X109571529Y-106140868D01*
X109565725Y-106136795D01*
X109556305Y-106130321D01*
X109543474Y-106121583D01*
X109527434Y-106110717D01*
X109508391Y-106097861D01*
X109486547Y-106083150D01*
X109462106Y-106066724D01*
X109435272Y-106048717D01*
X109406249Y-106029267D01*
X109375241Y-106008511D01*
X109342450Y-105986587D01*
X109308082Y-105963629D01*
X109272340Y-105939777D01*
X109235427Y-105915166D01*
X109221870Y-105906133D01*
X109184572Y-105881278D01*
X109148359Y-105857135D01*
X109113437Y-105833841D01*
X109080009Y-105811531D01*
X109048281Y-105790344D01*
X109018457Y-105770416D01*
X108990741Y-105751884D01*
X108965338Y-105734885D01*
X108942452Y-105719555D01*
X108922288Y-105706032D01*
X108905050Y-105694453D01*
X108890944Y-105684953D01*
X108880172Y-105677671D01*
X108872941Y-105672743D01*
X108869453Y-105670306D01*
X108869154Y-105670065D01*
X108869790Y-105667165D01*
X108872649Y-105660788D01*
X108877381Y-105651549D01*
X108883634Y-105640060D01*
X108891058Y-105626933D01*
X108899303Y-105612782D01*
X108908018Y-105598219D01*
X108916852Y-105583858D01*
X108925456Y-105570311D01*
X108931229Y-105561528D01*
X108939862Y-105548497D01*
X108945971Y-105538930D01*
X108949813Y-105532340D01*
X108951649Y-105528244D01*
X108951737Y-105526154D01*
X108950398Y-105525586D01*
X108946444Y-105525266D01*
X108945528Y-105524820D01*
X108946481Y-105522479D01*
X108949114Y-105516507D01*
X108953087Y-105507665D01*
X108958059Y-105496710D01*
X108961494Y-105489190D01*
X108998439Y-105403451D01*
X109030695Y-105317741D01*
X109058389Y-105231677D01*
X109081645Y-105144875D01*
X109097620Y-105072236D01*
X109113606Y-104979580D01*
X109124864Y-104886526D01*
X109131411Y-104793271D01*
X109133263Y-104700011D01*
X109130439Y-104606942D01*
X109122955Y-104514261D01*
X109110829Y-104422164D01*
X109094078Y-104330848D01*
X109072718Y-104240508D01*
X109046768Y-104151342D01*
X109016244Y-104063546D01*
X109007179Y-104039994D01*
X108970176Y-103952352D01*
X108929051Y-103867221D01*
X108883835Y-103784645D01*
X108834562Y-103704669D01*
X108781263Y-103627336D01*
X108723970Y-103552691D01*
X108662715Y-103480777D01*
X108597529Y-103411640D01*
X108528446Y-103345322D01*
X108462409Y-103287620D01*
X108440094Y-103269486D01*
X108414676Y-103249719D01*
X108387230Y-103229111D01*
X108358828Y-103208455D01*
X108330546Y-103188546D01*
X108303457Y-103170175D01*
X108302375Y-103169458D01*
X108222908Y-103119714D01*
X108141306Y-103074246D01*
X108057749Y-103033096D01*
X107972415Y-102996310D01*
X107885483Y-102963931D01*
X107797134Y-102936005D01*
X107707545Y-102912574D01*
X107616896Y-102893683D01*
X107525367Y-102879377D01*
X107433136Y-102869699D01*
X107340383Y-102864694D01*
X107247286Y-102864407D01*
X107154026Y-102868880D01*
X107102664Y-102873393D01*
X107008194Y-102885423D01*
X106915124Y-102902065D01*
X106823526Y-102923292D01*
X106733472Y-102949080D01*
X106645033Y-102979402D01*
X106558282Y-103014232D01*
X106473291Y-103053545D01*
X106390131Y-103097314D01*
X106308874Y-103145515D01*
X106265423Y-103173635D01*
X106188282Y-103227946D01*
X106114238Y-103285898D01*
X106043406Y-103347346D01*
X105975899Y-103412146D01*
X105911833Y-103480155D01*
X105851320Y-103551229D01*
X105794476Y-103625223D01*
X105741413Y-103701995D01*
X105692247Y-103781399D01*
X105647090Y-103863293D01*
X105606058Y-103947531D01*
X105569265Y-104033971D01*
X105555815Y-104068981D01*
X105525552Y-104157084D01*
X105499917Y-104246353D01*
X105478900Y-104336593D01*
X105462493Y-104427609D01*
X105450689Y-104519205D01*
X105443478Y-104611186D01*
X105440852Y-104703357D01*
X105442803Y-104795523D01*
X105449322Y-104887488D01*
X105460402Y-104979056D01*
X105476034Y-105070033D01*
X105496209Y-105160224D01*
X105520920Y-105249432D01*
X105550157Y-105337463D01*
X105583913Y-105424121D01*
X105616876Y-105498090D01*
X105622083Y-105509165D01*
X105626456Y-105518581D01*
X105629624Y-105525525D01*
X105631214Y-105529190D01*
X105631329Y-105529543D01*
X105629295Y-105530253D01*
X105626459Y-105530417D01*
X105625099Y-105531023D01*
X105625236Y-105533166D01*
X105627128Y-105537331D01*
X105631036Y-105544004D01*
X105637217Y-105553669D01*
X105645616Y-105566342D01*
X105653371Y-105578217D01*
X105661973Y-105591854D01*
X105670970Y-105606492D01*
X105679911Y-105621365D01*
X105688345Y-105635708D01*
X105695820Y-105648759D01*
X105701886Y-105659751D01*
X105706091Y-105667922D01*
X105707591Y-105671303D01*
X105706871Y-105672429D01*
X105704207Y-105674796D01*
X105699459Y-105678497D01*
X105692491Y-105683626D01*
X105683165Y-105690278D01*
X105671341Y-105698547D01*
X105656881Y-105708527D01*
X105639649Y-105720311D01*
X105619504Y-105733995D01*
X105596311Y-105749672D01*
X105569929Y-105767435D01*
X105540221Y-105787381D01*
X105507050Y-105809601D01*
X105470276Y-105834191D01*
X105429761Y-105861245D01*
X105385368Y-105890856D01*
X105380313Y-105894226D01*
X105344279Y-105918262D01*
X105309350Y-105941588D01*
X105275737Y-105964062D01*
X105243649Y-105985543D01*
X105213298Y-106005888D01*
X105184893Y-106024956D01*
X105158647Y-106042604D01*
X105134769Y-106058691D01*
X105113470Y-106073075D01*
X105094960Y-106085614D01*
X105079451Y-106096166D01*
X105067152Y-106104590D01*
X105058276Y-106110743D01*
X105053031Y-106114483D01*
X105051586Y-106115661D01*
X104857229Y-106115661D01*
X104855429Y-106112266D01*
X104847505Y-106097159D01*
X104840670Y-106083948D01*
X104835211Y-106073170D01*
X104831412Y-106065360D01*
X104829557Y-106061054D01*
X104829420Y-106060467D01*
X104831391Y-106059002D01*
X104837126Y-106055027D01*
X104846365Y-106048716D01*
X104858854Y-106040240D01*
X104874336Y-106029770D01*
X104892553Y-106017478D01*
X104913249Y-106003537D01*
X104936167Y-105988119D01*
X104961051Y-105971394D01*
X104987644Y-105953535D01*
X105015689Y-105934714D01*
X105044930Y-105915102D01*
X105075109Y-105894872D01*
X105105970Y-105874195D01*
X105137257Y-105853243D01*
X105168713Y-105832188D01*
X105200080Y-105811202D01*
X105231103Y-105790457D01*
X105261525Y-105770124D01*
X105291088Y-105750376D01*
X105319536Y-105731383D01*
X105346613Y-105713319D01*
X105372062Y-105696355D01*
X105395626Y-105680662D01*
X105417048Y-105666414D01*
X105436072Y-105653780D01*
X105452441Y-105642934D01*
X105465899Y-105634047D01*
X105476187Y-105627291D01*
X105483051Y-105622838D01*
X105484718Y-105621779D01*
X105484705Y-105618981D01*
X105482484Y-105612118D01*
X105478132Y-105601382D01*
X105471723Y-105586965D01*
X105467597Y-105578066D01*
X105444577Y-105527662D01*
X105424026Y-105479783D01*
X105405425Y-105433158D01*
X105388254Y-105386517D01*
X105382426Y-105369780D01*
X105352270Y-105274617D01*
X105326880Y-105178766D01*
X105306265Y-105082293D01*
X105290432Y-104985263D01*
X105279390Y-104887743D01*
X105273146Y-104789798D01*
X105271708Y-104691493D01*
X105275085Y-104592896D01*
X105280042Y-104526737D01*
X105291327Y-104429307D01*
X105307260Y-104333023D01*
X105327763Y-104238020D01*
X105352760Y-104144438D01*
X105382172Y-104052415D01*
X105415922Y-103962089D01*
X105453934Y-103873597D01*
X105496129Y-103787079D01*
X105542430Y-103702671D01*
X105592760Y-103620512D01*
X105647042Y-103540740D01*
X105705197Y-103463493D01*
X105767150Y-103388910D01*
X105832822Y-103317128D01*
X105902136Y-103248285D01*
X105975014Y-103182519D01*
X106051380Y-103119969D01*
X106081172Y-103097166D01*
X106159138Y-103041568D01*
X106240188Y-102989526D01*
X106323924Y-102941244D01*
X106409947Y-102896928D01*
X106497860Y-102856786D01*
X106587264Y-102821022D01*
X106670698Y-102792098D01*
X106763369Y-102764727D01*
X106856615Y-102741998D01*
X106950643Y-102723883D01*
X107045662Y-102710352D01*
X107141880Y-102701377D01*
X107239504Y-102696928D01*
X107338744Y-102696976D01*
G37*
G36*
X109028244Y-106042037D02*
G01*
X109252272Y-106191459D01*
X109220836Y-106233172D01*
X109159148Y-106311505D01*
X109093663Y-106387935D01*
X109024998Y-106461806D01*
X108953768Y-106532463D01*
X108880588Y-106599249D01*
X108862909Y-106614538D01*
X108779894Y-106682423D01*
X108694305Y-106746251D01*
X108606265Y-106805972D01*
X108515901Y-106861537D01*
X108423335Y-106912897D01*
X108328692Y-106960001D01*
X108232096Y-107002800D01*
X108133672Y-107041244D01*
X108033544Y-107075284D01*
X107931836Y-107104871D01*
X107828672Y-107129954D01*
X107724177Y-107150484D01*
X107618474Y-107166411D01*
X107511689Y-107177687D01*
X107439403Y-107182625D01*
X107426674Y-107183146D01*
X107409923Y-107183592D01*
X107389962Y-107183961D01*
X107367600Y-107184248D01*
X107343647Y-107184452D01*
X107318913Y-107184569D01*
X107294208Y-107184597D01*
X107270343Y-107184533D01*
X107248125Y-107184374D01*
X107228367Y-107184117D01*
X107211878Y-107183760D01*
X107202675Y-107183447D01*
X107131653Y-107179136D01*
X107057844Y-107172104D01*
X106982344Y-107162510D01*
X106906245Y-107150512D01*
X106830640Y-107136268D01*
X106756625Y-107119938D01*
X106744919Y-107117121D01*
X106643128Y-107089864D01*
X106542839Y-107058068D01*
X106444194Y-107021827D01*
X106347336Y-106981240D01*
X106252410Y-106936401D01*
X106159557Y-106887409D01*
X106068922Y-106834358D01*
X105980648Y-106777346D01*
X105909502Y-106726849D01*
X106038816Y-106726849D01*
X106040710Y-106728431D01*
X106046115Y-106731896D01*
X106054313Y-106736838D01*
X106064582Y-106742851D01*
X106076202Y-106749530D01*
X106088453Y-106756468D01*
X106100615Y-106763260D01*
X106111966Y-106769498D01*
X106121787Y-106774777D01*
X106129358Y-106778691D01*
X106133957Y-106780834D01*
X106135015Y-106781080D01*
X106136312Y-106778930D01*
X106139741Y-106773192D01*
X106144968Y-106764430D01*
X106151656Y-106753209D01*
X106159468Y-106740092D01*
X106166337Y-106728553D01*
X106174942Y-106714166D01*
X106182841Y-106701094D01*
X106189667Y-106689932D01*
X106195054Y-106681278D01*
X106198635Y-106675726D01*
X106199932Y-106673940D01*
X106202291Y-106673590D01*
X106207220Y-106675062D01*
X106215121Y-106678532D01*
X106226397Y-106684174D01*
X106239579Y-106691154D01*
X106259547Y-106701575D01*
X106276366Y-106709559D01*
X106290865Y-106715411D01*
X106303871Y-106719436D01*
X106316214Y-106721939D01*
X106326076Y-106723045D01*
X106348061Y-106722444D01*
X106368995Y-106717375D01*
X106388227Y-106708092D01*
X106405105Y-106694848D01*
X106408957Y-106690864D01*
X106420587Y-106678139D01*
X106421910Y-106692731D01*
X106425017Y-106708606D01*
X106431570Y-106724238D01*
X106441791Y-106739896D01*
X106455904Y-106755852D01*
X106474131Y-106772374D01*
X106496696Y-106789734D01*
X106509372Y-106798605D01*
X106526060Y-106810179D01*
X106539039Y-106819744D01*
X106548748Y-106827772D01*
X106555627Y-106834733D01*
X106560114Y-106841096D01*
X106562648Y-106847332D01*
X106563667Y-106853911D01*
X106563750Y-106856857D01*
X106561516Y-106867920D01*
X106554980Y-106876991D01*
X106546144Y-106882904D01*
X106536493Y-106886613D01*
X106527158Y-106887732D01*
X106516441Y-106886314D01*
X106508093Y-106884106D01*
X106490991Y-106877072D01*
X106477844Y-106867359D01*
X106468735Y-106855085D01*
X106463749Y-106840362D01*
X106462969Y-106823307D01*
X106463030Y-106822542D01*
X106464412Y-106806054D01*
X106444632Y-106800089D01*
X106423212Y-106793634D01*
X106405974Y-106788453D01*
X106392477Y-106784416D01*
X106382282Y-106781395D01*
X106374948Y-106779259D01*
X106370034Y-106777878D01*
X106367100Y-106777125D01*
X106365704Y-106776869D01*
X106365605Y-106776865D01*
X106363433Y-106779119D01*
X106361534Y-106785242D01*
X106360040Y-106794273D01*
X106359082Y-106805251D01*
X106358793Y-106817216D01*
X106359016Y-106824858D01*
X106361601Y-106846619D01*
X106367201Y-106865212D01*
X106376276Y-106881568D01*
X106389286Y-106896619D01*
X106398493Y-106904850D01*
X106411369Y-106914008D01*
X106427892Y-106923474D01*
X106446944Y-106932787D01*
X106467404Y-106941485D01*
X106488150Y-106949104D01*
X106508064Y-106955182D01*
X106526023Y-106959256D01*
X106532750Y-106960263D01*
X106558898Y-106961438D01*
X106583656Y-106958607D01*
X106592634Y-106956453D01*
X106612488Y-106949168D01*
X106629797Y-106938782D01*
X106644778Y-106925716D01*
X106659439Y-106908048D01*
X106661594Y-106904054D01*
X106688714Y-106904054D01*
X106688733Y-106907307D01*
X106689921Y-106928117D01*
X106693292Y-106945830D01*
X106699262Y-106961843D01*
X106708251Y-106977559D01*
X106710897Y-106981432D01*
X106723474Y-106996729D01*
X106738202Y-107009486D01*
X106755825Y-107020197D01*
X106777087Y-107029355D01*
X106789608Y-107033598D01*
X106818493Y-107041621D01*
X106846544Y-107047368D01*
X106872954Y-107050736D01*
X106896914Y-107051619D01*
X106916427Y-107050098D01*
X106938497Y-107044505D01*
X106959907Y-107034808D01*
X106979704Y-107021657D01*
X106996936Y-107005703D01*
X107010649Y-106987595D01*
X107012466Y-106984520D01*
X107016032Y-106977768D01*
X107019388Y-106970273D01*
X107022671Y-106961545D01*
X107026014Y-106951097D01*
X107029553Y-106938442D01*
X107033421Y-106923091D01*
X107037755Y-106904557D01*
X107042687Y-106882352D01*
X107048355Y-106855988D01*
X107049625Y-106850001D01*
X107053715Y-106830803D01*
X107057511Y-106813226D01*
X107060894Y-106797801D01*
X107063745Y-106785055D01*
X107065947Y-106775516D01*
X107067382Y-106769714D01*
X107067915Y-106768119D01*
X107067958Y-106770605D01*
X107067812Y-106777508D01*
X107067493Y-106788417D01*
X107067015Y-106802921D01*
X107066393Y-106820611D01*
X107065640Y-106841075D01*
X107064773Y-106863903D01*
X107063804Y-106888685D01*
X107062749Y-106915010D01*
X107062524Y-106920547D01*
X107061460Y-106947152D01*
X107060492Y-106972310D01*
X107059634Y-106995608D01*
X107058899Y-107016635D01*
X107058300Y-107034978D01*
X107057851Y-107050226D01*
X107057566Y-107061967D01*
X107057456Y-107069787D01*
X107057536Y-107073276D01*
X107057577Y-107073418D01*
X107058574Y-107073654D01*
X107061287Y-107073930D01*
X107065951Y-107074256D01*
X107072803Y-107074641D01*
X107082080Y-107075096D01*
X107094018Y-107075629D01*
X107108854Y-107076251D01*
X107126824Y-107076971D01*
X107148164Y-107077799D01*
X107173111Y-107078744D01*
X107201901Y-107079816D01*
X107234771Y-107081025D01*
X107271958Y-107082380D01*
X107313697Y-107083891D01*
X107321039Y-107084156D01*
X107340364Y-107084854D01*
X107341916Y-107077988D01*
X107342531Y-107073150D01*
X107343159Y-107064557D01*
X107343737Y-107053289D01*
X107344205Y-107040421D01*
X107344332Y-107035715D01*
X107345195Y-107000308D01*
X107259510Y-106997155D01*
X107239653Y-106996395D01*
X107221361Y-106995638D01*
X107205185Y-106994911D01*
X107191678Y-106994242D01*
X107181392Y-106993657D01*
X107174879Y-106993184D01*
X107172695Y-106992873D01*
X107172573Y-106990314D01*
X107172639Y-106983377D01*
X107172881Y-106972514D01*
X107173284Y-106958174D01*
X107173833Y-106940807D01*
X107174516Y-106920864D01*
X107175319Y-106898794D01*
X107176227Y-106875048D01*
X107176649Y-106864376D01*
X107177590Y-106840024D01*
X107178415Y-106817137D01*
X107179111Y-106796168D01*
X107179667Y-106777569D01*
X107180071Y-106761793D01*
X107180309Y-106749293D01*
X107180365Y-106741299D01*
X107334183Y-106741299D01*
X107334236Y-106743724D01*
X107334824Y-106750561D01*
X107335907Y-106761423D01*
X107337439Y-106775926D01*
X107339381Y-106793684D01*
X107341688Y-106814311D01*
X107344318Y-106837422D01*
X107347229Y-106862631D01*
X107350379Y-106889554D01*
X107352763Y-106909723D01*
X107356084Y-106937726D01*
X107359236Y-106964357D01*
X107362172Y-106989223D01*
X107364847Y-107011929D01*
X107367214Y-107032081D01*
X107369227Y-107049286D01*
X107370839Y-107063151D01*
X107372006Y-107073282D01*
X107372680Y-107079284D01*
X107372834Y-107080818D01*
X107374844Y-107083002D01*
X107379617Y-107082770D01*
X107383169Y-107082296D01*
X107391085Y-107081370D01*
X107402926Y-107080040D01*
X107418251Y-107078353D01*
X107436619Y-107076358D01*
X107457590Y-107074101D01*
X107480723Y-107071633D01*
X107505579Y-107068999D01*
X107530833Y-107066340D01*
X107675406Y-107051170D01*
X107673716Y-107031778D01*
X107672441Y-107018964D01*
X107670781Y-107004661D01*
X107669248Y-106993061D01*
X107667789Y-106983512D01*
X107666509Y-106977815D01*
X107664965Y-106975031D01*
X107662714Y-106974221D01*
X107660430Y-106974330D01*
X107652113Y-106975169D01*
X107640394Y-106976380D01*
X107625966Y-106977889D01*
X107609521Y-106979623D01*
X107591750Y-106981508D01*
X107573346Y-106983469D01*
X107555000Y-106985432D01*
X107537404Y-106987324D01*
X107521250Y-106989070D01*
X107507229Y-106990596D01*
X107496034Y-106991829D01*
X107488356Y-106992694D01*
X107485092Y-106993088D01*
X107475222Y-106994446D01*
X107471321Y-106961225D01*
X107469967Y-106949138D01*
X107468943Y-106938891D01*
X107468328Y-106931375D01*
X107468201Y-106927482D01*
X107468275Y-106927150D01*
X107470795Y-106926699D01*
X107477549Y-106925815D01*
X107487963Y-106924566D01*
X107501465Y-106923016D01*
X107517484Y-106921232D01*
X107535446Y-106919280D01*
X107547267Y-106918020D01*
X107566511Y-106915967D01*
X107584491Y-106914024D01*
X107600570Y-106912260D01*
X107614109Y-106910746D01*
X107624472Y-106909554D01*
X107631022Y-106908754D01*
X107632781Y-106908505D01*
X107640157Y-106907266D01*
X107635917Y-106872865D01*
X107634403Y-106860634D01*
X107633111Y-106850310D01*
X107632149Y-106842742D01*
X107631624Y-106838780D01*
X107631560Y-106838395D01*
X107629221Y-106838624D01*
X107622618Y-106839307D01*
X107612293Y-106840387D01*
X107598788Y-106841806D01*
X107582644Y-106843508D01*
X107564401Y-106845436D01*
X107546312Y-106847351D01*
X107526558Y-106849395D01*
X107508345Y-106851181D01*
X107492225Y-106852664D01*
X107478751Y-106853796D01*
X107468474Y-106854532D01*
X107461947Y-106854823D01*
X107459733Y-106854666D01*
X107458972Y-106851865D01*
X107457902Y-106845585D01*
X107456674Y-106837028D01*
X107455435Y-106827401D01*
X107454335Y-106817907D01*
X107453520Y-106809751D01*
X107453141Y-106804137D01*
X107453274Y-106802262D01*
X107455732Y-106801924D01*
X107462468Y-106801138D01*
X107472955Y-106799963D01*
X107486667Y-106798455D01*
X107503076Y-106796672D01*
X107521655Y-106794673D01*
X107541879Y-106792515D01*
X107545089Y-106792174D01*
X107565551Y-106789974D01*
X107584478Y-106787883D01*
X107601336Y-106785965D01*
X107615595Y-106784282D01*
X107626721Y-106782898D01*
X107634184Y-106781876D01*
X107637451Y-106781278D01*
X107637546Y-106781230D01*
X107637622Y-106778662D01*
X107637438Y-106775657D01*
X107773075Y-106775657D01*
X107775200Y-106802636D01*
X107781101Y-106830414D01*
X107790347Y-106857880D01*
X107802510Y-106883923D01*
X107817162Y-106907431D01*
X107830033Y-106923283D01*
X107846479Y-106938429D01*
X107866088Y-106952137D01*
X107887222Y-106963406D01*
X107908239Y-106971236D01*
X107908994Y-106971447D01*
X107919732Y-106973374D01*
X107933711Y-106974408D01*
X107949424Y-106974554D01*
X107965364Y-106973817D01*
X107980026Y-106972204D01*
X107986034Y-106971148D01*
X108010395Y-106965060D01*
X108035234Y-106956843D01*
X108058370Y-106947254D01*
X108067266Y-106942890D01*
X108083294Y-106932967D01*
X108098692Y-106920506D01*
X108112228Y-106906663D01*
X108122673Y-106892593D01*
X108124882Y-106888761D01*
X108132478Y-106870815D01*
X108137898Y-106850023D01*
X108140770Y-106828018D01*
X108141134Y-106817301D01*
X108141134Y-106795703D01*
X108110335Y-106797213D01*
X108096132Y-106797939D01*
X108081327Y-106798745D01*
X108067838Y-106799524D01*
X108059004Y-106800075D01*
X108038471Y-106801427D01*
X108039277Y-106816822D01*
X108038418Y-106836092D01*
X108033721Y-106852638D01*
X108025239Y-106866305D01*
X108021562Y-106870211D01*
X108008088Y-106880226D01*
X107992567Y-106886926D01*
X107976056Y-106890163D01*
X107959611Y-106889793D01*
X107944291Y-106885667D01*
X107936999Y-106881915D01*
X107924819Y-106871759D01*
X107913341Y-106856870D01*
X107902601Y-106837301D01*
X107898437Y-106827977D01*
X107889354Y-106803624D01*
X107883931Y-106782155D01*
X107882141Y-106763336D01*
X107883955Y-106746933D01*
X107887357Y-106736757D01*
X107894354Y-106724123D01*
X107903337Y-106714413D01*
X107915541Y-106706398D01*
X107920107Y-106704096D01*
X107936598Y-106698562D01*
X107953501Y-106697168D01*
X107969894Y-106699772D01*
X107984855Y-106706227D01*
X107997254Y-106716170D01*
X108001985Y-106720815D01*
X108005404Y-106723477D01*
X108006068Y-106723722D01*
X108009157Y-106722510D01*
X108015386Y-106719187D01*
X108024002Y-106714225D01*
X108034250Y-106708096D01*
X108045375Y-106701270D01*
X108056623Y-106694220D01*
X108067238Y-106687416D01*
X108076467Y-106681331D01*
X108083554Y-106676436D01*
X108087745Y-106673201D01*
X108088556Y-106672192D01*
X108086247Y-106668592D01*
X108080963Y-106662900D01*
X108073601Y-106655913D01*
X108065061Y-106648429D01*
X108056240Y-106641242D01*
X108053458Y-106639176D01*
X108094209Y-106639176D01*
X108094756Y-106657503D01*
X108096901Y-106673815D01*
X108101020Y-106689562D01*
X108107487Y-106706197D01*
X108116182Y-106724209D01*
X108132806Y-106752215D01*
X108151697Y-106776317D01*
X108172616Y-106796403D01*
X108195324Y-106812358D01*
X108219582Y-106824069D01*
X108245151Y-106831424D01*
X108271794Y-106834308D01*
X108299270Y-106832608D01*
X108327342Y-106826211D01*
X108329551Y-106825511D01*
X108360423Y-106813737D01*
X108388447Y-106799426D01*
X108413319Y-106782853D01*
X108434735Y-106764290D01*
X108452391Y-106744014D01*
X108465983Y-106722298D01*
X108475208Y-106699415D01*
X108477089Y-106692319D01*
X108480140Y-106668971D01*
X108478901Y-106644149D01*
X108473507Y-106618316D01*
X108464092Y-106591937D01*
X108450792Y-106565476D01*
X108433742Y-106539396D01*
X108431801Y-106536781D01*
X108411945Y-106513805D01*
X108390284Y-106495283D01*
X108366959Y-106481244D01*
X108342110Y-106471719D01*
X108315878Y-106466739D01*
X108288401Y-106466334D01*
X108259822Y-106470534D01*
X108230280Y-106479371D01*
X108209206Y-106488284D01*
X108180000Y-106503887D01*
X108155201Y-106521080D01*
X108134583Y-106540086D01*
X108117920Y-106561126D01*
X108104986Y-106584424D01*
X108100545Y-106595112D01*
X108097703Y-106603359D01*
X108095862Y-106611045D01*
X108094805Y-106619663D01*
X108094317Y-106630710D01*
X108094209Y-106639176D01*
X108053458Y-106639176D01*
X108048036Y-106635150D01*
X108043298Y-106632058D01*
X108021455Y-106621449D01*
X107998094Y-106615003D01*
X107972998Y-106612712D01*
X107945950Y-106614566D01*
X107916731Y-106620558D01*
X107897904Y-106626189D01*
X107869131Y-106637566D01*
X107844088Y-106651495D01*
X107822212Y-106668305D01*
X107815935Y-106674202D01*
X107799089Y-106693043D01*
X107786723Y-106712307D01*
X107778501Y-106732790D01*
X107774088Y-106755288D01*
X107773075Y-106775657D01*
X107637438Y-106775657D01*
X107637234Y-106772335D01*
X107636489Y-106763288D01*
X107635492Y-106752559D01*
X107634347Y-106741187D01*
X107633160Y-106730212D01*
X107632036Y-106720671D01*
X107631081Y-106713604D01*
X107630400Y-106710048D01*
X107630312Y-106709858D01*
X107627922Y-106710013D01*
X107621230Y-106710635D01*
X107610736Y-106711672D01*
X107596941Y-106713071D01*
X107580345Y-106714777D01*
X107561449Y-106716739D01*
X107540754Y-106718903D01*
X107518760Y-106721215D01*
X107495967Y-106723623D01*
X107472877Y-106726074D01*
X107449990Y-106728514D01*
X107427806Y-106730891D01*
X107406826Y-106733150D01*
X107387552Y-106735240D01*
X107370482Y-106737106D01*
X107356118Y-106738696D01*
X107344961Y-106739956D01*
X107337511Y-106740834D01*
X107334269Y-106741276D01*
X107334183Y-106741299D01*
X107180365Y-106741299D01*
X107180370Y-106740520D01*
X107180242Y-106735927D01*
X107180126Y-106735351D01*
X107177361Y-106734843D01*
X107170443Y-106734294D01*
X107160048Y-106733736D01*
X107146854Y-106733202D01*
X107131538Y-106732725D01*
X107119337Y-106732430D01*
X107100171Y-106731981D01*
X107084742Y-106731479D01*
X107071956Y-106730818D01*
X107060720Y-106729893D01*
X107049939Y-106728599D01*
X107038521Y-106726830D01*
X107025370Y-106724482D01*
X107013608Y-106722257D01*
X106999229Y-106719585D01*
X106986514Y-106717373D01*
X106976206Y-106715740D01*
X106969048Y-106714801D01*
X106965785Y-106714673D01*
X106965685Y-106714724D01*
X106964908Y-106717300D01*
X106963238Y-106724119D01*
X106960781Y-106734702D01*
X106957646Y-106748564D01*
X106953941Y-106765226D01*
X106949774Y-106784205D01*
X106945254Y-106805019D01*
X106941690Y-106821574D01*
X106936585Y-106845079D01*
X106931694Y-106867018D01*
X106927136Y-106886900D01*
X106923026Y-106904236D01*
X106919483Y-106918536D01*
X106916622Y-106929312D01*
X106914562Y-106936073D01*
X106913909Y-106937714D01*
X106905130Y-106950749D01*
X106893338Y-106960116D01*
X106878828Y-106965669D01*
X106861897Y-106967260D01*
X106855354Y-106966844D01*
X106838927Y-106963406D01*
X106824135Y-106956911D01*
X106812115Y-106947946D01*
X106806766Y-106941712D01*
X106803858Y-106937324D01*
X106801562Y-106932972D01*
X106799918Y-106928214D01*
X106798967Y-106922610D01*
X106798748Y-106915718D01*
X106799304Y-106907099D01*
X106800674Y-106896312D01*
X106802899Y-106882916D01*
X106806020Y-106866470D01*
X106810077Y-106846533D01*
X106815111Y-106822666D01*
X106819746Y-106801021D01*
X106824399Y-106779306D01*
X106828740Y-106758945D01*
X106832662Y-106740445D01*
X106836057Y-106724316D01*
X106838820Y-106711066D01*
X106840843Y-106701204D01*
X106842019Y-106695239D01*
X106842276Y-106693718D01*
X106842039Y-106692131D01*
X106840604Y-106690682D01*
X106837409Y-106689211D01*
X106831893Y-106687558D01*
X106823494Y-106685563D01*
X106811651Y-106683064D01*
X106795802Y-106679902D01*
X106789652Y-106678697D01*
X106774255Y-106675774D01*
X106760470Y-106673324D01*
X106748995Y-106671456D01*
X106740524Y-106670281D01*
X106735754Y-106669910D01*
X106734980Y-106670051D01*
X106734163Y-106672704D01*
X106732457Y-106679599D01*
X106729970Y-106690250D01*
X106726812Y-106704173D01*
X106723093Y-106720883D01*
X106718920Y-106739894D01*
X106714404Y-106760722D01*
X106710938Y-106776865D01*
X106705521Y-106802274D01*
X106701049Y-106823482D01*
X106697433Y-106841007D01*
X106694587Y-106855366D01*
X106692421Y-106867078D01*
X106690847Y-106876660D01*
X106689778Y-106884631D01*
X106689125Y-106891508D01*
X106688799Y-106897810D01*
X106688714Y-106904054D01*
X106661594Y-106904054D01*
X106669581Y-106889247D01*
X106675175Y-106869709D01*
X106676191Y-106849830D01*
X106672601Y-106830006D01*
X106664376Y-106810633D01*
X106654330Y-106795589D01*
X106646095Y-106786202D01*
X106635568Y-106776190D01*
X106622315Y-106765202D01*
X106605901Y-106752891D01*
X106585890Y-106738907D01*
X106572281Y-106729771D01*
X106560431Y-106721740D01*
X106549707Y-106714155D01*
X106540893Y-106707595D01*
X106534775Y-106702641D01*
X106532444Y-106700348D01*
X106528047Y-106691498D01*
X106528404Y-106682538D01*
X106533476Y-106673966D01*
X106534577Y-106672809D01*
X106539666Y-106668488D01*
X106544972Y-106666391D01*
X106552578Y-106665780D01*
X106554505Y-106665771D01*
X106565952Y-106667245D01*
X106578595Y-106671110D01*
X106590351Y-106676587D01*
X106598411Y-106682212D01*
X106605689Y-106691913D01*
X106609684Y-106704956D01*
X106610547Y-106715005D01*
X106610854Y-106729534D01*
X106659166Y-106744444D01*
X106675404Y-106749321D01*
X106689098Y-106753163D01*
X106699737Y-106755842D01*
X106706813Y-106757229D01*
X106709809Y-106757202D01*
X106710894Y-106753998D01*
X106711924Y-106747119D01*
X106712753Y-106737721D01*
X106713100Y-106731165D01*
X106713093Y-106714066D01*
X106711251Y-106700094D01*
X106707154Y-106687757D01*
X106700382Y-106675562D01*
X106695438Y-106668474D01*
X106683459Y-106655400D01*
X106667273Y-106642664D01*
X106647503Y-106630604D01*
X106624773Y-106619559D01*
X106599705Y-106609864D01*
X106572924Y-106601858D01*
X106571841Y-106601582D01*
X106552347Y-106597780D01*
X106532276Y-106595894D01*
X106513242Y-106595994D01*
X106496860Y-106598149D01*
X106496215Y-106598295D01*
X106482957Y-106602575D01*
X106469535Y-106608967D01*
X106457946Y-106616446D01*
X106453540Y-106620198D01*
X106445993Y-106627456D01*
X106444914Y-106606141D01*
X106442426Y-106587252D01*
X106436726Y-106570830D01*
X106427364Y-106556080D01*
X106413889Y-106542208D01*
X106404293Y-106534462D01*
X106400028Y-106531665D01*
X106392228Y-106526958D01*
X106381441Y-106520646D01*
X106368215Y-106513035D01*
X106353097Y-106504429D01*
X106336636Y-106495134D01*
X106319378Y-106485455D01*
X106301871Y-106475697D01*
X106284664Y-106466166D01*
X106268303Y-106457165D01*
X106253337Y-106449002D01*
X106240313Y-106441980D01*
X106229779Y-106436405D01*
X106222283Y-106432583D01*
X106218372Y-106430817D01*
X106218180Y-106430761D01*
X106216701Y-106432697D01*
X106212984Y-106438380D01*
X106207270Y-106447410D01*
X106199803Y-106459387D01*
X106190823Y-106473912D01*
X106180574Y-106490585D01*
X106169296Y-106509007D01*
X106157232Y-106528778D01*
X106144625Y-106549499D01*
X106131715Y-106570770D01*
X106118746Y-106592191D01*
X106105959Y-106613363D01*
X106093596Y-106633887D01*
X106081899Y-106653362D01*
X106071110Y-106671390D01*
X106061472Y-106687571D01*
X106053226Y-106701505D01*
X106046615Y-106712793D01*
X106041880Y-106721035D01*
X106039263Y-106725831D01*
X106038816Y-106726849D01*
X105909502Y-106726849D01*
X105894877Y-106716469D01*
X105811752Y-106651823D01*
X105731418Y-106583504D01*
X105654017Y-106511610D01*
X105633374Y-106490675D01*
X105713863Y-106490675D01*
X105715221Y-106492448D01*
X105719901Y-106496481D01*
X105727242Y-106502295D01*
X105736585Y-106509413D01*
X105747271Y-106517357D01*
X105758639Y-106525648D01*
X105770031Y-106533810D01*
X105780786Y-106541363D01*
X105790245Y-106547831D01*
X105797749Y-106552734D01*
X105802638Y-106555596D01*
X105804181Y-106556120D01*
X105807490Y-106554294D01*
X105813811Y-106550365D01*
X105822163Y-106544954D01*
X105829547Y-106540043D01*
X105838753Y-106534161D01*
X105846719Y-106529638D01*
X105852485Y-106526986D01*
X105854889Y-106526562D01*
X105857568Y-106528266D01*
X105863433Y-106532385D01*
X105871813Y-106538422D01*
X105882038Y-106545882D01*
X105893439Y-106554268D01*
X105905346Y-106563083D01*
X105917089Y-106571830D01*
X105927998Y-106580015D01*
X105937403Y-106587139D01*
X105944633Y-106592707D01*
X105949020Y-106596223D01*
X105949671Y-106596793D01*
X105950696Y-106598888D01*
X105950387Y-106602661D01*
X105948540Y-106608856D01*
X105944955Y-106618216D01*
X105941774Y-106625925D01*
X105937521Y-106636347D01*
X105934147Y-106645135D01*
X105932001Y-106651345D01*
X105931421Y-106654009D01*
X105933461Y-106655934D01*
X105938719Y-106660210D01*
X105946522Y-106666329D01*
X105956198Y-106673787D01*
X105967076Y-106682076D01*
X105978484Y-106690691D01*
X105989749Y-106699123D01*
X106000199Y-106706868D01*
X106009163Y-106713418D01*
X106015967Y-106718268D01*
X106019941Y-106720910D01*
X106020643Y-106721246D01*
X106021646Y-106719022D01*
X106024047Y-106712566D01*
X106027724Y-106702233D01*
X106032556Y-106688376D01*
X106038421Y-106671352D01*
X106045197Y-106651513D01*
X106052763Y-106629214D01*
X106060998Y-106604810D01*
X106069780Y-106578655D01*
X106078987Y-106551103D01*
X106079557Y-106549396D01*
X106088783Y-106521690D01*
X106097556Y-106495287D01*
X106105756Y-106470551D01*
X106113266Y-106447844D01*
X106119965Y-106427528D01*
X106125734Y-106409965D01*
X106130454Y-106395518D01*
X106134005Y-106384550D01*
X106136268Y-106377422D01*
X106137125Y-106374498D01*
X106137128Y-106374471D01*
X106135356Y-106372542D01*
X106130365Y-106368198D01*
X106122789Y-106361932D01*
X106113264Y-106354243D01*
X106102424Y-106345625D01*
X106090904Y-106336576D01*
X106079339Y-106327591D01*
X106068365Y-106319167D01*
X106058615Y-106311799D01*
X106050725Y-106305985D01*
X106045331Y-106302220D01*
X106043111Y-106300992D01*
X106040996Y-106302163D01*
X106035084Y-106305526D01*
X106025760Y-106310859D01*
X106013410Y-106317940D01*
X105998421Y-106326546D01*
X105981180Y-106336455D01*
X105962071Y-106347444D01*
X105941482Y-106359290D01*
X105919798Y-106371771D01*
X105897407Y-106384665D01*
X105874693Y-106397749D01*
X105852044Y-106410800D01*
X105829846Y-106423597D01*
X105808484Y-106435916D01*
X105788346Y-106447534D01*
X105769817Y-106458231D01*
X105753283Y-106467782D01*
X105739132Y-106475966D01*
X105727748Y-106482560D01*
X105719518Y-106487341D01*
X105714829Y-106490087D01*
X105713863Y-106490675D01*
X105633374Y-106490675D01*
X105579693Y-106436236D01*
X105508588Y-106357478D01*
X105440846Y-106275435D01*
X105434429Y-106266971D01*
X105536937Y-106266971D01*
X105540319Y-106291226D01*
X105548378Y-106314969D01*
X105550563Y-106319645D01*
X105558296Y-106333157D01*
X105568841Y-106348335D01*
X105581197Y-106363885D01*
X105594359Y-106378509D01*
X105602023Y-106386110D01*
X105625022Y-106405592D01*
X105647870Y-106420365D01*
X105670890Y-106430527D01*
X105694407Y-106436179D01*
X105718744Y-106437418D01*
X105744225Y-106434344D01*
X105753317Y-106432307D01*
X105763375Y-106429296D01*
X105774977Y-106425089D01*
X105784071Y-106421275D01*
X105800331Y-106413852D01*
X105778032Y-106370652D01*
X105769679Y-106354725D01*
X105763142Y-106342868D01*
X105758224Y-106334759D01*
X105754727Y-106330076D01*
X105752453Y-106328499D01*
X105752109Y-106328534D01*
X105748116Y-106329982D01*
X105741210Y-106332714D01*
X105733326Y-106335957D01*
X105714690Y-106342016D01*
X105697833Y-106343714D01*
X105682356Y-106341004D01*
X105667863Y-106333839D01*
X105659262Y-106327195D01*
X105646896Y-106314304D01*
X105639048Y-106301166D01*
X105635415Y-106287198D01*
X105635075Y-106280460D01*
X105636007Y-106269536D01*
X105638920Y-106259242D01*
X105644240Y-106248853D01*
X105652394Y-106237641D01*
X105663809Y-106224881D01*
X105673355Y-106215239D01*
X105691934Y-106198211D01*
X105708872Y-106185326D01*
X105724544Y-106176338D01*
X105739327Y-106171000D01*
X105741927Y-106170407D01*
X105758948Y-106168955D01*
X105774970Y-106171454D01*
X105789527Y-106177373D01*
X105802155Y-106186182D01*
X105812390Y-106197349D01*
X105819768Y-106210342D01*
X105823824Y-106224631D01*
X105824093Y-106239684D01*
X105820112Y-106254970D01*
X105818673Y-106258202D01*
X105816165Y-106264005D01*
X105815112Y-106267654D01*
X105815202Y-106268147D01*
X105817894Y-106270028D01*
X105823851Y-106273953D01*
X105832289Y-106279421D01*
X105842428Y-106285936D01*
X105853484Y-106293000D01*
X105864676Y-106300114D01*
X105875221Y-106306780D01*
X105884337Y-106312501D01*
X105891242Y-106316778D01*
X105895154Y-106319113D01*
X105895681Y-106319384D01*
X105898245Y-106317944D01*
X105901777Y-106312650D01*
X105905901Y-106304284D01*
X105910241Y-106293634D01*
X105914422Y-106281482D01*
X105915475Y-106278044D01*
X105919007Y-106259848D01*
X105919737Y-106239831D01*
X105917701Y-106220082D01*
X105914213Y-106206197D01*
X105905701Y-106186731D01*
X105893266Y-106166577D01*
X105877569Y-106146574D01*
X105859272Y-106127561D01*
X105839034Y-106110376D01*
X105838342Y-106109851D01*
X105812835Y-106093167D01*
X105786862Y-106081271D01*
X105760548Y-106074154D01*
X105734015Y-106071810D01*
X105707389Y-106074230D01*
X105680795Y-106081406D01*
X105654356Y-106093331D01*
X105628196Y-106109998D01*
X105610829Y-106123864D01*
X105587664Y-106146248D01*
X105568743Y-106169534D01*
X105554137Y-106193484D01*
X105543919Y-106217864D01*
X105538162Y-106242438D01*
X105536937Y-106266971D01*
X105434429Y-106266971D01*
X105384690Y-106201366D01*
X105372831Y-106185078D01*
X105575332Y-106050063D01*
X105777832Y-105915048D01*
X105798181Y-105940740D01*
X105832683Y-105982616D01*
X105870735Y-106025744D01*
X105911523Y-106069307D01*
X105954233Y-106112489D01*
X105998048Y-106154473D01*
X106042155Y-106194441D01*
X106085738Y-106231576D01*
X106099074Y-106242432D01*
X106173372Y-106299127D01*
X106250519Y-106351999D01*
X106330299Y-106400962D01*
X106412495Y-106445925D01*
X106496890Y-106486801D01*
X106583267Y-106523501D01*
X106671410Y-106555937D01*
X106761100Y-106584020D01*
X106852123Y-106607661D01*
X106944260Y-106626773D01*
X107037295Y-106641266D01*
X107091557Y-106647518D01*
X107141882Y-106651713D01*
X107195146Y-106654573D01*
X107250086Y-106656094D01*
X107305439Y-106656271D01*
X107359941Y-106655101D01*
X107412328Y-106652580D01*
X107461144Y-106648723D01*
X107557374Y-106637011D01*
X107652160Y-106620702D01*
X107745412Y-106599834D01*
X107837040Y-106574446D01*
X107926957Y-106544578D01*
X108015071Y-106510269D01*
X108101295Y-106471558D01*
X108185538Y-106428484D01*
X108211475Y-106413524D01*
X108359001Y-106413524D01*
X108359379Y-106414598D01*
X108361595Y-106417331D01*
X108366582Y-106423288D01*
X108374039Y-106432114D01*
X108383660Y-106443454D01*
X108395144Y-106456954D01*
X108408185Y-106472259D01*
X108422481Y-106489014D01*
X108437727Y-106506865D01*
X108453621Y-106525457D01*
X108469858Y-106544436D01*
X108486135Y-106563446D01*
X108502149Y-106582134D01*
X108517595Y-106600143D01*
X108532171Y-106617121D01*
X108545572Y-106632712D01*
X108557495Y-106646561D01*
X108567637Y-106658314D01*
X108575693Y-106667616D01*
X108581360Y-106674113D01*
X108584335Y-106677450D01*
X108584715Y-106677826D01*
X108586789Y-106676412D01*
X108592120Y-106672453D01*
X108600151Y-106666370D01*
X108610327Y-106658586D01*
X108622091Y-106649522D01*
X108627982Y-106644963D01*
X108640230Y-106635362D01*
X108651026Y-106626687D01*
X108659835Y-106619387D01*
X108666123Y-106613910D01*
X108669353Y-106610702D01*
X108669663Y-106610108D01*
X108667852Y-106607601D01*
X108663047Y-106601640D01*
X108655415Y-106592425D01*
X108645123Y-106580155D01*
X108632340Y-106565029D01*
X108617232Y-106547247D01*
X108599968Y-106527008D01*
X108594148Y-106520200D01*
X108587019Y-106511526D01*
X108583261Y-106505426D01*
X108582938Y-106500951D01*
X108586116Y-106497152D01*
X108592860Y-106493079D01*
X108596130Y-106491384D01*
X108601303Y-106489104D01*
X108606645Y-106487716D01*
X108612682Y-106487339D01*
X108619940Y-106488097D01*
X108628947Y-106490108D01*
X108640229Y-106493495D01*
X108654310Y-106498378D01*
X108671719Y-106504879D01*
X108692982Y-106513117D01*
X108696241Y-106514395D01*
X108713085Y-106520910D01*
X108728529Y-106526706D01*
X108741990Y-106531578D01*
X108752883Y-106535321D01*
X108760623Y-106537729D01*
X108764625Y-106538596D01*
X108764990Y-106538538D01*
X108768498Y-106536066D01*
X108774899Y-106531269D01*
X108783556Y-106524646D01*
X108793831Y-106516700D01*
X108805085Y-106507932D01*
X108816680Y-106498842D01*
X108827978Y-106489932D01*
X108838340Y-106481702D01*
X108847129Y-106474655D01*
X108853706Y-106469291D01*
X108857434Y-106466110D01*
X108858035Y-106465482D01*
X108856082Y-106464096D01*
X108850234Y-106461166D01*
X108841076Y-106456953D01*
X108829191Y-106451722D01*
X108815165Y-106445736D01*
X108801628Y-106440098D01*
X108777739Y-106430449D01*
X108757630Y-106422805D01*
X108740744Y-106417041D01*
X108726524Y-106413031D01*
X108714414Y-106410650D01*
X108703857Y-106409771D01*
X108694298Y-106410270D01*
X108685180Y-106412021D01*
X108681659Y-106413005D01*
X108670660Y-106416315D01*
X108680143Y-106401643D01*
X108689715Y-106383933D01*
X108695014Y-106366603D01*
X108696355Y-106348518D01*
X108696129Y-106344029D01*
X108692459Y-106325110D01*
X108684555Y-106306807D01*
X108673010Y-106289948D01*
X108658418Y-106275360D01*
X108641372Y-106263869D01*
X108637093Y-106261716D01*
X108628415Y-106257871D01*
X108621203Y-106255544D01*
X108613612Y-106254362D01*
X108603800Y-106253951D01*
X108598671Y-106253919D01*
X108588609Y-106254004D01*
X108581126Y-106254557D01*
X108574655Y-106255973D01*
X108567631Y-106258648D01*
X108558489Y-106262978D01*
X108553983Y-106265214D01*
X108548047Y-106268276D01*
X108541989Y-106271662D01*
X108535458Y-106275624D01*
X108528104Y-106280415D01*
X108519578Y-106286288D01*
X108509529Y-106293497D01*
X108497609Y-106302294D01*
X108483466Y-106312933D01*
X108466752Y-106325667D01*
X108447116Y-106340748D01*
X108424208Y-106358430D01*
X108411115Y-106368560D01*
X108395029Y-106381064D01*
X108382438Y-106390994D01*
X108372973Y-106398679D01*
X108366266Y-106404447D01*
X108361947Y-106408625D01*
X108359648Y-106411541D01*
X108359001Y-106413524D01*
X108211475Y-106413524D01*
X108267712Y-106381087D01*
X108347727Y-106329405D01*
X108425494Y-106273478D01*
X108500923Y-106213345D01*
X108506031Y-106208917D01*
X108614300Y-106208917D01*
X108746700Y-106324851D01*
X108768310Y-106343749D01*
X108788865Y-106361678D01*
X108808078Y-106378388D01*
X108825658Y-106393630D01*
X108841317Y-106407156D01*
X108854766Y-106418716D01*
X108865717Y-106428061D01*
X108873879Y-106434943D01*
X108878965Y-106439112D01*
X108880676Y-106440337D01*
X108882744Y-106438541D01*
X108887648Y-106433766D01*
X108894879Y-106426520D01*
X108903932Y-106417315D01*
X108914300Y-106406660D01*
X108918722Y-106402085D01*
X108929393Y-106390972D01*
X108938831Y-106381045D01*
X108946554Y-106372821D01*
X108952077Y-106366817D01*
X108954915Y-106363550D01*
X108955190Y-106363123D01*
X108953466Y-106361350D01*
X108948683Y-106356920D01*
X108941426Y-106350349D01*
X108932277Y-106342153D01*
X108921823Y-106332850D01*
X108910646Y-106322953D01*
X108899332Y-106312981D01*
X108888463Y-106303449D01*
X108878625Y-106294873D01*
X108870402Y-106287769D01*
X108864377Y-106282654D01*
X108861321Y-106280180D01*
X108860534Y-106278718D01*
X108861285Y-106276181D01*
X108863920Y-106272110D01*
X108868786Y-106266051D01*
X108876229Y-106257547D01*
X108886595Y-106246140D01*
X108889723Y-106242739D01*
X108901962Y-106229265D01*
X108911389Y-106218375D01*
X108918623Y-106209257D01*
X108924287Y-106201096D01*
X108927087Y-106196335D01*
X108978573Y-106196335D01*
X108979925Y-106198471D01*
X108984467Y-106202932D01*
X108991507Y-106209168D01*
X109000354Y-106216628D01*
X109010315Y-106224760D01*
X109020700Y-106233014D01*
X109030816Y-106240839D01*
X109039972Y-106247683D01*
X109047477Y-106252997D01*
X109052638Y-106256228D01*
X109054643Y-106256935D01*
X109056675Y-106254982D01*
X109061328Y-106249888D01*
X109068114Y-106242209D01*
X109076543Y-106232498D01*
X109086127Y-106221312D01*
X109088978Y-106217960D01*
X109121527Y-106179615D01*
X109115054Y-106174315D01*
X109109330Y-106169725D01*
X109101384Y-106163486D01*
X109091939Y-106156149D01*
X109081715Y-106148266D01*
X109071436Y-106140391D01*
X109061822Y-106133076D01*
X109053596Y-106126872D01*
X109047480Y-106122333D01*
X109044195Y-106120010D01*
X109043844Y-106119823D01*
X109042076Y-106121564D01*
X109037772Y-106126344D01*
X109031500Y-106133500D01*
X109023827Y-106142366D01*
X109015319Y-106152278D01*
X109006543Y-106162572D01*
X108998067Y-106172583D01*
X108990456Y-106181646D01*
X108984278Y-106189098D01*
X108980099Y-106194274D01*
X108978573Y-106196335D01*
X108927087Y-106196335D01*
X108929002Y-106193080D01*
X108931819Y-106187628D01*
X108936426Y-106178109D01*
X108939360Y-106170927D01*
X108940996Y-106164413D01*
X108941709Y-106156900D01*
X108941876Y-106146720D01*
X108941875Y-106142939D01*
X108941745Y-106131432D01*
X108941189Y-106123249D01*
X108939913Y-106116885D01*
X108937622Y-106110835D01*
X108934246Y-106104025D01*
X108921332Y-106084220D01*
X108904524Y-106066477D01*
X108888016Y-106053820D01*
X108873360Y-106044926D01*
X108860482Y-106039026D01*
X108847827Y-106035618D01*
X108833840Y-106034198D01*
X108826972Y-106034074D01*
X108817057Y-106034215D01*
X108809574Y-106034910D01*
X108802855Y-106036577D01*
X108795235Y-106039633D01*
X108785047Y-106044496D01*
X108784699Y-106044667D01*
X108777408Y-106048366D01*
X108771122Y-106051954D01*
X108765172Y-106055986D01*
X108758884Y-106061019D01*
X108751587Y-106067608D01*
X108742610Y-106076309D01*
X108731281Y-106087679D01*
X108724875Y-106094182D01*
X108710652Y-106108707D01*
X108694649Y-106125152D01*
X108678194Y-106142143D01*
X108662616Y-106158309D01*
X108650450Y-106171013D01*
X108614300Y-106208917D01*
X108506031Y-106208917D01*
X108550578Y-106170302D01*
X108565071Y-106156969D01*
X108581969Y-106140850D01*
X108600577Y-106122651D01*
X108620202Y-106103079D01*
X108640150Y-106082842D01*
X108659728Y-106062646D01*
X108678242Y-106043199D01*
X108694999Y-106025207D01*
X108709305Y-106009378D01*
X108716212Y-106001458D01*
X108732214Y-105982504D01*
X108749872Y-105961108D01*
X108767999Y-105938732D01*
X108785406Y-105916842D01*
X108798177Y-105900454D01*
X108804216Y-105892616D01*
X109028244Y-106042037D01*
G37*
D16*
%TO.C,R2*%
X135101000Y-114961936D02*
X135101000Y-115416064D01*
X133631000Y-114961936D02*
X133631000Y-115416064D01*
D15*
%TO.C,J4*%
X144145000Y-103868000D02*
X144145000Y-103868000D01*
X144145000Y-103768000D02*
X144145000Y-103768000D01*
D14*
X138245000Y-103378000D02*
X149445000Y-103378000D01*
X149445000Y-103378000D02*
X149445000Y-88138000D01*
X138245000Y-88138000D02*
X138245000Y-103378000D01*
X149445000Y-88138000D02*
X138245000Y-88138000D01*
D15*
X144145000Y-103768000D02*
G75*
G03*
X144145000Y-103868000I0J-50000D01*
G01*
X144145000Y-103868000D02*
G75*
G03*
X144145000Y-103768000I0J50000D01*
G01*
%TO.C,RV1*%
X92616000Y-74143000D02*
X92616000Y-77643000D01*
D14*
X93616000Y-78593000D02*
X93616000Y-78593000D01*
X93816000Y-78593000D02*
X93816000Y-78593000D01*
D15*
X97416000Y-74143000D02*
X97416000Y-77643000D01*
D14*
X93816000Y-78593000D02*
G75*
G03*
X93616000Y-78593000I-100000J0D01*
G01*
X93616000Y-78593000D02*
G75*
G03*
X93816000Y-78593000I100000J0D01*
G01*
D16*
%TO.C,DS1*%
X70600000Y-35460000D02*
X70600000Y-71740000D01*
X70600000Y-71740000D02*
X150880000Y-71740000D01*
X70610000Y-35460000D02*
X71400000Y-35460000D01*
X73740000Y-41100000D02*
X146740000Y-41100000D01*
X73740000Y-66100000D02*
X73740000Y-41100000D01*
X77240000Y-35100000D02*
X80240000Y-35100000D01*
X78440280Y-60599320D02*
X78440280Y-46600000D01*
X78940000Y-46100000D02*
X142440000Y-46100000D01*
X142440660Y-61100000D02*
X78940000Y-61100000D01*
X142940000Y-46600000D02*
X142940000Y-60600000D01*
X146740000Y-41100000D02*
X146740000Y-66100000D01*
X146740000Y-66100000D02*
X73740000Y-66100000D01*
X150880000Y-35460000D02*
X71400000Y-35460000D01*
X150880000Y-71740000D02*
X150880000Y-35460000D01*
X78940660Y-46098460D02*
G75*
G03*
X78440280Y-46598840I0J-500380D01*
G01*
X78440280Y-60599320D02*
G75*
G03*
X78940660Y-61099700I500380J0D01*
G01*
X142940000Y-46600000D02*
G75*
G03*
X142440000Y-46100000I-500000J0D01*
G01*
X142440660Y-61099740D02*
G75*
G03*
X142941040Y-60599320I-60J500440D01*
G01*
D15*
%TO.C,J1*%
X70757000Y-115189000D02*
X70757000Y-115189000D01*
X70857000Y-115189000D02*
X70857000Y-115189000D01*
D14*
X71247000Y-109289000D02*
X71247000Y-120489000D01*
X71247000Y-120489000D02*
X86487000Y-120489000D01*
X86487000Y-109289000D02*
X71247000Y-109289000D01*
X86487000Y-120489000D02*
X86487000Y-109289000D01*
D15*
X70857000Y-115189000D02*
G75*
G03*
X70757000Y-115189000I-50000J0D01*
G01*
X70757000Y-115189000D02*
G75*
G03*
X70857000Y-115189000I50000J0D01*
G01*
%TO.C,SW2*%
X71067000Y-76526000D02*
X71067000Y-76526000D01*
X71167000Y-76526000D02*
X71167000Y-76526000D01*
D14*
X72617000Y-77576000D02*
X72617000Y-79976000D01*
X73217000Y-81776000D02*
X77817000Y-81776000D01*
X73417000Y-75776000D02*
X77817000Y-75776000D01*
X78617000Y-77576000D02*
X78617000Y-79976000D01*
D15*
X71167000Y-76526000D02*
G75*
G03*
X71067000Y-76526000I-50000J0D01*
G01*
X71067000Y-76526000D02*
G75*
G03*
X71167000Y-76526000I50000J0D01*
G01*
D14*
%TO.C,Z3*%
X82520000Y-77740000D02*
X82520000Y-79740000D01*
D15*
X83820000Y-75040000D02*
X83820000Y-75040000D01*
X83820000Y-75140000D02*
X83820000Y-75140000D01*
D14*
X85120000Y-77740000D02*
X85120000Y-79740000D01*
D15*
X83820000Y-75140000D02*
G75*
G03*
X83820000Y-75040000I0J50000D01*
G01*
X83820000Y-75040000D02*
G75*
G03*
X83820000Y-75140000I0J-50000D01*
G01*
D14*
%TO.C,Q1*%
X148259000Y-107695000D02*
X145034000Y-107695000D01*
X148259000Y-118365000D02*
X148259000Y-107695000D01*
X143429000Y-118365000D02*
X148259000Y-118365000D01*
%TO.C,J2*%
X89154000Y-100711000D02*
X89154000Y-101981000D01*
X89154000Y-101981000D02*
X104394000Y-101981000D01*
X104394000Y-99441000D02*
X90424000Y-99441000D01*
X104394000Y-101981000D02*
X104394000Y-99441000D01*
D15*
%TO.C,F1*%
X89367000Y-111379000D02*
X89367000Y-111379000D01*
X89467000Y-111379000D02*
X89467000Y-111379000D01*
D14*
X89857000Y-109379000D02*
X98357000Y-109379000D01*
X89857000Y-113379000D02*
X89857000Y-109379000D01*
X98357000Y-109379000D02*
X98357000Y-113379000D01*
X98357000Y-113379000D02*
X89857000Y-113379000D01*
D15*
X89467000Y-111379000D02*
G75*
G03*
X89367000Y-111379000I-50000J0D01*
G01*
X89367000Y-111379000D02*
G75*
G03*
X89467000Y-111379000I50000J0D01*
G01*
D16*
%TO.C,U1*%
X92650000Y-87867000D02*
X128330000Y-87867000D01*
X128330000Y-87867000D02*
X128330000Y-82567000D01*
X92650000Y-86217000D02*
X92650000Y-87867000D01*
X92650000Y-82567000D02*
X92650000Y-84217000D01*
X128330000Y-82567000D02*
X92650000Y-82567000D01*
X92650000Y-86217000D02*
G75*
G03*
X92650000Y-84217000I0J1000000D01*
G01*
D14*
%TO.C,Z1*%
X95166000Y-117572000D02*
X93166000Y-117572000D01*
D15*
X97866000Y-118872000D02*
X97866000Y-118872000D01*
X97766000Y-118872000D02*
X97766000Y-118872000D01*
D14*
X95166000Y-120172000D02*
X93166000Y-120172000D01*
D15*
X97766000Y-118872000D02*
G75*
G03*
X97866000Y-118872000I50000J0D01*
G01*
X97866000Y-118872000D02*
G75*
G03*
X97766000Y-118872000I-50000J0D01*
G01*
D16*
%TO.C,R5*%
X89127064Y-76935000D02*
X88672936Y-76935000D01*
X89127064Y-75465000D02*
X88672936Y-75465000D01*
D17*
%TO.C,C1*%
X102997000Y-109814000D02*
X102997000Y-109814000D01*
X102997000Y-109864000D02*
X102997000Y-109864000D01*
D14*
X105147000Y-112439000D02*
X105147000Y-115589000D01*
X100847000Y-112439000D02*
X100847000Y-115589000D01*
X105147000Y-115589000D02*
X105147000Y-112439000D01*
X105147000Y-115589000D02*
X104497000Y-115589000D01*
X104497000Y-115589000D02*
X105147000Y-115589000D01*
X100847000Y-115589000D02*
X101497000Y-115589000D01*
D17*
X102997000Y-109864000D02*
G75*
G03*
X102997000Y-109814000I0J25000D01*
G01*
X102997000Y-109814000D02*
G75*
G03*
X102997000Y-109864000I0J-25000D01*
G01*
%TD*%
M02*
