%TF.GenerationSoftware,KiCad,Pcbnew,7.0.8*%
%TF.CreationDate,2023-10-09T21:05:16-03:00*%
%TF.ProjectId,PlacaTeste_Sillion,506c6163-6154-4657-9374-655f53696c6c,r1.0*%
%TF.SameCoordinates,Original*%
%TF.FileFunction,Soldermask,Top*%
%TF.FilePolarity,Negative*%
%FSLAX46Y46*%
G04 Gerber Fmt 4.6, Leading zero omitted, Abs format (unit mm)*
G04 Created by KiCad (PCBNEW 7.0.8) date 2023-10-09 21:05:16*
%MOMM*%
%LPD*%
G01*
G04 APERTURE LIST*
G04 Aperture macros list*
%AMRoundRect*
0 Rectangle with rounded corners*
0 $1 Rounding radius*
0 $2 $3 $4 $5 $6 $7 $8 $9 X,Y pos of 4 corners*
0 Add a 4 corners polygon primitive as box body*
4,1,4,$2,$3,$4,$5,$6,$7,$8,$9,$2,$3,0*
0 Add four circle primitives for the rounded corners*
1,1,$1+$1,$2,$3*
1,1,$1+$1,$4,$5*
1,1,$1+$1,$6,$7*
1,1,$1+$1,$8,$9*
0 Add four rect primitives between the rounded corners*
20,1,$1+$1,$2,$3,$4,$5,0*
20,1,$1+$1,$4,$5,$6,$7,0*
20,1,$1+$1,$6,$7,$8,$9,0*
20,1,$1+$1,$8,$9,$2,$3,0*%
G04 Aperture macros list end*
%ADD10R,1.470000X0.990000*%
%ADD11R,2.000000X2.000000*%
%ADD12R,1.800000X2.100000*%
%ADD13RoundRect,0.250000X0.450000X-0.262500X0.450000X0.262500X-0.450000X0.262500X-0.450000X-0.262500X0*%
%ADD14R,5.600000X2.100000*%
%ADD15R,1.500000X1.500000*%
%ADD16C,1.500000*%
%ADD17R,1.020000X1.470000*%
%ADD18RoundRect,0.250000X0.262500X0.450000X-0.262500X0.450000X-0.262500X-0.450000X0.262500X-0.450000X0*%
%ADD19R,1.650000X1.650000*%
%ADD20C,1.650000*%
%ADD21RoundRect,0.250000X-0.450000X0.262500X-0.450000X-0.262500X0.450000X-0.262500X0.450000X0.262500X0*%
%ADD22R,1.950000X1.950000*%
%ADD23C,1.950000*%
%ADD24R,1.300000X1.600000*%
%ADD25R,2.000000X1.600000*%
%ADD26C,3.000000*%
%ADD27R,1.800000X2.600000*%
%ADD28O,1.800000X2.600000*%
%ADD29R,2.070000X2.070000*%
%ADD30C,2.070000*%
%ADD31R,1.600000X1.600000*%
%ADD32O,1.600000X1.600000*%
%ADD33R,1.600000X2.500000*%
G04 APERTURE END LIST*
D10*
%TO.C,C9*%
X87630000Y-88900000D03*
X87630000Y-87260000D03*
%TD*%
D11*
%TO.C,Z2*%
X83820000Y-89730000D03*
X83820000Y-85530000D03*
%TD*%
D12*
%TO.C,L1*%
X108667000Y-111379000D03*
X112567000Y-111379000D03*
%TD*%
D13*
%TO.C,R3*%
X136779000Y-117879500D03*
X136779000Y-116054500D03*
%TD*%
D14*
%TO.C,Y1*%
X110724000Y-94869000D03*
X120224000Y-94869000D03*
%TD*%
D15*
%TO.C,SW1*%
X72390000Y-85670000D03*
D16*
X78890000Y-85670000D03*
X72390000Y-90170000D03*
X78890000Y-90170000D03*
%TD*%
D17*
%TO.C,C8*%
X121158000Y-99695000D03*
X119538000Y-99695000D03*
%TD*%
D18*
%TO.C,R4*%
X89812500Y-91440000D03*
X87987500Y-91440000D03*
%TD*%
D19*
%TO.C,J3*%
X132969000Y-80391000D03*
D20*
X132969000Y-77851000D03*
X135509000Y-80391000D03*
X135509000Y-77851000D03*
X138049000Y-80391000D03*
X138049000Y-77851000D03*
%TD*%
D21*
%TO.C,R2*%
X134366000Y-114276500D03*
X134366000Y-116101500D03*
%TD*%
D22*
%TO.C,J4*%
X144145000Y-99568000D03*
D23*
X144145000Y-91948000D03*
%TD*%
D24*
%TO.C,RV1*%
X93766000Y-77343000D03*
D25*
X95016000Y-74443000D03*
D24*
X96266000Y-77343000D03*
%TD*%
D10*
%TO.C,C10*%
X87630000Y-78740000D03*
X87630000Y-80380000D03*
%TD*%
D26*
%TO.C,DS1*%
X73240900Y-38100000D03*
X73240900Y-69100700D03*
X148239480Y-69100700D03*
X148240000Y-38100000D03*
D27*
X78740000Y-38100000D03*
D28*
X81280000Y-38100000D03*
X83820000Y-38100000D03*
X86360000Y-38100000D03*
X88900000Y-38100000D03*
X91440000Y-38100000D03*
X93980000Y-38100000D03*
X96520000Y-38100000D03*
X99060000Y-38100000D03*
X101600000Y-38100000D03*
X104140000Y-38100000D03*
X106680000Y-38100000D03*
X109220000Y-38100000D03*
X111760000Y-38100000D03*
X114300000Y-38100000D03*
X116840000Y-38100000D03*
%TD*%
D22*
%TO.C,J1*%
X75057000Y-115189000D03*
D23*
X82677000Y-115189000D03*
%TD*%
D15*
%TO.C,SW2*%
X72367000Y-76526000D03*
D16*
X78867000Y-76526000D03*
X72367000Y-81026000D03*
X78867000Y-81026000D03*
%TD*%
D11*
%TO.C,Z3*%
X83820000Y-76640000D03*
X83820000Y-80840000D03*
%TD*%
D17*
%TO.C,C7*%
X110298000Y-99695000D03*
X111918000Y-99695000D03*
%TD*%
D29*
%TO.C,Q1*%
X145034000Y-110490000D03*
D30*
X145034000Y-113030000D03*
X145034000Y-115570000D03*
%TD*%
D19*
%TO.C,J2*%
X90424000Y-100711000D03*
D20*
X92964000Y-100711000D03*
X95504000Y-100711000D03*
X98044000Y-100711000D03*
X100584000Y-100711000D03*
X103124000Y-100711000D03*
%TD*%
D15*
%TO.C,F1*%
X91567000Y-111379000D03*
D16*
X96647000Y-111379000D03*
%TD*%
D31*
%TO.C,U1*%
X93980000Y-89027000D03*
D32*
X96520000Y-89027000D03*
X99060000Y-89027000D03*
X101600000Y-89027000D03*
X104140000Y-89027000D03*
X106680000Y-89027000D03*
X109220000Y-89027000D03*
X111760000Y-89027000D03*
X114300000Y-89027000D03*
X116840000Y-89027000D03*
X119380000Y-89027000D03*
X121920000Y-89027000D03*
X124460000Y-89027000D03*
X127000000Y-89027000D03*
X127000000Y-81407000D03*
X124460000Y-81407000D03*
X121920000Y-81407000D03*
X119380000Y-81407000D03*
X116840000Y-81407000D03*
X114300000Y-81407000D03*
X111760000Y-81407000D03*
X109220000Y-81407000D03*
X106680000Y-81407000D03*
X104140000Y-81407000D03*
X101600000Y-81407000D03*
X99060000Y-81407000D03*
X96520000Y-81407000D03*
X93980000Y-81407000D03*
%TD*%
D11*
%TO.C,Z1*%
X96266000Y-118872000D03*
X92066000Y-118872000D03*
%TD*%
D18*
%TO.C,R5*%
X89812500Y-76200000D03*
X87987500Y-76200000D03*
%TD*%
D33*
%TO.C,C1*%
X102997000Y-111689000D03*
X102997000Y-115189000D03*
%TD*%
M02*
