%TF.GenerationSoftware,KiCad,Pcbnew,7.0.8*%
%TF.CreationDate,2023-10-09T21:05:16-03:00*%
%TF.ProjectId,PlacaTeste_Sillion,506c6163-6154-4657-9374-655f53696c6c,r1.0*%
%TF.SameCoordinates,Original*%
%TF.FileFunction,Soldermask,Bot*%
%TF.FilePolarity,Negative*%
%FSLAX46Y46*%
G04 Gerber Fmt 4.6, Leading zero omitted, Abs format (unit mm)*
G04 Created by KiCad (PCBNEW 7.0.8) date 2023-10-09 21:05:16*
%MOMM*%
%LPD*%
G01*
G04 APERTURE LIST*
G04 Aperture macros list*
%AMRoundRect*
0 Rectangle with rounded corners*
0 $1 Rounding radius*
0 $2 $3 $4 $5 $6 $7 $8 $9 X,Y pos of 4 corners*
0 Add a 4 corners polygon primitive as box body*
4,1,4,$2,$3,$4,$5,$6,$7,$8,$9,$2,$3,0*
0 Add four circle primitives for the rounded corners*
1,1,$1+$1,$2,$3*
1,1,$1+$1,$4,$5*
1,1,$1+$1,$6,$7*
1,1,$1+$1,$8,$9*
0 Add four rect primitives between the rounded corners*
20,1,$1+$1,$2,$3,$4,$5,0*
20,1,$1+$1,$4,$5,$6,$7,0*
20,1,$1+$1,$6,$7,$8,$9,0*
20,1,$1+$1,$8,$9,$2,$3,0*%
G04 Aperture macros list end*
%ADD10R,1.500000X1.500000*%
%ADD11C,1.500000*%
%ADD12R,1.650000X1.650000*%
%ADD13C,1.650000*%
%ADD14R,1.950000X1.950000*%
%ADD15C,1.950000*%
%ADD16C,3.000000*%
%ADD17R,1.800000X2.600000*%
%ADD18O,1.800000X2.600000*%
%ADD19R,2.070000X2.070000*%
%ADD20C,2.070000*%
%ADD21R,1.600000X1.600000*%
%ADD22O,1.600000X1.600000*%
%ADD23RoundRect,0.250000X0.262500X0.450000X-0.262500X0.450000X-0.262500X-0.450000X0.262500X-0.450000X0*%
%ADD24R,1.470000X0.990000*%
%ADD25R,0.990000X1.470000*%
%ADD26R,1.550000X2.350000*%
%ADD27RoundRect,0.250000X-0.450000X0.262500X-0.450000X-0.262500X0.450000X-0.262500X0.450000X0.262500X0*%
G04 APERTURE END LIST*
D10*
%TO.C,SW1*%
X72390000Y-85670000D03*
D11*
X78890000Y-85670000D03*
X72390000Y-90170000D03*
X78890000Y-90170000D03*
%TD*%
D12*
%TO.C,J3*%
X132969000Y-80391000D03*
D13*
X132969000Y-77851000D03*
X135509000Y-80391000D03*
X135509000Y-77851000D03*
X138049000Y-80391000D03*
X138049000Y-77851000D03*
%TD*%
D14*
%TO.C,J4*%
X144145000Y-99568000D03*
D15*
X144145000Y-91948000D03*
%TD*%
D16*
%TO.C,DS1*%
X73240900Y-38100000D03*
X73240900Y-69100700D03*
X148239480Y-69100700D03*
X148240000Y-38100000D03*
D17*
X78740000Y-38100000D03*
D18*
X81280000Y-38100000D03*
X83820000Y-38100000D03*
X86360000Y-38100000D03*
X88900000Y-38100000D03*
X91440000Y-38100000D03*
X93980000Y-38100000D03*
X96520000Y-38100000D03*
X99060000Y-38100000D03*
X101600000Y-38100000D03*
X104140000Y-38100000D03*
X106680000Y-38100000D03*
X109220000Y-38100000D03*
X111760000Y-38100000D03*
X114300000Y-38100000D03*
X116840000Y-38100000D03*
%TD*%
D14*
%TO.C,J1*%
X75057000Y-115189000D03*
D15*
X82677000Y-115189000D03*
%TD*%
D10*
%TO.C,SW2*%
X72367000Y-76526000D03*
D11*
X78867000Y-76526000D03*
X72367000Y-81026000D03*
X78867000Y-81026000D03*
%TD*%
D19*
%TO.C,Q1*%
X145034000Y-110490000D03*
D20*
X145034000Y-113030000D03*
X145034000Y-115570000D03*
%TD*%
D12*
%TO.C,J2*%
X90424000Y-100711000D03*
D13*
X92964000Y-100711000D03*
X95504000Y-100711000D03*
X98044000Y-100711000D03*
X100584000Y-100711000D03*
X103124000Y-100711000D03*
%TD*%
D10*
%TO.C,F1*%
X91567000Y-111379000D03*
D11*
X96647000Y-111379000D03*
%TD*%
D21*
%TO.C,U1*%
X93980000Y-89027000D03*
D22*
X96520000Y-89027000D03*
X99060000Y-89027000D03*
X101600000Y-89027000D03*
X104140000Y-89027000D03*
X106680000Y-89027000D03*
X109220000Y-89027000D03*
X111760000Y-89027000D03*
X114300000Y-89027000D03*
X116840000Y-89027000D03*
X119380000Y-89027000D03*
X121920000Y-89027000D03*
X124460000Y-89027000D03*
X127000000Y-89027000D03*
X127000000Y-81407000D03*
X124460000Y-81407000D03*
X121920000Y-81407000D03*
X119380000Y-81407000D03*
X116840000Y-81407000D03*
X114300000Y-81407000D03*
X111760000Y-81407000D03*
X109220000Y-81407000D03*
X106680000Y-81407000D03*
X104140000Y-81407000D03*
X101600000Y-81407000D03*
X99060000Y-81407000D03*
X96520000Y-81407000D03*
X93980000Y-81407000D03*
%TD*%
D23*
%TO.C,R6*%
X76581000Y-88265000D03*
X74756000Y-88265000D03*
%TD*%
D24*
%TO.C,C5*%
X111760000Y-78925000D03*
X111760000Y-77285000D03*
%TD*%
D25*
%TO.C,C3*%
X109289000Y-91186000D03*
X110929000Y-91186000D03*
%TD*%
D24*
%TO.C,C6*%
X93980000Y-91197000D03*
X93980000Y-92837000D03*
%TD*%
D26*
%TO.C,D1*%
X147701000Y-97391000D03*
X147701000Y-93091000D03*
%TD*%
D24*
%TO.C,C4*%
X114427000Y-78925000D03*
X114427000Y-77285000D03*
%TD*%
D27*
%TO.C,R1*%
X96520000Y-91059000D03*
X96520000Y-92884000D03*
%TD*%
D23*
%TO.C,R7*%
X76552500Y-78740000D03*
X74727500Y-78740000D03*
%TD*%
D25*
%TO.C,C2*%
X80010000Y-43180000D03*
X78370000Y-43180000D03*
%TD*%
M02*
