%TF.GenerationSoftware,KiCad,Pcbnew,7.0.8*%
%TF.CreationDate,2023-10-09T21:05:16-03:00*%
%TF.ProjectId,PlacaTeste_Sillion,506c6163-6154-4657-9374-655f53696c6c,r1.0*%
%TF.SameCoordinates,Original*%
%TF.FileFunction,Copper,L1,Top*%
%TF.FilePolarity,Positive*%
%FSLAX46Y46*%
G04 Gerber Fmt 4.6, Leading zero omitted, Abs format (unit mm)*
G04 Created by KiCad (PCBNEW 7.0.8) date 2023-10-09 21:05:16*
%MOMM*%
%LPD*%
G01*
G04 APERTURE LIST*
G04 Aperture macros list*
%AMRoundRect*
0 Rectangle with rounded corners*
0 $1 Rounding radius*
0 $2 $3 $4 $5 $6 $7 $8 $9 X,Y pos of 4 corners*
0 Add a 4 corners polygon primitive as box body*
4,1,4,$2,$3,$4,$5,$6,$7,$8,$9,$2,$3,0*
0 Add four circle primitives for the rounded corners*
1,1,$1+$1,$2,$3*
1,1,$1+$1,$4,$5*
1,1,$1+$1,$6,$7*
1,1,$1+$1,$8,$9*
0 Add four rect primitives between the rounded corners*
20,1,$1+$1,$2,$3,$4,$5,0*
20,1,$1+$1,$4,$5,$6,$7,0*
20,1,$1+$1,$6,$7,$8,$9,0*
20,1,$1+$1,$8,$9,$2,$3,0*%
G04 Aperture macros list end*
%TA.AperFunction,SMDPad,CuDef*%
%ADD10R,1.470000X0.990000*%
%TD*%
%TA.AperFunction,SMDPad,CuDef*%
%ADD11R,2.000000X2.000000*%
%TD*%
%TA.AperFunction,SMDPad,CuDef*%
%ADD12R,1.800000X2.100000*%
%TD*%
%TA.AperFunction,SMDPad,CuDef*%
%ADD13RoundRect,0.250000X0.450000X-0.262500X0.450000X0.262500X-0.450000X0.262500X-0.450000X-0.262500X0*%
%TD*%
%TA.AperFunction,SMDPad,CuDef*%
%ADD14R,5.600000X2.100000*%
%TD*%
%TA.AperFunction,ComponentPad*%
%ADD15R,1.500000X1.500000*%
%TD*%
%TA.AperFunction,ComponentPad*%
%ADD16C,1.500000*%
%TD*%
%TA.AperFunction,SMDPad,CuDef*%
%ADD17R,1.020000X1.470000*%
%TD*%
%TA.AperFunction,SMDPad,CuDef*%
%ADD18RoundRect,0.250000X0.262500X0.450000X-0.262500X0.450000X-0.262500X-0.450000X0.262500X-0.450000X0*%
%TD*%
%TA.AperFunction,ComponentPad*%
%ADD19R,1.650000X1.650000*%
%TD*%
%TA.AperFunction,ComponentPad*%
%ADD20C,1.650000*%
%TD*%
%TA.AperFunction,SMDPad,CuDef*%
%ADD21RoundRect,0.250000X-0.450000X0.262500X-0.450000X-0.262500X0.450000X-0.262500X0.450000X0.262500X0*%
%TD*%
%TA.AperFunction,ComponentPad*%
%ADD22R,1.950000X1.950000*%
%TD*%
%TA.AperFunction,ComponentPad*%
%ADD23C,1.950000*%
%TD*%
%TA.AperFunction,SMDPad,CuDef*%
%ADD24R,1.300000X1.600000*%
%TD*%
%TA.AperFunction,SMDPad,CuDef*%
%ADD25R,2.000000X1.600000*%
%TD*%
%TA.AperFunction,ComponentPad*%
%ADD26C,3.000000*%
%TD*%
%TA.AperFunction,ComponentPad*%
%ADD27R,1.800000X2.600000*%
%TD*%
%TA.AperFunction,ComponentPad*%
%ADD28O,1.800000X2.600000*%
%TD*%
%TA.AperFunction,ComponentPad*%
%ADD29R,2.070000X2.070000*%
%TD*%
%TA.AperFunction,ComponentPad*%
%ADD30C,2.070000*%
%TD*%
%TA.AperFunction,ComponentPad*%
%ADD31R,1.600000X1.600000*%
%TD*%
%TA.AperFunction,ComponentPad*%
%ADD32O,1.600000X1.600000*%
%TD*%
%TA.AperFunction,SMDPad,CuDef*%
%ADD33R,1.600000X2.500000*%
%TD*%
%TA.AperFunction,ViaPad*%
%ADD34C,0.711200*%
%TD*%
%TA.AperFunction,Conductor*%
%ADD35C,1.270000*%
%TD*%
%TA.AperFunction,Conductor*%
%ADD36C,0.508000*%
%TD*%
%TA.AperFunction,Conductor*%
%ADD37C,0.381000*%
%TD*%
G04 APERTURE END LIST*
D10*
%TO.P,C9,1,1*%
%TO.N,/{slash}RESET*%
X87630000Y-88900000D03*
%TO.P,C9,2,2*%
%TO.N,GND*%
X87630000Y-87260000D03*
%TD*%
D11*
%TO.P,Z2,1,K*%
%TO.N,/{slash}RESET*%
X83820000Y-89730000D03*
%TO.P,Z2,2,A*%
%TO.N,GND*%
X83820000Y-85530000D03*
%TD*%
D12*
%TO.P,L1,1,1*%
%TO.N,Net-(C1-+)*%
X108667000Y-111379000D03*
%TO.P,L1,2,2*%
%TO.N,+5V*%
X112567000Y-111379000D03*
%TD*%
D13*
%TO.P,R3,1*%
%TO.N,GND*%
X136779000Y-117879500D03*
%TO.P,R3,2*%
%TO.N,Net-(Q1-G)*%
X136779000Y-116054500D03*
%TD*%
D14*
%TO.P,Y1,1,1*%
%TO.N,/XTAL1*%
X110724000Y-94869000D03*
%TO.P,Y1,2,2*%
%TO.N,/XTAL2*%
X120224000Y-94869000D03*
%TD*%
D15*
%TO.P,SW1,1,1*%
%TO.N,GND*%
X72390000Y-85670000D03*
D16*
%TO.P,SW1,2,2*%
X78890000Y-85670000D03*
%TO.P,SW1,3,3*%
%TO.N,Net-(R6-Pad2)*%
X72390000Y-90170000D03*
%TO.P,SW1,4,4*%
X78890000Y-90170000D03*
%TD*%
D17*
%TO.P,C8,1,1*%
%TO.N,/XTAL2*%
X121158000Y-99695000D03*
%TO.P,C8,2,2*%
%TO.N,GND*%
X119538000Y-99695000D03*
%TD*%
D18*
%TO.P,R4,1*%
%TO.N,+5V*%
X89812500Y-91440000D03*
%TO.P,R4,2*%
%TO.N,/{slash}RESET*%
X87987500Y-91440000D03*
%TD*%
D19*
%TO.P,J3,1,1*%
%TO.N,/MISO*%
X132969000Y-80391000D03*
D20*
%TO.P,J3,2,2*%
%TO.N,+5V*%
X132969000Y-77851000D03*
%TO.P,J3,3,3*%
%TO.N,/SCK*%
X135509000Y-80391000D03*
%TO.P,J3,4,4*%
%TO.N,/MOSI*%
X135509000Y-77851000D03*
%TO.P,J3,5,5*%
%TO.N,/{slash}RESET*%
X138049000Y-80391000D03*
%TO.P,J3,6,6*%
%TO.N,GND*%
X138049000Y-77851000D03*
%TD*%
D21*
%TO.P,R2,1*%
%TO.N,/MOTOR_CONTROL*%
X134366000Y-114276500D03*
%TO.P,R2,2*%
%TO.N,Net-(Q1-G)*%
X134366000Y-116101500D03*
%TD*%
D22*
%TO.P,J4,1,1*%
%TO.N,+5V*%
X144145000Y-99568000D03*
D23*
%TO.P,J4,2,2*%
%TO.N,Net-(D1-A)*%
X144145000Y-91948000D03*
%TD*%
D24*
%TO.P,RV1,1,1*%
%TO.N,+5V*%
X93766000Y-77343000D03*
D25*
%TO.P,RV1,2,2*%
%TO.N,Net-(DS1-VO)*%
X95016000Y-74443000D03*
D24*
%TO.P,RV1,3,3*%
%TO.N,GND*%
X96266000Y-77343000D03*
%TD*%
D10*
%TO.P,C10,1,1*%
%TO.N,/PUSHBUTTON*%
X87630000Y-78740000D03*
%TO.P,C10,2,2*%
%TO.N,GND*%
X87630000Y-80380000D03*
%TD*%
D26*
%TO.P,DS1,*%
%TO.N,*%
X73240900Y-38100000D03*
X73240900Y-69100700D03*
X148239480Y-69100700D03*
X148240000Y-38100000D03*
D27*
%TO.P,DS1,1,VSS*%
%TO.N,GND*%
X78740000Y-38100000D03*
D28*
%TO.P,DS1,2,VDD*%
%TO.N,+5V*%
X81280000Y-38100000D03*
%TO.P,DS1,3,VO*%
%TO.N,Net-(DS1-VO)*%
X83820000Y-38100000D03*
%TO.P,DS1,4,RS*%
%TO.N,/DISPLAY_RS*%
X86360000Y-38100000D03*
%TO.P,DS1,5,R/W*%
%TO.N,GND*%
X88900000Y-38100000D03*
%TO.P,DS1,6,E*%
%TO.N,/DISPLAY_EN*%
X91440000Y-38100000D03*
%TO.P,DS1,7,D0*%
%TO.N,unconnected-(DS1-D0-Pad7)*%
X93980000Y-38100000D03*
%TO.P,DS1,8,D1*%
%TO.N,unconnected-(DS1-D1-Pad8)*%
X96520000Y-38100000D03*
%TO.P,DS1,9,D2*%
%TO.N,unconnected-(DS1-D2-Pad9)*%
X99060000Y-38100000D03*
%TO.P,DS1,10,D3*%
%TO.N,unconnected-(DS1-D3-Pad10)*%
X101600000Y-38100000D03*
%TO.P,DS1,11,D4*%
%TO.N,/DISPLAY_D4*%
X104140000Y-38100000D03*
%TO.P,DS1,12,D5*%
%TO.N,/DISPLAY_D5*%
X106680000Y-38100000D03*
%TO.P,DS1,13,D6*%
%TO.N,/DISPLAY_D6*%
X109220000Y-38100000D03*
%TO.P,DS1,14,D7*%
%TO.N,/DISPLAY_D7*%
X111760000Y-38100000D03*
%TO.P,DS1,15,LED(+)*%
%TO.N,+5V*%
X114300000Y-38100000D03*
%TO.P,DS1,16,LED(-)*%
%TO.N,GND*%
X116840000Y-38100000D03*
%TD*%
D22*
%TO.P,J1,1,1*%
%TO.N,Net-(F1-Pad1)*%
X75057000Y-115189000D03*
D23*
%TO.P,J1,2,2*%
%TO.N,GND*%
X82677000Y-115189000D03*
%TD*%
D15*
%TO.P,SW2,1,1*%
%TO.N,GND*%
X72367000Y-76526000D03*
D16*
%TO.P,SW2,2,2*%
X78867000Y-76526000D03*
%TO.P,SW2,3,3*%
%TO.N,Net-(R7-Pad2)*%
X72367000Y-81026000D03*
%TO.P,SW2,4,4*%
X78867000Y-81026000D03*
%TD*%
D11*
%TO.P,Z3,1,K*%
%TO.N,/PUSHBUTTON*%
X83820000Y-76640000D03*
%TO.P,Z3,2,A*%
%TO.N,GND*%
X83820000Y-80840000D03*
%TD*%
D17*
%TO.P,C7,1,1*%
%TO.N,/XTAL1*%
X110298000Y-99695000D03*
%TO.P,C7,2,2*%
%TO.N,GND*%
X111918000Y-99695000D03*
%TD*%
D29*
%TO.P,Q1,1,G*%
%TO.N,Net-(Q1-G)*%
X145034000Y-110490000D03*
D30*
%TO.P,Q1,2,D*%
%TO.N,Net-(D1-A)*%
X145034000Y-113030000D03*
%TO.P,Q1,3,S*%
%TO.N,GND*%
X145034000Y-115570000D03*
%TD*%
D19*
%TO.P,J2,1,1*%
%TO.N,GND*%
X90424000Y-100711000D03*
D20*
%TO.P,J2,2,2*%
X92964000Y-100711000D03*
%TO.P,J2,3,3*%
%TO.N,+5V*%
X95504000Y-100711000D03*
%TO.P,J2,4,4*%
%TO.N,/TXD*%
X98044000Y-100711000D03*
%TO.P,J2,5,5*%
%TO.N,/RXD*%
X100584000Y-100711000D03*
%TO.P,J2,6,6*%
%TO.N,/RTS*%
X103124000Y-100711000D03*
%TD*%
D15*
%TO.P,F1,1,1*%
%TO.N,Net-(F1-Pad1)*%
X91567000Y-111379000D03*
D16*
%TO.P,F1,2,2*%
%TO.N,Net-(C1-+)*%
X96647000Y-111379000D03*
%TD*%
D31*
%TO.P,U1,1,~{RESET}/PC6*%
%TO.N,/{slash}RESET*%
X93980000Y-89027000D03*
D32*
%TO.P,U1,2,PD0*%
%TO.N,Net-(U1-PD0)*%
X96520000Y-89027000D03*
%TO.P,U1,3,PD1*%
%TO.N,/RXD*%
X99060000Y-89027000D03*
%TO.P,U1,4,PD2*%
%TO.N,/DISPLAY_RS*%
X101600000Y-89027000D03*
%TO.P,U1,5,PD3*%
%TO.N,/DISPLAY_EN*%
X104140000Y-89027000D03*
%TO.P,U1,6,PD4*%
%TO.N,/DISPLAY_D4*%
X106680000Y-89027000D03*
%TO.P,U1,7,VCC*%
%TO.N,+5V*%
X109220000Y-89027000D03*
%TO.P,U1,8,GND*%
%TO.N,GND*%
X111760000Y-89027000D03*
%TO.P,U1,9,XTAL1/PB6*%
%TO.N,/XTAL1*%
X114300000Y-89027000D03*
%TO.P,U1,10,XTAL2/PB7*%
%TO.N,/XTAL2*%
X116840000Y-89027000D03*
%TO.P,U1,11,PD5*%
%TO.N,/DISPLAY_D5*%
X119380000Y-89027000D03*
%TO.P,U1,12,PD6*%
%TO.N,/DISPLAY_D6*%
X121920000Y-89027000D03*
%TO.P,U1,13,PD7*%
%TO.N,/DISPLAY_D7*%
X124460000Y-89027000D03*
%TO.P,U1,14,PB0*%
%TO.N,/PUSHBUTTON*%
X127000000Y-89027000D03*
%TO.P,U1,15,PB1*%
%TO.N,/MOTOR_CONTROL*%
X127000000Y-81407000D03*
%TO.P,U1,16,PB2*%
%TO.N,unconnected-(U1-PB2-Pad16)*%
X124460000Y-81407000D03*
%TO.P,U1,17,PB3*%
%TO.N,/MOSI*%
X121920000Y-81407000D03*
%TO.P,U1,18,PB4*%
%TO.N,/MISO*%
X119380000Y-81407000D03*
%TO.P,U1,19,PB5*%
%TO.N,/SCK*%
X116840000Y-81407000D03*
%TO.P,U1,20,AVCC*%
%TO.N,+5V*%
X114300000Y-81407000D03*
%TO.P,U1,21,AREF*%
%TO.N,Net-(U1-AREF)*%
X111760000Y-81407000D03*
%TO.P,U1,22,GND*%
%TO.N,GND*%
X109220000Y-81407000D03*
%TO.P,U1,23,PC0*%
X106680000Y-81407000D03*
%TO.P,U1,24,PC1*%
X104140000Y-81407000D03*
%TO.P,U1,25,PC2*%
X101600000Y-81407000D03*
%TO.P,U1,26,PC3*%
X99060000Y-81407000D03*
%TO.P,U1,27,PC4*%
X96520000Y-81407000D03*
%TO.P,U1,28,PC5*%
X93980000Y-81407000D03*
%TD*%
D11*
%TO.P,Z1,1,K*%
%TO.N,Net-(C1-+)*%
X96266000Y-118872000D03*
%TO.P,Z1,2,A*%
%TO.N,GND*%
X92066000Y-118872000D03*
%TD*%
D18*
%TO.P,R5,1*%
%TO.N,+5V*%
X89812500Y-76200000D03*
%TO.P,R5,2*%
%TO.N,/PUSHBUTTON*%
X87987500Y-76200000D03*
%TD*%
D33*
%TO.P,C1,1,+*%
%TO.N,Net-(C1-+)*%
X102997000Y-111689000D03*
%TO.P,C1,2,-*%
%TO.N,GND*%
X102997000Y-115189000D03*
%TD*%
D34*
%TO.N,GND*%
X112395000Y-91186000D03*
X76454000Y-43180000D03*
X111760000Y-75819000D03*
X114427000Y-75819000D03*
%TO.N,+5V*%
X90043000Y-93472000D03*
X130683000Y-77724000D03*
X91313000Y-77343000D03*
X115443000Y-111379000D03*
%TO.N,/{slash}RESET*%
X81153000Y-87757000D03*
%TO.N,/PUSHBUTTON*%
X81280000Y-76835000D03*
X126746000Y-85217000D03*
%TO.N,/TXD*%
X96520000Y-94234000D03*
%TO.N,/MOTOR_CONTROL*%
X132080000Y-114173000D03*
%TD*%
D35*
%TO.N,Net-(C1-+)*%
X96266000Y-118872000D02*
X96266000Y-111760000D01*
X96266000Y-111760000D02*
X96647000Y-111379000D01*
X96647000Y-111379000D02*
X102687000Y-111379000D01*
X103307000Y-111379000D02*
X102997000Y-111689000D01*
X108667000Y-111379000D02*
X103307000Y-111379000D01*
X102687000Y-111379000D02*
X102997000Y-111689000D01*
%TO.N,GND*%
X83439000Y-118872000D02*
X92066000Y-118872000D01*
D36*
X92964000Y-100711000D02*
X90424000Y-100711000D01*
D35*
X145034000Y-115570000D02*
X144399000Y-115570000D01*
D36*
X87630000Y-80380000D02*
X84280000Y-80380000D01*
D35*
X102997000Y-115189000D02*
X102997000Y-118110000D01*
X103124000Y-118237000D02*
X141732000Y-118237000D01*
D36*
X84280000Y-80380000D02*
X83820000Y-80840000D01*
D35*
X82677000Y-118110000D02*
X82677000Y-115189000D01*
X102997000Y-118110000D02*
X103124000Y-118237000D01*
X136779000Y-117879500D02*
X137136500Y-118237000D01*
X144399000Y-115570000D02*
X141732000Y-118237000D01*
X83312000Y-118745000D02*
X82677000Y-118110000D01*
X83312000Y-118745000D02*
X83439000Y-118872000D01*
X137136500Y-118237000D02*
X141732000Y-118237000D01*
%TO.N,+5V*%
X138303000Y-105156000D02*
X138303000Y-101092000D01*
X138303000Y-101092000D02*
X139827000Y-99568000D01*
D36*
X130810000Y-77851000D02*
X130683000Y-77724000D01*
X132969000Y-77851000D02*
X130810000Y-77851000D01*
D35*
X115443000Y-111379000D02*
X112567000Y-111379000D01*
X139827000Y-99568000D02*
X144145000Y-99568000D01*
D36*
X89812500Y-93241500D02*
X90043000Y-93472000D01*
D35*
X132080000Y-111379000D02*
X138303000Y-105156000D01*
X115443000Y-111379000D02*
X132080000Y-111379000D01*
D36*
X89812500Y-91440000D02*
X89812500Y-93241500D01*
X90170000Y-76200000D02*
X91313000Y-77343000D01*
X93766000Y-77343000D02*
X91313000Y-77343000D01*
X89812500Y-76200000D02*
X90170000Y-76200000D01*
%TO.N,/{slash}RESET*%
X86546000Y-89730000D02*
X83820000Y-89730000D01*
X87376000Y-88900000D02*
X86546000Y-89730000D01*
X132461000Y-86106000D02*
X126485527Y-86106000D01*
X87987500Y-91440000D02*
X87630000Y-91082500D01*
X87630000Y-91082500D02*
X87630000Y-88900000D01*
X125679200Y-85293200D02*
X97713800Y-85293200D01*
X138049000Y-80391000D02*
X138049000Y-80518000D01*
X138049000Y-80518000D02*
X132461000Y-86106000D01*
X87757000Y-89027000D02*
X87630000Y-88900000D01*
X81847000Y-87757000D02*
X83820000Y-89730000D01*
X97713800Y-85293200D02*
X93980000Y-89027000D01*
X87630000Y-88900000D02*
X87376000Y-88900000D01*
X125933200Y-85547200D02*
X125679200Y-85293200D01*
X93980000Y-89027000D02*
X87757000Y-89027000D01*
X81153000Y-87757000D02*
X81847000Y-87757000D01*
X125933200Y-85553673D02*
X125933200Y-85547200D01*
X126485527Y-86106000D02*
X125933200Y-85553673D01*
%TO.N,/XTAL1*%
X110298000Y-99695000D02*
X110298000Y-95295000D01*
X114300000Y-89027000D02*
X114300000Y-94107000D01*
X113538000Y-94869000D02*
X110724000Y-94869000D01*
X110298000Y-95295000D02*
X110724000Y-94869000D01*
X114300000Y-94107000D02*
X113538000Y-94869000D01*
%TO.N,/XTAL2*%
X121158000Y-95803000D02*
X120224000Y-94869000D01*
X116840000Y-89027000D02*
X116840000Y-94107000D01*
X117602000Y-94869000D02*
X120224000Y-94869000D01*
X121158000Y-99695000D02*
X121158000Y-95803000D01*
X116840000Y-94107000D02*
X117602000Y-94869000D01*
%TO.N,/PUSHBUTTON*%
X126111000Y-84582000D02*
X90678000Y-84582000D01*
X84260000Y-76200000D02*
X87987500Y-76200000D01*
X87630000Y-78740000D02*
X87630000Y-76557500D01*
X87630000Y-76557500D02*
X87987500Y-76200000D01*
X126746000Y-85217000D02*
X126111000Y-84582000D01*
X83820000Y-76640000D02*
X81475000Y-76640000D01*
X88365000Y-78740000D02*
X87630000Y-78740000D01*
X90678000Y-84582000D02*
X89154000Y-83058000D01*
X89154000Y-79529000D02*
X88365000Y-78740000D01*
X83820000Y-76640000D02*
X84260000Y-76200000D01*
X89154000Y-83058000D02*
X89154000Y-79529000D01*
X81475000Y-76640000D02*
X81280000Y-76835000D01*
%TO.N,Net-(DS1-VO)*%
X95016000Y-74443000D02*
X84074000Y-63501000D01*
X84074000Y-63501000D02*
X84074000Y-38354000D01*
X84074000Y-38354000D02*
X83820000Y-38100000D01*
D35*
%TO.N,Net-(F1-Pad1)*%
X75057000Y-113411000D02*
X77089000Y-111379000D01*
X75057000Y-115189000D02*
X75057000Y-113411000D01*
X77089000Y-111379000D02*
X91567000Y-111379000D01*
D36*
%TO.N,/TXD*%
X96520000Y-94234000D02*
X96647000Y-94361000D01*
X96647000Y-99314000D02*
X98044000Y-100711000D01*
X96647000Y-94361000D02*
X96647000Y-99314000D01*
%TO.N,/RXD*%
X99060000Y-99187000D02*
X99060000Y-89027000D01*
X100584000Y-100711000D02*
X99060000Y-99187000D01*
%TO.N,/MISO*%
X132207000Y-79629000D02*
X121158000Y-79629000D01*
X132969000Y-80391000D02*
X132207000Y-79629000D01*
X121158000Y-79629000D02*
X119380000Y-81407000D01*
%TO.N,/SCK*%
X135509000Y-80518000D02*
X133096000Y-82931000D01*
X117729000Y-82931000D02*
X116840000Y-82042000D01*
X135509000Y-80391000D02*
X135509000Y-80518000D01*
X133096000Y-82931000D02*
X117729000Y-82931000D01*
X116840000Y-82042000D02*
X116840000Y-81407000D01*
D35*
%TO.N,Net-(Q1-G)*%
X138557000Y-110490000D02*
X136779000Y-112268000D01*
X136779000Y-112268000D02*
X136779000Y-116054500D01*
X136779000Y-116054500D02*
X136779000Y-115189000D01*
X145034000Y-110490000D02*
X138557000Y-110490000D01*
X136779000Y-116054500D02*
X134239000Y-116054500D01*
D37*
%TO.N,/MOTOR_CONTROL*%
X134366000Y-114276500D02*
X132183500Y-114276500D01*
X132183500Y-114276500D02*
X132080000Y-114173000D01*
%TD*%
%TA.AperFunction,Conductor*%
%TO.N,GND*%
G36*
X152200883Y-34670386D02*
G01*
X152267861Y-34690277D01*
X152313453Y-34743221D01*
X152324500Y-34794385D01*
X152324500Y-49771000D01*
X152146612Y-85348491D01*
X152126593Y-85415431D01*
X152073561Y-85460922D01*
X152023493Y-85471868D01*
X134336955Y-85597305D01*
X134269778Y-85578096D01*
X134223650Y-85525618D01*
X134213216Y-85456532D01*
X134241790Y-85392772D01*
X134248382Y-85385640D01*
X137882560Y-81751462D01*
X137943881Y-81717979D01*
X137981042Y-81715617D01*
X138049000Y-81721563D01*
X138049000Y-81721562D01*
X138049001Y-81721563D01*
X138049002Y-81721563D01*
X138116964Y-81715617D01*
X138280050Y-81701349D01*
X138504079Y-81641320D01*
X138714282Y-81543301D01*
X138904269Y-81410270D01*
X139068270Y-81246269D01*
X139201301Y-81056282D01*
X139299320Y-80846079D01*
X139359349Y-80622050D01*
X139379563Y-80391000D01*
X139359349Y-80159950D01*
X139299320Y-79935921D01*
X139201301Y-79725719D01*
X139201299Y-79725716D01*
X139201298Y-79725714D01*
X139068273Y-79535735D01*
X139068268Y-79535729D01*
X138904272Y-79371733D01*
X138904264Y-79371726D01*
X138808072Y-79304372D01*
X138764447Y-79249795D01*
X138757254Y-79180297D01*
X138788776Y-79117942D01*
X138820179Y-79093741D01*
X138850284Y-79077449D01*
X138850285Y-79077448D01*
X138890552Y-79046106D01*
X138890553Y-79046105D01*
X138220568Y-78376121D01*
X138337458Y-78325349D01*
X138454739Y-78229934D01*
X138541928Y-78106415D01*
X138572354Y-78020801D01*
X139243535Y-78691982D01*
X139337434Y-78548262D01*
X139337435Y-78548260D01*
X139434626Y-78326684D01*
X139494023Y-78092128D01*
X139514004Y-77851005D01*
X139514004Y-77850994D01*
X139494023Y-77609871D01*
X139434626Y-77375315D01*
X139337435Y-77153739D01*
X139337434Y-77153737D01*
X139243535Y-77010016D01*
X138574929Y-77678622D01*
X138572116Y-77665085D01*
X138502558Y-77530844D01*
X138399362Y-77420348D01*
X138270181Y-77341791D01*
X138218995Y-77327449D01*
X138890552Y-76655893D01*
X138850278Y-76624546D01*
X138637486Y-76509388D01*
X138637481Y-76509386D01*
X138408640Y-76430825D01*
X138169978Y-76391000D01*
X137928022Y-76391000D01*
X137689359Y-76430825D01*
X137460518Y-76509386D01*
X137460513Y-76509388D01*
X137247721Y-76624547D01*
X137207446Y-76655893D01*
X137207445Y-76655893D01*
X137877431Y-77325878D01*
X137760542Y-77376651D01*
X137643261Y-77472066D01*
X137556072Y-77595585D01*
X137525645Y-77681198D01*
X136854463Y-77010016D01*
X136854462Y-77010016D01*
X136802093Y-77090172D01*
X136748946Y-77135529D01*
X136679715Y-77144952D01*
X136616379Y-77115449D01*
X136596710Y-77093473D01*
X136528273Y-76995735D01*
X136528268Y-76995729D01*
X136364269Y-76831730D01*
X136364263Y-76831726D01*
X136174282Y-76698699D01*
X135964079Y-76600680D01*
X135964076Y-76600679D01*
X135964074Y-76600678D01*
X135740051Y-76540651D01*
X135740044Y-76540650D01*
X135509002Y-76520437D01*
X135508998Y-76520437D01*
X135277955Y-76540650D01*
X135277948Y-76540651D01*
X135053917Y-76600681D01*
X134843718Y-76698699D01*
X134843714Y-76698701D01*
X134653735Y-76831726D01*
X134653729Y-76831731D01*
X134489731Y-76995729D01*
X134489726Y-76995735D01*
X134356701Y-77185714D01*
X134356698Y-77185720D01*
X134351381Y-77197123D01*
X134305207Y-77249562D01*
X134238013Y-77268712D01*
X134171133Y-77248495D01*
X134126619Y-77197123D01*
X134124931Y-77193504D01*
X134121301Y-77185719D01*
X134121299Y-77185716D01*
X134121298Y-77185714D01*
X133988273Y-76995735D01*
X133988268Y-76995729D01*
X133824269Y-76831730D01*
X133824263Y-76831726D01*
X133634282Y-76698699D01*
X133424079Y-76600680D01*
X133424076Y-76600679D01*
X133424074Y-76600678D01*
X133200051Y-76540651D01*
X133200044Y-76540650D01*
X132969002Y-76520437D01*
X132968998Y-76520437D01*
X132737955Y-76540650D01*
X132737948Y-76540651D01*
X132513917Y-76600681D01*
X132303718Y-76698699D01*
X132303714Y-76698701D01*
X132113735Y-76831726D01*
X132113729Y-76831731D01*
X131949732Y-76995727D01*
X131936956Y-77013974D01*
X131916195Y-77043622D01*
X131861620Y-77087248D01*
X131814621Y-77096500D01*
X131316095Y-77096500D01*
X131249056Y-77076815D01*
X131243219Y-77072825D01*
X131113408Y-76978511D01*
X130949007Y-76905315D01*
X130949006Y-76905314D01*
X130949002Y-76905313D01*
X130772980Y-76867900D01*
X130593020Y-76867900D01*
X130416997Y-76905313D01*
X130416993Y-76905315D01*
X130255425Y-76977250D01*
X130252588Y-76978513D01*
X130107000Y-77084290D01*
X129986584Y-77218026D01*
X129896604Y-77373876D01*
X129840996Y-77545022D01*
X129840995Y-77545024D01*
X129822184Y-77724000D01*
X129840995Y-77902975D01*
X129840996Y-77902977D01*
X129873387Y-78002669D01*
X129896605Y-78074125D01*
X129986585Y-78229975D01*
X130107002Y-78363711D01*
X130252592Y-78469489D01*
X130416993Y-78542685D01*
X130416996Y-78542685D01*
X130416997Y-78542686D01*
X130443222Y-78548260D01*
X130593020Y-78580100D01*
X130597238Y-78580100D01*
X130622311Y-78582661D01*
X130629961Y-78584241D01*
X130646690Y-78587696D01*
X130695060Y-78599159D01*
X130721812Y-78605500D01*
X130721814Y-78605500D01*
X130721818Y-78605501D01*
X130728986Y-78606339D01*
X130728979Y-78606392D01*
X130736594Y-78607170D01*
X130736599Y-78607117D01*
X130743789Y-78607746D01*
X130743793Y-78607745D01*
X130743794Y-78607746D01*
X130820982Y-78605500D01*
X131814620Y-78605500D01*
X131881659Y-78625185D01*
X131916193Y-78658374D01*
X131930898Y-78679374D01*
X131953227Y-78745580D01*
X131936218Y-78813348D01*
X131885271Y-78861162D01*
X131829325Y-78874500D01*
X121222000Y-78874500D01*
X121204031Y-78873191D01*
X121180091Y-78869684D01*
X121140019Y-78873191D01*
X121127751Y-78874264D01*
X121122351Y-78874500D01*
X121114053Y-78874500D01*
X121081325Y-78878325D01*
X121004387Y-78885056D01*
X120997321Y-78886516D01*
X120997310Y-78886464D01*
X120989831Y-78888122D01*
X120989844Y-78888174D01*
X120982817Y-78889839D01*
X120910254Y-78916250D01*
X120836962Y-78940536D01*
X120830421Y-78943587D01*
X120830398Y-78943539D01*
X120823505Y-78946876D01*
X120823529Y-78946923D01*
X120817075Y-78950164D01*
X120752563Y-78992594D01*
X120686846Y-79033128D01*
X120681180Y-79037609D01*
X120681148Y-79037568D01*
X120675214Y-79042402D01*
X120675248Y-79042442D01*
X120669713Y-79047086D01*
X120616745Y-79103229D01*
X119640146Y-80079827D01*
X119578823Y-80113312D01*
X119541658Y-80115674D01*
X119380002Y-80101532D01*
X119379998Y-80101532D01*
X119153313Y-80121364D01*
X119153302Y-80121366D01*
X118933511Y-80180258D01*
X118933502Y-80180261D01*
X118727267Y-80276431D01*
X118727265Y-80276432D01*
X118540858Y-80406954D01*
X118379954Y-80567858D01*
X118249432Y-80754265D01*
X118249431Y-80754267D01*
X118222382Y-80812275D01*
X118176209Y-80864714D01*
X118109016Y-80883866D01*
X118042135Y-80863650D01*
X117997618Y-80812275D01*
X117970568Y-80754267D01*
X117970567Y-80754265D01*
X117941939Y-80713380D01*
X117840047Y-80567861D01*
X117840045Y-80567858D01*
X117679141Y-80406954D01*
X117492734Y-80276432D01*
X117492732Y-80276431D01*
X117286497Y-80180261D01*
X117286488Y-80180258D01*
X117066697Y-80121366D01*
X117066693Y-80121365D01*
X117066692Y-80121365D01*
X117066691Y-80121364D01*
X117066686Y-80121364D01*
X116840002Y-80101532D01*
X116839998Y-80101532D01*
X116613313Y-80121364D01*
X116613302Y-80121366D01*
X116393511Y-80180258D01*
X116393502Y-80180261D01*
X116187267Y-80276431D01*
X116187265Y-80276432D01*
X116000858Y-80406954D01*
X115839954Y-80567858D01*
X115709432Y-80754265D01*
X115709431Y-80754267D01*
X115682382Y-80812275D01*
X115636209Y-80864714D01*
X115569016Y-80883866D01*
X115502135Y-80863650D01*
X115457618Y-80812275D01*
X115430568Y-80754267D01*
X115430567Y-80754265D01*
X115401939Y-80713380D01*
X115300047Y-80567861D01*
X115300045Y-80567858D01*
X115139141Y-80406954D01*
X114952734Y-80276432D01*
X114952732Y-80276431D01*
X114746497Y-80180261D01*
X114746488Y-80180258D01*
X114526697Y-80121366D01*
X114526693Y-80121365D01*
X114526692Y-80121365D01*
X114526691Y-80121364D01*
X114526686Y-80121364D01*
X114300002Y-80101532D01*
X114299998Y-80101532D01*
X114073313Y-80121364D01*
X114073302Y-80121366D01*
X113853511Y-80180258D01*
X113853502Y-80180261D01*
X113647267Y-80276431D01*
X113647265Y-80276432D01*
X113460858Y-80406954D01*
X113299954Y-80567858D01*
X113169432Y-80754265D01*
X113169431Y-80754267D01*
X113142382Y-80812275D01*
X113096209Y-80864714D01*
X113029016Y-80883866D01*
X112962135Y-80863650D01*
X112917618Y-80812275D01*
X112890568Y-80754267D01*
X112890567Y-80754265D01*
X112861939Y-80713380D01*
X112760047Y-80567861D01*
X112760045Y-80567858D01*
X112599141Y-80406954D01*
X112412734Y-80276432D01*
X112412732Y-80276431D01*
X112206497Y-80180261D01*
X112206488Y-80180258D01*
X111986697Y-80121366D01*
X111986693Y-80121365D01*
X111986692Y-80121365D01*
X111986691Y-80121364D01*
X111986686Y-80121364D01*
X111760002Y-80101532D01*
X111759998Y-80101532D01*
X111533313Y-80121364D01*
X111533302Y-80121366D01*
X111313511Y-80180258D01*
X111313502Y-80180261D01*
X111107267Y-80276431D01*
X111107265Y-80276432D01*
X110920858Y-80406954D01*
X110759954Y-80567858D01*
X110671571Y-80694084D01*
X110616994Y-80737709D01*
X110547496Y-80744903D01*
X110485141Y-80713380D01*
X110466187Y-80690782D01*
X110356300Y-80522586D01*
X110195232Y-80347621D01*
X110195227Y-80347616D01*
X110007562Y-80201550D01*
X110007557Y-80201547D01*
X109798414Y-80088365D01*
X109798400Y-80088359D01*
X109573475Y-80011142D01*
X109470000Y-79993875D01*
X109470000Y-81091314D01*
X109458045Y-81079359D01*
X109345148Y-81021835D01*
X109251481Y-81007000D01*
X109188519Y-81007000D01*
X109094852Y-81021835D01*
X108981955Y-81079359D01*
X108970000Y-81091314D01*
X108970000Y-79993875D01*
X108969999Y-79993875D01*
X108866524Y-80011142D01*
X108641599Y-80088359D01*
X108641585Y-80088365D01*
X108432442Y-80201547D01*
X108432437Y-80201550D01*
X108244772Y-80347616D01*
X108244767Y-80347621D01*
X108083702Y-80522584D01*
X108053809Y-80568339D01*
X108000662Y-80613695D01*
X107931431Y-80623119D01*
X107868095Y-80593617D01*
X107846191Y-80568339D01*
X107816297Y-80522584D01*
X107655232Y-80347621D01*
X107655227Y-80347616D01*
X107467562Y-80201550D01*
X107467557Y-80201547D01*
X107258414Y-80088365D01*
X107258400Y-80088359D01*
X107033475Y-80011142D01*
X106930000Y-79993875D01*
X106930000Y-81091314D01*
X106918045Y-81079359D01*
X106805148Y-81021835D01*
X106711481Y-81007000D01*
X106648519Y-81007000D01*
X106554852Y-81021835D01*
X106441955Y-81079359D01*
X106430000Y-81091314D01*
X106430000Y-79993875D01*
X106429999Y-79993875D01*
X106326524Y-80011142D01*
X106101599Y-80088359D01*
X106101585Y-80088365D01*
X105892442Y-80201547D01*
X105892437Y-80201550D01*
X105704772Y-80347616D01*
X105704767Y-80347621D01*
X105543702Y-80522584D01*
X105513809Y-80568339D01*
X105460662Y-80613695D01*
X105391431Y-80623119D01*
X105328095Y-80593617D01*
X105306191Y-80568339D01*
X105276297Y-80522584D01*
X105115232Y-80347621D01*
X105115227Y-80347616D01*
X104927562Y-80201550D01*
X104927557Y-80201547D01*
X104718414Y-80088365D01*
X104718400Y-80088359D01*
X104493475Y-80011142D01*
X104390000Y-79993875D01*
X104390000Y-81091314D01*
X104378045Y-81079359D01*
X104265148Y-81021835D01*
X104171481Y-81007000D01*
X104108519Y-81007000D01*
X104014852Y-81021835D01*
X103901955Y-81079359D01*
X103890000Y-81091314D01*
X103890000Y-79993875D01*
X103889999Y-79993875D01*
X103786524Y-80011142D01*
X103561599Y-80088359D01*
X103561585Y-80088365D01*
X103352442Y-80201547D01*
X103352437Y-80201550D01*
X103164772Y-80347616D01*
X103164767Y-80347621D01*
X103003702Y-80522584D01*
X102973809Y-80568339D01*
X102920662Y-80613695D01*
X102851431Y-80623119D01*
X102788095Y-80593617D01*
X102766191Y-80568339D01*
X102736297Y-80522584D01*
X102575232Y-80347621D01*
X102575227Y-80347616D01*
X102387562Y-80201550D01*
X102387557Y-80201547D01*
X102178414Y-80088365D01*
X102178400Y-80088359D01*
X101953475Y-80011142D01*
X101850000Y-79993875D01*
X101850000Y-81091314D01*
X101838045Y-81079359D01*
X101725148Y-81021835D01*
X101631481Y-81007000D01*
X101568519Y-81007000D01*
X101474852Y-81021835D01*
X101361955Y-81079359D01*
X101350000Y-81091314D01*
X101350000Y-79993875D01*
X101349999Y-79993875D01*
X101246524Y-80011142D01*
X101021599Y-80088359D01*
X101021585Y-80088365D01*
X100812442Y-80201547D01*
X100812437Y-80201550D01*
X100624772Y-80347616D01*
X100624767Y-80347621D01*
X100463702Y-80522584D01*
X100433809Y-80568339D01*
X100380662Y-80613695D01*
X100311431Y-80623119D01*
X100248095Y-80593617D01*
X100226191Y-80568339D01*
X100196297Y-80522584D01*
X100035232Y-80347621D01*
X100035227Y-80347616D01*
X99847562Y-80201550D01*
X99847557Y-80201547D01*
X99638414Y-80088365D01*
X99638400Y-80088359D01*
X99413475Y-80011142D01*
X99310000Y-79993875D01*
X99310000Y-81091314D01*
X99298045Y-81079359D01*
X99185148Y-81021835D01*
X99091481Y-81007000D01*
X99028519Y-81007000D01*
X98934852Y-81021835D01*
X98821955Y-81079359D01*
X98810000Y-81091314D01*
X98810000Y-79993875D01*
X98809999Y-79993875D01*
X98706524Y-80011142D01*
X98481599Y-80088359D01*
X98481585Y-80088365D01*
X98272442Y-80201547D01*
X98272437Y-80201550D01*
X98084772Y-80347616D01*
X98084767Y-80347621D01*
X97923702Y-80522584D01*
X97893809Y-80568339D01*
X97840662Y-80613695D01*
X97771431Y-80623119D01*
X97708095Y-80593617D01*
X97686191Y-80568339D01*
X97656297Y-80522584D01*
X97495232Y-80347621D01*
X97495227Y-80347616D01*
X97307562Y-80201550D01*
X97307557Y-80201547D01*
X97098414Y-80088365D01*
X97098400Y-80088359D01*
X96873475Y-80011142D01*
X96770000Y-79993875D01*
X96770000Y-81091314D01*
X96758045Y-81079359D01*
X96645148Y-81021835D01*
X96551481Y-81007000D01*
X96488519Y-81007000D01*
X96394852Y-81021835D01*
X96281955Y-81079359D01*
X96270000Y-81091314D01*
X96270000Y-79993875D01*
X96269999Y-79993875D01*
X96166524Y-80011142D01*
X95941599Y-80088359D01*
X95941585Y-80088365D01*
X95732442Y-80201547D01*
X95732437Y-80201550D01*
X95544772Y-80347616D01*
X95544767Y-80347621D01*
X95383702Y-80522584D01*
X95353809Y-80568339D01*
X95300662Y-80613695D01*
X95231431Y-80623119D01*
X95168095Y-80593617D01*
X95146191Y-80568339D01*
X95116297Y-80522584D01*
X94955232Y-80347621D01*
X94955227Y-80347616D01*
X94767562Y-80201550D01*
X94767557Y-80201547D01*
X94558414Y-80088365D01*
X94558400Y-80088359D01*
X94333475Y-80011142D01*
X94230000Y-79993875D01*
X94230000Y-81091314D01*
X94218045Y-81079359D01*
X94105148Y-81021835D01*
X94011481Y-81007000D01*
X93948519Y-81007000D01*
X93854852Y-81021835D01*
X93741955Y-81079359D01*
X93730000Y-81091314D01*
X93730000Y-79993875D01*
X93729999Y-79993875D01*
X93626524Y-80011142D01*
X93401599Y-80088359D01*
X93401585Y-80088365D01*
X93192442Y-80201547D01*
X93192437Y-80201550D01*
X93004772Y-80347616D01*
X93004767Y-80347621D01*
X92843699Y-80522586D01*
X92713629Y-80721675D01*
X92618101Y-80939458D01*
X92563012Y-81157000D01*
X93664314Y-81157000D01*
X93652359Y-81168955D01*
X93594835Y-81281852D01*
X93575014Y-81407000D01*
X93594835Y-81532148D01*
X93652359Y-81645045D01*
X93664314Y-81657000D01*
X92563012Y-81657000D01*
X92618101Y-81874541D01*
X92713629Y-82092324D01*
X92843699Y-82291413D01*
X93004767Y-82466378D01*
X93004772Y-82466383D01*
X93192437Y-82612449D01*
X93192442Y-82612452D01*
X93401585Y-82725634D01*
X93401599Y-82725640D01*
X93626518Y-82802856D01*
X93730000Y-82820124D01*
X93730000Y-81722686D01*
X93741955Y-81734641D01*
X93854852Y-81792165D01*
X93948519Y-81807000D01*
X94011481Y-81807000D01*
X94105148Y-81792165D01*
X94218045Y-81734641D01*
X94230000Y-81722686D01*
X94230000Y-82820123D01*
X94333481Y-82802856D01*
X94558400Y-82725640D01*
X94558414Y-82725634D01*
X94767557Y-82612452D01*
X94767562Y-82612449D01*
X94955227Y-82466383D01*
X94955232Y-82466378D01*
X95116299Y-82291413D01*
X95146191Y-82245661D01*
X95199337Y-82200304D01*
X95268568Y-82190880D01*
X95331904Y-82220381D01*
X95353809Y-82245661D01*
X95383700Y-82291413D01*
X95544767Y-82466378D01*
X95544772Y-82466383D01*
X95732437Y-82612449D01*
X95732442Y-82612452D01*
X95941585Y-82725634D01*
X95941599Y-82725640D01*
X96166518Y-82802856D01*
X96270000Y-82820124D01*
X96270000Y-81722686D01*
X96281955Y-81734641D01*
X96394852Y-81792165D01*
X96488519Y-81807000D01*
X96551481Y-81807000D01*
X96645148Y-81792165D01*
X96758045Y-81734641D01*
X96770000Y-81722686D01*
X96770000Y-82820123D01*
X96873481Y-82802856D01*
X97098400Y-82725640D01*
X97098414Y-82725634D01*
X97307557Y-82612452D01*
X97307562Y-82612449D01*
X97495227Y-82466383D01*
X97495232Y-82466378D01*
X97656299Y-82291413D01*
X97686191Y-82245661D01*
X97739337Y-82200304D01*
X97808568Y-82190880D01*
X97871904Y-82220381D01*
X97893809Y-82245661D01*
X97923700Y-82291413D01*
X98084767Y-82466378D01*
X98084772Y-82466383D01*
X98272437Y-82612449D01*
X98272442Y-82612452D01*
X98481585Y-82725634D01*
X98481599Y-82725640D01*
X98706518Y-82802856D01*
X98810000Y-82820124D01*
X98810000Y-81722686D01*
X98821955Y-81734641D01*
X98934852Y-81792165D01*
X99028519Y-81807000D01*
X99091481Y-81807000D01*
X99185148Y-81792165D01*
X99298045Y-81734641D01*
X99310000Y-81722686D01*
X99310000Y-82820123D01*
X99413481Y-82802856D01*
X99638400Y-82725640D01*
X99638414Y-82725634D01*
X99847557Y-82612452D01*
X99847562Y-82612449D01*
X100035227Y-82466383D01*
X100035232Y-82466378D01*
X100196299Y-82291413D01*
X100226191Y-82245661D01*
X100279337Y-82200304D01*
X100348568Y-82190880D01*
X100411904Y-82220381D01*
X100433809Y-82245661D01*
X100463700Y-82291413D01*
X100624767Y-82466378D01*
X100624772Y-82466383D01*
X100812437Y-82612449D01*
X100812442Y-82612452D01*
X101021585Y-82725634D01*
X101021599Y-82725640D01*
X101246518Y-82802856D01*
X101350000Y-82820124D01*
X101350000Y-81722686D01*
X101361955Y-81734641D01*
X101474852Y-81792165D01*
X101568519Y-81807000D01*
X101631481Y-81807000D01*
X101725148Y-81792165D01*
X101838045Y-81734641D01*
X101850000Y-81722686D01*
X101850000Y-82820123D01*
X101953481Y-82802856D01*
X102178400Y-82725640D01*
X102178414Y-82725634D01*
X102387557Y-82612452D01*
X102387562Y-82612449D01*
X102575227Y-82466383D01*
X102575232Y-82466378D01*
X102736299Y-82291413D01*
X102766191Y-82245661D01*
X102819337Y-82200304D01*
X102888568Y-82190880D01*
X102951904Y-82220381D01*
X102973809Y-82245661D01*
X103003700Y-82291413D01*
X103164767Y-82466378D01*
X103164772Y-82466383D01*
X103352437Y-82612449D01*
X103352442Y-82612452D01*
X103561585Y-82725634D01*
X103561599Y-82725640D01*
X103786518Y-82802856D01*
X103890000Y-82820124D01*
X103890000Y-81722686D01*
X103901955Y-81734641D01*
X104014852Y-81792165D01*
X104108519Y-81807000D01*
X104171481Y-81807000D01*
X104265148Y-81792165D01*
X104378045Y-81734641D01*
X104390000Y-81722686D01*
X104390000Y-82820123D01*
X104493481Y-82802856D01*
X104718400Y-82725640D01*
X104718414Y-82725634D01*
X104927557Y-82612452D01*
X104927562Y-82612449D01*
X105115227Y-82466383D01*
X105115232Y-82466378D01*
X105276299Y-82291413D01*
X105306191Y-82245661D01*
X105359337Y-82200304D01*
X105428568Y-82190880D01*
X105491904Y-82220381D01*
X105513809Y-82245661D01*
X105543700Y-82291413D01*
X105704767Y-82466378D01*
X105704772Y-82466383D01*
X105892437Y-82612449D01*
X105892442Y-82612452D01*
X106101585Y-82725634D01*
X106101599Y-82725640D01*
X106326518Y-82802856D01*
X106430000Y-82820124D01*
X106430000Y-81722686D01*
X106441955Y-81734641D01*
X106554852Y-81792165D01*
X106648519Y-81807000D01*
X106711481Y-81807000D01*
X106805148Y-81792165D01*
X106918045Y-81734641D01*
X106930000Y-81722686D01*
X106930000Y-82820124D01*
X107033481Y-82802856D01*
X107258400Y-82725640D01*
X107258414Y-82725634D01*
X107467557Y-82612452D01*
X107467562Y-82612449D01*
X107655227Y-82466383D01*
X107655232Y-82466378D01*
X107816299Y-82291413D01*
X107846191Y-82245661D01*
X107899337Y-82200304D01*
X107968568Y-82190880D01*
X108031904Y-82220381D01*
X108053809Y-82245661D01*
X108083700Y-82291413D01*
X108244767Y-82466378D01*
X108244772Y-82466383D01*
X108432437Y-82612449D01*
X108432442Y-82612452D01*
X108641585Y-82725634D01*
X108641599Y-82725640D01*
X108866518Y-82802856D01*
X108970000Y-82820124D01*
X108970000Y-81722686D01*
X108981955Y-81734641D01*
X109094852Y-81792165D01*
X109188519Y-81807000D01*
X109251481Y-81807000D01*
X109345148Y-81792165D01*
X109458045Y-81734641D01*
X109470000Y-81722686D01*
X109470000Y-82820124D01*
X109573481Y-82802856D01*
X109798400Y-82725640D01*
X109798414Y-82725634D01*
X110007557Y-82612452D01*
X110007562Y-82612449D01*
X110195227Y-82466383D01*
X110195232Y-82466378D01*
X110356300Y-82291413D01*
X110466187Y-82123217D01*
X110519333Y-82077860D01*
X110588564Y-82068436D01*
X110651900Y-82097938D01*
X110671571Y-82119915D01*
X110759954Y-82246141D01*
X110920858Y-82407045D01*
X110920861Y-82407047D01*
X111107266Y-82537568D01*
X111313504Y-82633739D01*
X111533308Y-82692635D01*
X111695230Y-82706801D01*
X111759998Y-82712468D01*
X111760000Y-82712468D01*
X111760002Y-82712468D01*
X111816673Y-82707509D01*
X111986692Y-82692635D01*
X112206496Y-82633739D01*
X112412734Y-82537568D01*
X112599139Y-82407047D01*
X112760047Y-82246139D01*
X112890568Y-82059734D01*
X112917618Y-82001724D01*
X112963790Y-81949285D01*
X113030983Y-81930133D01*
X113097865Y-81950348D01*
X113142382Y-82001725D01*
X113169429Y-82059728D01*
X113169432Y-82059734D01*
X113299954Y-82246141D01*
X113460858Y-82407045D01*
X113460861Y-82407047D01*
X113647266Y-82537568D01*
X113853504Y-82633739D01*
X114073308Y-82692635D01*
X114235230Y-82706801D01*
X114299998Y-82712468D01*
X114300000Y-82712468D01*
X114300002Y-82712468D01*
X114356673Y-82707509D01*
X114526692Y-82692635D01*
X114746496Y-82633739D01*
X114952734Y-82537568D01*
X115139139Y-82407047D01*
X115300047Y-82246139D01*
X115430568Y-82059734D01*
X115457618Y-82001724D01*
X115503790Y-81949285D01*
X115570983Y-81930133D01*
X115637865Y-81950348D01*
X115682382Y-82001725D01*
X115709429Y-82059728D01*
X115709432Y-82059734D01*
X115839954Y-82246141D01*
X116000858Y-82407045D01*
X116000861Y-82407047D01*
X116187266Y-82537568D01*
X116319745Y-82599344D01*
X116355021Y-82624045D01*
X117150234Y-83419258D01*
X117162015Y-83432890D01*
X117176461Y-83452294D01*
X117216715Y-83486071D01*
X117220687Y-83489711D01*
X117226559Y-83495583D01*
X117252415Y-83516027D01*
X117311572Y-83565667D01*
X117317609Y-83569637D01*
X117317579Y-83569682D01*
X117324038Y-83573796D01*
X117324067Y-83573750D01*
X117330206Y-83577537D01*
X117330209Y-83577539D01*
X117359328Y-83591117D01*
X117411767Y-83637289D01*
X117430920Y-83704483D01*
X117410705Y-83771364D01*
X117357540Y-83816699D01*
X117306924Y-83827500D01*
X91041886Y-83827500D01*
X90974847Y-83807815D01*
X90954205Y-83791181D01*
X89944819Y-82781795D01*
X89911334Y-82720472D01*
X89908500Y-82694114D01*
X89908500Y-79592999D01*
X89909809Y-79575029D01*
X89912664Y-79555535D01*
X89913315Y-79551094D01*
X89911971Y-79535735D01*
X89908736Y-79498756D01*
X89908500Y-79493350D01*
X89908500Y-79485066D01*
X89908500Y-79485059D01*
X89904674Y-79452325D01*
X89897943Y-79375388D01*
X89897941Y-79375383D01*
X89896483Y-79368319D01*
X89896536Y-79368307D01*
X89894878Y-79360827D01*
X89894824Y-79360840D01*
X89893160Y-79353822D01*
X89893160Y-79353816D01*
X89866749Y-79281254D01*
X89842464Y-79207965D01*
X89842461Y-79207961D01*
X89842461Y-79207959D01*
X89839409Y-79201412D01*
X89839458Y-79201389D01*
X89836125Y-79194504D01*
X89836076Y-79194529D01*
X89832838Y-79188083D01*
X89832836Y-79188076D01*
X89832831Y-79188068D01*
X89790400Y-79123554D01*
X89758544Y-79071908D01*
X89749871Y-79057847D01*
X89749867Y-79057843D01*
X89745390Y-79052180D01*
X89745432Y-79052146D01*
X89740597Y-79046211D01*
X89740556Y-79046246D01*
X89735912Y-79040711D01*
X89679752Y-78987728D01*
X88943766Y-78251742D01*
X88931984Y-78238109D01*
X88925898Y-78229934D01*
X88917539Y-78218706D01*
X88917537Y-78218704D01*
X88917537Y-78218703D01*
X88900076Y-78204052D01*
X88861374Y-78145881D01*
X88859105Y-78137575D01*
X88859092Y-78137520D01*
X88808797Y-78002671D01*
X88808793Y-78002664D01*
X88722547Y-77887455D01*
X88722544Y-77887452D01*
X88607335Y-77801206D01*
X88607328Y-77801202D01*
X88465215Y-77748198D01*
X88466331Y-77745205D01*
X88418162Y-77716945D01*
X88386580Y-77654621D01*
X88384500Y-77632004D01*
X88384500Y-77485603D01*
X88404185Y-77418564D01*
X88456989Y-77372809D01*
X88469496Y-77367897D01*
X88569334Y-77334814D01*
X88718656Y-77242712D01*
X88812319Y-77149049D01*
X88873642Y-77115564D01*
X88943334Y-77120548D01*
X88987681Y-77149049D01*
X89081344Y-77242712D01*
X89230666Y-77334814D01*
X89397203Y-77389999D01*
X89499991Y-77400500D01*
X90125008Y-77400499D01*
X90227797Y-77389999D01*
X90227802Y-77389997D01*
X90228314Y-77389945D01*
X90297007Y-77402714D01*
X90328598Y-77425622D01*
X90472105Y-77569129D01*
X90502355Y-77618492D01*
X90526602Y-77693119D01*
X90526605Y-77693125D01*
X90616585Y-77848975D01*
X90737002Y-77982711D01*
X90882592Y-78088489D01*
X91046993Y-78161685D01*
X91046996Y-78161685D01*
X91046997Y-78161686D01*
X91075128Y-78167665D01*
X91223020Y-78199100D01*
X91402980Y-78199100D01*
X91579007Y-78161685D01*
X91699091Y-78108219D01*
X91749526Y-78097500D01*
X92494079Y-78097500D01*
X92561118Y-78117185D01*
X92606873Y-78169989D01*
X92617369Y-78208248D01*
X92621908Y-78250483D01*
X92672202Y-78385328D01*
X92672206Y-78385335D01*
X92758452Y-78500544D01*
X92758455Y-78500547D01*
X92873664Y-78586793D01*
X92873671Y-78586797D01*
X93008517Y-78637091D01*
X93008516Y-78637091D01*
X93015444Y-78637835D01*
X93068127Y-78643500D01*
X94463872Y-78643499D01*
X94523483Y-78637091D01*
X94658331Y-78586796D01*
X94773546Y-78500546D01*
X94838792Y-78413387D01*
X94894725Y-78371518D01*
X94964417Y-78366534D01*
X95025740Y-78400019D01*
X95044790Y-78424579D01*
X95110261Y-78535285D01*
X95110268Y-78535294D01*
X95223705Y-78648731D01*
X95223714Y-78648738D01*
X95361808Y-78730406D01*
X95361811Y-78730407D01*
X95515870Y-78775166D01*
X95515876Y-78775167D01*
X95551870Y-78778000D01*
X96016000Y-78778000D01*
X96016000Y-77593000D01*
X96516000Y-77593000D01*
X96516000Y-78778000D01*
X96980130Y-78778000D01*
X97016123Y-78775167D01*
X97016129Y-78775166D01*
X97170188Y-78730407D01*
X97170191Y-78730406D01*
X97308285Y-78648738D01*
X97308294Y-78648731D01*
X97421731Y-78535294D01*
X97421738Y-78535285D01*
X97503406Y-78397191D01*
X97503407Y-78397188D01*
X97548166Y-78243129D01*
X97548167Y-78243123D01*
X97551000Y-78207130D01*
X97551000Y-77593000D01*
X96516000Y-77593000D01*
X96016000Y-77593000D01*
X96016000Y-75908000D01*
X96516000Y-75908000D01*
X96516000Y-77093000D01*
X97551000Y-77093000D01*
X97551000Y-76478870D01*
X97548167Y-76442876D01*
X97548166Y-76442870D01*
X97503407Y-76288811D01*
X97503406Y-76288808D01*
X97421738Y-76150714D01*
X97421731Y-76150705D01*
X97308294Y-76037268D01*
X97308285Y-76037261D01*
X97170191Y-75955593D01*
X97170188Y-75955592D01*
X97016129Y-75910833D01*
X97016123Y-75910832D01*
X96980130Y-75908000D01*
X96516000Y-75908000D01*
X96016000Y-75908000D01*
X96016000Y-75860030D01*
X96035685Y-75792991D01*
X96088489Y-75747236D01*
X96116116Y-75739657D01*
X96115932Y-75738876D01*
X96123479Y-75737092D01*
X96123481Y-75737091D01*
X96123483Y-75737091D01*
X96258331Y-75686796D01*
X96373546Y-75600546D01*
X96459796Y-75485331D01*
X96510091Y-75350483D01*
X96516500Y-75290873D01*
X96516499Y-73595128D01*
X96510091Y-73535517D01*
X96459796Y-73400669D01*
X96459795Y-73400668D01*
X96459793Y-73400664D01*
X96373547Y-73285455D01*
X96373544Y-73285452D01*
X96258335Y-73199206D01*
X96258328Y-73199202D01*
X96123482Y-73148908D01*
X96123483Y-73148908D01*
X96063883Y-73142501D01*
X96063881Y-73142500D01*
X96063873Y-73142500D01*
X96063865Y-73142500D01*
X94833887Y-73142500D01*
X94766848Y-73122815D01*
X94746206Y-73106181D01*
X90740726Y-69100701D01*
X146233870Y-69100701D01*
X146254284Y-69386133D01*
X146315108Y-69665737D01*
X146415115Y-69933866D01*
X146552250Y-70185009D01*
X146552255Y-70185017D01*
X146723734Y-70414087D01*
X146723750Y-70414105D01*
X146926074Y-70616429D01*
X146926092Y-70616445D01*
X147155162Y-70787924D01*
X147155170Y-70787929D01*
X147406313Y-70925064D01*
X147406312Y-70925064D01*
X147406316Y-70925065D01*
X147406319Y-70925067D01*
X147674434Y-71025069D01*
X147674440Y-71025070D01*
X147674442Y-71025071D01*
X147954046Y-71085895D01*
X147954048Y-71085895D01*
X147954052Y-71085896D01*
X148207700Y-71104037D01*
X148239479Y-71106310D01*
X148239480Y-71106310D01*
X148239481Y-71106310D01*
X148268075Y-71104264D01*
X148524908Y-71085896D01*
X148804526Y-71025069D01*
X149072641Y-70925067D01*
X149323795Y-70787926D01*
X149552875Y-70616439D01*
X149755219Y-70414095D01*
X149926706Y-70185015D01*
X150063847Y-69933861D01*
X150163849Y-69665746D01*
X150224676Y-69386128D01*
X150245090Y-69100700D01*
X150224676Y-68815272D01*
X150163849Y-68535654D01*
X150063847Y-68267539D01*
X149926706Y-68016385D01*
X149926704Y-68016382D01*
X149755225Y-67787312D01*
X149755209Y-67787294D01*
X149552885Y-67584970D01*
X149552867Y-67584954D01*
X149323797Y-67413475D01*
X149323789Y-67413470D01*
X149072646Y-67276335D01*
X149072647Y-67276335D01*
X148965395Y-67236332D01*
X148804526Y-67176331D01*
X148804523Y-67176330D01*
X148804517Y-67176328D01*
X148524913Y-67115504D01*
X148239481Y-67095090D01*
X148239479Y-67095090D01*
X147954046Y-67115504D01*
X147674442Y-67176328D01*
X147406313Y-67276335D01*
X147155170Y-67413470D01*
X147155162Y-67413475D01*
X146926092Y-67584954D01*
X146926074Y-67584970D01*
X146723750Y-67787294D01*
X146723734Y-67787312D01*
X146552255Y-68016382D01*
X146552250Y-68016390D01*
X146415115Y-68267533D01*
X146315108Y-68535662D01*
X146254284Y-68815266D01*
X146233870Y-69100698D01*
X146233870Y-69100701D01*
X90740726Y-69100701D01*
X84864819Y-63224794D01*
X84831334Y-63163471D01*
X84828500Y-63137113D01*
X84828500Y-39524122D01*
X84848185Y-39457083D01*
X84856018Y-39446230D01*
X84984523Y-39287080D01*
X84984529Y-39287070D01*
X84987472Y-39282717D01*
X84988357Y-39283315D01*
X85034401Y-39238144D01*
X85102813Y-39223945D01*
X85168041Y-39248987D01*
X85195520Y-39278102D01*
X85266413Y-39382993D01*
X85266418Y-39382998D01*
X85266421Y-39383003D01*
X85431379Y-39555118D01*
X85623053Y-39696879D01*
X85835926Y-39804207D01*
X86063877Y-39874016D01*
X86300346Y-39904298D01*
X86538532Y-39894180D01*
X86771581Y-39843954D01*
X86992790Y-39755064D01*
X87195795Y-39630069D01*
X87374755Y-39472564D01*
X87447754Y-39382156D01*
X87505184Y-39342364D01*
X87575012Y-39339937D01*
X87635066Y-39375648D01*
X87649034Y-39393782D01*
X87668864Y-39425141D01*
X87833206Y-39610645D01*
X88025183Y-39767389D01*
X88025188Y-39767393D01*
X88239814Y-39891307D01*
X88471549Y-39979192D01*
X88471548Y-39979192D01*
X88650000Y-40015622D01*
X88650000Y-38645881D01*
X88743369Y-38684556D01*
X88860677Y-38700000D01*
X88939323Y-38700000D01*
X89056631Y-38684556D01*
X89150000Y-38645881D01*
X89150000Y-40015919D01*
X89208030Y-40008873D01*
X89208036Y-40008871D01*
X89446083Y-39939920D01*
X89446091Y-39939917D01*
X89669997Y-39833674D01*
X89669999Y-39833672D01*
X89873962Y-39692886D01*
X89873963Y-39692885D01*
X90052700Y-39521207D01*
X90152461Y-39388450D01*
X90208471Y-39346681D01*
X90278172Y-39341824D01*
X90339434Y-39375421D01*
X90343538Y-39379994D01*
X90346418Y-39382999D01*
X90346421Y-39383003D01*
X90511379Y-39555118D01*
X90703053Y-39696879D01*
X90915926Y-39804207D01*
X91143877Y-39874016D01*
X91380346Y-39904298D01*
X91618532Y-39894180D01*
X91851581Y-39843954D01*
X92072790Y-39755064D01*
X92275795Y-39630069D01*
X92454755Y-39472564D01*
X92604523Y-39287080D01*
X92604529Y-39287070D01*
X92607472Y-39282717D01*
X92608357Y-39283315D01*
X92654401Y-39238144D01*
X92722813Y-39223945D01*
X92788041Y-39248987D01*
X92815520Y-39278102D01*
X92886413Y-39382993D01*
X92886418Y-39382998D01*
X92886421Y-39383003D01*
X93051379Y-39555118D01*
X93243053Y-39696879D01*
X93455926Y-39804207D01*
X93683877Y-39874016D01*
X93920346Y-39904298D01*
X94158532Y-39894180D01*
X94391581Y-39843954D01*
X94612790Y-39755064D01*
X94815795Y-39630069D01*
X94994755Y-39472564D01*
X95144523Y-39287080D01*
X95144529Y-39287070D01*
X95147472Y-39282717D01*
X95148357Y-39283315D01*
X95194401Y-39238144D01*
X95262813Y-39223945D01*
X95328041Y-39248987D01*
X95355520Y-39278102D01*
X95426413Y-39382993D01*
X95426418Y-39382998D01*
X95426421Y-39383003D01*
X95591379Y-39555118D01*
X95783053Y-39696879D01*
X95995926Y-39804207D01*
X96223877Y-39874016D01*
X96460346Y-39904298D01*
X96698532Y-39894180D01*
X96931581Y-39843954D01*
X97152790Y-39755064D01*
X97355795Y-39630069D01*
X97534755Y-39472564D01*
X97684523Y-39287080D01*
X97684529Y-39287070D01*
X97687472Y-39282717D01*
X97688357Y-39283315D01*
X97734401Y-39238144D01*
X97802813Y-39223945D01*
X97868041Y-39248987D01*
X97895520Y-39278102D01*
X97966413Y-39382993D01*
X97966418Y-39382998D01*
X97966421Y-39383003D01*
X98131379Y-39555118D01*
X98323053Y-39696879D01*
X98535926Y-39804207D01*
X98763877Y-39874016D01*
X99000346Y-39904298D01*
X99238532Y-39894180D01*
X99471581Y-39843954D01*
X99692790Y-39755064D01*
X99895795Y-39630069D01*
X100074755Y-39472564D01*
X100224523Y-39287080D01*
X100224529Y-39287070D01*
X100227472Y-39282717D01*
X100228357Y-39283315D01*
X100274401Y-39238144D01*
X100342813Y-39223945D01*
X100408041Y-39248987D01*
X100435520Y-39278102D01*
X100506413Y-39382993D01*
X100506418Y-39382998D01*
X100506421Y-39383003D01*
X100671379Y-39555118D01*
X100863053Y-39696879D01*
X101075926Y-39804207D01*
X101303877Y-39874016D01*
X101540346Y-39904298D01*
X101778532Y-39894180D01*
X102011581Y-39843954D01*
X102232790Y-39755064D01*
X102435795Y-39630069D01*
X102614755Y-39472564D01*
X102764523Y-39287080D01*
X102764529Y-39287070D01*
X102767472Y-39282717D01*
X102768357Y-39283315D01*
X102814401Y-39238144D01*
X102882813Y-39223945D01*
X102948041Y-39248987D01*
X102975520Y-39278102D01*
X103046413Y-39382993D01*
X103046418Y-39382998D01*
X103046421Y-39383003D01*
X103211379Y-39555118D01*
X103403053Y-39696879D01*
X103615926Y-39804207D01*
X103843877Y-39874016D01*
X104080346Y-39904298D01*
X104318532Y-39894180D01*
X104551581Y-39843954D01*
X104772790Y-39755064D01*
X104975795Y-39630069D01*
X105154755Y-39472564D01*
X105304523Y-39287080D01*
X105304529Y-39287070D01*
X105307472Y-39282717D01*
X105308357Y-39283315D01*
X105354401Y-39238144D01*
X105422813Y-39223945D01*
X105488041Y-39248987D01*
X105515520Y-39278102D01*
X105586413Y-39382993D01*
X105586418Y-39382998D01*
X105586421Y-39383003D01*
X105751379Y-39555118D01*
X105943053Y-39696879D01*
X106155926Y-39804207D01*
X106383877Y-39874016D01*
X106620346Y-39904298D01*
X106858532Y-39894180D01*
X107091581Y-39843954D01*
X107312790Y-39755064D01*
X107515795Y-39630069D01*
X107694755Y-39472564D01*
X107844523Y-39287080D01*
X107844529Y-39287070D01*
X107847472Y-39282717D01*
X107848357Y-39283315D01*
X107894401Y-39238144D01*
X107962813Y-39223945D01*
X108028041Y-39248987D01*
X108055520Y-39278102D01*
X108126413Y-39382993D01*
X108126418Y-39382998D01*
X108126421Y-39383003D01*
X108291379Y-39555118D01*
X108483053Y-39696879D01*
X108695926Y-39804207D01*
X108923877Y-39874016D01*
X109160346Y-39904298D01*
X109398532Y-39894180D01*
X109631581Y-39843954D01*
X109852790Y-39755064D01*
X110055795Y-39630069D01*
X110234755Y-39472564D01*
X110384523Y-39287080D01*
X110384529Y-39287070D01*
X110387472Y-39282717D01*
X110388357Y-39283315D01*
X110434401Y-39238144D01*
X110502813Y-39223945D01*
X110568041Y-39248987D01*
X110595520Y-39278102D01*
X110666413Y-39382993D01*
X110666418Y-39382998D01*
X110666421Y-39383003D01*
X110831379Y-39555118D01*
X111023053Y-39696879D01*
X111235926Y-39804207D01*
X111463877Y-39874016D01*
X111700346Y-39904298D01*
X111938532Y-39894180D01*
X112171581Y-39843954D01*
X112392790Y-39755064D01*
X112595795Y-39630069D01*
X112774755Y-39472564D01*
X112924523Y-39287080D01*
X112924529Y-39287070D01*
X112927472Y-39282717D01*
X112928357Y-39283315D01*
X112974401Y-39238144D01*
X113042813Y-39223945D01*
X113108041Y-39248987D01*
X113135520Y-39278102D01*
X113206413Y-39382993D01*
X113206418Y-39382998D01*
X113206421Y-39383003D01*
X113371379Y-39555118D01*
X113563053Y-39696879D01*
X113775926Y-39804207D01*
X114003877Y-39874016D01*
X114240346Y-39904298D01*
X114478532Y-39894180D01*
X114711581Y-39843954D01*
X114932790Y-39755064D01*
X115135795Y-39630069D01*
X115314755Y-39472564D01*
X115387754Y-39382156D01*
X115445184Y-39342364D01*
X115515012Y-39339937D01*
X115575066Y-39375648D01*
X115589034Y-39393782D01*
X115608864Y-39425141D01*
X115773206Y-39610645D01*
X115965183Y-39767389D01*
X115965188Y-39767393D01*
X116179814Y-39891307D01*
X116411549Y-39979192D01*
X116411548Y-39979192D01*
X116590000Y-40015622D01*
X116590000Y-38645881D01*
X116683369Y-38684556D01*
X116800677Y-38700000D01*
X116879323Y-38700000D01*
X116996631Y-38684556D01*
X117090000Y-38645881D01*
X117090000Y-40015919D01*
X117148030Y-40008873D01*
X117148036Y-40008871D01*
X117386083Y-39939920D01*
X117386091Y-39939917D01*
X117609997Y-39833674D01*
X117609999Y-39833672D01*
X117813962Y-39692886D01*
X117813963Y-39692885D01*
X117992700Y-39521207D01*
X118141584Y-39323079D01*
X118141590Y-39323068D01*
X118256762Y-39103628D01*
X118256763Y-39103624D01*
X118335245Y-38868545D01*
X118335245Y-38868544D01*
X118374999Y-38623920D01*
X118375000Y-38623919D01*
X118375000Y-38350000D01*
X117385882Y-38350000D01*
X117424556Y-38256631D01*
X117445177Y-38100001D01*
X146234390Y-38100001D01*
X146254804Y-38385433D01*
X146315628Y-38665037D01*
X146315630Y-38665043D01*
X146315631Y-38665046D01*
X146415633Y-38933161D01*
X146415635Y-38933166D01*
X146552770Y-39184309D01*
X146552775Y-39184317D01*
X146724254Y-39413387D01*
X146724270Y-39413405D01*
X146926594Y-39615729D01*
X146926612Y-39615745D01*
X147155682Y-39787224D01*
X147155690Y-39787229D01*
X147406833Y-39924364D01*
X147406832Y-39924364D01*
X147406836Y-39924365D01*
X147406839Y-39924367D01*
X147674954Y-40024369D01*
X147674960Y-40024370D01*
X147674962Y-40024371D01*
X147954566Y-40085195D01*
X147954568Y-40085195D01*
X147954572Y-40085196D01*
X148208220Y-40103337D01*
X148239999Y-40105610D01*
X148240000Y-40105610D01*
X148240001Y-40105610D01*
X148268595Y-40103564D01*
X148525428Y-40085196D01*
X148805046Y-40024369D01*
X149073161Y-39924367D01*
X149324315Y-39787226D01*
X149553395Y-39615739D01*
X149755739Y-39413395D01*
X149927226Y-39184315D01*
X150064367Y-38933161D01*
X150164369Y-38665046D01*
X150225196Y-38385428D01*
X150245610Y-38100000D01*
X150225196Y-37814572D01*
X150186815Y-37638138D01*
X150164371Y-37534962D01*
X150164370Y-37534960D01*
X150164369Y-37534954D01*
X150064367Y-37266839D01*
X150045207Y-37231751D01*
X149927229Y-37015690D01*
X149927224Y-37015682D01*
X149755745Y-36786612D01*
X149755729Y-36786594D01*
X149553405Y-36584270D01*
X149553387Y-36584254D01*
X149324317Y-36412775D01*
X149324309Y-36412770D01*
X149073166Y-36275635D01*
X149073167Y-36275635D01*
X148926167Y-36220807D01*
X148805046Y-36175631D01*
X148805043Y-36175630D01*
X148805037Y-36175628D01*
X148525433Y-36114804D01*
X148240001Y-36094390D01*
X148239999Y-36094390D01*
X147954566Y-36114804D01*
X147674962Y-36175628D01*
X147406833Y-36275635D01*
X147155690Y-36412770D01*
X147155682Y-36412775D01*
X146926612Y-36584254D01*
X146926594Y-36584270D01*
X146724270Y-36786594D01*
X146724254Y-36786612D01*
X146552775Y-37015682D01*
X146552770Y-37015690D01*
X146415635Y-37266833D01*
X146315628Y-37534962D01*
X146254804Y-37814566D01*
X146234390Y-38099998D01*
X146234390Y-38100001D01*
X117445177Y-38100001D01*
X117445177Y-38100000D01*
X117424556Y-37943369D01*
X117385882Y-37850000D01*
X118375000Y-37850000D01*
X118375000Y-37638138D01*
X118360051Y-37452968D01*
X118300740Y-37212335D01*
X118203597Y-36984332D01*
X118071133Y-36774856D01*
X117906793Y-36589354D01*
X117714816Y-36432610D01*
X117714811Y-36432606D01*
X117500185Y-36308692D01*
X117268462Y-36220811D01*
X117268450Y-36220807D01*
X117090000Y-36184376D01*
X117090000Y-37554118D01*
X116996631Y-37515444D01*
X116879323Y-37500000D01*
X116800677Y-37500000D01*
X116683369Y-37515444D01*
X116590000Y-37554118D01*
X116590000Y-36184080D01*
X116531962Y-36191128D01*
X116531955Y-36191129D01*
X116293916Y-36260079D01*
X116293908Y-36260082D01*
X116070002Y-36366325D01*
X116070000Y-36366327D01*
X115866037Y-36507113D01*
X115866036Y-36507114D01*
X115687299Y-36678792D01*
X115587539Y-36811549D01*
X115531528Y-36853318D01*
X115461828Y-36858175D01*
X115400566Y-36824577D01*
X115396472Y-36820015D01*
X115228620Y-36644881D01*
X115146646Y-36584254D01*
X115036947Y-36503121D01*
X114824074Y-36395793D01*
X114694283Y-36356045D01*
X114596121Y-36325983D01*
X114359647Y-36295701D01*
X114121471Y-36305819D01*
X114121467Y-36305819D01*
X113888419Y-36356045D01*
X113667211Y-36444935D01*
X113464203Y-36569932D01*
X113285245Y-36727435D01*
X113135471Y-36912928D01*
X113135458Y-36912952D01*
X113135449Y-36912960D01*
X113132522Y-36917291D01*
X113131640Y-36916695D01*
X113085570Y-36961870D01*
X113017154Y-36976051D01*
X112951933Y-36950993D01*
X112924479Y-36921897D01*
X112853586Y-36817006D01*
X112853582Y-36817001D01*
X112853579Y-36816997D01*
X112688621Y-36644882D01*
X112496947Y-36503121D01*
X112284074Y-36395793D01*
X112154283Y-36356045D01*
X112056121Y-36325983D01*
X111819647Y-36295701D01*
X111581471Y-36305819D01*
X111581467Y-36305819D01*
X111348419Y-36356045D01*
X111127211Y-36444935D01*
X110924203Y-36569932D01*
X110745245Y-36727435D01*
X110595471Y-36912928D01*
X110595458Y-36912952D01*
X110595449Y-36912960D01*
X110592522Y-36917291D01*
X110591640Y-36916695D01*
X110545570Y-36961870D01*
X110477154Y-36976051D01*
X110411933Y-36950993D01*
X110384479Y-36921897D01*
X110313586Y-36817006D01*
X110313582Y-36817001D01*
X110313579Y-36816997D01*
X110148621Y-36644882D01*
X109956947Y-36503121D01*
X109744074Y-36395793D01*
X109614283Y-36356045D01*
X109516121Y-36325983D01*
X109279647Y-36295701D01*
X109041471Y-36305819D01*
X109041467Y-36305819D01*
X108808419Y-36356045D01*
X108587211Y-36444935D01*
X108384203Y-36569932D01*
X108205245Y-36727435D01*
X108055471Y-36912928D01*
X108055458Y-36912952D01*
X108055449Y-36912960D01*
X108052522Y-36917291D01*
X108051640Y-36916695D01*
X108005570Y-36961870D01*
X107937154Y-36976051D01*
X107871933Y-36950993D01*
X107844479Y-36921897D01*
X107773586Y-36817006D01*
X107773582Y-36817001D01*
X107773579Y-36816997D01*
X107608621Y-36644882D01*
X107416947Y-36503121D01*
X107204074Y-36395793D01*
X107074283Y-36356045D01*
X106976121Y-36325983D01*
X106739647Y-36295701D01*
X106501471Y-36305819D01*
X106501467Y-36305819D01*
X106268419Y-36356045D01*
X106047211Y-36444935D01*
X105844203Y-36569932D01*
X105665245Y-36727435D01*
X105515471Y-36912928D01*
X105515458Y-36912952D01*
X105515449Y-36912960D01*
X105512522Y-36917291D01*
X105511640Y-36916695D01*
X105465570Y-36961870D01*
X105397154Y-36976051D01*
X105331933Y-36950993D01*
X105304479Y-36921897D01*
X105233586Y-36817006D01*
X105233582Y-36817001D01*
X105233579Y-36816997D01*
X105068621Y-36644882D01*
X104876947Y-36503121D01*
X104664074Y-36395793D01*
X104534283Y-36356045D01*
X104436121Y-36325983D01*
X104199647Y-36295701D01*
X103961471Y-36305819D01*
X103961467Y-36305819D01*
X103728419Y-36356045D01*
X103507211Y-36444935D01*
X103304203Y-36569932D01*
X103125245Y-36727435D01*
X102975471Y-36912928D01*
X102975458Y-36912952D01*
X102975449Y-36912960D01*
X102972522Y-36917291D01*
X102971640Y-36916695D01*
X102925570Y-36961870D01*
X102857154Y-36976051D01*
X102791933Y-36950993D01*
X102764479Y-36921897D01*
X102693586Y-36817006D01*
X102693582Y-36817001D01*
X102693579Y-36816997D01*
X102528621Y-36644882D01*
X102336947Y-36503121D01*
X102124074Y-36395793D01*
X101994283Y-36356045D01*
X101896121Y-36325983D01*
X101659647Y-36295701D01*
X101421471Y-36305819D01*
X101421467Y-36305819D01*
X101188419Y-36356045D01*
X100967211Y-36444935D01*
X100764203Y-36569932D01*
X100585245Y-36727435D01*
X100435471Y-36912928D01*
X100435458Y-36912952D01*
X100435449Y-36912960D01*
X100432522Y-36917291D01*
X100431640Y-36916695D01*
X100385570Y-36961870D01*
X100317154Y-36976051D01*
X100251933Y-36950993D01*
X100224479Y-36921897D01*
X100153586Y-36817006D01*
X100153582Y-36817001D01*
X100153579Y-36816997D01*
X99988621Y-36644882D01*
X99796947Y-36503121D01*
X99584074Y-36395793D01*
X99454283Y-36356045D01*
X99356121Y-36325983D01*
X99119647Y-36295701D01*
X98881471Y-36305819D01*
X98881467Y-36305819D01*
X98648419Y-36356045D01*
X98427211Y-36444935D01*
X98224203Y-36569932D01*
X98045245Y-36727435D01*
X97895471Y-36912928D01*
X97895458Y-36912952D01*
X97895449Y-36912960D01*
X97892522Y-36917291D01*
X97891640Y-36916695D01*
X97845570Y-36961870D01*
X97777154Y-36976051D01*
X97711933Y-36950993D01*
X97684479Y-36921897D01*
X97613586Y-36817006D01*
X97613582Y-36817001D01*
X97613579Y-36816997D01*
X97448621Y-36644882D01*
X97256947Y-36503121D01*
X97044074Y-36395793D01*
X96914283Y-36356045D01*
X96816121Y-36325983D01*
X96579647Y-36295701D01*
X96341471Y-36305819D01*
X96341467Y-36305819D01*
X96108419Y-36356045D01*
X95887211Y-36444935D01*
X95684203Y-36569932D01*
X95505245Y-36727435D01*
X95355471Y-36912928D01*
X95355458Y-36912952D01*
X95355449Y-36912960D01*
X95352522Y-36917291D01*
X95351640Y-36916695D01*
X95305570Y-36961870D01*
X95237154Y-36976051D01*
X95171933Y-36950993D01*
X95144479Y-36921897D01*
X95073586Y-36817006D01*
X95073582Y-36817001D01*
X95073579Y-36816997D01*
X94908621Y-36644882D01*
X94716947Y-36503121D01*
X94504074Y-36395793D01*
X94374283Y-36356045D01*
X94276121Y-36325983D01*
X94039647Y-36295701D01*
X93801471Y-36305819D01*
X93801467Y-36305819D01*
X93568419Y-36356045D01*
X93347211Y-36444935D01*
X93144203Y-36569932D01*
X92965245Y-36727435D01*
X92815471Y-36912928D01*
X92815458Y-36912952D01*
X92815449Y-36912960D01*
X92812522Y-36917291D01*
X92811640Y-36916695D01*
X92765570Y-36961870D01*
X92697154Y-36976051D01*
X92631933Y-36950993D01*
X92604479Y-36921897D01*
X92533586Y-36817006D01*
X92533582Y-36817001D01*
X92533579Y-36816997D01*
X92368621Y-36644882D01*
X92176947Y-36503121D01*
X91964074Y-36395793D01*
X91834283Y-36356045D01*
X91736121Y-36325983D01*
X91499647Y-36295701D01*
X91261471Y-36305819D01*
X91261467Y-36305819D01*
X91028419Y-36356045D01*
X90807211Y-36444935D01*
X90604203Y-36569932D01*
X90425245Y-36727435D01*
X90352245Y-36817844D01*
X90294814Y-36857636D01*
X90224987Y-36860062D01*
X90164932Y-36824352D01*
X90150965Y-36806217D01*
X90131135Y-36774858D01*
X89966793Y-36589354D01*
X89774816Y-36432610D01*
X89774811Y-36432606D01*
X89560185Y-36308692D01*
X89328462Y-36220811D01*
X89328450Y-36220807D01*
X89150000Y-36184376D01*
X89150000Y-37554118D01*
X89056631Y-37515444D01*
X88939323Y-37500000D01*
X88860677Y-37500000D01*
X88743369Y-37515444D01*
X88650000Y-37554118D01*
X88650000Y-36184080D01*
X88591962Y-36191128D01*
X88591955Y-36191129D01*
X88353916Y-36260079D01*
X88353908Y-36260082D01*
X88130002Y-36366325D01*
X88130000Y-36366327D01*
X87926037Y-36507113D01*
X87926036Y-36507114D01*
X87747299Y-36678792D01*
X87647539Y-36811549D01*
X87591528Y-36853318D01*
X87521828Y-36858175D01*
X87460566Y-36824577D01*
X87456472Y-36820015D01*
X87288620Y-36644881D01*
X87206646Y-36584254D01*
X87096947Y-36503121D01*
X86884074Y-36395793D01*
X86754283Y-36356045D01*
X86656121Y-36325983D01*
X86419647Y-36295701D01*
X86181471Y-36305819D01*
X86181467Y-36305819D01*
X85948419Y-36356045D01*
X85727211Y-36444935D01*
X85524203Y-36569932D01*
X85345245Y-36727435D01*
X85195471Y-36912928D01*
X85195458Y-36912952D01*
X85195449Y-36912960D01*
X85192522Y-36917291D01*
X85191640Y-36916695D01*
X85145570Y-36961870D01*
X85077154Y-36976051D01*
X85011933Y-36950993D01*
X84984479Y-36921897D01*
X84913586Y-36817006D01*
X84913582Y-36817001D01*
X84913579Y-36816997D01*
X84748621Y-36644882D01*
X84556947Y-36503121D01*
X84344074Y-36395793D01*
X84214283Y-36356045D01*
X84116121Y-36325983D01*
X83879647Y-36295701D01*
X83641471Y-36305819D01*
X83641467Y-36305819D01*
X83408419Y-36356045D01*
X83187211Y-36444935D01*
X82984203Y-36569932D01*
X82805245Y-36727435D01*
X82655471Y-36912928D01*
X82655458Y-36912952D01*
X82655449Y-36912960D01*
X82652522Y-36917291D01*
X82651640Y-36916695D01*
X82605570Y-36961870D01*
X82537154Y-36976051D01*
X82471933Y-36950993D01*
X82444479Y-36921897D01*
X82373586Y-36817006D01*
X82373582Y-36817001D01*
X82373579Y-36816997D01*
X82208621Y-36644882D01*
X82016947Y-36503121D01*
X81804074Y-36395793D01*
X81674283Y-36356045D01*
X81576121Y-36325983D01*
X81339647Y-36295701D01*
X81101471Y-36305819D01*
X81101467Y-36305819D01*
X80868419Y-36356045D01*
X80647211Y-36444935D01*
X80444203Y-36569932D01*
X80422764Y-36588801D01*
X80359434Y-36618314D01*
X80290201Y-36608904D01*
X80237046Y-36563557D01*
X80228391Y-36547473D01*
X80145738Y-36407714D01*
X80145731Y-36407705D01*
X80032294Y-36294268D01*
X80032285Y-36294261D01*
X79894191Y-36212593D01*
X79894188Y-36212592D01*
X79740129Y-36167833D01*
X79740123Y-36167832D01*
X79704130Y-36165000D01*
X78990000Y-36165000D01*
X78990000Y-37554118D01*
X78896631Y-37515444D01*
X78779323Y-37500000D01*
X78700677Y-37500000D01*
X78583369Y-37515444D01*
X78490000Y-37554118D01*
X78490000Y-36165000D01*
X77775870Y-36165000D01*
X77739876Y-36167832D01*
X77739870Y-36167833D01*
X77585811Y-36212592D01*
X77585808Y-36212593D01*
X77447714Y-36294261D01*
X77447705Y-36294268D01*
X77334268Y-36407705D01*
X77334261Y-36407714D01*
X77252593Y-36545808D01*
X77252592Y-36545811D01*
X77207833Y-36699870D01*
X77207832Y-36699876D01*
X77205000Y-36735870D01*
X77205000Y-37850000D01*
X78194118Y-37850000D01*
X78155444Y-37943369D01*
X78134823Y-38100000D01*
X78155444Y-38256631D01*
X78194118Y-38350000D01*
X77205000Y-38350000D01*
X77205000Y-39464130D01*
X77207832Y-39500123D01*
X77207833Y-39500129D01*
X77252592Y-39654188D01*
X77252593Y-39654191D01*
X77334261Y-39792285D01*
X77334268Y-39792294D01*
X77447705Y-39905731D01*
X77447714Y-39905738D01*
X77585808Y-39987406D01*
X77585811Y-39987407D01*
X77739870Y-40032166D01*
X77739876Y-40032167D01*
X77775870Y-40035000D01*
X78490000Y-40035000D01*
X78490000Y-38645881D01*
X78583369Y-38684556D01*
X78700677Y-38700000D01*
X78779323Y-38700000D01*
X78896631Y-38684556D01*
X78990000Y-38645881D01*
X78990000Y-40035000D01*
X79704130Y-40035000D01*
X79740123Y-40032167D01*
X79740129Y-40032166D01*
X79894188Y-39987407D01*
X79894191Y-39987406D01*
X80032285Y-39905738D01*
X80032294Y-39905731D01*
X80145731Y-39792294D01*
X80145738Y-39792285D01*
X80227405Y-39654192D01*
X80227935Y-39652970D01*
X80228605Y-39652163D01*
X80231377Y-39647478D01*
X80232132Y-39647924D01*
X80272625Y-39599261D01*
X80339257Y-39578240D01*
X80406677Y-39596580D01*
X80415459Y-39602511D01*
X80543053Y-39696879D01*
X80755926Y-39804207D01*
X80983877Y-39874016D01*
X81220346Y-39904298D01*
X81458532Y-39894180D01*
X81691581Y-39843954D01*
X81912790Y-39755064D01*
X82115795Y-39630069D01*
X82294755Y-39472564D01*
X82444523Y-39287080D01*
X82444529Y-39287070D01*
X82447472Y-39282717D01*
X82448357Y-39283315D01*
X82494401Y-39238144D01*
X82562813Y-39223945D01*
X82628041Y-39248987D01*
X82655520Y-39278102D01*
X82726413Y-39382993D01*
X82726418Y-39382998D01*
X82726421Y-39383003D01*
X82891379Y-39555118D01*
X83083053Y-39696879D01*
X83251326Y-39781720D01*
X83302324Y-39829477D01*
X83319500Y-39892442D01*
X83319500Y-63437000D01*
X83318191Y-63454969D01*
X83314684Y-63478908D01*
X83319264Y-63531241D01*
X83319500Y-63536648D01*
X83319500Y-63544946D01*
X83323325Y-63577674D01*
X83330056Y-63654610D01*
X83331516Y-63661677D01*
X83331464Y-63661687D01*
X83333123Y-63669167D01*
X83333174Y-63669155D01*
X83334839Y-63676180D01*
X83361247Y-63748740D01*
X83385535Y-63822034D01*
X83388586Y-63828575D01*
X83388536Y-63828598D01*
X83391876Y-63835497D01*
X83391925Y-63835473D01*
X83395165Y-63841925D01*
X83437599Y-63906444D01*
X83478131Y-63972156D01*
X83482611Y-63977822D01*
X83482569Y-63977855D01*
X83487401Y-63983786D01*
X83487443Y-63983752D01*
X83492081Y-63989280D01*
X83492085Y-63989285D01*
X83520166Y-64015778D01*
X83548247Y-64042272D01*
X93479181Y-73973205D01*
X93512666Y-74034528D01*
X93515500Y-74060886D01*
X93515500Y-75290870D01*
X93515501Y-75290876D01*
X93521908Y-75350483D01*
X93572202Y-75485328D01*
X93572206Y-75485335D01*
X93658452Y-75600544D01*
X93658455Y-75600547D01*
X93773664Y-75686793D01*
X93773671Y-75686797D01*
X93908517Y-75737091D01*
X93908516Y-75737091D01*
X93915444Y-75737835D01*
X93968127Y-75743500D01*
X95267173Y-75743499D01*
X95334211Y-75763184D01*
X95379966Y-75815987D01*
X95389910Y-75885146D01*
X95360885Y-75948702D01*
X95330293Y-75974231D01*
X95223714Y-76037261D01*
X95223705Y-76037268D01*
X95110268Y-76150705D01*
X95110264Y-76150711D01*
X95044790Y-76261421D01*
X94993720Y-76309104D01*
X94924979Y-76321607D01*
X94860389Y-76294961D01*
X94838792Y-76272611D01*
X94780843Y-76195202D01*
X94773546Y-76185454D01*
X94773544Y-76185453D01*
X94773544Y-76185452D01*
X94658335Y-76099206D01*
X94658328Y-76099202D01*
X94523482Y-76048908D01*
X94523483Y-76048908D01*
X94463883Y-76042501D01*
X94463881Y-76042500D01*
X94463873Y-76042500D01*
X94463864Y-76042500D01*
X93068129Y-76042500D01*
X93068123Y-76042501D01*
X93008516Y-76048908D01*
X92873671Y-76099202D01*
X92873664Y-76099206D01*
X92758455Y-76185452D01*
X92758452Y-76185455D01*
X92672206Y-76300664D01*
X92672202Y-76300671D01*
X92621910Y-76435513D01*
X92621909Y-76435517D01*
X92617367Y-76477757D01*
X92590631Y-76542306D01*
X92533239Y-76582154D01*
X92494079Y-76588500D01*
X91749526Y-76588500D01*
X91699091Y-76577780D01*
X91660257Y-76560490D01*
X91579007Y-76524315D01*
X91579003Y-76524314D01*
X91573071Y-76521673D01*
X91573633Y-76520408D01*
X91531785Y-76494761D01*
X90861818Y-75824794D01*
X90828333Y-75763471D01*
X90825499Y-75737113D01*
X90825499Y-75699998D01*
X90825498Y-75699981D01*
X90814999Y-75597203D01*
X90814998Y-75597200D01*
X90793564Y-75532517D01*
X90759814Y-75430666D01*
X90667712Y-75281344D01*
X90543656Y-75157288D01*
X90394334Y-75065186D01*
X90227797Y-75010001D01*
X90227795Y-75010000D01*
X90125010Y-74999500D01*
X89499998Y-74999500D01*
X89499980Y-74999501D01*
X89397203Y-75010000D01*
X89397200Y-75010001D01*
X89230668Y-75065185D01*
X89230663Y-75065187D01*
X89081342Y-75157289D01*
X88987681Y-75250951D01*
X88926358Y-75284436D01*
X88856666Y-75279452D01*
X88812319Y-75250951D01*
X88718657Y-75157289D01*
X88718656Y-75157288D01*
X88569334Y-75065186D01*
X88402797Y-75010001D01*
X88402795Y-75010000D01*
X88300010Y-74999500D01*
X87674998Y-74999500D01*
X87674980Y-74999501D01*
X87572203Y-75010000D01*
X87572200Y-75010001D01*
X87405668Y-75065185D01*
X87405663Y-75065187D01*
X87256342Y-75157289D01*
X87132289Y-75281342D01*
X87126404Y-75290883D01*
X87068763Y-75384336D01*
X87067368Y-75386597D01*
X87015420Y-75433321D01*
X86961829Y-75445500D01*
X85361672Y-75445500D01*
X85294633Y-75425815D01*
X85262406Y-75395811D01*
X85177547Y-75282455D01*
X85177544Y-75282452D01*
X85062335Y-75196206D01*
X85062328Y-75196202D01*
X84927482Y-75145908D01*
X84927483Y-75145908D01*
X84867883Y-75139501D01*
X84867881Y-75139500D01*
X84867873Y-75139500D01*
X84867864Y-75139500D01*
X82772129Y-75139500D01*
X82772123Y-75139501D01*
X82712516Y-75145908D01*
X82577671Y-75196202D01*
X82577664Y-75196206D01*
X82462455Y-75282452D01*
X82462452Y-75282455D01*
X82376206Y-75397664D01*
X82376202Y-75397671D01*
X82325908Y-75532517D01*
X82319501Y-75592116D01*
X82319500Y-75592135D01*
X82319500Y-75761500D01*
X82299815Y-75828539D01*
X82247011Y-75874294D01*
X82195500Y-75885500D01*
X81539000Y-75885500D01*
X81521031Y-75884191D01*
X81497091Y-75880684D01*
X81457019Y-75884191D01*
X81444751Y-75885264D01*
X81439351Y-75885500D01*
X81431053Y-75885500D01*
X81398325Y-75889325D01*
X81321387Y-75896056D01*
X81314321Y-75897516D01*
X81314310Y-75897464D01*
X81306831Y-75899122D01*
X81306844Y-75899174D01*
X81299817Y-75900839D01*
X81227254Y-75927250D01*
X81153962Y-75951536D01*
X81147421Y-75954587D01*
X81147398Y-75954539D01*
X81140501Y-75957878D01*
X81140525Y-75957925D01*
X81134072Y-75961165D01*
X81087033Y-75992103D01*
X81044678Y-76009792D01*
X81013991Y-76016315D01*
X81013990Y-76016315D01*
X80849592Y-76089510D01*
X80704000Y-76195290D01*
X80583584Y-76329026D01*
X80493603Y-76484878D01*
X80492737Y-76487544D01*
X80491818Y-76488887D01*
X80490960Y-76490815D01*
X80490607Y-76490657D01*
X80453296Y-76545216D01*
X80388935Y-76572410D01*
X80320090Y-76560490D01*
X80268617Y-76513243D01*
X80251232Y-76459456D01*
X80237792Y-76297252D01*
X80181447Y-76074749D01*
X80089247Y-75864557D01*
X80007349Y-75739202D01*
X79350076Y-76396475D01*
X79326493Y-76316156D01*
X79248761Y-76195202D01*
X79140100Y-76101048D01*
X79009315Y-76041320D01*
X78999533Y-76039913D01*
X79655110Y-75384336D01*
X79655110Y-75384335D01*
X79627119Y-75362550D01*
X79627116Y-75362548D01*
X79425261Y-75253310D01*
X79425247Y-75253304D01*
X79208165Y-75178779D01*
X78981764Y-75141000D01*
X78752236Y-75141000D01*
X78525834Y-75178779D01*
X78308752Y-75253304D01*
X78308738Y-75253310D01*
X78106877Y-75362551D01*
X78078889Y-75384334D01*
X78078889Y-75384336D01*
X78734467Y-76039913D01*
X78724685Y-76041320D01*
X78593900Y-76101048D01*
X78485239Y-76195202D01*
X78407507Y-76316156D01*
X78383922Y-76396476D01*
X77726648Y-75739202D01*
X77644753Y-75864554D01*
X77552552Y-76074749D01*
X77496206Y-76297258D01*
X77477253Y-76525993D01*
X77477253Y-76526006D01*
X77496206Y-76754741D01*
X77552552Y-76977250D01*
X77644753Y-77187445D01*
X77726648Y-77312795D01*
X78383922Y-76655522D01*
X78407507Y-76735844D01*
X78485239Y-76856798D01*
X78593900Y-76950952D01*
X78724685Y-77010680D01*
X78734466Y-77012086D01*
X78078889Y-77667663D01*
X78078889Y-77667665D01*
X78106871Y-77689444D01*
X78106882Y-77689451D01*
X78308738Y-77798689D01*
X78308752Y-77798695D01*
X78525834Y-77873220D01*
X78752236Y-77911000D01*
X78981764Y-77911000D01*
X79208165Y-77873220D01*
X79425247Y-77798695D01*
X79425261Y-77798689D01*
X79627116Y-77689451D01*
X79627121Y-77689448D01*
X79655109Y-77667664D01*
X79655110Y-77667663D01*
X78999534Y-77012086D01*
X79009315Y-77010680D01*
X79140100Y-76950952D01*
X79248761Y-76856798D01*
X79326493Y-76735844D01*
X79350076Y-76655523D01*
X80007349Y-77312796D01*
X80089245Y-77187447D01*
X80181448Y-76977246D01*
X80189219Y-76946559D01*
X80224757Y-76886402D01*
X80287176Y-76855008D01*
X80356660Y-76862345D01*
X80411147Y-76906082D01*
X80432746Y-76964033D01*
X80437995Y-77013975D01*
X80437996Y-77013977D01*
X80463825Y-77093473D01*
X80493605Y-77185125D01*
X80583585Y-77340975D01*
X80704002Y-77474711D01*
X80849592Y-77580489D01*
X81013993Y-77653685D01*
X81013996Y-77653685D01*
X81013997Y-77653686D01*
X81042128Y-77659665D01*
X81190020Y-77691100D01*
X81369980Y-77691100D01*
X81546007Y-77653685D01*
X81710408Y-77580489D01*
X81855998Y-77474711D01*
X81891280Y-77435527D01*
X81950766Y-77398879D01*
X81983429Y-77394500D01*
X82195501Y-77394500D01*
X82262540Y-77414185D01*
X82308295Y-77466989D01*
X82319501Y-77518500D01*
X82319501Y-77687876D01*
X82325908Y-77747483D01*
X82376202Y-77882328D01*
X82376206Y-77882335D01*
X82462452Y-77997544D01*
X82462455Y-77997547D01*
X82577664Y-78083793D01*
X82577671Y-78083797D01*
X82712517Y-78134091D01*
X82712516Y-78134091D01*
X82719444Y-78134835D01*
X82772127Y-78140500D01*
X84867872Y-78140499D01*
X84927483Y-78134091D01*
X85062331Y-78083796D01*
X85177546Y-77997546D01*
X85263796Y-77882331D01*
X85314091Y-77747483D01*
X85320500Y-77687873D01*
X85320500Y-77078500D01*
X85340185Y-77011461D01*
X85392989Y-76965706D01*
X85444500Y-76954500D01*
X86751500Y-76954500D01*
X86818539Y-76974185D01*
X86864294Y-77026989D01*
X86875500Y-77078500D01*
X86875500Y-77632004D01*
X86855815Y-77699043D01*
X86803011Y-77744798D01*
X86794613Y-77747737D01*
X86794785Y-77748198D01*
X86652671Y-77801202D01*
X86652664Y-77801206D01*
X86537455Y-77887452D01*
X86537452Y-77887455D01*
X86451206Y-78002664D01*
X86451202Y-78002671D01*
X86400908Y-78137517D01*
X86394501Y-78197116D01*
X86394500Y-78197135D01*
X86394500Y-79282870D01*
X86394501Y-79282876D01*
X86400908Y-79342483D01*
X86410820Y-79369058D01*
X86415802Y-79438749D01*
X86392619Y-79488385D01*
X86389264Y-79492710D01*
X86307593Y-79630808D01*
X86307592Y-79630811D01*
X86262833Y-79784870D01*
X86262832Y-79784876D01*
X86260000Y-79820870D01*
X86260000Y-80130000D01*
X87756000Y-80130000D01*
X87823039Y-80149685D01*
X87868794Y-80202489D01*
X87880000Y-80254000D01*
X87880000Y-81510000D01*
X88275500Y-81510000D01*
X88342539Y-81529685D01*
X88388294Y-81582489D01*
X88399500Y-81634000D01*
X88399500Y-82994000D01*
X88398191Y-83011969D01*
X88394684Y-83035908D01*
X88399264Y-83088241D01*
X88399500Y-83093648D01*
X88399500Y-83101946D01*
X88403325Y-83134674D01*
X88410056Y-83211610D01*
X88411516Y-83218677D01*
X88411464Y-83218687D01*
X88413123Y-83226167D01*
X88413174Y-83226155D01*
X88414839Y-83233180D01*
X88441247Y-83305740D01*
X88465535Y-83379034D01*
X88468586Y-83385575D01*
X88468536Y-83385598D01*
X88471876Y-83392497D01*
X88471925Y-83392473D01*
X88475165Y-83398925D01*
X88517599Y-83463444D01*
X88558131Y-83529156D01*
X88562611Y-83534822D01*
X88562569Y-83534855D01*
X88567401Y-83540786D01*
X88567443Y-83540752D01*
X88572081Y-83546280D01*
X88572085Y-83546285D01*
X88597912Y-83570651D01*
X88628247Y-83599272D01*
X90099234Y-85070258D01*
X90111016Y-85083891D01*
X90125461Y-85103294D01*
X90165706Y-85137064D01*
X90169696Y-85140720D01*
X90175559Y-85146583D01*
X90201419Y-85167031D01*
X90260573Y-85216667D01*
X90260577Y-85216669D01*
X90266607Y-85220635D01*
X90266576Y-85220680D01*
X90273038Y-85224797D01*
X90273067Y-85224751D01*
X90279204Y-85228537D01*
X90279207Y-85228538D01*
X90279208Y-85228539D01*
X90349199Y-85261176D01*
X90418189Y-85295824D01*
X90418194Y-85295825D01*
X90424979Y-85298295D01*
X90424960Y-85298347D01*
X90432188Y-85300859D01*
X90432206Y-85300808D01*
X90439057Y-85303077D01*
X90439060Y-85303079D01*
X90514677Y-85318692D01*
X90589812Y-85336500D01*
X90589821Y-85336500D01*
X90596985Y-85337338D01*
X90596978Y-85337391D01*
X90604595Y-85338169D01*
X90604600Y-85338116D01*
X90611789Y-85338745D01*
X90611792Y-85338744D01*
X90611793Y-85338745D01*
X90688947Y-85336500D01*
X96304114Y-85336500D01*
X96371153Y-85356185D01*
X96416908Y-85408989D01*
X96426852Y-85478147D01*
X96397827Y-85541703D01*
X96391795Y-85548181D01*
X94249793Y-87690181D01*
X94188470Y-87723666D01*
X94162112Y-87726500D01*
X93132129Y-87726500D01*
X93132123Y-87726501D01*
X93072516Y-87732908D01*
X92937671Y-87783202D01*
X92937664Y-87783206D01*
X92822455Y-87869452D01*
X92822452Y-87869455D01*
X92736206Y-87984664D01*
X92736202Y-87984671D01*
X92685910Y-88119513D01*
X92685909Y-88119517D01*
X92681367Y-88161757D01*
X92654631Y-88226306D01*
X92597239Y-88266154D01*
X92558079Y-88272500D01*
X89014082Y-88272500D01*
X88947043Y-88252815D01*
X88901288Y-88200011D01*
X88891344Y-88130853D01*
X88907350Y-88085379D01*
X88952406Y-88009191D01*
X88952407Y-88009188D01*
X88997166Y-87855129D01*
X88997167Y-87855123D01*
X89000000Y-87819130D01*
X89000000Y-87510000D01*
X86260000Y-87510000D01*
X86260000Y-87819130D01*
X86262832Y-87855123D01*
X86262833Y-87855129D01*
X86307592Y-88009188D01*
X86307593Y-88009191D01*
X86389264Y-88147289D01*
X86392619Y-88151615D01*
X86418152Y-88216652D01*
X86410820Y-88270944D01*
X86400908Y-88297519D01*
X86394501Y-88357116D01*
X86394500Y-88357135D01*
X86394500Y-88763112D01*
X86374815Y-88830151D01*
X86358182Y-88850793D01*
X86269795Y-88939181D01*
X86208472Y-88972666D01*
X86182113Y-88975500D01*
X85444499Y-88975500D01*
X85377460Y-88955815D01*
X85331705Y-88903011D01*
X85320499Y-88851500D01*
X85320499Y-88682129D01*
X85320498Y-88682123D01*
X85314091Y-88622516D01*
X85263797Y-88487671D01*
X85263793Y-88487664D01*
X85177547Y-88372455D01*
X85177544Y-88372452D01*
X85062335Y-88286206D01*
X85062328Y-88286202D01*
X84927482Y-88235908D01*
X84927483Y-88235908D01*
X84867883Y-88229501D01*
X84867881Y-88229500D01*
X84867873Y-88229500D01*
X84867865Y-88229500D01*
X83437886Y-88229500D01*
X83370847Y-88209815D01*
X83350205Y-88193181D01*
X82496607Y-87339583D01*
X82463122Y-87278260D01*
X82468106Y-87208568D01*
X82509978Y-87152635D01*
X82575442Y-87128218D01*
X82618883Y-87132826D01*
X82719870Y-87162166D01*
X82719876Y-87162167D01*
X82755870Y-87165000D01*
X83570000Y-87165000D01*
X83570000Y-85780000D01*
X84070000Y-85780000D01*
X84070000Y-87165000D01*
X84884130Y-87165000D01*
X84920123Y-87162167D01*
X84920129Y-87162166D01*
X85074188Y-87117407D01*
X85074191Y-87117406D01*
X85212285Y-87035738D01*
X85212294Y-87035731D01*
X85238025Y-87010000D01*
X86260000Y-87010000D01*
X87380000Y-87010000D01*
X87380000Y-86130000D01*
X87880000Y-86130000D01*
X87880000Y-87010000D01*
X89000000Y-87010000D01*
X89000000Y-86700870D01*
X88997167Y-86664876D01*
X88997166Y-86664870D01*
X88952407Y-86510811D01*
X88952406Y-86510808D01*
X88870738Y-86372714D01*
X88870731Y-86372705D01*
X88757294Y-86259268D01*
X88757285Y-86259261D01*
X88619191Y-86177593D01*
X88619188Y-86177592D01*
X88465129Y-86132833D01*
X88465123Y-86132832D01*
X88429130Y-86130000D01*
X87880000Y-86130000D01*
X87380000Y-86130000D01*
X86830870Y-86130000D01*
X86794876Y-86132832D01*
X86794870Y-86132833D01*
X86640811Y-86177592D01*
X86640808Y-86177593D01*
X86502714Y-86259261D01*
X86502705Y-86259268D01*
X86389268Y-86372705D01*
X86389261Y-86372714D01*
X86307593Y-86510808D01*
X86307592Y-86510811D01*
X86262833Y-86664870D01*
X86262832Y-86664876D01*
X86260000Y-86700870D01*
X86260000Y-87010000D01*
X85238025Y-87010000D01*
X85325731Y-86922294D01*
X85325738Y-86922285D01*
X85407406Y-86784191D01*
X85407407Y-86784188D01*
X85452166Y-86630129D01*
X85452167Y-86630123D01*
X85455000Y-86594130D01*
X85455000Y-85780000D01*
X84070000Y-85780000D01*
X83570000Y-85780000D01*
X82185000Y-85780000D01*
X82185000Y-86594130D01*
X82187832Y-86630123D01*
X82187833Y-86630129D01*
X82232592Y-86784188D01*
X82232593Y-86784191D01*
X82288680Y-86879030D01*
X82305863Y-86946754D01*
X82283703Y-87013017D01*
X82229237Y-87056780D01*
X82159757Y-87064149D01*
X82126297Y-87052962D01*
X82106808Y-87043174D01*
X82100031Y-87040708D01*
X82100049Y-87040658D01*
X82092807Y-87038141D01*
X82092791Y-87038191D01*
X82085938Y-87035920D01*
X82010311Y-87020304D01*
X81935181Y-87002498D01*
X81928014Y-87001661D01*
X81928020Y-87001607D01*
X81920405Y-87000829D01*
X81920401Y-87000883D01*
X81913210Y-87000253D01*
X81836018Y-87002500D01*
X81589526Y-87002500D01*
X81539091Y-86991780D01*
X81437961Y-86946754D01*
X81419007Y-86938315D01*
X81419005Y-86938314D01*
X81419004Y-86938314D01*
X81242980Y-86900900D01*
X81063020Y-86900900D01*
X80886997Y-86938313D01*
X80804792Y-86974913D01*
X80744716Y-87001661D01*
X80722588Y-87011513D01*
X80577000Y-87117290D01*
X80456584Y-87251026D01*
X80366604Y-87406876D01*
X80310996Y-87578022D01*
X80310995Y-87578024D01*
X80292184Y-87757000D01*
X80310995Y-87935975D01*
X80310996Y-87935977D01*
X80334784Y-88009191D01*
X80366605Y-88107125D01*
X80456585Y-88262975D01*
X80577002Y-88396711D01*
X80722592Y-88502489D01*
X80886993Y-88575685D01*
X80886996Y-88575685D01*
X80886997Y-88575686D01*
X80909665Y-88580504D01*
X81063020Y-88613100D01*
X81242980Y-88613100D01*
X81419007Y-88575685D01*
X81465460Y-88555002D01*
X81534706Y-88545716D01*
X81597983Y-88575343D01*
X81603576Y-88580600D01*
X82283181Y-89260205D01*
X82316666Y-89321528D01*
X82319500Y-89347886D01*
X82319500Y-90777870D01*
X82319501Y-90777876D01*
X82325908Y-90837483D01*
X82376202Y-90972328D01*
X82376206Y-90972335D01*
X82462452Y-91087544D01*
X82462455Y-91087547D01*
X82577664Y-91173793D01*
X82577671Y-91173797D01*
X82712517Y-91224091D01*
X82712516Y-91224091D01*
X82719444Y-91224835D01*
X82772127Y-91230500D01*
X84867872Y-91230499D01*
X84927483Y-91224091D01*
X85062331Y-91173796D01*
X85177546Y-91087546D01*
X85263796Y-90972331D01*
X85314091Y-90837483D01*
X85320500Y-90777873D01*
X85320500Y-90608500D01*
X85340185Y-90541461D01*
X85392989Y-90495706D01*
X85444500Y-90484500D01*
X86482000Y-90484500D01*
X86499969Y-90485809D01*
X86505350Y-90486596D01*
X86523906Y-90489315D01*
X86576248Y-90484735D01*
X86581649Y-90484500D01*
X86589934Y-90484500D01*
X86589941Y-90484500D01*
X86622674Y-90480674D01*
X86699612Y-90473943D01*
X86699615Y-90473941D01*
X86706693Y-90472481D01*
X86706704Y-90472535D01*
X86714160Y-90470882D01*
X86714148Y-90470828D01*
X86722903Y-90468753D01*
X86724117Y-90468817D01*
X86728370Y-90468321D01*
X86728454Y-90469046D01*
X86792675Y-90472446D01*
X86849374Y-90513275D01*
X86874999Y-90578276D01*
X86875500Y-90589410D01*
X86875500Y-91018500D01*
X86874191Y-91036469D01*
X86870684Y-91060408D01*
X86875264Y-91112741D01*
X86875500Y-91118148D01*
X86875500Y-91126446D01*
X86879325Y-91159174D01*
X86886056Y-91236110D01*
X86887516Y-91243177D01*
X86887464Y-91243187D01*
X86889123Y-91250667D01*
X86889174Y-91250655D01*
X86890839Y-91257680D01*
X86917247Y-91330240D01*
X86941535Y-91403534D01*
X86944586Y-91410075D01*
X86944536Y-91410098D01*
X86947876Y-91416997D01*
X86947925Y-91416973D01*
X86951168Y-91423431D01*
X86954100Y-91427889D01*
X86974493Y-91494716D01*
X86974500Y-91496028D01*
X86974500Y-91940001D01*
X86974501Y-91940019D01*
X86985000Y-92042796D01*
X86985001Y-92042799D01*
X87034340Y-92191692D01*
X87040186Y-92209334D01*
X87132288Y-92358656D01*
X87256344Y-92482712D01*
X87405666Y-92574814D01*
X87572203Y-92629999D01*
X87674991Y-92640500D01*
X88300008Y-92640499D01*
X88300016Y-92640498D01*
X88300019Y-92640498D01*
X88356302Y-92634748D01*
X88402797Y-92629999D01*
X88569334Y-92574814D01*
X88718656Y-92482712D01*
X88812319Y-92389049D01*
X88873642Y-92355564D01*
X88943334Y-92360548D01*
X88987681Y-92389049D01*
X89021681Y-92423049D01*
X89055166Y-92484372D01*
X89058000Y-92510730D01*
X89058000Y-93177500D01*
X89056691Y-93195469D01*
X89053184Y-93219408D01*
X89057764Y-93271741D01*
X89058000Y-93277148D01*
X89058000Y-93285446D01*
X89061825Y-93318174D01*
X89068556Y-93395110D01*
X89070016Y-93402177D01*
X89069964Y-93402187D01*
X89071623Y-93409667D01*
X89071674Y-93409655D01*
X89073339Y-93416680D01*
X89099747Y-93489240D01*
X89124035Y-93562534D01*
X89127086Y-93569075D01*
X89127036Y-93569098D01*
X89130376Y-93575997D01*
X89130425Y-93575973D01*
X89133662Y-93582420D01*
X89133664Y-93582424D01*
X89176099Y-93646944D01*
X89218138Y-93715099D01*
X89230531Y-93741879D01*
X89256602Y-93822118D01*
X89256604Y-93822123D01*
X89256605Y-93822125D01*
X89346585Y-93977975D01*
X89467002Y-94111711D01*
X89612592Y-94217489D01*
X89776993Y-94290685D01*
X89776996Y-94290685D01*
X89776997Y-94290686D01*
X89805128Y-94296665D01*
X89953020Y-94328100D01*
X90132980Y-94328100D01*
X90309007Y-94290685D01*
X90473408Y-94217489D01*
X90618998Y-94111711D01*
X90739415Y-93977975D01*
X90829395Y-93822125D01*
X90885005Y-93650974D01*
X90903816Y-93472000D01*
X90885005Y-93293026D01*
X90829395Y-93121875D01*
X90739415Y-92966025D01*
X90618998Y-92832289D01*
X90618110Y-92831643D01*
X90617720Y-92831139D01*
X90614169Y-92827941D01*
X90614754Y-92827291D01*
X90575447Y-92776313D01*
X90567000Y-92731329D01*
X90567000Y-92510730D01*
X90586685Y-92443691D01*
X90603319Y-92423049D01*
X90667712Y-92358656D01*
X90759814Y-92209334D01*
X90814999Y-92042797D01*
X90825500Y-91940009D01*
X90825499Y-90939992D01*
X90814999Y-90837203D01*
X90759814Y-90670666D01*
X90667712Y-90521344D01*
X90543656Y-90397288D01*
X90450888Y-90340069D01*
X90394336Y-90305187D01*
X90394331Y-90305185D01*
X90392862Y-90304698D01*
X90227797Y-90250001D01*
X90227795Y-90250000D01*
X90125010Y-90239500D01*
X89499998Y-90239500D01*
X89499980Y-90239501D01*
X89397203Y-90250000D01*
X89397200Y-90250001D01*
X89230668Y-90305185D01*
X89230663Y-90305187D01*
X89081342Y-90397289D01*
X88987681Y-90490951D01*
X88926358Y-90524436D01*
X88856666Y-90519452D01*
X88812319Y-90490951D01*
X88718657Y-90397289D01*
X88718656Y-90397288D01*
X88625888Y-90340069D01*
X88569336Y-90305187D01*
X88569331Y-90305185D01*
X88469496Y-90272103D01*
X88412051Y-90232330D01*
X88385228Y-90167814D01*
X88384500Y-90154397D01*
X88384500Y-90007995D01*
X88404185Y-89940956D01*
X88456989Y-89895201D01*
X88465417Y-89892343D01*
X88465215Y-89891802D01*
X88566596Y-89853989D01*
X88607331Y-89838796D01*
X88650828Y-89806233D01*
X88716290Y-89781816D01*
X88725139Y-89781500D01*
X92558079Y-89781500D01*
X92625118Y-89801185D01*
X92670873Y-89853989D01*
X92681369Y-89892248D01*
X92685908Y-89934483D01*
X92736202Y-90069328D01*
X92736206Y-90069335D01*
X92822452Y-90184544D01*
X92822455Y-90184547D01*
X92937664Y-90270793D01*
X92937671Y-90270797D01*
X93072517Y-90321091D01*
X93072516Y-90321091D01*
X93079444Y-90321835D01*
X93132127Y-90327500D01*
X94827872Y-90327499D01*
X94887483Y-90321091D01*
X95022331Y-90270796D01*
X95137546Y-90184546D01*
X95223796Y-90069331D01*
X95274091Y-89934483D01*
X95277862Y-89899401D01*
X95304599Y-89834855D01*
X95361990Y-89795006D01*
X95431816Y-89792511D01*
X95491905Y-89828163D01*
X95502726Y-89841536D01*
X95519956Y-89866143D01*
X95680858Y-90027045D01*
X95680861Y-90027047D01*
X95867266Y-90157568D01*
X96073504Y-90253739D01*
X96293308Y-90312635D01*
X96455230Y-90326801D01*
X96519998Y-90332468D01*
X96520000Y-90332468D01*
X96520002Y-90332468D01*
X96576807Y-90327498D01*
X96746692Y-90312635D01*
X96966496Y-90253739D01*
X97172734Y-90157568D01*
X97359139Y-90027047D01*
X97520047Y-89866139D01*
X97650568Y-89679734D01*
X97677618Y-89621724D01*
X97723790Y-89569285D01*
X97790983Y-89550133D01*
X97857865Y-89570348D01*
X97902382Y-89621725D01*
X97929429Y-89679728D01*
X97929432Y-89679734D01*
X98059954Y-89866141D01*
X98220856Y-90027043D01*
X98220859Y-90027045D01*
X98220861Y-90027047D01*
X98252623Y-90049286D01*
X98296247Y-90103860D01*
X98305500Y-90150861D01*
X98305500Y-99123000D01*
X98304191Y-99140969D01*
X98300684Y-99164908D01*
X98305264Y-99217241D01*
X98305500Y-99222648D01*
X98305500Y-99230938D01*
X98305501Y-99230956D01*
X98308183Y-99253912D01*
X98296411Y-99322783D01*
X98249273Y-99374356D01*
X98181736Y-99392257D01*
X98174214Y-99391829D01*
X98044002Y-99380437D01*
X98043998Y-99380437D01*
X97859264Y-99396599D01*
X97790764Y-99382832D01*
X97760776Y-99360752D01*
X97437819Y-99037795D01*
X97404334Y-98976472D01*
X97401500Y-98950114D01*
X97401500Y-94424998D01*
X97402809Y-94407028D01*
X97403030Y-94405515D01*
X97406315Y-94383093D01*
X97404298Y-94360043D01*
X97401736Y-94330755D01*
X97401500Y-94325349D01*
X97401500Y-94317066D01*
X97401500Y-94317059D01*
X97397674Y-94284327D01*
X97390943Y-94207388D01*
X97390941Y-94207383D01*
X97389483Y-94200319D01*
X97389536Y-94200307D01*
X97387878Y-94192825D01*
X97387824Y-94192838D01*
X97386160Y-94185815D01*
X97376734Y-94159920D01*
X97369933Y-94130465D01*
X97365145Y-94084908D01*
X97362005Y-94055026D01*
X97306395Y-93883875D01*
X97216415Y-93728025D01*
X97095998Y-93594289D01*
X97008133Y-93530451D01*
X96950411Y-93488513D01*
X96950410Y-93488512D01*
X96950408Y-93488511D01*
X96786007Y-93415315D01*
X96786006Y-93415314D01*
X96786002Y-93415313D01*
X96609980Y-93377900D01*
X96430020Y-93377900D01*
X96253997Y-93415313D01*
X96253993Y-93415315D01*
X96126677Y-93472000D01*
X96089588Y-93488513D01*
X95944000Y-93594290D01*
X95823584Y-93728026D01*
X95733604Y-93883876D01*
X95677996Y-94055022D01*
X95677995Y-94055024D01*
X95659184Y-94234000D01*
X95677995Y-94412975D01*
X95677996Y-94412977D01*
X95733506Y-94583822D01*
X95733605Y-94584125D01*
X95823585Y-94739975D01*
X95860649Y-94781138D01*
X95890879Y-94844129D01*
X95892500Y-94864111D01*
X95892500Y-99250000D01*
X95891191Y-99267971D01*
X95886788Y-99298031D01*
X95857595Y-99361510D01*
X95798718Y-99399129D01*
X95740710Y-99399741D01*
X95740384Y-99401592D01*
X95735044Y-99400650D01*
X95504002Y-99380437D01*
X95503998Y-99380437D01*
X95272955Y-99400650D01*
X95272948Y-99400651D01*
X95048917Y-99460681D01*
X94838718Y-99558699D01*
X94838714Y-99558701D01*
X94648735Y-99691726D01*
X94648729Y-99691731D01*
X94484731Y-99855729D01*
X94484723Y-99855738D01*
X94416287Y-99953475D01*
X94361710Y-99997100D01*
X94292212Y-100004292D01*
X94229857Y-99972769D01*
X94210905Y-99950173D01*
X94158535Y-99870016D01*
X93489929Y-100538622D01*
X93487116Y-100525085D01*
X93417558Y-100390844D01*
X93314362Y-100280348D01*
X93185181Y-100201791D01*
X93133996Y-100187449D01*
X93805552Y-99515893D01*
X93765278Y-99484546D01*
X93552486Y-99369388D01*
X93552481Y-99369386D01*
X93323640Y-99290825D01*
X93084978Y-99251000D01*
X92843022Y-99251000D01*
X92604359Y-99290825D01*
X92375518Y-99369386D01*
X92375513Y-99369388D01*
X92162721Y-99484546D01*
X91990803Y-99618355D01*
X91925809Y-99643997D01*
X91857269Y-99630430D01*
X91807909Y-99583622D01*
X91754737Y-99493713D01*
X91754731Y-99493705D01*
X91641294Y-99380268D01*
X91641285Y-99380261D01*
X91503191Y-99298593D01*
X91503188Y-99298592D01*
X91349129Y-99253833D01*
X91349123Y-99253832D01*
X91313130Y-99251000D01*
X90674000Y-99251000D01*
X90674000Y-100219316D01*
X90645181Y-100201791D01*
X90499596Y-100161000D01*
X90386378Y-100161000D01*
X90274217Y-100176416D01*
X90174000Y-100219946D01*
X90174000Y-99251000D01*
X89534870Y-99251000D01*
X89498876Y-99253832D01*
X89498870Y-99253833D01*
X89344811Y-99298592D01*
X89344808Y-99298593D01*
X89206714Y-99380261D01*
X89206705Y-99380268D01*
X89093268Y-99493705D01*
X89093261Y-99493714D01*
X89011593Y-99631808D01*
X89011592Y-99631811D01*
X88966833Y-99785870D01*
X88966832Y-99785876D01*
X88964000Y-99821870D01*
X88964000Y-100461000D01*
X89929148Y-100461000D01*
X89880441Y-100598047D01*
X89870123Y-100748886D01*
X89900884Y-100896915D01*
X89934090Y-100961000D01*
X88964000Y-100961000D01*
X88964000Y-101600130D01*
X88966832Y-101636123D01*
X88966833Y-101636129D01*
X89011592Y-101790188D01*
X89011593Y-101790191D01*
X89093261Y-101928285D01*
X89093268Y-101928294D01*
X89206705Y-102041731D01*
X89206714Y-102041738D01*
X89344808Y-102123406D01*
X89344811Y-102123407D01*
X89498870Y-102168166D01*
X89498876Y-102168167D01*
X89534870Y-102171000D01*
X90174000Y-102171000D01*
X90174000Y-101202683D01*
X90202819Y-101220209D01*
X90348404Y-101261000D01*
X90461622Y-101261000D01*
X90573783Y-101245584D01*
X90674000Y-101202053D01*
X90674000Y-102171000D01*
X91313130Y-102171000D01*
X91349123Y-102168167D01*
X91349129Y-102168166D01*
X91503188Y-102123407D01*
X91503191Y-102123406D01*
X91641285Y-102041738D01*
X91641294Y-102041731D01*
X91754731Y-101928294D01*
X91754736Y-101928288D01*
X91807908Y-101838378D01*
X91858977Y-101790694D01*
X91927719Y-101778190D01*
X91990803Y-101803644D01*
X92162721Y-101937453D01*
X92375513Y-102052611D01*
X92375518Y-102052613D01*
X92604359Y-102131174D01*
X92843022Y-102171000D01*
X93084978Y-102171000D01*
X93323640Y-102131174D01*
X93552481Y-102052613D01*
X93552486Y-102052611D01*
X93765284Y-101937449D01*
X93765285Y-101937448D01*
X93805552Y-101906106D01*
X93805553Y-101906105D01*
X93135569Y-101236121D01*
X93252458Y-101185349D01*
X93369739Y-101089934D01*
X93456928Y-100966415D01*
X93487354Y-100880801D01*
X94158535Y-101551982D01*
X94210905Y-101471826D01*
X94264051Y-101426469D01*
X94333283Y-101417046D01*
X94396618Y-101446548D01*
X94416287Y-101468524D01*
X94484724Y-101566262D01*
X94484728Y-101566267D01*
X94484730Y-101566269D01*
X94648731Y-101730270D01*
X94838718Y-101863301D01*
X95048921Y-101961320D01*
X95272950Y-102021349D01*
X95437985Y-102035787D01*
X95503998Y-102041563D01*
X95504000Y-102041563D01*
X95504002Y-102041563D01*
X95561762Y-102036509D01*
X95735050Y-102021349D01*
X95959079Y-101961320D01*
X96169282Y-101863301D01*
X96359269Y-101730270D01*
X96523270Y-101566269D01*
X96656301Y-101376282D01*
X96661618Y-101364878D01*
X96707790Y-101312440D01*
X96774984Y-101293288D01*
X96841865Y-101313504D01*
X96886381Y-101364878D01*
X96891699Y-101376282D01*
X97024730Y-101566269D01*
X97188731Y-101730270D01*
X97378718Y-101863301D01*
X97588921Y-101961320D01*
X97812950Y-102021349D01*
X97977985Y-102035787D01*
X98043998Y-102041563D01*
X98044000Y-102041563D01*
X98044002Y-102041563D01*
X98101762Y-102036509D01*
X98275050Y-102021349D01*
X98499079Y-101961320D01*
X98709282Y-101863301D01*
X98899269Y-101730270D01*
X99063270Y-101566269D01*
X99196301Y-101376282D01*
X99201618Y-101364878D01*
X99247790Y-101312440D01*
X99314984Y-101293288D01*
X99381865Y-101313504D01*
X99426381Y-101364878D01*
X99431699Y-101376282D01*
X99564730Y-101566269D01*
X99728731Y-101730270D01*
X99918718Y-101863301D01*
X100128921Y-101961320D01*
X100352950Y-102021349D01*
X100517985Y-102035787D01*
X100583998Y-102041563D01*
X100584000Y-102041563D01*
X100584002Y-102041563D01*
X100641762Y-102036509D01*
X100815050Y-102021349D01*
X101039079Y-101961320D01*
X101249282Y-101863301D01*
X101439269Y-101730270D01*
X101603270Y-101566269D01*
X101736301Y-101376282D01*
X101741618Y-101364878D01*
X101787790Y-101312440D01*
X101854984Y-101293288D01*
X101921865Y-101313504D01*
X101966381Y-101364878D01*
X101971699Y-101376282D01*
X102104730Y-101566269D01*
X102268731Y-101730270D01*
X102458718Y-101863301D01*
X102668921Y-101961320D01*
X102892950Y-102021349D01*
X103057985Y-102035787D01*
X103123998Y-102041563D01*
X103124000Y-102041563D01*
X103124002Y-102041563D01*
X103181762Y-102036509D01*
X103355050Y-102021349D01*
X103579079Y-101961320D01*
X103789282Y-101863301D01*
X103979269Y-101730270D01*
X104143270Y-101566269D01*
X104276301Y-101376282D01*
X104374320Y-101166079D01*
X104434349Y-100942050D01*
X104454563Y-100711000D01*
X104451248Y-100673114D01*
X104444053Y-100590873D01*
X104434349Y-100479950D01*
X104374320Y-100255921D01*
X104276301Y-100045719D01*
X104276299Y-100045716D01*
X104276298Y-100045714D01*
X104143273Y-99855735D01*
X104143268Y-99855729D01*
X103979269Y-99691730D01*
X103979263Y-99691726D01*
X103789282Y-99558699D01*
X103579079Y-99460680D01*
X103579076Y-99460679D01*
X103579074Y-99460678D01*
X103355051Y-99400651D01*
X103355044Y-99400650D01*
X103124002Y-99380437D01*
X103123998Y-99380437D01*
X102892955Y-99400650D01*
X102892948Y-99400651D01*
X102668917Y-99460681D01*
X102458718Y-99558699D01*
X102458714Y-99558701D01*
X102268735Y-99691726D01*
X102268729Y-99691731D01*
X102104731Y-99855729D01*
X102104726Y-99855735D01*
X101971701Y-100045714D01*
X101971698Y-100045720D01*
X101966381Y-100057123D01*
X101920207Y-100109562D01*
X101853013Y-100128712D01*
X101786133Y-100108495D01*
X101741619Y-100057123D01*
X101736301Y-100045720D01*
X101736298Y-100045714D01*
X101603273Y-99855735D01*
X101603268Y-99855729D01*
X101439269Y-99691730D01*
X101439263Y-99691726D01*
X101249282Y-99558699D01*
X101039079Y-99460680D01*
X101039076Y-99460679D01*
X101039074Y-99460678D01*
X100815051Y-99400651D01*
X100815044Y-99400650D01*
X100584002Y-99380437D01*
X100583998Y-99380437D01*
X100399264Y-99396599D01*
X100330764Y-99382832D01*
X100300776Y-99360752D01*
X99850819Y-98910795D01*
X99817334Y-98849472D01*
X99814500Y-98823114D01*
X99814500Y-90150861D01*
X99834185Y-90083822D01*
X99867375Y-90049287D01*
X99899139Y-90027047D01*
X100060047Y-89866139D01*
X100190568Y-89679734D01*
X100217618Y-89621724D01*
X100263790Y-89569285D01*
X100330983Y-89550133D01*
X100397865Y-89570348D01*
X100442382Y-89621725D01*
X100469429Y-89679728D01*
X100469432Y-89679734D01*
X100599954Y-89866141D01*
X100760858Y-90027045D01*
X100760861Y-90027047D01*
X100947266Y-90157568D01*
X101153504Y-90253739D01*
X101373308Y-90312635D01*
X101535230Y-90326801D01*
X101599998Y-90332468D01*
X101600000Y-90332468D01*
X101600002Y-90332468D01*
X101656807Y-90327498D01*
X101826692Y-90312635D01*
X102046496Y-90253739D01*
X102252734Y-90157568D01*
X102439139Y-90027047D01*
X102600047Y-89866139D01*
X102730568Y-89679734D01*
X102757618Y-89621724D01*
X102803790Y-89569285D01*
X102870983Y-89550133D01*
X102937865Y-89570348D01*
X102982382Y-89621725D01*
X103009429Y-89679728D01*
X103009432Y-89679734D01*
X103139954Y-89866141D01*
X103300858Y-90027045D01*
X103300861Y-90027047D01*
X103487266Y-90157568D01*
X103693504Y-90253739D01*
X103913308Y-90312635D01*
X104075230Y-90326801D01*
X104139998Y-90332468D01*
X104140000Y-90332468D01*
X104140002Y-90332468D01*
X104196807Y-90327498D01*
X104366692Y-90312635D01*
X104586496Y-90253739D01*
X104792734Y-90157568D01*
X104979139Y-90027047D01*
X105140047Y-89866139D01*
X105270568Y-89679734D01*
X105297618Y-89621724D01*
X105343790Y-89569285D01*
X105410983Y-89550133D01*
X105477865Y-89570348D01*
X105522382Y-89621725D01*
X105549429Y-89679728D01*
X105549432Y-89679734D01*
X105679954Y-89866141D01*
X105840858Y-90027045D01*
X105840861Y-90027047D01*
X106027266Y-90157568D01*
X106233504Y-90253739D01*
X106453308Y-90312635D01*
X106615230Y-90326801D01*
X106679998Y-90332468D01*
X106680000Y-90332468D01*
X106680002Y-90332468D01*
X106736807Y-90327498D01*
X106906692Y-90312635D01*
X107126496Y-90253739D01*
X107332734Y-90157568D01*
X107519139Y-90027047D01*
X107680047Y-89866139D01*
X107810568Y-89679734D01*
X107837618Y-89621724D01*
X107883790Y-89569285D01*
X107950983Y-89550133D01*
X108017865Y-89570348D01*
X108062382Y-89621725D01*
X108089429Y-89679728D01*
X108089432Y-89679734D01*
X108219954Y-89866141D01*
X108380858Y-90027045D01*
X108380861Y-90027047D01*
X108567266Y-90157568D01*
X108773504Y-90253739D01*
X108993308Y-90312635D01*
X109155230Y-90326801D01*
X109219998Y-90332468D01*
X109220000Y-90332468D01*
X109220002Y-90332468D01*
X109276807Y-90327498D01*
X109446692Y-90312635D01*
X109666496Y-90253739D01*
X109872734Y-90157568D01*
X110059139Y-90027047D01*
X110220047Y-89866139D01*
X110308430Y-89739913D01*
X110363004Y-89696290D01*
X110432502Y-89689096D01*
X110494857Y-89720618D01*
X110513812Y-89743217D01*
X110623699Y-89911413D01*
X110784767Y-90086378D01*
X110784772Y-90086383D01*
X110972437Y-90232449D01*
X110972442Y-90232452D01*
X111181585Y-90345634D01*
X111181599Y-90345640D01*
X111406518Y-90422856D01*
X111510000Y-90440124D01*
X111510000Y-89342686D01*
X111521955Y-89354641D01*
X111634852Y-89412165D01*
X111728519Y-89427000D01*
X111791481Y-89427000D01*
X111885148Y-89412165D01*
X111998045Y-89354641D01*
X112010000Y-89342686D01*
X112010000Y-90440123D01*
X112113481Y-90422856D01*
X112338400Y-90345640D01*
X112338414Y-90345634D01*
X112547557Y-90232452D01*
X112547562Y-90232449D01*
X112735227Y-90086383D01*
X112735232Y-90086378D01*
X112896300Y-89911413D01*
X113006187Y-89743217D01*
X113059333Y-89697860D01*
X113128564Y-89688436D01*
X113191900Y-89717938D01*
X113211570Y-89739914D01*
X113213883Y-89743217D01*
X113299954Y-89866141D01*
X113460856Y-90027043D01*
X113460859Y-90027045D01*
X113460861Y-90027047D01*
X113492623Y-90049286D01*
X113536247Y-90103860D01*
X113545500Y-90150861D01*
X113545500Y-93194500D01*
X113525815Y-93261539D01*
X113473011Y-93307294D01*
X113421500Y-93318500D01*
X107876129Y-93318500D01*
X107876123Y-93318501D01*
X107816516Y-93324908D01*
X107681671Y-93375202D01*
X107681664Y-93375206D01*
X107566455Y-93461452D01*
X107566452Y-93461455D01*
X107480206Y-93576664D01*
X107480202Y-93576671D01*
X107429908Y-93711517D01*
X107423501Y-93771116D01*
X107423501Y-93771123D01*
X107423500Y-93771135D01*
X107423500Y-95966870D01*
X107423501Y-95966876D01*
X107429908Y-96026483D01*
X107480202Y-96161328D01*
X107480206Y-96161335D01*
X107566452Y-96276544D01*
X107566455Y-96276547D01*
X107681664Y-96362793D01*
X107681671Y-96362797D01*
X107816517Y-96413091D01*
X107816516Y-96413091D01*
X107823444Y-96413835D01*
X107876127Y-96419500D01*
X109419500Y-96419499D01*
X109486539Y-96439184D01*
X109532294Y-96491987D01*
X109543500Y-96543499D01*
X109543500Y-98455758D01*
X109523815Y-98522797D01*
X109493812Y-98555023D01*
X109476860Y-98567714D01*
X109430456Y-98602452D01*
X109430451Y-98602457D01*
X109344206Y-98717664D01*
X109344202Y-98717671D01*
X109293908Y-98852517D01*
X109287643Y-98910795D01*
X109287501Y-98912123D01*
X109287500Y-98912135D01*
X109287500Y-100477870D01*
X109287501Y-100477876D01*
X109293908Y-100537483D01*
X109344202Y-100672328D01*
X109344206Y-100672335D01*
X109430452Y-100787544D01*
X109430455Y-100787547D01*
X109545664Y-100873793D01*
X109545671Y-100873797D01*
X109680517Y-100924091D01*
X109680516Y-100924091D01*
X109687444Y-100924835D01*
X109740127Y-100930500D01*
X110855872Y-100930499D01*
X110915483Y-100924091D01*
X110923028Y-100922308D01*
X110923744Y-100925341D01*
X110979057Y-100921375D01*
X111015842Y-100935814D01*
X111153808Y-101017406D01*
X111153811Y-101017407D01*
X111307870Y-101062166D01*
X111307876Y-101062167D01*
X111343870Y-101065000D01*
X111668000Y-101065000D01*
X111668000Y-99945000D01*
X112168000Y-99945000D01*
X112168000Y-101065000D01*
X112492130Y-101065000D01*
X112528123Y-101062167D01*
X112528129Y-101062166D01*
X112682188Y-101017407D01*
X112682191Y-101017406D01*
X112820285Y-100935738D01*
X112820294Y-100935731D01*
X112933731Y-100822294D01*
X112933738Y-100822285D01*
X113015406Y-100684191D01*
X113015407Y-100684188D01*
X113060166Y-100530129D01*
X113060167Y-100530123D01*
X113063000Y-100494130D01*
X113063000Y-99945000D01*
X118393000Y-99945000D01*
X118393000Y-100494130D01*
X118395832Y-100530123D01*
X118395833Y-100530129D01*
X118440592Y-100684188D01*
X118440593Y-100684191D01*
X118522261Y-100822285D01*
X118522268Y-100822294D01*
X118635705Y-100935731D01*
X118635714Y-100935738D01*
X118773808Y-101017406D01*
X118773811Y-101017407D01*
X118927870Y-101062166D01*
X118927876Y-101062167D01*
X118963870Y-101065000D01*
X119288000Y-101065000D01*
X119288000Y-99945000D01*
X118393000Y-99945000D01*
X113063000Y-99945000D01*
X112168000Y-99945000D01*
X111668000Y-99945000D01*
X111668000Y-98325000D01*
X112168000Y-98325000D01*
X112168000Y-99445000D01*
X113063000Y-99445000D01*
X118393000Y-99445000D01*
X119288000Y-99445000D01*
X119288000Y-98325000D01*
X118963870Y-98325000D01*
X118927876Y-98327832D01*
X118927870Y-98327833D01*
X118773811Y-98372592D01*
X118773808Y-98372593D01*
X118635714Y-98454261D01*
X118635705Y-98454268D01*
X118522268Y-98567705D01*
X118522261Y-98567714D01*
X118440593Y-98705808D01*
X118440592Y-98705811D01*
X118395833Y-98859870D01*
X118395832Y-98859876D01*
X118393000Y-98895870D01*
X118393000Y-99445000D01*
X113063000Y-99445000D01*
X113063000Y-98895870D01*
X113060167Y-98859876D01*
X113060166Y-98859870D01*
X113015407Y-98705811D01*
X113015406Y-98705808D01*
X112933738Y-98567714D01*
X112933731Y-98567705D01*
X112820294Y-98454268D01*
X112820285Y-98454261D01*
X112682191Y-98372593D01*
X112682188Y-98372592D01*
X112528129Y-98327833D01*
X112528123Y-98327832D01*
X112492130Y-98325000D01*
X112168000Y-98325000D01*
X111668000Y-98325000D01*
X111343870Y-98325000D01*
X111307876Y-98327832D01*
X111211094Y-98355950D01*
X111141225Y-98355750D01*
X111082555Y-98317807D01*
X111053712Y-98254169D01*
X111052500Y-98236873D01*
X111052500Y-96543499D01*
X111072185Y-96476460D01*
X111124989Y-96430705D01*
X111176500Y-96419499D01*
X113571871Y-96419499D01*
X113571872Y-96419499D01*
X113631483Y-96413091D01*
X113766331Y-96362796D01*
X113881546Y-96276546D01*
X113967796Y-96161331D01*
X114018091Y-96026483D01*
X114024500Y-95966873D01*
X114024499Y-95502067D01*
X114044183Y-95435029D01*
X114058301Y-95416979D01*
X114079271Y-95394752D01*
X114788264Y-94685758D01*
X114801883Y-94673988D01*
X114821294Y-94659539D01*
X114855075Y-94619279D01*
X114858709Y-94615313D01*
X114864583Y-94609441D01*
X114885027Y-94583584D01*
X114934667Y-94524427D01*
X114934669Y-94524422D01*
X114938637Y-94518390D01*
X114938683Y-94518420D01*
X114942795Y-94511965D01*
X114942748Y-94511936D01*
X114946532Y-94505799D01*
X114946539Y-94505791D01*
X114979172Y-94435808D01*
X115013824Y-94366811D01*
X115013826Y-94366799D01*
X115016293Y-94360024D01*
X115016346Y-94360043D01*
X115018858Y-94352815D01*
X115018807Y-94352798D01*
X115021077Y-94345945D01*
X115021077Y-94345943D01*
X115021079Y-94345940D01*
X115036695Y-94270310D01*
X115054500Y-94195188D01*
X115054500Y-94195183D01*
X115055338Y-94188015D01*
X115055392Y-94188021D01*
X115056170Y-94180405D01*
X115056117Y-94180401D01*
X115056746Y-94173210D01*
X115054500Y-94096018D01*
X115054500Y-90150861D01*
X115074185Y-90083822D01*
X115107375Y-90049287D01*
X115139139Y-90027047D01*
X115300047Y-89866139D01*
X115430568Y-89679734D01*
X115457618Y-89621724D01*
X115503790Y-89569285D01*
X115570983Y-89550133D01*
X115637865Y-89570348D01*
X115682382Y-89621725D01*
X115709429Y-89679728D01*
X115709432Y-89679734D01*
X115839954Y-89866141D01*
X116000856Y-90027043D01*
X116000859Y-90027045D01*
X116000861Y-90027047D01*
X116032623Y-90049286D01*
X116076247Y-90103860D01*
X116085500Y-90150861D01*
X116085500Y-94043000D01*
X116084191Y-94060969D01*
X116080684Y-94084908D01*
X116085264Y-94137241D01*
X116085500Y-94142648D01*
X116085500Y-94150946D01*
X116089325Y-94183674D01*
X116096056Y-94260610D01*
X116097516Y-94267677D01*
X116097464Y-94267687D01*
X116099123Y-94275167D01*
X116099174Y-94275155D01*
X116100839Y-94282180D01*
X116100839Y-94282182D01*
X116100840Y-94282184D01*
X116113533Y-94317059D01*
X116127247Y-94354740D01*
X116151535Y-94428034D01*
X116154586Y-94434575D01*
X116154536Y-94434598D01*
X116157876Y-94441497D01*
X116157925Y-94441473D01*
X116161165Y-94447925D01*
X116203599Y-94512444D01*
X116244131Y-94578156D01*
X116248611Y-94583822D01*
X116248569Y-94583855D01*
X116253401Y-94589786D01*
X116253443Y-94589752D01*
X116258081Y-94595280D01*
X116258085Y-94595285D01*
X116273090Y-94609441D01*
X116314247Y-94648272D01*
X116887181Y-95221205D01*
X116920666Y-95282528D01*
X116923500Y-95308886D01*
X116923500Y-95966870D01*
X116923501Y-95966876D01*
X116929908Y-96026483D01*
X116980202Y-96161328D01*
X116980206Y-96161335D01*
X117066452Y-96276544D01*
X117066455Y-96276547D01*
X117181664Y-96362793D01*
X117181671Y-96362797D01*
X117316517Y-96413091D01*
X117316516Y-96413091D01*
X117323444Y-96413835D01*
X117376127Y-96419500D01*
X120279500Y-96419499D01*
X120346539Y-96439184D01*
X120392294Y-96491987D01*
X120403500Y-96543499D01*
X120403500Y-98236873D01*
X120383815Y-98303912D01*
X120331011Y-98349667D01*
X120261853Y-98359611D01*
X120244906Y-98355950D01*
X120148123Y-98327832D01*
X120112130Y-98325000D01*
X119788000Y-98325000D01*
X119788000Y-101065000D01*
X120112130Y-101065000D01*
X120148123Y-101062167D01*
X120148129Y-101062166D01*
X120302187Y-101017408D01*
X120440156Y-100935813D01*
X120507880Y-100918630D01*
X120532664Y-100923586D01*
X120532967Y-100922307D01*
X120540515Y-100924090D01*
X120540517Y-100924091D01*
X120600127Y-100930500D01*
X121715872Y-100930499D01*
X121775483Y-100924091D01*
X121910331Y-100873796D01*
X122025546Y-100787546D01*
X122111796Y-100672331D01*
X122162091Y-100537483D01*
X122168500Y-100477873D01*
X122168499Y-98912128D01*
X122162091Y-98852517D01*
X122160955Y-98849472D01*
X122111797Y-98717671D01*
X122111793Y-98717664D01*
X122025548Y-98602457D01*
X122025546Y-98602454D01*
X121962188Y-98555023D01*
X121920318Y-98499091D01*
X121912500Y-98455758D01*
X121912500Y-96543499D01*
X121932185Y-96476460D01*
X121984989Y-96430705D01*
X122036500Y-96419499D01*
X123071871Y-96419499D01*
X123071872Y-96419499D01*
X123131483Y-96413091D01*
X123266331Y-96362796D01*
X123381546Y-96276546D01*
X123467796Y-96161331D01*
X123518091Y-96026483D01*
X123524500Y-95966873D01*
X123524499Y-93771128D01*
X123518091Y-93711517D01*
X123495510Y-93650975D01*
X123467797Y-93576671D01*
X123467793Y-93576664D01*
X123381547Y-93461455D01*
X123381544Y-93461452D01*
X123266335Y-93375206D01*
X123266328Y-93375202D01*
X123131482Y-93324908D01*
X123131483Y-93324908D01*
X123071883Y-93318501D01*
X123071881Y-93318500D01*
X123071873Y-93318500D01*
X123071865Y-93318500D01*
X117718500Y-93318500D01*
X117651461Y-93298815D01*
X117605706Y-93246011D01*
X117594500Y-93194500D01*
X117594500Y-90150861D01*
X117614185Y-90083822D01*
X117647375Y-90049287D01*
X117679139Y-90027047D01*
X117840047Y-89866139D01*
X117970568Y-89679734D01*
X117997618Y-89621724D01*
X118043790Y-89569285D01*
X118110983Y-89550133D01*
X118177865Y-89570348D01*
X118222382Y-89621725D01*
X118249429Y-89679728D01*
X118249432Y-89679734D01*
X118379954Y-89866141D01*
X118540858Y-90027045D01*
X118540861Y-90027047D01*
X118727266Y-90157568D01*
X118933504Y-90253739D01*
X119153308Y-90312635D01*
X119315230Y-90326801D01*
X119379998Y-90332468D01*
X119380000Y-90332468D01*
X119380002Y-90332468D01*
X119436807Y-90327498D01*
X119606692Y-90312635D01*
X119826496Y-90253739D01*
X120032734Y-90157568D01*
X120219139Y-90027047D01*
X120380047Y-89866139D01*
X120510568Y-89679734D01*
X120537618Y-89621724D01*
X120583790Y-89569285D01*
X120650983Y-89550133D01*
X120717865Y-89570348D01*
X120762382Y-89621725D01*
X120789429Y-89679728D01*
X120789432Y-89679734D01*
X120919954Y-89866141D01*
X121080858Y-90027045D01*
X121080861Y-90027047D01*
X121267266Y-90157568D01*
X121473504Y-90253739D01*
X121693308Y-90312635D01*
X121855230Y-90326801D01*
X121919998Y-90332468D01*
X121920000Y-90332468D01*
X121920002Y-90332468D01*
X121976807Y-90327498D01*
X122146692Y-90312635D01*
X122366496Y-90253739D01*
X122572734Y-90157568D01*
X122759139Y-90027047D01*
X122920047Y-89866139D01*
X123050568Y-89679734D01*
X123077618Y-89621724D01*
X123123790Y-89569285D01*
X123190983Y-89550133D01*
X123257865Y-89570348D01*
X123302382Y-89621725D01*
X123329429Y-89679728D01*
X123329432Y-89679734D01*
X123459954Y-89866141D01*
X123620858Y-90027045D01*
X123620861Y-90027047D01*
X123807266Y-90157568D01*
X124013504Y-90253739D01*
X124233308Y-90312635D01*
X124395230Y-90326801D01*
X124459998Y-90332468D01*
X124460000Y-90332468D01*
X124460002Y-90332468D01*
X124516807Y-90327498D01*
X124686692Y-90312635D01*
X124906496Y-90253739D01*
X125112734Y-90157568D01*
X125299139Y-90027047D01*
X125460047Y-89866139D01*
X125590568Y-89679734D01*
X125617618Y-89621724D01*
X125663790Y-89569285D01*
X125730983Y-89550133D01*
X125797865Y-89570348D01*
X125842382Y-89621725D01*
X125869429Y-89679728D01*
X125869432Y-89679734D01*
X125999954Y-89866141D01*
X126160858Y-90027045D01*
X126160861Y-90027047D01*
X126347266Y-90157568D01*
X126553504Y-90253739D01*
X126773308Y-90312635D01*
X126935230Y-90326801D01*
X126999998Y-90332468D01*
X127000000Y-90332468D01*
X127000002Y-90332468D01*
X127056807Y-90327498D01*
X127226692Y-90312635D01*
X127446496Y-90253739D01*
X127652734Y-90157568D01*
X127839139Y-90027047D01*
X128000047Y-89866139D01*
X128130568Y-89679734D01*
X128226739Y-89473496D01*
X128285635Y-89253692D01*
X128305468Y-89027000D01*
X128285635Y-88800308D01*
X128226739Y-88580504D01*
X128130568Y-88374266D01*
X128026966Y-88226306D01*
X128000045Y-88187858D01*
X127839141Y-88026954D01*
X127652734Y-87896432D01*
X127652732Y-87896431D01*
X127446497Y-87800261D01*
X127446488Y-87800258D01*
X127226697Y-87741366D01*
X127226693Y-87741365D01*
X127226692Y-87741365D01*
X127226691Y-87741364D01*
X127226686Y-87741364D01*
X127000002Y-87721532D01*
X126999998Y-87721532D01*
X126773313Y-87741364D01*
X126773302Y-87741366D01*
X126553511Y-87800258D01*
X126553502Y-87800261D01*
X126347267Y-87896431D01*
X126347265Y-87896432D01*
X126160858Y-88026954D01*
X125999954Y-88187858D01*
X125869432Y-88374265D01*
X125869431Y-88374267D01*
X125842382Y-88432275D01*
X125796209Y-88484714D01*
X125729016Y-88503866D01*
X125662135Y-88483650D01*
X125617618Y-88432275D01*
X125590568Y-88374267D01*
X125590567Y-88374265D01*
X125578559Y-88357116D01*
X125486966Y-88226306D01*
X125460045Y-88187858D01*
X125299141Y-88026954D01*
X125112734Y-87896432D01*
X125112732Y-87896431D01*
X124906497Y-87800261D01*
X124906488Y-87800258D01*
X124686697Y-87741366D01*
X124686693Y-87741365D01*
X124686692Y-87741365D01*
X124686691Y-87741364D01*
X124686686Y-87741364D01*
X124460002Y-87721532D01*
X124459998Y-87721532D01*
X124233313Y-87741364D01*
X124233302Y-87741366D01*
X124013511Y-87800258D01*
X124013502Y-87800261D01*
X123807267Y-87896431D01*
X123807265Y-87896432D01*
X123620858Y-88026954D01*
X123459954Y-88187858D01*
X123329432Y-88374265D01*
X123329431Y-88374267D01*
X123302382Y-88432275D01*
X123256209Y-88484714D01*
X123189016Y-88503866D01*
X123122135Y-88483650D01*
X123077618Y-88432275D01*
X123050568Y-88374267D01*
X123050567Y-88374265D01*
X123038559Y-88357116D01*
X122946966Y-88226306D01*
X122920045Y-88187858D01*
X122759141Y-88026954D01*
X122572734Y-87896432D01*
X122572732Y-87896431D01*
X122366497Y-87800261D01*
X122366488Y-87800258D01*
X122146697Y-87741366D01*
X122146693Y-87741365D01*
X122146692Y-87741365D01*
X122146691Y-87741364D01*
X122146686Y-87741364D01*
X121920002Y-87721532D01*
X121919998Y-87721532D01*
X121693313Y-87741364D01*
X121693302Y-87741366D01*
X121473511Y-87800258D01*
X121473502Y-87800261D01*
X121267267Y-87896431D01*
X121267265Y-87896432D01*
X121080858Y-88026954D01*
X120919954Y-88187858D01*
X120789432Y-88374265D01*
X120789431Y-88374267D01*
X120762382Y-88432275D01*
X120716209Y-88484714D01*
X120649016Y-88503866D01*
X120582135Y-88483650D01*
X120537618Y-88432275D01*
X120510568Y-88374267D01*
X120510567Y-88374265D01*
X120498559Y-88357116D01*
X120406966Y-88226306D01*
X120380045Y-88187858D01*
X120219141Y-88026954D01*
X120032734Y-87896432D01*
X120032732Y-87896431D01*
X119826497Y-87800261D01*
X119826488Y-87800258D01*
X119606697Y-87741366D01*
X119606693Y-87741365D01*
X119606692Y-87741365D01*
X119606691Y-87741364D01*
X119606686Y-87741364D01*
X119380002Y-87721532D01*
X119379998Y-87721532D01*
X119153313Y-87741364D01*
X119153302Y-87741366D01*
X118933511Y-87800258D01*
X118933502Y-87800261D01*
X118727267Y-87896431D01*
X118727265Y-87896432D01*
X118540858Y-88026954D01*
X118379954Y-88187858D01*
X118249432Y-88374265D01*
X118249431Y-88374267D01*
X118222382Y-88432275D01*
X118176209Y-88484714D01*
X118109016Y-88503866D01*
X118042135Y-88483650D01*
X117997618Y-88432275D01*
X117970568Y-88374267D01*
X117970567Y-88374265D01*
X117958559Y-88357116D01*
X117866966Y-88226306D01*
X117840045Y-88187858D01*
X117679141Y-88026954D01*
X117492734Y-87896432D01*
X117492732Y-87896431D01*
X117286497Y-87800261D01*
X117286488Y-87800258D01*
X117066697Y-87741366D01*
X117066693Y-87741365D01*
X117066692Y-87741365D01*
X117066691Y-87741364D01*
X117066686Y-87741364D01*
X116840002Y-87721532D01*
X116839998Y-87721532D01*
X116613313Y-87741364D01*
X116613302Y-87741366D01*
X116393511Y-87800258D01*
X116393502Y-87800261D01*
X116187267Y-87896431D01*
X116187265Y-87896432D01*
X116000858Y-88026954D01*
X115839954Y-88187858D01*
X115709432Y-88374265D01*
X115709431Y-88374267D01*
X115682382Y-88432275D01*
X115636209Y-88484714D01*
X115569016Y-88503866D01*
X115502135Y-88483650D01*
X115457618Y-88432275D01*
X115430568Y-88374267D01*
X115430567Y-88374265D01*
X115418559Y-88357116D01*
X115326966Y-88226306D01*
X115300045Y-88187858D01*
X115139141Y-88026954D01*
X114952734Y-87896432D01*
X114952732Y-87896431D01*
X114746497Y-87800261D01*
X114746488Y-87800258D01*
X114526697Y-87741366D01*
X114526693Y-87741365D01*
X114526692Y-87741365D01*
X114526691Y-87741364D01*
X114526686Y-87741364D01*
X114300002Y-87721532D01*
X114299998Y-87721532D01*
X114073313Y-87741364D01*
X114073302Y-87741366D01*
X113853511Y-87800258D01*
X113853502Y-87800261D01*
X113647267Y-87896431D01*
X113647265Y-87896432D01*
X113460858Y-88026954D01*
X113299954Y-88187858D01*
X113211571Y-88314084D01*
X113156994Y-88357709D01*
X113087496Y-88364903D01*
X113025141Y-88333380D01*
X113006187Y-88310782D01*
X112896300Y-88142586D01*
X112735232Y-87967621D01*
X112735227Y-87967616D01*
X112547562Y-87821550D01*
X112547557Y-87821547D01*
X112338414Y-87708365D01*
X112338400Y-87708359D01*
X112113475Y-87631142D01*
X112010000Y-87613875D01*
X112010000Y-88711314D01*
X111998045Y-88699359D01*
X111885148Y-88641835D01*
X111791481Y-88627000D01*
X111728519Y-88627000D01*
X111634852Y-88641835D01*
X111521955Y-88699359D01*
X111510000Y-88711314D01*
X111510000Y-87613875D01*
X111509999Y-87613875D01*
X111406524Y-87631142D01*
X111181599Y-87708359D01*
X111181585Y-87708365D01*
X110972442Y-87821547D01*
X110972437Y-87821550D01*
X110784772Y-87967616D01*
X110784767Y-87967621D01*
X110623702Y-88142584D01*
X110513812Y-88310783D01*
X110460665Y-88356139D01*
X110391434Y-88365563D01*
X110328098Y-88336061D01*
X110308428Y-88314084D01*
X110296829Y-88297519D01*
X110220047Y-88187861D01*
X110220045Y-88187858D01*
X110059141Y-88026954D01*
X109872734Y-87896432D01*
X109872732Y-87896431D01*
X109666497Y-87800261D01*
X109666488Y-87800258D01*
X109446697Y-87741366D01*
X109446693Y-87741365D01*
X109446692Y-87741365D01*
X109446691Y-87741364D01*
X109446686Y-87741364D01*
X109220002Y-87721532D01*
X109219998Y-87721532D01*
X108993313Y-87741364D01*
X108993302Y-87741366D01*
X108773511Y-87800258D01*
X108773502Y-87800261D01*
X108567267Y-87896431D01*
X108567265Y-87896432D01*
X108380858Y-88026954D01*
X108219954Y-88187858D01*
X108089432Y-88374265D01*
X108089431Y-88374267D01*
X108062382Y-88432275D01*
X108016209Y-88484714D01*
X107949016Y-88503866D01*
X107882135Y-88483650D01*
X107837618Y-88432275D01*
X107810568Y-88374267D01*
X107810567Y-88374265D01*
X107798559Y-88357116D01*
X107706966Y-88226306D01*
X107680045Y-88187858D01*
X107519141Y-88026954D01*
X107332734Y-87896432D01*
X107332732Y-87896431D01*
X107126497Y-87800261D01*
X107126488Y-87800258D01*
X106906697Y-87741366D01*
X106906693Y-87741365D01*
X106906692Y-87741365D01*
X106906691Y-87741364D01*
X106906686Y-87741364D01*
X106680002Y-87721532D01*
X106679998Y-87721532D01*
X106453313Y-87741364D01*
X106453302Y-87741366D01*
X106233511Y-87800258D01*
X106233502Y-87800261D01*
X106027267Y-87896431D01*
X106027265Y-87896432D01*
X105840858Y-88026954D01*
X105679954Y-88187858D01*
X105549432Y-88374265D01*
X105549431Y-88374267D01*
X105522382Y-88432275D01*
X105476209Y-88484714D01*
X105409016Y-88503866D01*
X105342135Y-88483650D01*
X105297618Y-88432275D01*
X105270568Y-88374267D01*
X105270567Y-88374265D01*
X105258559Y-88357116D01*
X105166966Y-88226306D01*
X105140045Y-88187858D01*
X104979141Y-88026954D01*
X104792734Y-87896432D01*
X104792732Y-87896431D01*
X104586497Y-87800261D01*
X104586488Y-87800258D01*
X104366697Y-87741366D01*
X104366693Y-87741365D01*
X104366692Y-87741365D01*
X104366691Y-87741364D01*
X104366686Y-87741364D01*
X104140002Y-87721532D01*
X104139998Y-87721532D01*
X103913313Y-87741364D01*
X103913302Y-87741366D01*
X103693511Y-87800258D01*
X103693502Y-87800261D01*
X103487267Y-87896431D01*
X103487265Y-87896432D01*
X103300858Y-88026954D01*
X103139954Y-88187858D01*
X103009432Y-88374265D01*
X103009431Y-88374267D01*
X102982382Y-88432275D01*
X102936209Y-88484714D01*
X102869016Y-88503866D01*
X102802135Y-88483650D01*
X102757618Y-88432275D01*
X102730568Y-88374267D01*
X102730567Y-88374265D01*
X102718559Y-88357116D01*
X102626966Y-88226306D01*
X102600045Y-88187858D01*
X102439141Y-88026954D01*
X102252734Y-87896432D01*
X102252732Y-87896431D01*
X102046497Y-87800261D01*
X102046488Y-87800258D01*
X101826697Y-87741366D01*
X101826693Y-87741365D01*
X101826692Y-87741365D01*
X101826691Y-87741364D01*
X101826686Y-87741364D01*
X101600002Y-87721532D01*
X101599998Y-87721532D01*
X101373313Y-87741364D01*
X101373302Y-87741366D01*
X101153511Y-87800258D01*
X101153502Y-87800261D01*
X100947267Y-87896431D01*
X100947265Y-87896432D01*
X100760858Y-88026954D01*
X100599954Y-88187858D01*
X100469432Y-88374265D01*
X100469431Y-88374267D01*
X100442382Y-88432275D01*
X100396209Y-88484714D01*
X100329016Y-88503866D01*
X100262135Y-88483650D01*
X100217618Y-88432275D01*
X100190568Y-88374267D01*
X100190567Y-88374265D01*
X100178559Y-88357116D01*
X100086966Y-88226306D01*
X100060045Y-88187858D01*
X99899141Y-88026954D01*
X99712734Y-87896432D01*
X99712732Y-87896431D01*
X99506497Y-87800261D01*
X99506488Y-87800258D01*
X99286697Y-87741366D01*
X99286693Y-87741365D01*
X99286692Y-87741365D01*
X99286691Y-87741364D01*
X99286686Y-87741364D01*
X99060002Y-87721532D01*
X99059998Y-87721532D01*
X98833313Y-87741364D01*
X98833302Y-87741366D01*
X98613511Y-87800258D01*
X98613502Y-87800261D01*
X98407267Y-87896431D01*
X98407265Y-87896432D01*
X98220858Y-88026954D01*
X98059954Y-88187858D01*
X97929432Y-88374265D01*
X97929431Y-88374267D01*
X97902382Y-88432275D01*
X97856209Y-88484714D01*
X97789016Y-88503866D01*
X97722135Y-88483650D01*
X97677618Y-88432275D01*
X97650568Y-88374267D01*
X97650567Y-88374265D01*
X97638559Y-88357116D01*
X97546966Y-88226306D01*
X97520045Y-88187858D01*
X97359141Y-88026954D01*
X97172734Y-87896432D01*
X97172732Y-87896431D01*
X96966497Y-87800261D01*
X96966488Y-87800258D01*
X96746697Y-87741366D01*
X96746687Y-87741364D01*
X96630872Y-87731232D01*
X96565804Y-87705779D01*
X96524825Y-87649189D01*
X96520947Y-87579427D01*
X96553997Y-87520025D01*
X97990005Y-86084019D01*
X98051328Y-86050534D01*
X98077686Y-86047700D01*
X125308109Y-86047700D01*
X125375148Y-86067385D01*
X125393204Y-86081507D01*
X125407447Y-86094945D01*
X125906761Y-86594258D01*
X125918542Y-86607890D01*
X125932988Y-86627294D01*
X125973242Y-86661071D01*
X125977214Y-86664711D01*
X125983086Y-86670583D01*
X126008942Y-86691027D01*
X126068099Y-86740667D01*
X126074136Y-86744637D01*
X126074106Y-86744682D01*
X126080565Y-86748796D01*
X126080594Y-86748750D01*
X126086733Y-86752537D01*
X126086736Y-86752539D01*
X126156718Y-86785172D01*
X126225716Y-86819824D01*
X126225721Y-86819825D01*
X126232506Y-86822295D01*
X126232487Y-86822347D01*
X126239715Y-86824859D01*
X126239733Y-86824808D01*
X126246584Y-86827077D01*
X126246587Y-86827079D01*
X126322204Y-86842692D01*
X126397339Y-86860500D01*
X126397348Y-86860500D01*
X126404512Y-86861338D01*
X126404505Y-86861391D01*
X126412122Y-86862169D01*
X126412127Y-86862116D01*
X126419316Y-86862745D01*
X126419319Y-86862744D01*
X126419320Y-86862745D01*
X126496474Y-86860500D01*
X132397000Y-86860500D01*
X132414969Y-86861809D01*
X132420350Y-86862596D01*
X132438906Y-86865315D01*
X132491248Y-86860735D01*
X132496649Y-86860500D01*
X132504934Y-86860500D01*
X132504941Y-86860500D01*
X132537674Y-86856674D01*
X132614612Y-86849943D01*
X132614615Y-86849941D01*
X132621693Y-86848481D01*
X132621704Y-86848535D01*
X132629163Y-86846881D01*
X132629151Y-86846827D01*
X132636178Y-86845160D01*
X132636184Y-86845160D01*
X132692100Y-86824808D01*
X132708740Y-86818752D01*
X132782034Y-86794465D01*
X132788581Y-86791412D01*
X132788604Y-86791462D01*
X132795498Y-86788125D01*
X132795473Y-86788075D01*
X132801916Y-86784838D01*
X132801924Y-86784836D01*
X132851030Y-86752538D01*
X132866443Y-86742401D01*
X132896051Y-86724138D01*
X132932154Y-86701870D01*
X132932159Y-86701864D01*
X132937823Y-86697387D01*
X132937857Y-86697430D01*
X132943782Y-86692604D01*
X132943747Y-86692562D01*
X132949283Y-86687916D01*
X132949282Y-86687916D01*
X132949285Y-86687915D01*
X133002271Y-86631752D01*
X134026715Y-85607307D01*
X134088036Y-85573824D01*
X134157728Y-85578808D01*
X134213661Y-85620680D01*
X134238078Y-85686144D01*
X134238392Y-85695760D01*
X134112771Y-105920818D01*
X134092670Y-105987734D01*
X134039583Y-106033160D01*
X133987819Y-106044044D01*
X117602000Y-105917999D01*
X117602000Y-110119500D01*
X117582315Y-110186539D01*
X117529511Y-110232294D01*
X117478000Y-110243500D01*
X114055386Y-110243500D01*
X113988347Y-110223815D01*
X113942592Y-110171011D01*
X113939204Y-110162833D01*
X113910797Y-110086671D01*
X113910793Y-110086664D01*
X113824547Y-109971455D01*
X113824544Y-109971452D01*
X113709335Y-109885206D01*
X113709328Y-109885202D01*
X113574482Y-109834908D01*
X113574483Y-109834908D01*
X113514883Y-109828501D01*
X113514881Y-109828500D01*
X113514873Y-109828500D01*
X113514864Y-109828500D01*
X111619129Y-109828500D01*
X111619123Y-109828501D01*
X111559516Y-109834908D01*
X111424671Y-109885202D01*
X111424664Y-109885206D01*
X111309455Y-109971452D01*
X111309452Y-109971455D01*
X111223206Y-110086664D01*
X111223202Y-110086671D01*
X111172908Y-110221517D01*
X111166778Y-110278541D01*
X111166501Y-110281123D01*
X111166500Y-110281135D01*
X111166500Y-112476870D01*
X111166501Y-112476876D01*
X111172908Y-112536483D01*
X111223202Y-112671328D01*
X111223206Y-112671335D01*
X111309452Y-112786544D01*
X111309455Y-112786547D01*
X111424664Y-112872793D01*
X111424671Y-112872797D01*
X111559517Y-112923091D01*
X111559516Y-112923091D01*
X111566444Y-112923835D01*
X111619127Y-112929500D01*
X113514872Y-112929499D01*
X113574483Y-112923091D01*
X113709331Y-112872796D01*
X113824546Y-112786546D01*
X113910796Y-112671331D01*
X113915630Y-112658372D01*
X113939203Y-112595168D01*
X113981073Y-112539234D01*
X114046537Y-112514816D01*
X114055385Y-112514500D01*
X115334573Y-112514500D01*
X117478000Y-112514500D01*
X117545039Y-112534185D01*
X117590794Y-112586989D01*
X117602000Y-112638500D01*
X117602000Y-122482500D01*
X117582315Y-122549539D01*
X117529511Y-122595294D01*
X117478000Y-122606500D01*
X103281000Y-122606500D01*
X69846695Y-122428657D01*
X69779762Y-122408616D01*
X69734288Y-122355570D01*
X69723356Y-122304305D01*
X69732540Y-119122000D01*
X90431000Y-119122000D01*
X90431000Y-119936130D01*
X90433832Y-119972123D01*
X90433833Y-119972129D01*
X90478592Y-120126188D01*
X90478593Y-120126191D01*
X90560261Y-120264285D01*
X90560268Y-120264294D01*
X90673705Y-120377731D01*
X90673714Y-120377738D01*
X90811808Y-120459406D01*
X90811811Y-120459407D01*
X90965870Y-120504166D01*
X90965876Y-120504167D01*
X91001870Y-120507000D01*
X91816000Y-120507000D01*
X91816000Y-119122000D01*
X92316000Y-119122000D01*
X92316000Y-120507000D01*
X93130130Y-120507000D01*
X93166123Y-120504167D01*
X93166129Y-120504166D01*
X93320188Y-120459407D01*
X93320191Y-120459406D01*
X93458285Y-120377738D01*
X93458294Y-120377731D01*
X93571731Y-120264294D01*
X93571738Y-120264285D01*
X93653406Y-120126191D01*
X93653407Y-120126188D01*
X93698166Y-119972129D01*
X93698167Y-119972123D01*
X93701000Y-119936130D01*
X93701000Y-119919870D01*
X94765500Y-119919870D01*
X94765501Y-119919876D01*
X94771908Y-119979483D01*
X94822202Y-120114328D01*
X94822206Y-120114335D01*
X94908452Y-120229544D01*
X94908455Y-120229547D01*
X95023664Y-120315793D01*
X95023671Y-120315797D01*
X95158517Y-120366091D01*
X95158516Y-120366091D01*
X95165444Y-120366835D01*
X95218127Y-120372500D01*
X97313872Y-120372499D01*
X97373483Y-120366091D01*
X97508331Y-120315796D01*
X97623546Y-120229546D01*
X97709796Y-120114331D01*
X97760091Y-119979483D01*
X97766500Y-119919873D01*
X97766499Y-117824128D01*
X97760091Y-117764517D01*
X97709796Y-117629669D01*
X97709795Y-117629668D01*
X97709793Y-117629664D01*
X97623547Y-117514455D01*
X97623544Y-117514452D01*
X97508334Y-117428205D01*
X97482164Y-117418444D01*
X97426231Y-117376571D01*
X97401816Y-117311106D01*
X97401500Y-117302263D01*
X97401500Y-115439000D01*
X101562000Y-115439000D01*
X101562000Y-116503130D01*
X101564832Y-116539123D01*
X101564833Y-116539129D01*
X101609592Y-116693188D01*
X101609593Y-116693191D01*
X101691261Y-116831285D01*
X101691268Y-116831294D01*
X101804705Y-116944731D01*
X101804714Y-116944738D01*
X101942808Y-117026406D01*
X101942811Y-117026407D01*
X102096870Y-117071166D01*
X102096876Y-117071167D01*
X102132870Y-117074000D01*
X102747000Y-117074000D01*
X102747000Y-115439000D01*
X103247000Y-115439000D01*
X103247000Y-117074000D01*
X103861130Y-117074000D01*
X103897123Y-117071167D01*
X103897129Y-117071166D01*
X104051188Y-117026407D01*
X104051191Y-117026406D01*
X104189285Y-116944738D01*
X104189294Y-116944731D01*
X104302731Y-116831294D01*
X104302738Y-116831285D01*
X104384406Y-116693191D01*
X104384407Y-116693188D01*
X104429166Y-116539129D01*
X104429167Y-116539123D01*
X104432000Y-116503130D01*
X104432000Y-115439000D01*
X103247000Y-115439000D01*
X102747000Y-115439000D01*
X101562000Y-115439000D01*
X97401500Y-115439000D01*
X97401500Y-112638500D01*
X97421185Y-112571461D01*
X97473989Y-112525706D01*
X97525500Y-112514500D01*
X101572501Y-112514500D01*
X101639540Y-112534185D01*
X101685295Y-112586989D01*
X101696501Y-112638500D01*
X101696501Y-112986876D01*
X101702908Y-113046483D01*
X101753202Y-113181328D01*
X101753204Y-113181331D01*
X101814716Y-113263501D01*
X101818719Y-113268847D01*
X101843137Y-113334312D01*
X101828286Y-113402585D01*
X101807134Y-113430840D01*
X101691268Y-113546705D01*
X101691261Y-113546714D01*
X101609593Y-113684808D01*
X101609592Y-113684811D01*
X101564833Y-113838870D01*
X101564832Y-113838876D01*
X101562000Y-113874870D01*
X101562000Y-114939000D01*
X104432000Y-114939000D01*
X104432000Y-113874870D01*
X104429167Y-113838876D01*
X104429166Y-113838870D01*
X104384407Y-113684811D01*
X104384406Y-113684808D01*
X104302738Y-113546714D01*
X104302731Y-113546705D01*
X104186866Y-113430840D01*
X104153381Y-113369517D01*
X104158365Y-113299825D01*
X104175281Y-113268847D01*
X104240796Y-113181331D01*
X104291091Y-113046483D01*
X104297500Y-112986873D01*
X104297500Y-112638500D01*
X104317185Y-112571461D01*
X104369989Y-112525706D01*
X104421500Y-112514500D01*
X107178614Y-112514500D01*
X107245653Y-112534185D01*
X107291408Y-112586989D01*
X107294796Y-112595167D01*
X107323202Y-112671328D01*
X107323206Y-112671335D01*
X107409452Y-112786544D01*
X107409455Y-112786547D01*
X107524664Y-112872793D01*
X107524671Y-112872797D01*
X107659517Y-112923091D01*
X107659516Y-112923091D01*
X107666444Y-112923835D01*
X107719127Y-112929500D01*
X109614872Y-112929499D01*
X109674483Y-112923091D01*
X109809331Y-112872796D01*
X109924546Y-112786546D01*
X110010796Y-112671331D01*
X110061091Y-112536483D01*
X110067500Y-112476873D01*
X110067499Y-110281128D01*
X110061091Y-110221517D01*
X110052851Y-110199425D01*
X110010797Y-110086671D01*
X110010793Y-110086664D01*
X109924547Y-109971455D01*
X109924544Y-109971452D01*
X109809335Y-109885206D01*
X109809328Y-109885202D01*
X109674482Y-109834908D01*
X109674483Y-109834908D01*
X109614883Y-109828501D01*
X109614881Y-109828500D01*
X109614873Y-109828500D01*
X109614864Y-109828500D01*
X107719129Y-109828500D01*
X107719123Y-109828501D01*
X107659516Y-109834908D01*
X107524671Y-109885202D01*
X107524664Y-109885206D01*
X107409455Y-109971452D01*
X107409452Y-109971455D01*
X107323206Y-110086664D01*
X107323201Y-110086673D01*
X107294797Y-110162832D01*
X107252927Y-110218766D01*
X107187463Y-110243184D01*
X107178615Y-110243500D01*
X104337923Y-110243500D01*
X104270884Y-110223815D01*
X104238656Y-110193811D01*
X104154546Y-110081454D01*
X104131709Y-110064358D01*
X104039335Y-109995206D01*
X104039328Y-109995202D01*
X103904482Y-109944908D01*
X103904483Y-109944908D01*
X103844883Y-109938501D01*
X103844881Y-109938500D01*
X103844873Y-109938500D01*
X103844864Y-109938500D01*
X102149129Y-109938500D01*
X102149123Y-109938501D01*
X102089516Y-109944908D01*
X101954671Y-109995202D01*
X101954664Y-109995206D01*
X101839456Y-110081452D01*
X101839455Y-110081453D01*
X101839454Y-110081454D01*
X101755344Y-110193811D01*
X101699410Y-110235682D01*
X101656077Y-110243500D01*
X97198339Y-110243500D01*
X97145934Y-110231882D01*
X97123704Y-110221516D01*
X97076330Y-110199425D01*
X97076326Y-110199424D01*
X97076322Y-110199422D01*
X96864977Y-110142793D01*
X96647002Y-110123723D01*
X96646998Y-110123723D01*
X96519151Y-110134908D01*
X96429023Y-110142793D01*
X96429020Y-110142793D01*
X96217677Y-110199422D01*
X96217668Y-110199426D01*
X96019361Y-110291898D01*
X96019357Y-110291900D01*
X95840121Y-110417402D01*
X95685402Y-110572121D01*
X95559900Y-110751357D01*
X95559898Y-110751362D01*
X95473988Y-110935594D01*
X95449291Y-110970867D01*
X95424836Y-110995323D01*
X95417615Y-111004067D01*
X95414681Y-111007372D01*
X95369378Y-111054886D01*
X95369376Y-111054889D01*
X95349326Y-111086085D01*
X95344977Y-111092041D01*
X95321358Y-111120648D01*
X95289888Y-111178280D01*
X95287630Y-111182086D01*
X95252137Y-111237316D01*
X95238354Y-111271742D01*
X95235211Y-111278414D01*
X95217432Y-111310976D01*
X95217432Y-111310977D01*
X95197435Y-111373527D01*
X95195939Y-111377690D01*
X95171541Y-111438634D01*
X95171539Y-111438641D01*
X95164519Y-111475057D01*
X95162695Y-111482203D01*
X95151402Y-111517535D01*
X95143607Y-111582729D01*
X95142925Y-111587102D01*
X95130500Y-111651571D01*
X95130500Y-111688662D01*
X95130061Y-111696029D01*
X95125658Y-111732851D01*
X95125658Y-111732856D01*
X95130342Y-111798344D01*
X95130500Y-111802769D01*
X95130500Y-117302263D01*
X95110815Y-117369302D01*
X95058011Y-117415057D01*
X95049836Y-117418444D01*
X95023665Y-117428205D01*
X94908455Y-117514452D01*
X94908452Y-117514455D01*
X94822206Y-117629664D01*
X94822202Y-117629671D01*
X94771908Y-117764517D01*
X94765501Y-117824116D01*
X94765501Y-117824123D01*
X94765500Y-117824135D01*
X94765500Y-119919870D01*
X93701000Y-119919870D01*
X93701000Y-119122000D01*
X92316000Y-119122000D01*
X91816000Y-119122000D01*
X90431000Y-119122000D01*
X69732540Y-119122000D01*
X69733983Y-118622000D01*
X90431000Y-118622000D01*
X91816000Y-118622000D01*
X91816000Y-117237000D01*
X92316000Y-117237000D01*
X92316000Y-118622000D01*
X93701000Y-118622000D01*
X93701000Y-117807870D01*
X93698167Y-117771876D01*
X93698166Y-117771870D01*
X93653407Y-117617811D01*
X93653406Y-117617808D01*
X93571738Y-117479714D01*
X93571731Y-117479705D01*
X93458294Y-117366268D01*
X93458285Y-117366261D01*
X93320191Y-117284593D01*
X93320188Y-117284592D01*
X93166129Y-117239833D01*
X93166123Y-117239832D01*
X93130130Y-117237000D01*
X92316000Y-117237000D01*
X91816000Y-117237000D01*
X91001870Y-117237000D01*
X90965876Y-117239832D01*
X90965870Y-117239833D01*
X90811811Y-117284592D01*
X90811808Y-117284593D01*
X90673714Y-117366261D01*
X90673705Y-117366268D01*
X90560268Y-117479705D01*
X90560261Y-117479714D01*
X90478593Y-117617808D01*
X90478592Y-117617811D01*
X90433833Y-117771870D01*
X90433832Y-117771876D01*
X90431000Y-117807870D01*
X90431000Y-118622000D01*
X69733983Y-118622000D01*
X69740939Y-116211870D01*
X73581500Y-116211870D01*
X73581501Y-116211876D01*
X73587908Y-116271483D01*
X73638202Y-116406328D01*
X73638206Y-116406335D01*
X73724452Y-116521544D01*
X73724455Y-116521547D01*
X73839664Y-116607793D01*
X73839671Y-116607797D01*
X73974517Y-116658091D01*
X73974516Y-116658091D01*
X73981444Y-116658835D01*
X74034127Y-116664500D01*
X76079872Y-116664499D01*
X76139483Y-116658091D01*
X76274331Y-116607796D01*
X76389546Y-116521546D01*
X76475796Y-116406331D01*
X76526091Y-116271483D01*
X76532500Y-116211873D01*
X76532499Y-115189000D01*
X81062022Y-115189000D01*
X81081905Y-115441641D01*
X81141064Y-115688056D01*
X81238043Y-115922185D01*
X81370449Y-116138251D01*
X81370456Y-116138261D01*
X81372172Y-116140271D01*
X81372174Y-116140272D01*
X82074452Y-115437993D01*
X82084188Y-115467956D01*
X82172186Y-115606619D01*
X82291903Y-115719040D01*
X82426510Y-115793041D01*
X81725726Y-116493825D01*
X81727738Y-116495543D01*
X81727746Y-116495549D01*
X81943814Y-116627956D01*
X82177943Y-116724935D01*
X82424358Y-116784094D01*
X82677000Y-116803977D01*
X82929641Y-116784094D01*
X83176056Y-116724935D01*
X83410185Y-116627956D01*
X83626259Y-116495545D01*
X83628271Y-116493826D01*
X83628271Y-116493825D01*
X82924534Y-115790086D01*
X82992629Y-115763126D01*
X83125492Y-115666595D01*
X83230175Y-115540055D01*
X83278632Y-115437078D01*
X83981825Y-116140271D01*
X83981826Y-116140271D01*
X83983545Y-116138259D01*
X84115956Y-115922185D01*
X84212935Y-115688056D01*
X84272094Y-115441641D01*
X84291977Y-115189000D01*
X84272094Y-114936358D01*
X84212935Y-114689943D01*
X84115956Y-114455814D01*
X83983549Y-114239746D01*
X83983543Y-114239738D01*
X83981825Y-114237726D01*
X83279546Y-114940004D01*
X83269812Y-114910044D01*
X83181814Y-114771381D01*
X83062097Y-114658960D01*
X82927488Y-114584957D01*
X83628272Y-113884174D01*
X83628271Y-113884172D01*
X83626261Y-113882456D01*
X83626251Y-113882449D01*
X83410185Y-113750043D01*
X83176056Y-113653064D01*
X82929641Y-113593905D01*
X82677000Y-113574022D01*
X82424358Y-113593905D01*
X82177943Y-113653064D01*
X81943814Y-113750043D01*
X81727743Y-113882452D01*
X81727741Y-113882453D01*
X81725727Y-113884172D01*
X81725727Y-113884173D01*
X82429466Y-114587912D01*
X82361371Y-114614874D01*
X82228508Y-114711405D01*
X82123825Y-114837945D01*
X82075367Y-114940921D01*
X81372173Y-114237727D01*
X81372172Y-114237727D01*
X81370453Y-114239741D01*
X81370452Y-114239743D01*
X81238043Y-114455814D01*
X81141064Y-114689943D01*
X81081905Y-114936358D01*
X81062022Y-115189000D01*
X76532499Y-115189000D01*
X76532499Y-114166128D01*
X76526091Y-114106517D01*
X76475796Y-113971669D01*
X76475795Y-113971668D01*
X76475793Y-113971664D01*
X76384232Y-113849355D01*
X76385768Y-113848205D01*
X76357661Y-113796731D01*
X76362645Y-113727039D01*
X76391146Y-113682692D01*
X76620070Y-113453769D01*
X77221585Y-112852253D01*
X77523021Y-112550819D01*
X77584344Y-112517334D01*
X77610702Y-112514500D01*
X90455524Y-112514500D01*
X90522563Y-112534185D01*
X90529835Y-112539234D01*
X90574664Y-112572793D01*
X90574671Y-112572797D01*
X90709517Y-112623091D01*
X90709516Y-112623091D01*
X90716444Y-112623835D01*
X90769127Y-112629500D01*
X92364872Y-112629499D01*
X92424483Y-112623091D01*
X92559331Y-112572796D01*
X92674546Y-112486546D01*
X92760796Y-112371331D01*
X92811091Y-112236483D01*
X92817500Y-112176873D01*
X92817499Y-110581128D01*
X92811091Y-110521517D01*
X92773008Y-110419412D01*
X92760797Y-110386671D01*
X92760793Y-110386664D01*
X92674547Y-110271455D01*
X92674544Y-110271452D01*
X92559335Y-110185206D01*
X92559328Y-110185202D01*
X92424482Y-110134908D01*
X92424483Y-110134908D01*
X92364883Y-110128501D01*
X92364881Y-110128500D01*
X92364873Y-110128500D01*
X92364864Y-110128500D01*
X90769129Y-110128500D01*
X90769123Y-110128501D01*
X90709516Y-110134908D01*
X90574671Y-110185202D01*
X90574664Y-110185206D01*
X90529835Y-110218766D01*
X90464371Y-110243184D01*
X90455524Y-110243500D01*
X77194162Y-110243500D01*
X77173597Y-110241783D01*
X77170376Y-110241241D01*
X77170374Y-110241241D01*
X77107112Y-110242747D01*
X77075481Y-110243500D01*
X77034909Y-110243500D01*
X77023630Y-110244576D01*
X77019225Y-110244838D01*
X76953579Y-110246402D01*
X76917338Y-110254285D01*
X76910055Y-110255420D01*
X76901679Y-110256220D01*
X76873134Y-110258946D01*
X76873125Y-110258948D01*
X76810119Y-110277447D01*
X76805833Y-110278541D01*
X76741686Y-110292497D01*
X76741673Y-110292501D01*
X76707594Y-110307094D01*
X76700652Y-110309590D01*
X76665063Y-110320040D01*
X76606688Y-110350133D01*
X76602684Y-110352020D01*
X76542337Y-110377863D01*
X76534041Y-110383477D01*
X76511621Y-110398651D01*
X76505276Y-110402415D01*
X76472312Y-110419410D01*
X76420695Y-110460001D01*
X76417121Y-110462611D01*
X76362759Y-110499403D01*
X76362750Y-110499410D01*
X76336518Y-110525641D01*
X76331001Y-110530537D01*
X76301853Y-110553459D01*
X76258846Y-110603091D01*
X76255830Y-110606330D01*
X74328437Y-112533721D01*
X74312695Y-112547039D01*
X74310025Y-112548940D01*
X74310024Y-112548941D01*
X74288552Y-112571461D01*
X74244538Y-112617621D01*
X74234971Y-112627187D01*
X74215842Y-112646316D01*
X74215838Y-112646321D01*
X74208615Y-112655067D01*
X74205681Y-112658372D01*
X74160378Y-112705886D01*
X74160376Y-112705889D01*
X74140326Y-112737085D01*
X74135977Y-112743041D01*
X74112358Y-112771648D01*
X74080888Y-112829280D01*
X74078630Y-112833086D01*
X74043137Y-112888316D01*
X74029354Y-112922742D01*
X74026211Y-112929414D01*
X74008432Y-112961976D01*
X74008432Y-112961977D01*
X73988435Y-113024527D01*
X73986939Y-113028690D01*
X73962541Y-113089634D01*
X73962539Y-113089641D01*
X73955519Y-113126057D01*
X73953695Y-113133203D01*
X73942402Y-113168535D01*
X73934607Y-113233729D01*
X73933925Y-113238102D01*
X73921500Y-113302571D01*
X73921500Y-113339662D01*
X73921061Y-113347029D01*
X73916785Y-113382796D01*
X73916658Y-113383855D01*
X73920179Y-113433091D01*
X73921342Y-113449344D01*
X73921500Y-113453769D01*
X73921500Y-113653587D01*
X73901815Y-113720626D01*
X73849011Y-113766381D01*
X73840838Y-113769767D01*
X73839674Y-113770200D01*
X73839664Y-113770206D01*
X73724455Y-113856452D01*
X73724452Y-113856455D01*
X73638206Y-113971664D01*
X73638202Y-113971671D01*
X73587908Y-114106517D01*
X73581501Y-114166116D01*
X73581501Y-114166123D01*
X73581500Y-114166135D01*
X73581500Y-116211870D01*
X69740939Y-116211870D01*
X69816096Y-90170002D01*
X71134723Y-90170002D01*
X71153793Y-90387975D01*
X71153793Y-90387979D01*
X71210422Y-90599322D01*
X71210424Y-90599326D01*
X71210425Y-90599330D01*
X71256661Y-90698484D01*
X71302897Y-90797638D01*
X71302898Y-90797639D01*
X71428402Y-90976877D01*
X71583123Y-91131598D01*
X71762361Y-91257102D01*
X71960670Y-91349575D01*
X72172023Y-91406207D01*
X72354926Y-91422208D01*
X72389998Y-91425277D01*
X72390000Y-91425277D01*
X72390002Y-91425277D01*
X72418254Y-91422805D01*
X72607977Y-91406207D01*
X72819330Y-91349575D01*
X73017639Y-91257102D01*
X73196877Y-91131598D01*
X73351598Y-90976877D01*
X73477102Y-90797639D01*
X73569575Y-90599330D01*
X73626207Y-90387977D01*
X73644004Y-90184547D01*
X73645277Y-90170002D01*
X77634723Y-90170002D01*
X77653793Y-90387975D01*
X77653793Y-90387979D01*
X77710422Y-90599322D01*
X77710424Y-90599326D01*
X77710425Y-90599330D01*
X77756661Y-90698484D01*
X77802897Y-90797638D01*
X77802898Y-90797639D01*
X77928402Y-90976877D01*
X78083123Y-91131598D01*
X78262361Y-91257102D01*
X78460670Y-91349575D01*
X78672023Y-91406207D01*
X78854926Y-91422208D01*
X78889998Y-91425277D01*
X78890000Y-91425277D01*
X78890002Y-91425277D01*
X78918254Y-91422805D01*
X79107977Y-91406207D01*
X79319330Y-91349575D01*
X79517639Y-91257102D01*
X79696877Y-91131598D01*
X79851598Y-90976877D01*
X79977102Y-90797639D01*
X80069575Y-90599330D01*
X80126207Y-90387977D01*
X80144004Y-90184547D01*
X80145277Y-90170002D01*
X80145277Y-90169997D01*
X80139491Y-90103860D01*
X80126207Y-89952023D01*
X80080515Y-89781500D01*
X80069577Y-89740677D01*
X80069576Y-89740676D01*
X80069575Y-89740670D01*
X79977102Y-89542362D01*
X79977100Y-89542359D01*
X79977099Y-89542357D01*
X79851599Y-89363124D01*
X79784999Y-89296524D01*
X79696877Y-89208402D01*
X79517639Y-89082898D01*
X79517640Y-89082898D01*
X79517638Y-89082897D01*
X79397761Y-89026998D01*
X79319330Y-88990425D01*
X79319326Y-88990424D01*
X79319322Y-88990422D01*
X79107977Y-88933793D01*
X78890002Y-88914723D01*
X78889998Y-88914723D01*
X78744682Y-88927436D01*
X78672023Y-88933793D01*
X78672020Y-88933793D01*
X78460677Y-88990422D01*
X78460668Y-88990426D01*
X78262361Y-89082898D01*
X78262357Y-89082900D01*
X78083121Y-89208402D01*
X77928402Y-89363121D01*
X77802900Y-89542357D01*
X77802898Y-89542361D01*
X77710426Y-89740668D01*
X77710422Y-89740677D01*
X77653793Y-89952020D01*
X77653793Y-89952024D01*
X77634723Y-90169997D01*
X77634723Y-90170002D01*
X73645277Y-90170002D01*
X73645277Y-90169997D01*
X73639491Y-90103860D01*
X73626207Y-89952023D01*
X73580515Y-89781500D01*
X73569577Y-89740677D01*
X73569576Y-89740676D01*
X73569575Y-89740670D01*
X73477102Y-89542362D01*
X73477100Y-89542359D01*
X73477099Y-89542357D01*
X73351599Y-89363124D01*
X73284999Y-89296524D01*
X73196877Y-89208402D01*
X73017639Y-89082898D01*
X73017640Y-89082898D01*
X73017638Y-89082897D01*
X72897761Y-89026998D01*
X72819330Y-88990425D01*
X72819326Y-88990424D01*
X72819322Y-88990422D01*
X72607977Y-88933793D01*
X72390002Y-88914723D01*
X72389998Y-88914723D01*
X72244682Y-88927436D01*
X72172023Y-88933793D01*
X72172020Y-88933793D01*
X71960677Y-88990422D01*
X71960668Y-88990426D01*
X71762361Y-89082898D01*
X71762357Y-89082900D01*
X71583121Y-89208402D01*
X71428402Y-89363121D01*
X71302900Y-89542357D01*
X71302898Y-89542361D01*
X71210426Y-89740668D01*
X71210422Y-89740677D01*
X71153793Y-89952020D01*
X71153793Y-89952024D01*
X71134723Y-90169997D01*
X71134723Y-90170002D01*
X69816096Y-90170002D01*
X69826733Y-86484130D01*
X71005000Y-86484130D01*
X71007832Y-86520123D01*
X71007833Y-86520129D01*
X71052592Y-86674188D01*
X71052593Y-86674191D01*
X71134261Y-86812285D01*
X71134268Y-86812294D01*
X71247705Y-86925731D01*
X71247714Y-86925738D01*
X71385808Y-87007406D01*
X71385811Y-87007407D01*
X71539870Y-87052166D01*
X71539876Y-87052167D01*
X71575870Y-87055000D01*
X72140000Y-87055000D01*
X72140000Y-86105501D01*
X72247685Y-86154680D01*
X72354237Y-86170000D01*
X72425763Y-86170000D01*
X72532315Y-86154680D01*
X72640000Y-86105501D01*
X72640000Y-87055000D01*
X73204130Y-87055000D01*
X73240123Y-87052167D01*
X73240129Y-87052166D01*
X73394188Y-87007407D01*
X73394191Y-87007406D01*
X73532285Y-86925738D01*
X73532294Y-86925731D01*
X73645731Y-86812294D01*
X73645738Y-86812285D01*
X73727406Y-86674191D01*
X73727407Y-86674188D01*
X73772166Y-86520129D01*
X73772167Y-86520123D01*
X73775000Y-86484130D01*
X73775000Y-85920000D01*
X72823686Y-85920000D01*
X72849493Y-85879844D01*
X72890000Y-85741889D01*
X72890000Y-85670006D01*
X77500253Y-85670006D01*
X77519206Y-85898741D01*
X77575552Y-86121250D01*
X77667753Y-86331445D01*
X77749648Y-86456795D01*
X78406922Y-85799522D01*
X78430507Y-85879844D01*
X78508239Y-86000798D01*
X78616900Y-86094952D01*
X78747685Y-86154680D01*
X78757466Y-86156086D01*
X78101889Y-86811663D01*
X78101889Y-86811665D01*
X78129871Y-86833444D01*
X78129882Y-86833451D01*
X78331738Y-86942689D01*
X78331752Y-86942695D01*
X78548834Y-87017220D01*
X78775236Y-87055000D01*
X79004764Y-87055000D01*
X79231165Y-87017220D01*
X79448247Y-86942695D01*
X79448261Y-86942689D01*
X79650116Y-86833451D01*
X79650121Y-86833448D01*
X79678109Y-86811664D01*
X79678110Y-86811663D01*
X79022534Y-86156086D01*
X79032315Y-86154680D01*
X79163100Y-86094952D01*
X79271761Y-86000798D01*
X79349493Y-85879844D01*
X79373076Y-85799523D01*
X80030349Y-86456796D01*
X80112245Y-86331447D01*
X80204447Y-86121250D01*
X80260793Y-85898741D01*
X80279747Y-85670006D01*
X80279747Y-85669993D01*
X80260793Y-85441258D01*
X80219958Y-85280000D01*
X82185000Y-85280000D01*
X83570000Y-85280000D01*
X83570000Y-83895000D01*
X84070000Y-83895000D01*
X84070000Y-85280000D01*
X85455000Y-85280000D01*
X85455000Y-84465870D01*
X85452167Y-84429876D01*
X85452166Y-84429870D01*
X85407407Y-84275811D01*
X85407406Y-84275808D01*
X85325738Y-84137714D01*
X85325731Y-84137705D01*
X85212294Y-84024268D01*
X85212285Y-84024261D01*
X85074191Y-83942593D01*
X85074188Y-83942592D01*
X84920129Y-83897833D01*
X84920123Y-83897832D01*
X84884130Y-83895000D01*
X84070000Y-83895000D01*
X83570000Y-83895000D01*
X82755870Y-83895000D01*
X82719876Y-83897832D01*
X82719870Y-83897833D01*
X82565811Y-83942592D01*
X82565808Y-83942593D01*
X82427714Y-84024261D01*
X82427705Y-84024268D01*
X82314268Y-84137705D01*
X82314261Y-84137714D01*
X82232593Y-84275808D01*
X82232592Y-84275811D01*
X82187833Y-84429870D01*
X82187832Y-84429876D01*
X82185000Y-84465870D01*
X82185000Y-85280000D01*
X80219958Y-85280000D01*
X80204447Y-85218749D01*
X80112247Y-85008557D01*
X80030349Y-84883202D01*
X79373076Y-85540475D01*
X79349493Y-85460156D01*
X79271761Y-85339202D01*
X79163100Y-85245048D01*
X79032315Y-85185320D01*
X79022533Y-85183913D01*
X79678110Y-84528336D01*
X79678110Y-84528335D01*
X79650119Y-84506550D01*
X79650116Y-84506548D01*
X79448261Y-84397310D01*
X79448247Y-84397304D01*
X79231165Y-84322779D01*
X79004764Y-84285000D01*
X78775236Y-84285000D01*
X78548834Y-84322779D01*
X78331752Y-84397304D01*
X78331738Y-84397310D01*
X78129877Y-84506551D01*
X78101889Y-84528334D01*
X78101889Y-84528336D01*
X78757467Y-85183913D01*
X78747685Y-85185320D01*
X78616900Y-85245048D01*
X78508239Y-85339202D01*
X78430507Y-85460156D01*
X78406922Y-85540476D01*
X77749648Y-84883202D01*
X77667753Y-85008554D01*
X77575552Y-85218749D01*
X77519206Y-85441258D01*
X77500253Y-85669993D01*
X77500253Y-85670006D01*
X72890000Y-85670006D01*
X72890000Y-85598111D01*
X72849493Y-85460156D01*
X72823686Y-85420000D01*
X73775000Y-85420000D01*
X73775000Y-84855870D01*
X73772167Y-84819876D01*
X73772166Y-84819870D01*
X73727407Y-84665811D01*
X73727406Y-84665808D01*
X73645738Y-84527714D01*
X73645731Y-84527705D01*
X73532294Y-84414268D01*
X73532285Y-84414261D01*
X73394191Y-84332593D01*
X73394188Y-84332592D01*
X73240129Y-84287833D01*
X73240123Y-84287832D01*
X73204130Y-84285000D01*
X72640000Y-84285000D01*
X72640000Y-85234498D01*
X72532315Y-85185320D01*
X72425763Y-85170000D01*
X72354237Y-85170000D01*
X72247685Y-85185320D01*
X72140000Y-85234498D01*
X72140000Y-84285000D01*
X71575870Y-84285000D01*
X71539876Y-84287832D01*
X71539870Y-84287833D01*
X71385811Y-84332592D01*
X71385808Y-84332593D01*
X71247714Y-84414261D01*
X71247705Y-84414268D01*
X71134268Y-84527705D01*
X71134261Y-84527714D01*
X71052593Y-84665808D01*
X71052592Y-84665811D01*
X71007833Y-84819870D01*
X71007832Y-84819876D01*
X71005000Y-84855870D01*
X71005000Y-85420000D01*
X71956314Y-85420000D01*
X71930507Y-85460156D01*
X71890000Y-85598111D01*
X71890000Y-85741889D01*
X71930507Y-85879844D01*
X71956314Y-85920000D01*
X71005000Y-85920000D01*
X71005000Y-86484130D01*
X69826733Y-86484130D01*
X69842485Y-81026002D01*
X71111723Y-81026002D01*
X71130793Y-81243975D01*
X71130793Y-81243979D01*
X71187422Y-81455322D01*
X71187424Y-81455326D01*
X71187425Y-81455330D01*
X71211597Y-81507166D01*
X71279897Y-81653638D01*
X71279898Y-81653639D01*
X71405402Y-81832877D01*
X71560123Y-81987598D01*
X71739361Y-82113102D01*
X71937670Y-82205575D01*
X72149023Y-82262207D01*
X72331926Y-82278208D01*
X72366998Y-82281277D01*
X72367000Y-82281277D01*
X72367002Y-82281277D01*
X72395254Y-82278805D01*
X72584977Y-82262207D01*
X72796330Y-82205575D01*
X72994639Y-82113102D01*
X73173877Y-81987598D01*
X73328598Y-81832877D01*
X73454102Y-81653639D01*
X73546575Y-81455330D01*
X73603207Y-81243977D01*
X73622277Y-81026002D01*
X77611723Y-81026002D01*
X77630793Y-81243975D01*
X77630793Y-81243979D01*
X77687422Y-81455322D01*
X77687424Y-81455326D01*
X77687425Y-81455330D01*
X77711597Y-81507166D01*
X77779897Y-81653638D01*
X77779898Y-81653639D01*
X77905402Y-81832877D01*
X78060123Y-81987598D01*
X78239361Y-82113102D01*
X78437670Y-82205575D01*
X78649023Y-82262207D01*
X78831926Y-82278208D01*
X78866998Y-82281277D01*
X78867000Y-82281277D01*
X78867002Y-82281277D01*
X78895254Y-82278805D01*
X79084977Y-82262207D01*
X79296330Y-82205575D01*
X79494639Y-82113102D01*
X79673877Y-81987598D01*
X79828598Y-81832877D01*
X79954102Y-81653639D01*
X80046575Y-81455330D01*
X80103207Y-81243977D01*
X80116678Y-81090000D01*
X82185000Y-81090000D01*
X82185000Y-81904130D01*
X82187832Y-81940123D01*
X82187833Y-81940129D01*
X82232592Y-82094188D01*
X82232593Y-82094191D01*
X82314261Y-82232285D01*
X82314268Y-82232294D01*
X82427705Y-82345731D01*
X82427714Y-82345738D01*
X82565808Y-82427406D01*
X82565811Y-82427407D01*
X82719870Y-82472166D01*
X82719876Y-82472167D01*
X82755870Y-82475000D01*
X83570000Y-82475000D01*
X83570000Y-81090000D01*
X84070000Y-81090000D01*
X84070000Y-82475000D01*
X84884130Y-82475000D01*
X84920123Y-82472167D01*
X84920129Y-82472166D01*
X85074188Y-82427407D01*
X85074191Y-82427406D01*
X85212285Y-82345738D01*
X85212294Y-82345731D01*
X85325731Y-82232294D01*
X85325738Y-82232285D01*
X85407406Y-82094191D01*
X85407407Y-82094188D01*
X85452166Y-81940129D01*
X85452167Y-81940123D01*
X85455000Y-81904130D01*
X85455000Y-81090000D01*
X84070000Y-81090000D01*
X83570000Y-81090000D01*
X82185000Y-81090000D01*
X80116678Y-81090000D01*
X80122277Y-81026000D01*
X80103207Y-80808023D01*
X80055506Y-80630000D01*
X86260000Y-80630000D01*
X86260000Y-80939130D01*
X86262832Y-80975123D01*
X86262833Y-80975129D01*
X86307592Y-81129188D01*
X86307593Y-81129191D01*
X86389261Y-81267285D01*
X86389268Y-81267294D01*
X86502705Y-81380731D01*
X86502714Y-81380738D01*
X86640808Y-81462406D01*
X86640811Y-81462407D01*
X86794870Y-81507166D01*
X86794876Y-81507167D01*
X86830870Y-81510000D01*
X87380000Y-81510000D01*
X87380000Y-80630000D01*
X86260000Y-80630000D01*
X80055506Y-80630000D01*
X80046575Y-80596670D01*
X80043465Y-80590000D01*
X82185000Y-80590000D01*
X83570000Y-80590000D01*
X83570000Y-79205000D01*
X84070000Y-79205000D01*
X84070000Y-80590000D01*
X85455000Y-80590000D01*
X85455000Y-79775870D01*
X85452167Y-79739876D01*
X85452166Y-79739870D01*
X85407407Y-79585811D01*
X85407406Y-79585808D01*
X85325738Y-79447714D01*
X85325731Y-79447705D01*
X85212294Y-79334268D01*
X85212285Y-79334261D01*
X85074191Y-79252593D01*
X85074188Y-79252592D01*
X84920129Y-79207833D01*
X84920123Y-79207832D01*
X84884130Y-79205000D01*
X84070000Y-79205000D01*
X83570000Y-79205000D01*
X82755870Y-79205000D01*
X82719876Y-79207832D01*
X82719870Y-79207833D01*
X82565811Y-79252592D01*
X82565808Y-79252593D01*
X82427714Y-79334261D01*
X82427705Y-79334268D01*
X82314268Y-79447705D01*
X82314261Y-79447714D01*
X82232593Y-79585808D01*
X82232592Y-79585811D01*
X82187833Y-79739870D01*
X82187832Y-79739876D01*
X82185000Y-79775870D01*
X82185000Y-80590000D01*
X80043465Y-80590000D01*
X79954102Y-80398362D01*
X79954100Y-80398359D01*
X79954099Y-80398357D01*
X79828599Y-80219124D01*
X79759160Y-80149685D01*
X79673877Y-80064402D01*
X79494639Y-79938898D01*
X79494640Y-79938898D01*
X79494638Y-79938897D01*
X79323524Y-79859106D01*
X79296330Y-79846425D01*
X79296326Y-79846424D01*
X79296322Y-79846422D01*
X79084977Y-79789793D01*
X78867002Y-79770723D01*
X78866998Y-79770723D01*
X78721682Y-79783436D01*
X78649023Y-79789793D01*
X78649020Y-79789793D01*
X78437677Y-79846422D01*
X78437668Y-79846426D01*
X78239361Y-79938898D01*
X78239357Y-79938900D01*
X78060121Y-80064402D01*
X77905402Y-80219121D01*
X77779900Y-80398357D01*
X77779898Y-80398361D01*
X77775891Y-80406954D01*
X77695841Y-80578623D01*
X77687426Y-80596668D01*
X77687422Y-80596677D01*
X77630793Y-80808020D01*
X77630793Y-80808024D01*
X77611723Y-81025997D01*
X77611723Y-81026002D01*
X73622277Y-81026002D01*
X73622277Y-81026000D01*
X73603207Y-80808023D01*
X73546575Y-80596670D01*
X73454102Y-80398362D01*
X73454100Y-80398359D01*
X73454099Y-80398357D01*
X73328599Y-80219124D01*
X73259160Y-80149685D01*
X73173877Y-80064402D01*
X72994639Y-79938898D01*
X72994640Y-79938898D01*
X72994638Y-79938897D01*
X72823524Y-79859106D01*
X72796330Y-79846425D01*
X72796326Y-79846424D01*
X72796322Y-79846422D01*
X72584977Y-79789793D01*
X72367002Y-79770723D01*
X72366998Y-79770723D01*
X72221682Y-79783436D01*
X72149023Y-79789793D01*
X72149020Y-79789793D01*
X71937677Y-79846422D01*
X71937668Y-79846426D01*
X71739361Y-79938898D01*
X71739357Y-79938900D01*
X71560121Y-80064402D01*
X71405402Y-80219121D01*
X71279900Y-80398357D01*
X71279898Y-80398361D01*
X71275891Y-80406954D01*
X71195841Y-80578623D01*
X71187426Y-80596668D01*
X71187422Y-80596677D01*
X71130793Y-80808020D01*
X71130793Y-80808024D01*
X71111723Y-81025997D01*
X71111723Y-81026002D01*
X69842485Y-81026002D01*
X69853123Y-77340130D01*
X70982000Y-77340130D01*
X70984832Y-77376123D01*
X70984833Y-77376129D01*
X71029592Y-77530188D01*
X71029593Y-77530191D01*
X71111261Y-77668285D01*
X71111268Y-77668294D01*
X71224705Y-77781731D01*
X71224714Y-77781738D01*
X71362808Y-77863406D01*
X71362811Y-77863407D01*
X71516870Y-77908166D01*
X71516876Y-77908167D01*
X71552870Y-77911000D01*
X72117000Y-77911000D01*
X72117000Y-76961501D01*
X72224685Y-77010680D01*
X72331237Y-77026000D01*
X72402763Y-77026000D01*
X72509315Y-77010680D01*
X72617000Y-76961501D01*
X72617000Y-77911000D01*
X73181130Y-77911000D01*
X73217123Y-77908167D01*
X73217129Y-77908166D01*
X73371188Y-77863407D01*
X73371191Y-77863406D01*
X73509285Y-77781738D01*
X73509294Y-77781731D01*
X73622731Y-77668294D01*
X73622738Y-77668285D01*
X73704406Y-77530191D01*
X73704407Y-77530188D01*
X73749166Y-77376129D01*
X73749167Y-77376123D01*
X73752000Y-77340130D01*
X73752000Y-76776000D01*
X72800686Y-76776000D01*
X72826493Y-76735844D01*
X72867000Y-76597889D01*
X72867000Y-76454111D01*
X72826493Y-76316156D01*
X72800686Y-76276000D01*
X73752000Y-76276000D01*
X73752000Y-75711870D01*
X73749167Y-75675876D01*
X73749166Y-75675870D01*
X73704407Y-75521811D01*
X73704406Y-75521808D01*
X73622738Y-75383714D01*
X73622731Y-75383705D01*
X73509294Y-75270268D01*
X73509285Y-75270261D01*
X73371191Y-75188593D01*
X73371188Y-75188592D01*
X73217129Y-75143833D01*
X73217123Y-75143832D01*
X73181130Y-75141000D01*
X72617000Y-75141000D01*
X72617000Y-76090498D01*
X72509315Y-76041320D01*
X72402763Y-76026000D01*
X72331237Y-76026000D01*
X72224685Y-76041320D01*
X72117000Y-76090498D01*
X72117000Y-75141000D01*
X71552870Y-75141000D01*
X71516876Y-75143832D01*
X71516870Y-75143833D01*
X71362811Y-75188592D01*
X71362808Y-75188593D01*
X71224714Y-75270261D01*
X71224705Y-75270268D01*
X71111268Y-75383705D01*
X71111261Y-75383714D01*
X71029593Y-75521808D01*
X71029592Y-75521811D01*
X70984833Y-75675870D01*
X70984832Y-75675876D01*
X70982000Y-75711870D01*
X70982000Y-76276000D01*
X71933314Y-76276000D01*
X71907507Y-76316156D01*
X71867000Y-76454111D01*
X71867000Y-76597889D01*
X71907507Y-76735844D01*
X71933314Y-76776000D01*
X70982000Y-76776000D01*
X70982000Y-77340130D01*
X69853123Y-77340130D01*
X69876902Y-69100701D01*
X71235290Y-69100701D01*
X71255704Y-69386133D01*
X71316528Y-69665737D01*
X71416535Y-69933866D01*
X71553670Y-70185009D01*
X71553675Y-70185017D01*
X71725154Y-70414087D01*
X71725170Y-70414105D01*
X71927494Y-70616429D01*
X71927512Y-70616445D01*
X72156582Y-70787924D01*
X72156590Y-70787929D01*
X72407733Y-70925064D01*
X72407732Y-70925064D01*
X72407736Y-70925065D01*
X72407739Y-70925067D01*
X72675854Y-71025069D01*
X72675860Y-71025070D01*
X72675862Y-71025071D01*
X72955466Y-71085895D01*
X72955468Y-71085895D01*
X72955472Y-71085896D01*
X73209120Y-71104037D01*
X73240899Y-71106310D01*
X73240900Y-71106310D01*
X73240901Y-71106310D01*
X73269495Y-71104264D01*
X73526328Y-71085896D01*
X73805946Y-71025069D01*
X74074061Y-70925067D01*
X74325215Y-70787926D01*
X74554295Y-70616439D01*
X74756639Y-70414095D01*
X74928126Y-70185015D01*
X75065267Y-69933861D01*
X75165269Y-69665746D01*
X75226096Y-69386128D01*
X75246510Y-69100700D01*
X75226096Y-68815272D01*
X75165269Y-68535654D01*
X75065267Y-68267539D01*
X74928126Y-68016385D01*
X74928124Y-68016382D01*
X74756645Y-67787312D01*
X74756629Y-67787294D01*
X74554305Y-67584970D01*
X74554287Y-67584954D01*
X74325217Y-67413475D01*
X74325209Y-67413470D01*
X74074066Y-67276335D01*
X74074067Y-67276335D01*
X73966815Y-67236332D01*
X73805946Y-67176331D01*
X73805943Y-67176330D01*
X73805937Y-67176328D01*
X73526333Y-67115504D01*
X73240901Y-67095090D01*
X73240899Y-67095090D01*
X72955466Y-67115504D01*
X72675862Y-67176328D01*
X72407733Y-67276335D01*
X72156590Y-67413470D01*
X72156582Y-67413475D01*
X71927512Y-67584954D01*
X71927494Y-67584970D01*
X71725170Y-67787294D01*
X71725154Y-67787312D01*
X71553675Y-68016382D01*
X71553670Y-68016390D01*
X71416535Y-68267533D01*
X71316528Y-68535662D01*
X71255704Y-68815266D01*
X71235290Y-69100698D01*
X71235290Y-69100701D01*
X69876902Y-69100701D01*
X69966371Y-38100001D01*
X71235290Y-38100001D01*
X71255704Y-38385433D01*
X71316528Y-38665037D01*
X71316530Y-38665043D01*
X71316531Y-38665046D01*
X71416533Y-38933161D01*
X71416535Y-38933166D01*
X71553670Y-39184309D01*
X71553675Y-39184317D01*
X71725154Y-39413387D01*
X71725170Y-39413405D01*
X71927494Y-39615729D01*
X71927512Y-39615745D01*
X72156582Y-39787224D01*
X72156590Y-39787229D01*
X72407733Y-39924364D01*
X72407732Y-39924364D01*
X72407736Y-39924365D01*
X72407739Y-39924367D01*
X72675854Y-40024369D01*
X72675860Y-40024370D01*
X72675862Y-40024371D01*
X72955466Y-40085195D01*
X72955468Y-40085195D01*
X72955472Y-40085196D01*
X73209120Y-40103337D01*
X73240899Y-40105610D01*
X73240900Y-40105610D01*
X73240901Y-40105610D01*
X73269495Y-40103564D01*
X73526328Y-40085196D01*
X73805946Y-40024369D01*
X74074061Y-39924367D01*
X74325215Y-39787226D01*
X74554295Y-39615739D01*
X74756639Y-39413395D01*
X74928126Y-39184315D01*
X75065267Y-38933161D01*
X75165269Y-38665046D01*
X75226096Y-38385428D01*
X75246510Y-38100000D01*
X75226096Y-37814572D01*
X75187715Y-37638138D01*
X75165271Y-37534962D01*
X75165270Y-37534960D01*
X75165269Y-37534954D01*
X75065267Y-37266839D01*
X75046107Y-37231751D01*
X74928129Y-37015690D01*
X74928124Y-37015682D01*
X74756645Y-36786612D01*
X74756629Y-36786594D01*
X74554305Y-36584270D01*
X74554287Y-36584254D01*
X74325217Y-36412775D01*
X74325209Y-36412770D01*
X74074066Y-36275635D01*
X74074067Y-36275635D01*
X73927067Y-36220807D01*
X73805946Y-36175631D01*
X73805943Y-36175630D01*
X73805937Y-36175628D01*
X73526333Y-36114804D01*
X73240901Y-36094390D01*
X73240899Y-36094390D01*
X72955466Y-36114804D01*
X72675862Y-36175628D01*
X72407733Y-36275635D01*
X72156590Y-36412770D01*
X72156582Y-36412775D01*
X71927512Y-36584254D01*
X71927494Y-36584270D01*
X71725170Y-36786594D01*
X71725154Y-36786612D01*
X71553675Y-37015682D01*
X71553670Y-37015690D01*
X71416535Y-37266833D01*
X71316528Y-37534962D01*
X71255704Y-37814566D01*
X71235290Y-38099998D01*
X71235290Y-38100001D01*
X69966371Y-38100001D01*
X69976425Y-34616141D01*
X69996302Y-34549160D01*
X70049238Y-34503557D01*
X70100424Y-34492500D01*
X94476750Y-34492500D01*
X152200883Y-34670386D01*
G37*
%TD.AperFunction*%
%TA.AperFunction,Conductor*%
G36*
X96192359Y-81168955D02*
G01*
X96134835Y-81281852D01*
X96115014Y-81407000D01*
X96134835Y-81532148D01*
X96192359Y-81645045D01*
X96204314Y-81657000D01*
X94295686Y-81657000D01*
X94307641Y-81645045D01*
X94365165Y-81532148D01*
X94384986Y-81407000D01*
X94365165Y-81281852D01*
X94307641Y-81168955D01*
X94295686Y-81157000D01*
X96204314Y-81157000D01*
X96192359Y-81168955D01*
G37*
%TD.AperFunction*%
%TA.AperFunction,Conductor*%
G36*
X98732359Y-81168955D02*
G01*
X98674835Y-81281852D01*
X98655014Y-81407000D01*
X98674835Y-81532148D01*
X98732359Y-81645045D01*
X98744314Y-81657000D01*
X96835686Y-81657000D01*
X96847641Y-81645045D01*
X96905165Y-81532148D01*
X96924986Y-81407000D01*
X96905165Y-81281852D01*
X96847641Y-81168955D01*
X96835686Y-81157000D01*
X98744314Y-81157000D01*
X98732359Y-81168955D01*
G37*
%TD.AperFunction*%
%TA.AperFunction,Conductor*%
G36*
X101272359Y-81168955D02*
G01*
X101214835Y-81281852D01*
X101195014Y-81407000D01*
X101214835Y-81532148D01*
X101272359Y-81645045D01*
X101284314Y-81657000D01*
X99375686Y-81657000D01*
X99387641Y-81645045D01*
X99445165Y-81532148D01*
X99464986Y-81407000D01*
X99445165Y-81281852D01*
X99387641Y-81168955D01*
X99375686Y-81157000D01*
X101284314Y-81157000D01*
X101272359Y-81168955D01*
G37*
%TD.AperFunction*%
%TA.AperFunction,Conductor*%
G36*
X103812359Y-81168955D02*
G01*
X103754835Y-81281852D01*
X103735014Y-81407000D01*
X103754835Y-81532148D01*
X103812359Y-81645045D01*
X103824314Y-81657000D01*
X101915686Y-81657000D01*
X101927641Y-81645045D01*
X101985165Y-81532148D01*
X102004986Y-81407000D01*
X101985165Y-81281852D01*
X101927641Y-81168955D01*
X101915686Y-81157000D01*
X103824314Y-81157000D01*
X103812359Y-81168955D01*
G37*
%TD.AperFunction*%
%TA.AperFunction,Conductor*%
G36*
X106352359Y-81168955D02*
G01*
X106294835Y-81281852D01*
X106275014Y-81407000D01*
X106294835Y-81532148D01*
X106352359Y-81645045D01*
X106364314Y-81657000D01*
X104455686Y-81657000D01*
X104467641Y-81645045D01*
X104525165Y-81532148D01*
X104544986Y-81407000D01*
X104525165Y-81281852D01*
X104467641Y-81168955D01*
X104455686Y-81157000D01*
X106364314Y-81157000D01*
X106352359Y-81168955D01*
G37*
%TD.AperFunction*%
%TA.AperFunction,Conductor*%
G36*
X108892359Y-81168955D02*
G01*
X108834835Y-81281852D01*
X108815014Y-81407000D01*
X108834835Y-81532148D01*
X108892359Y-81645045D01*
X108904314Y-81657000D01*
X106995686Y-81657000D01*
X107007641Y-81645045D01*
X107065165Y-81532148D01*
X107084986Y-81407000D01*
X107065165Y-81281852D01*
X107007641Y-81168955D01*
X106995686Y-81157000D01*
X108904314Y-81157000D01*
X108892359Y-81168955D01*
G37*
%TD.AperFunction*%
%TA.AperFunction,Conductor*%
G36*
X137525884Y-78036915D02*
G01*
X137595442Y-78171156D01*
X137698638Y-78281652D01*
X137827819Y-78360209D01*
X137879002Y-78374549D01*
X137207446Y-79046105D01*
X137247721Y-79077453D01*
X137247724Y-79077455D01*
X137277820Y-79093742D01*
X137327411Y-79142961D01*
X137342519Y-79211178D01*
X137318349Y-79276734D01*
X137289927Y-79304371D01*
X137193738Y-79371723D01*
X137193729Y-79371731D01*
X137029731Y-79535729D01*
X137029726Y-79535735D01*
X136896701Y-79725714D01*
X136896698Y-79725720D01*
X136891381Y-79737123D01*
X136845207Y-79789562D01*
X136778013Y-79808712D01*
X136711133Y-79788495D01*
X136666619Y-79737123D01*
X136661301Y-79725720D01*
X136661298Y-79725714D01*
X136528273Y-79535735D01*
X136528268Y-79535729D01*
X136364269Y-79371730D01*
X136354433Y-79364843D01*
X136174282Y-79238699D01*
X136162878Y-79233381D01*
X136110440Y-79187210D01*
X136091288Y-79120016D01*
X136111504Y-79053135D01*
X136162878Y-79008618D01*
X136174282Y-79003301D01*
X136364269Y-78870270D01*
X136528270Y-78706269D01*
X136596711Y-78608524D01*
X136651288Y-78564900D01*
X136720786Y-78557706D01*
X136783141Y-78589229D01*
X136802094Y-78611826D01*
X136854463Y-78691982D01*
X137523070Y-78023375D01*
X137525884Y-78036915D01*
G37*
%TD.AperFunction*%
%TD*%
M02*
